<svg width="217" height="110" viewBox="0 0 217 110" fill="none" xmlns="http://www.w3.org/2000/svg">
<path d="M42.5511 109.301C68.8864 109.301 84.7898 89.2557 84.8409 54.7386C84.8921 20.4773 68.7841 0.840905 42.5511 0.840905C16.267 0.840905 0.3125 20.4261 0.261364 54.7386C0.159091 89.1534 16.1648 109.25 42.5511 109.301ZM42.5511 90.9432C30.5341 90.9432 22.7614 78.875 22.8125 54.7386C22.8636 30.9602 30.5852 18.9943 42.5511 18.9943C54.4659 18.9943 62.2386 30.9602 62.2386 54.7386C62.2898 78.875 54.517 90.9432 42.5511 90.9432ZM100.629 107H175.288V88.8977H131.311V88.1818L146.601 73.1989C168.129 53.5625 173.908 43.7443 173.908 31.8295C173.908 13.6761 159.078 0.840905 136.629 0.840905C114.641 0.840905 99.5554 13.9829 99.6065 34.5398H120.624C120.572 24.517 126.913 18.3807 136.476 18.3807C145.68 18.3807 152.533 24.1079 152.533 33.3125C152.533 41.6477 147.419 47.375 137.908 56.5284L100.629 91.0455L100.629 107ZM204.27 108.33C210.815 108.33 216.491 102.858 216.543 96.0568C216.491 89.358 210.815 83.8864 204.27 83.8864C197.52 83.8864 191.946 89.358 191.997 96.0568C191.946 102.858 197.52 108.33 204.27 108.33Z" fill="#141312" fill-opacity="0.1"/>
</svg>
