<svg width="222" height="110" viewBox="0 0 222 110" fill="none" xmlns="http://www.w3.org/2000/svg">
<path d="M42.5511 109.301C68.8864 109.301 84.7898 89.2557 84.8409 54.7386C84.8921 20.4773 68.7841 0.840905 42.5511 0.840905C16.267 0.840905 0.3125 20.4261 0.261364 54.7386C0.159091 89.1534 16.1648 109.25 42.5511 109.301ZM42.5511 90.9432C30.5341 90.9432 22.7614 78.875 22.8125 54.7386C22.8636 30.9602 30.5852 18.9943 42.5511 18.9943C54.4659 18.9943 62.2386 30.9602 62.2386 54.7386C62.2898 78.875 54.517 90.9432 42.5511 90.9432ZM99.044 88.5909L149.311 88.5909V107H170.482V88.5909H183.47V70.8466H170.482V2.27272H142.766L99.044 71.1534V88.5909ZM149.72 70.8466L121.339 70.8466V70.0284L148.902 26.4091H149.72V70.8466ZM209.192 108.33C215.737 108.33 221.413 102.858 221.464 96.0568C221.413 89.358 215.737 83.8864 209.192 83.8864C202.442 83.8864 196.868 89.358 196.919 96.0568C196.868 102.858 202.442 108.33 209.192 108.33Z" fill="#141312" fill-opacity="0.1"/>
</svg>
