<svg width="217" height="110" viewBox="0 0 217 110" fill="none" xmlns="http://www.w3.org/2000/svg">
<path d="M42.5511 109.301C68.8864 109.301 84.7898 89.2557 84.8409 54.7386C84.8921 20.4773 68.7841 0.840905 42.5511 0.840905C16.267 0.840905 0.3125 20.4261 0.261364 54.7386C0.159091 89.1534 16.1648 109.25 42.5511 109.301ZM42.5511 90.9432C30.5341 90.9432 22.7614 78.875 22.8125 54.7386C22.8636 30.9602 30.5852 18.9943 42.5511 18.9943C54.4659 18.9943 62.2386 30.9602 62.2386 54.7386C62.2898 78.875 54.517 90.9432 42.5511 90.9432ZM140.822 108.432C164.141 108.534 180.044 93.2443 179.993 71.9205C180.044 52.2841 166.339 38.1193 147.777 38.1193C136.271 38.1193 126.095 43.642 121.391 52.8977H120.675C120.777 32.4943 127.936 19.8125 141.589 19.8125C149.618 19.8125 155.396 24.2102 157.084 31.5227H178.919C176.822 14.2898 162.504 0.840905 141.589 0.840905C115.714 0.840905 99.0952 21.8068 98.9929 56.9886C98.9418 95.3409 119.294 108.33 140.822 108.432ZM140.72 91.0455C130.493 91.0455 122.925 82.8125 122.925 72.5852C122.976 62.4091 130.697 54.125 140.874 54.125C151.101 54.125 158.567 62.1534 158.516 72.5341C158.567 83.017 150.947 91.0455 140.72 91.0455ZM204.27 108.33C210.815 108.33 216.491 102.858 216.543 96.0568C216.491 89.358 210.815 83.8864 204.27 83.8864C197.52 83.8864 191.946 89.358 191.997 96.0568C191.946 102.858 197.52 108.33 204.27 108.33Z" fill="#141312" fill-opacity="0.1"/>
</svg>
