<svg width="191" height="110" viewBox="0 0 191 110" fill="none" xmlns="http://www.w3.org/2000/svg">
<path d="M42.5511 109.301C68.8864 109.301 84.7898 89.2557 84.8409 54.7386C84.8921 20.4773 68.7841 0.840905 42.5511 0.840905C16.267 0.840905 0.3125 20.4261 0.261364 54.7386C0.159091 89.1534 16.1648 109.25 42.5511 109.301ZM42.5511 90.9432C30.5341 90.9432 22.7614 78.875 22.8125 54.7386C22.8636 30.9602 30.5852 18.9943 42.5511 18.9943C54.4659 18.9943 62.2386 30.9602 62.2386 54.7386C62.2898 78.875 54.517 90.9432 42.5511 90.9432ZM101.959 107H124.817L168.283 20.6307V2.27272H94.7997V20.375H145.374V21.0909L101.959 107ZM178.395 108.33C184.94 108.33 190.616 102.858 190.668 96.0568C190.616 89.358 184.94 83.8864 178.395 83.8864C171.645 83.8864 166.071 89.358 166.122 96.0568C166.071 102.858 171.645 108.33 178.395 108.33Z" fill="white" fill-opacity="0.1"/>
</svg>
