<svg width="190" height="109" viewBox="0 0 190 109" fill="none" xmlns="http://www.w3.org/2000/svg">
<path d="M47.0511 2.27272H26.2386L0.3125 18.6875L0.3125 38.3239L24.2955 23.2898H24.9091L24.9091 107H47.0511L47.0511 2.27272ZM110.652 108.432C134.175 108.432 150.999 95.4943 150.947 77.5966C150.999 64.5568 142.714 55.25 127.322 53.3068V52.4886C139.033 50.392 147.112 42.108 147.061 30.3466C147.112 13.8295 132.641 0.840905 110.959 0.840905C89.4815 0.840905 73.3224 13.4204 73.0156 31.5227H94.2372C94.4929 23.5454 101.805 18.3807 110.857 18.3807C119.805 18.3807 125.788 23.8011 125.737 31.6761C125.788 39.9091 118.783 45.483 108.709 45.483H98.9418V61.7443H108.709C120.572 61.7443 127.987 67.6761 127.936 76.1136C127.987 84.4489 120.828 90.1761 110.703 90.1761C100.936 90.1761 93.6236 85.0625 93.2145 77.392H70.919C71.277 95.6989 87.6406 108.432 110.652 108.432ZM176.848 108.33C183.393 108.33 189.07 102.858 189.121 96.0568C189.07 89.358 183.393 83.8864 176.848 83.8864C170.098 83.8864 164.524 89.358 164.575 96.0568C164.524 102.858 170.098 108.33 176.848 108.33Z" fill="white" fill-opacity="0.1"/>
</svg>
