<svg width="193" height="107" viewBox="0 0 193 107" fill="none" xmlns="http://www.w3.org/2000/svg">
<path d="M47.0511 0.272724H26.2386L0.3125 16.6875L0.3125 36.3239L24.2955 21.2898H24.9091L24.9091 105H47.0511L47.0511 0.272724ZM70.3565 86.5909H120.624L120.624 105H141.794V86.5909H154.783V68.8466H141.794V0.272724H114.078L70.3565 69.1534V86.5909ZM121.033 68.8466H92.652V68.0284L120.214 24.4091H121.033V68.8466ZM180.504 106.33C187.05 106.33 192.726 100.858 192.777 94.0568C192.726 87.358 187.05 81.8864 180.504 81.8864C173.754 81.8864 168.18 87.358 168.232 94.0568C168.18 100.858 173.754 106.33 180.504 106.33Z" fill="#141312" fill-opacity="0.1"/>
</svg>
