<svg width="187" height="107" viewBox="0 0 187 107" fill="none" xmlns="http://www.w3.org/2000/svg">
<path d="M47.0511 0.272724H26.2386L0.3125 16.6875L0.3125 36.3239L24.2955 21.2898H24.9091L24.9091 105H47.0511L47.0511 0.272724ZM110.192 106.432C133.51 106.432 149.362 91.2443 149.311 70.0739C149.362 50.0284 135.351 35.608 116.482 35.608C107.277 35.608 99.3509 39.4432 95.669 44.608H95.0554L97.7656 18.375H143.533V0.272724H79.5099L74.5497 55.5L94.2372 59.0284C97.4588 54.6818 103.697 51.9716 109.885 51.9716C120.419 52.0227 127.987 59.642 127.987 70.6364C127.987 81.5284 120.572 89.0455 110.192 89.0455C101.396 89.0455 94.2884 83.5227 93.777 75.392H72.2997C72.7088 93.4943 88.5099 106.432 110.192 106.432ZM174.457 106.33C181.003 106.33 186.679 100.858 186.73 94.0568C186.679 87.358 181.003 81.8864 174.457 81.8864C167.707 81.8864 162.134 87.358 162.185 94.0568C162.134 100.858 167.707 106.33 174.457 106.33Z" fill="white" fill-opacity="0.1"/>
</svg>
