<svg width="183" height="199" viewBox="0 0 183 199" fill="none" xmlns="http://www.w3.org/2000/svg">
<path d="M108.136 172.674C108.136 181.795 100.65 189.257 91.5001 189.257C82.3501 189.257 74.8638 181.795 74.8638 172.674C74.8638 163.553 82.3501 146.555 91.5001 146.555C100.65 146.555 108.136 163.553 108.136 172.674Z" stroke="#141312" stroke-width="6" stroke-miterlimit="10" stroke-linecap="round" stroke-linejoin="round"/>
<path d="M135.17 172.052C140.913 172.052 145.568 167.412 145.568 161.688C145.568 155.963 140.913 151.323 135.17 151.323C129.428 151.323 124.772 155.963 124.772 161.688C124.772 167.412 129.428 172.052 135.17 172.052Z" stroke="#141312" stroke-width="6" stroke-miterlimit="10" stroke-linecap="round" stroke-linejoin="round"/>
<path d="M47.8294 172.052C53.5719 172.052 58.2271 167.412 58.2271 161.688C58.2271 155.963 53.5719 151.323 47.8294 151.323C42.0869 151.323 37.4316 155.963 37.4316 161.688C37.4316 167.412 42.0869 172.052 47.8294 172.052Z" stroke="#141312" stroke-width="6" stroke-miterlimit="10" stroke-linecap="round" stroke-linejoin="round"/>
<path d="M76.7353 180.551C75.4875 182.831 73.408 185.733 71.5364 187.599C61.7625 197.342 45.958 197.342 36.1841 187.599L25.7864 177.234C20.1716 171.637 17.8841 164.175 18.7159 156.712C18.7159 156.712 3.95117 136.398 3.95117 128.521C3.95117 119.4 11.4375 111.937 20.5875 111.937H12.4773L16.6364 78.7708H20.7955V53.8958C20.7955 26.5333 43.2546 4.14583 70.7046 4.14583H91.5H112.295C139.745 4.14583 162.205 26.5333 162.205 53.8958V78.7708H166.364L170.523 111.937H162.205C171.355 111.937 178.841 119.4 178.841 128.521C178.841 136.605 164.076 156.712 164.076 156.712C164.908 163.968 162.62 171.637 157.006 177.234L146.608 187.599C136.834 197.342 121.03 197.342 111.256 187.599C109.384 185.733 107.305 182.624 106.057 180.551" stroke="#141312" stroke-width="6" stroke-miterlimit="10" stroke-linecap="round" stroke-linejoin="round"/>
<path d="M145.568 93.2812C145.568 99.0854 140.993 103.646 135.171 103.646C123.525 103.646 103.978 93.074 103.978 78.7708H145.568V93.2812Z" stroke="#141312" stroke-width="6" stroke-miterlimit="10" stroke-linecap="round" stroke-linejoin="round"/>
<path d="M37.4316 93.2812C37.4316 99.0854 42.0066 103.646 47.8294 103.646C59.4748 103.646 79.0225 93.074 79.0225 78.7708H37.4316V93.2812Z" stroke="#141312" stroke-width="6" stroke-miterlimit="10" stroke-linecap="round" stroke-linejoin="round"/>
<path d="M133.091 134.74C126.852 134.74 119.782 129.557 108.552 123.339C103.561 120.644 98.1546 118.156 91.2921 118.156C84.4296 118.156 79.2308 120.644 74.0319 123.339C63.2183 129.557 56.1478 134.74 49.9092 134.74" stroke="#141312" stroke-width="6" stroke-miterlimit="10" stroke-linecap="round" stroke-linejoin="round"/>
<path d="M20.7954 62.1875H162.205" stroke="#141312" stroke-width="6" stroke-miterlimit="10" stroke-linecap="round"/>
<path d="M21.0034 49.75H161.997" stroke="#141312" stroke-width="6" stroke-miterlimit="10" stroke-linecap="round"/>
</svg>
