<svg width="15" height="15" viewBox="0 0 15 15" fill="none" xmlns="http://www.w3.org/2000/svg">
<path d="M11.5541 14.7673C11.414 14.7669 11.2743 14.7516 11.1374 14.7215C8.53184 14.1825 6.13141 12.9187 4.21241 11.0757C2.33436 9.22853 1.03182 6.87673 0.46241 4.30482C0.395269 3.98428 0.411748 3.65186 0.510262 3.33954C0.608776 3.02721 0.786009 2.74549 1.02491 2.52149L2.69158 0.917321C2.7767 0.836816 2.87785 0.775167 2.98842 0.736397C3.09898 0.697628 3.21648 0.682609 3.33324 0.692321C3.45431 0.704952 3.57114 0.743952 3.67552 0.806579C3.7799 0.869206 3.86929 0.95394 3.93741 1.05482L6.02074 4.13399C6.09887 4.25346 6.13658 4.39486 6.12833 4.53738C6.12008 4.67989 6.0663 4.81599 5.97491 4.92565L4.92908 6.17565C5.3456 7.09751 5.93547 7.93069 6.66658 8.62982C7.39295 9.35432 8.25151 9.93282 9.19574 10.334L10.4916 9.30482C10.6004 9.21881 10.7328 9.16795 10.8713 9.15902C11.0097 9.15009 11.1476 9.18351 11.2666 9.25482L14.4124 11.2882C14.5204 11.3526 14.6123 11.4407 14.6814 11.5457C14.7505 11.6508 14.795 11.7701 14.8114 11.8947C14.8278 12.0194 14.8158 12.1461 14.7763 12.2655C14.7368 12.3849 14.6708 12.4938 14.5832 12.584L12.9582 14.1923C12.7737 14.376 12.5546 14.5214 12.3136 14.62C12.0726 14.7187 11.8145 14.7688 11.5541 14.7673ZM3.26658 1.51732L1.59991 3.12149C1.46552 3.24672 1.36603 3.40477 1.31124 3.58011C1.25645 3.75544 1.24823 3.94202 1.28741 4.12149C1.81688 6.53488 3.03396 8.74328 4.79158 10.4798C6.59749 12.2138 8.85641 13.4025 11.3082 13.909C11.4938 13.9478 11.6861 13.9399 11.8679 13.8861C12.0497 13.8323 12.2153 13.7342 12.3499 13.6007L13.9749 11.9923L10.9374 10.0298L9.54574 11.1382C9.49247 11.1803 9.42968 11.2088 9.36287 11.2212C9.29606 11.2335 9.22724 11.2293 9.16241 11.209C8.00687 10.7832 6.95968 10.1074 6.09574 9.22982C5.20214 8.39533 4.5085 7.36983 4.06658 6.22982C4.04788 6.16081 4.04726 6.08814 4.06477 6.01882C4.08229 5.94949 4.11735 5.88584 4.16658 5.83399L5.29158 4.48816L3.26658 1.51732Z" fill="white"/>
</svg>
