


<svg version="1.1" xmlns="http://www.w3.org/2000/svg">
<!--  social__link__vk-->
<symbol viewBox="0 0 98 29" id="logo">
    <rect x="49" y="1" width="49" height="27" fill="#141312"/>
    <path d="M6.50648 14.7129V23.3749H4.70851V5.6167H16.4055V7.34735H6.50648V12.99H14.6827V14.7138H6.50648V14.7129Z" fill="#141312"/>
    <path d="M22.0199 23.3749V5.6167H23.8286V23.3749H22.0199Z" fill="#141312"/>
    <path d="M32.3989 7.68685L32.3999 23.3749H30.599V5.6167H32.9716L43.7379 21.294V5.6167H45.5388V23.3749H43.2072L32.3989 7.68685Z" fill="#141312"/>
    <path d="M60.5615 14.6153H67.7641V23.3749H66.2393L65.9661 21.4228C64.5155 22.9037 62.4892 23.7251 60.061 23.7251C54.9852 23.7251 51.7063 20.0999 51.7063 14.4895C51.7063 11.6301 52.5619 9.24482 54.1794 7.59416C55.6593 6.08399 57.748 5.25281 60.061 5.25281C63.6423 5.25281 66.5242 7.01565 67.7651 10.9706H65.8744C64.8501 8.15901 62.3966 7.0537 60.063 7.0537C56.8466 7.0537 53.5082 9.12092 53.5082 14.4885C53.5082 20.0365 57.0934 21.9233 60.063 21.9233C62.4668 21.9233 65.9671 20.9292 65.9671 16.343H60.5625V14.6153H60.5615Z" fill="white"/>
    <path d="M76.0154 21.6453H86.0374V23.376H74.2184V5.62659H76.0154V21.6453Z" fill="white"/>
    <path d="M91.5513 23.3749V5.6167H93.36V23.3749H91.5513Z" fill="white"/>
    <path fill-rule="evenodd" clip-rule="evenodd" d="M98 1.12501L-2.17888e-08 1.125L0 0.875L98 0.875009L98 1.12501Z" fill="#141312"/>
    <path fill-rule="evenodd" clip-rule="evenodd" d="M98 28.125H0L0 27.875H98V28.125Z" fill="#141312"/>

</symbol>
</svg>