<svg width="252" height="70" viewBox="0 0 252 70" fill="none" xmlns="http://www.w3.org/2000/svg">
<rect x="125.872" y="0.321289" width="125.872" height="69.3578" fill="white"/>
<path d="M16.7138 35.5465L16.7138 57.7976H12.0952L12.0952 12.1802L42.1426 12.1802V16.6259H16.7138V31.1208H37.7169V35.549H16.7138V35.5465Z" fill="white"/>
<path d="M56.5651 57.7976V12.1802H61.2113V57.7976H56.5651Z" fill="white"/>
<path d="M83.2267 17.498L83.2292 57.7976H78.603V12.1802H84.6977L112.354 52.4522V12.1802H116.98V57.7976H110.991L83.2267 17.498Z" fill="white"/>
<path d="M155.571 35.2965H174.073V57.7982H170.156L169.454 52.7837C165.728 56.5878 160.523 58.6979 154.285 58.6979C141.247 58.6979 132.824 49.3855 132.824 34.9733C132.824 27.6281 135.022 21.5008 139.177 17.2606C142.978 13.3812 148.344 11.2461 154.285 11.2461C163.485 11.2461 170.888 15.7745 174.076 25.934H169.219C166.588 18.7116 160.285 15.8722 154.29 15.8722C146.028 15.8722 137.452 21.1825 137.452 34.9707C137.452 49.2226 146.662 54.0693 154.29 54.0693C160.465 54.0693 169.457 51.5156 169.457 39.7347H155.574V35.2965H155.571Z" fill="#141312"/>
<path d="M195.269 53.3561H221.013V57.8018H190.653V12.207H195.269V53.3561Z" fill="#141312"/>
<path d="M235.178 57.9773V12.3599H239.824V57.9773H235.178Z" fill="#141312"/>
<path fill-rule="evenodd" clip-rule="evenodd" d="M251.743 0.642224L-5.59713e-08 0.642202L0 0L251.743 2.20756e-05L251.743 0.642224Z" fill="white"/>
<path fill-rule="evenodd" clip-rule="evenodd" d="M251.743 70.0001L0 70.0001L0 69.3579L251.743 69.3579V70.0001Z" fill="white"/>
</svg>
