<svg width="212" height="212" viewBox="0 0 212 212" fill="none" xmlns="http://www.w3.org/2000/svg">
<path d="M95.0467 23.9285V38.6115L78.0867 27.8545L95.0467 23.9285Z" fill="#141312"/>
<path d="M64.8367 28.4826C66.0733 28.4826 73.9448 28.4826 75.1815 28.4826L95.0467 41.1044C95.0467 41.5167 95.0467 51.037 95.0467 51.8615V53.5104L60.7145 48.5441C60.4985 48.3281 55.3359 40.8885 55.1396 40.6922C55.3163 40.4763 64.6404 28.6789 64.8367 28.4826Z" fill="#141312"/>
<path d="M83.8774 80.5993L95.2626 85.1533V85.9778V115.344L90.4926 100.877C90.2767 100.249 84.2896 81.8359 83.8774 80.5993Z" fill="#141312"/>
<path d="M78.4989 73.3559C75.3974 69.0178 65.877 55.3556 62.5792 50.6052L94.2026 55.1593L78.4989 73.3559Z" fill="#141312"/>
<path d="M95.0467 57.24V82.8763L82.6211 77.91L79.7355 75.0244L95.0467 57.24Z" fill="#141312"/>
<path d="M70.6274 71.923C72.2763 72.3352 74.1411 72.7474 75.79 73.1596L77.0267 75.0244L76.8107 75.2404L77.0267 75.4563C75.5741 77.9296 70.4115 86.4096 62.9522 84.9767C54.6881 83.9363 46.8167 76.7126 50.1341 66.9763C52.6074 67.6044 55.5126 68.213 57.7896 68.8411C55.5322 80.187 68.5663 81.2274 70.6274 71.923Z" fill="#141312"/>
<path d="M60.0863 69.2337L68.5663 71.2948C66.9174 78.3222 58.2215 77.7137 60.0863 69.2337Z" fill="#141312"/>
<path d="M73.9448 70.6667C73.1204 70.4507 72.08 70.2544 71.2556 70.0385C67.1137 68.9981 62.5596 67.7615 58.4374 66.7211C52.6467 65.2685 41.6933 62.5793 35.6867 60.9304L31.7607 59.6937C36.0989 55.3556 48.7207 45.6193 53.8833 41.9093L73.9448 70.6667Z" fill="#141312"/>
<path d="M41.8896 82.8763L36.7271 63.443L48.3085 66.3481C44.9911 78.1456 53.0589 86.2133 64.8563 87.0378C71.8837 87.0378 76.85 79.7944 78.7148 76.693L81.4041 79.3822L87.823 99.0315L55.5519 94.6933L41.8896 82.8763Z" fill="#141312"/>
<path d="M6.30112 2.82668L47.8767 11.5226L61.323 25.7933L19.9633 17.9415L6.30112 2.82668Z" fill="#141312"/>
<path d="M17.0581 25.1652L19.9633 20.0026L62.5596 28.0704L53.6674 39.4359L31.1326 36.7467L17.0581 25.1652Z" fill="#141312"/>
<path d="M31.1326 38.8274L51.41 41.3007L34.0182 54.963C30.2885 56.0033 20.5719 58.8889 16.6459 60.1256L31.1326 38.8274Z" fill="#141312"/>
<path d="M95.0466 125.689L71.0592 112.458L71.6874 112.046L72.3155 111.83H72.0996L88.4314 101.897C89.2559 104.587 96.2833 123.411 95.0466 125.689Z" fill="#141312"/>
<path d="M180.455 139.135C169.914 134.384 135.778 119.27 126.67 113.283L148.204 110.809L149.244 110.593L150.069 109.553L165.792 91.1404L166.616 90.3159V84.7411L185.029 100.661L180.455 139.135Z" fill="#141312"/>
<path d="M152.738 82.8763L157.92 62.8148L161.846 61.5782C162.259 64.8956 164.123 79.1663 164.536 82.68V88.4707L152.738 82.8763Z" fill="#141312"/>
<path d="M163.711 90.5318L148.616 108.12L138.683 95.9104L151.501 84.7411L163.711 90.5318Z" fill="#141312"/>
<path d="M133.913 66.7408C129.771 67.7811 125.217 69.0178 121.095 70.0582C120.271 70.2741 119.23 70.4704 118.406 70.6863L138.683 41.9289C143.846 45.8548 156.468 55.3752 160.806 59.7133C153.15 62.1867 141.569 64.6796 133.913 66.7408Z" fill="#141312"/>
<path d="M115.304 75.0245L116.541 73.1596C118.19 72.7474 120.055 72.3352 121.704 71.923C123.765 81.2274 136.799 79.9908 134.326 68.8215C136.799 68.1933 139.704 67.5848 141.981 66.9567C145.298 76.6733 137.427 83.9167 129.163 84.9571C121.92 86.4096 116.541 77.9296 115.089 75.4367L115.304 75.0245Z" fill="#141312"/>
<path d="M123.588 71.5107L132.068 69.4496C132.284 71.923 132.284 73.7878 131.44 75.0245C128.554 78.1259 124.413 74.8085 123.588 71.5107Z" fill="#141312"/>
<path d="M113.852 73.3559L98.1482 55.1593L129.791 50.6052C126.474 55.3752 116.953 68.8215 113.852 73.3559Z" fill="#141312"/>
<path d="M112.615 75.0244L109.73 77.91L97.3041 82.8763V57.24L112.615 75.0244Z" fill="#141312"/>
<path d="M111.163 79.3626L113.852 76.6733C115.501 79.7748 120.467 87.0182 127.71 87.0182C139.508 85.9778 147.576 77.91 144.258 66.3285L155.84 63.4233L150.677 82.8567L137.034 94.6541L104.763 98.9922C104.763 99.2081 111.163 79.3626 111.163 79.3626Z" fill="#141312"/>
<path d="M137.034 96.7348L146.751 108.944L123.784 111.418L106.412 100.877L137.034 96.7348Z" fill="#141312"/>
<path d="M184.381 97.5592L166.381 82.0518L163.711 60.7537L163.495 59.517C163.083 59.3011 158.745 55.1789 158.333 54.7667C161.65 55.807 172.191 58.9085 175.705 59.9293L184.381 97.5592Z" fill="#141312"/>
<path d="M174.252 57.4363C170.11 56.1996 158.529 52.8822 154.819 51.8615L141.176 41.3204L161.454 38.847L174.252 57.4363Z" fill="#141312"/>
<path d="M144.474 11.5226L186.05 2.82668L172.387 17.9415L131.028 25.7933L144.474 11.5226Z" fill="#141312"/>
<path d="M172.387 20.0026L175.293 25.1652L161.218 36.5504L138.664 39.2396L129.771 27.8544C134.954 27.03 166.597 21.2393 172.387 20.0026Z" fill="#141312"/>
<path d="M117.169 28.2667C118.622 28.2667 126.277 28.2667 127.514 28.2667C127.514 28.4826 136.21 39.4359 136.406 39.4359L137.034 40.2604L136.819 40.4763L131.44 48.1318L97.1078 53.0981C97.1078 52.47 97.1078 41.713 97.1078 40.8885L117.169 28.2667Z" fill="#141312"/>
<path d="M97.3041 23.9285L114.264 27.8545L97.3041 38.6115V23.9285Z" fill="#141312"/>
<path d="M97.3041 85.9778V85.1533C97.52 85.1533 108.473 80.5993 108.689 80.5993L102.683 98.7959L102.467 99.4241C102.467 99.64 97.5004 114.735 97.3041 115.344V85.9778Z" fill="#141312"/>
<path d="M103.723 101.897L120.055 111.83H119.839C119.839 111.83 121.292 112.654 121.076 112.458C114.873 115.776 103.075 122.391 97.0882 125.689C96.0675 123.411 103.095 104.39 103.723 101.897Z" fill="#141312"/>
<path d="M146.339 144.513C143.65 152.993 137.859 171.406 135.17 179.67C126.474 169.737 105.804 146.162 97.3237 136.446V129.202V127.966L123.392 113.479L139.311 122.371L142.413 132.088C142.393 132.52 146.339 144.513 146.339 144.513Z" fill="#141312"/>
<path d="M152.326 156.919L148.4 144.513C147.772 142.452 142.609 126.101 141.785 123.824L180.455 141.412L205.679 204.502C203.422 206.366 154.191 157.744 152.326 156.919Z" fill="#141312"/>
<path d="M112.419 156.919L134.541 182.163L132.893 208.015L112.419 156.919Z" fill="#141312"/>
</svg>
