<svg width="909" height="521" viewBox="0 0 909 521" fill="none" xmlns="http://www.w3.org/2000/svg">
<g clip-path="url(#clip0_845_863)">
<g opacity="0.03" filter="url(#filter0_d_845_863)">
<path d="M261.659 59.4447V59.4723H261.687L450.267 248.081V259.872L263.272 72.8768L260.046 60.6405L259.434 58.3879L259.407 57.192L261.659 59.4447ZM255.708 53.4932L259.407 57.192L261.659 59.4447V59.4723H261.687L450.267 248.081L450.323 248.136L454.494 252.336L458.666 256.479V448.036L454.411 451.679L373.233 521.287L371.592 515.142L358.299 464.861L252.843 65.98H252.816L251.564 61.1689L251.536 61.141L251.258 60.0564L251.119 59.528V59.5002L251.036 56.9417L250.813 48.5986L255.708 53.4932ZM377.905 506.298L450.267 444.281L450.323 444.226V259.928L450.267 259.872L263.272 72.8768L377.905 506.298ZM261.659 59.4447V59.4723H261.687L450.267 248.081V259.872L263.272 72.8768L260.046 60.6405L259.434 58.3879L259.407 57.192L261.659 59.4447Z" fill="#141312"/>
<path d="M355.88 -10.3612L261.687 59.47H261.659V59.4423L355.88 -10.3612ZM355.88 -10.3612L261.687 59.47H261.659V59.4423L355.88 -10.3612ZM355.88 -10.3612L261.687 59.47H261.659V59.4423L355.88 -10.3612ZM355.88 -10.3612L261.687 59.47H261.659V59.4423L355.88 -10.3612ZM355.88 -10.3612L261.687 59.47H261.659V59.4423L355.88 -10.3612ZM355.88 -10.3612L261.687 59.47H261.659V59.4423L355.88 -10.3612ZM355.88 -10.3612L261.687 59.47H261.659V59.4423L355.88 -10.3612ZM355.88 -10.3612L261.687 59.47H261.659V59.4423L355.88 -10.3612ZM355.88 -10.3612L261.687 59.47H261.659V59.4423L355.88 -10.3612ZM355.88 -10.3612L261.687 59.47H261.659V59.4423L355.88 -10.3612ZM355.88 -10.3612L261.687 59.47H261.659V59.4423L355.88 -10.3612ZM355.88 -10.3612L261.687 59.47H261.659V59.4423L355.88 -10.3612ZM355.88 -10.3612L261.687 59.47H261.659V59.4423L355.88 -10.3612ZM255.708 53.4909L259.212 50.9046L336.301 -6.21754L349.567 -16.0344L350.93 -17.0355L354.462 -19.6775L356.658 -21.2906H356.686L357.632 -22.0137L357.66 -21.9858L359.69 -19.2605L362.61 -15.3113V-15.2837H362.638L450.267 102.659L450.323 102.743V102.77L454.494 108.388L458.666 113.978V268.269L458.611 268.213L454.494 264.125L450.323 259.925L450.267 259.87L251.564 61.1665L251.536 61.1387L251.258 60.0541L251.119 59.6092V59.4978L251.036 56.9393L255.708 53.4909ZM450.267 248.078L450.323 248.134V116.759L450.267 116.675L415.06 69.287L355.908 -10.3612H355.88L261.687 59.47H261.659L450.267 248.078ZM356.853 -11.0843L358.577 -12.3635L362.61 -15.3113V-15.2837H362.638L450.267 102.659V116.675L415.06 69.287L355.908 -10.3612L356.853 -11.0843ZM355.88 -10.3612L261.687 59.47H261.659V59.4423L355.88 -10.3612ZM355.88 -10.3612L261.687 59.47H261.659V59.4423L355.88 -10.3612ZM355.88 -10.3612L261.687 59.47H261.659V59.4423L355.88 -10.3612ZM355.88 -10.3612L261.687 59.47H261.659V59.4423L355.88 -10.3612ZM355.88 -10.3612L261.687 59.47H261.659V59.4423L355.88 -10.3612ZM355.88 -10.3612L261.687 59.47H261.659V59.4423L355.88 -10.3612ZM355.88 -10.3612L261.687 59.47H261.659V59.4423L355.88 -10.3612ZM355.88 -10.3612L261.687 59.47H261.659V59.4423L355.88 -10.3612ZM355.88 -10.3612L261.687 59.47H261.659V59.4423L355.88 -10.3612ZM355.88 -10.3612L261.687 59.47H261.659V59.4423L355.88 -10.3612ZM355.88 -10.3612L261.687 59.47H261.659V59.4423L355.88 -10.3612ZM355.88 -10.3612L261.687 59.47H261.659V59.4423L355.88 -10.3612ZM355.88 -10.3612L261.687 59.47H261.659V59.4423L355.88 -10.3612ZM355.88 -10.3612L261.687 59.47H261.659V59.4423L355.88 -10.3612Z" fill="#141312"/>
<path d="M354.462 -19.6825L356.658 -21.2955H356.686L357.66 -21.9908L441.73 -83.4511H441.758L450.267 -89.6807L452.993 -91.683L453.104 -91.7665L454.411 -92.7119L458.611 -95.7988L458.666 -95.8267V127.961L458.611 127.878L454.494 122.372L450.323 116.754L450.267 116.67L415.06 69.2821L355.88 -10.3662L353.794 -13.175L350.93 -17.0405L350.902 -17.0683L354.462 -19.6825ZM450.267 102.654L450.323 102.738V-79.3909L450.267 -79.3631L406.856 -47.6317L362.638 -15.2886H362.61L450.267 102.654ZM406.856 -47.6317L362.638 -15.2886H362.61V-15.3163L406.856 -47.6317ZM406.856 -47.6317L362.638 -15.2886H362.61V-15.3163L406.856 -47.6317Z" fill="#141312"/>
<path d="M249.903 -93.8766L252.35 -92.2359L255.159 -90.317L256.8 -89.2045L264.643 -83.865L356.666 -21.2922H356.694L359.698 -19.2622L363.98 -16.342L362.618 -15.313L358.585 -12.3651L356.861 -11.086L355.915 -10.3629H355.888L261.667 59.4407V59.4683L260.054 60.6365L254.881 64.4743L252.851 65.976H252.823L251.572 61.1649L251.544 61.137L251.266 60.0524L251.127 59.6075V59.4962L251.043 56.9377L250.821 48.5946L247.261 -74.8824L247.011 -83.9207L246.955 -85.8118L246.844 -89.288L246.761 -92.2359L246.649 -96.1016L249.903 -93.8766ZM349.575 -16.0361L333.417 -27.0211L255.465 -80.0272V-79.9994L259.219 50.8751L336.309 -6.21919L349.575 -16.0361Z" fill="#141312"/>
<path d="M246.94 -85.8174L246.995 -83.9263L249.721 -83.8985L252.168 -82.2576L255.45 -80.0328V-80.005L259.204 50.8695V50.8973L255.7 53.4836L250.805 48.589L247.246 -74.888L246.967 -83.9263L246.912 -85.8174L246.828 -89.2937L246.94 -85.8174ZM246.94 -85.8174L246.995 -83.9263L249.721 -83.8985L252.168 -82.2576L255.45 -80.0328V-80.005L259.204 50.8695V50.8973L255.7 53.4836L250.805 48.589L247.246 -74.888L246.967 -83.9263L246.912 -85.8174L246.828 -89.2937L246.94 -85.8174ZM246.94 -85.8174L246.995 -83.9263L249.721 -83.8985L252.168 -82.2576L255.45 -80.0328V-80.005L259.204 50.8695V50.8973L255.7 53.4836L250.805 48.589L247.246 -74.888L246.967 -83.9263L246.912 -85.8174L246.828 -89.2937L246.94 -85.8174ZM246.94 -85.8174L246.995 -83.9263L249.721 -83.8985L252.168 -82.2576L255.45 -80.0328V-80.005L259.204 50.8695V50.8973L255.7 53.4836L250.805 48.589L247.246 -74.888L246.967 -83.9263L246.912 -85.8174L246.828 -89.2937L246.94 -85.8174ZM246.94 -85.8174L246.995 -83.9263L249.721 -83.8985L252.168 -82.2576L255.45 -80.0328V-80.005L259.204 50.8695V50.8973L255.7 53.4836L250.805 48.589L247.246 -74.888L246.967 -83.9263L246.912 -85.8174L246.828 -89.2937L246.94 -85.8174ZM246.94 -85.8174L246.995 -83.9263L249.721 -83.8985L252.168 -82.2576L255.45 -80.0328V-80.005L259.204 50.8695V50.8973L255.7 53.4836L250.805 48.589L247.246 -74.888L246.967 -83.9263L246.912 -85.8174L246.828 -89.2937L246.94 -85.8174ZM246.94 -85.8174L246.995 -83.9263L249.721 -83.8985L252.168 -82.2576L255.45 -80.0328V-80.005L259.204 50.8695V50.8973L255.7 53.4836L250.805 48.589L247.246 -74.888L246.967 -83.9263L246.912 -85.8174L246.828 -89.2937L246.94 -85.8174ZM246.94 -85.8174L246.995 -83.9263L249.721 -83.8985L252.168 -82.2576L255.45 -80.0328V-80.005L259.204 50.8695V50.8973L255.7 53.4836L250.805 48.589L247.246 -74.888L246.967 -83.9263L246.912 -85.8174L246.828 -89.2937L246.94 -85.8174ZM246.94 -85.8174L246.995 -83.9263L249.721 -83.8985L252.168 -82.2576L255.45 -80.0328V-80.005L259.204 50.8695V50.8973L255.7 53.4836L250.805 48.589L247.246 -74.888L246.967 -83.9263L246.912 -85.8174L246.828 -89.2937L246.94 -85.8174ZM246.94 -85.8174L246.995 -83.9263L249.721 -83.8985L252.168 -82.2576L255.45 -80.0328V-80.005L259.204 50.8695V50.8973L255.7 53.4836L250.805 48.589L247.246 -74.888L246.967 -83.9263L246.912 -85.8174L246.828 -89.2937L246.94 -85.8174ZM246.94 -85.8174L246.995 -83.9263L249.721 -83.8985L252.168 -82.2576L255.45 -80.0328V-80.005L259.204 50.8695V50.8973L255.7 53.4836L250.805 48.589L247.246 -74.888L246.967 -83.9263L246.912 -85.8174L246.828 -89.2937L246.94 -85.8174ZM246.94 -85.8174L246.995 -83.9263L249.721 -83.8985L252.168 -82.2576L255.45 -80.0328V-80.005L259.204 50.8695V50.8973L255.7 53.4836L250.805 48.589L247.246 -74.888L246.967 -83.9263L246.912 -85.8174L246.828 -89.2937L246.94 -85.8174ZM246.94 -85.8174L246.995 -83.9263L249.721 -83.8985L252.168 -82.2576L255.45 -80.0328V-80.005L259.204 50.8695V50.8973L255.7 53.4836L250.805 48.589L247.246 -74.888L246.967 -83.9263L246.912 -85.8174L246.828 -89.2937L246.94 -85.8174ZM246.94 -85.8174L246.995 -83.9263L249.721 -83.8985L252.168 -82.2576L255.45 -80.0328V-80.005L259.204 50.8695V50.8973L255.7 53.4836L250.805 48.589L247.246 -74.888L246.967 -83.9263L246.912 -85.8174L246.828 -89.2937L246.94 -85.8174ZM239.097 -330.352L239.598 -331.909L239.82 -332.549L239.876 -332.744L240.46 -334.496L241.85 -338.667L244.02 -345.147L247.496 -355.576L247.941 -339.919L248.108 -334.078L248.163 -332.632L248.191 -331.909V-331.325L248.247 -329.823L248.414 -323.511L254.838 -101.308V-101.28L255.088 -92.2415L255.144 -90.3226L255.227 -86.8742L255.338 -83.8985L255.45 -80.0328V-80.005L259.204 50.8695V50.8973L259.399 57.1824L259.427 58.3782L260.038 60.6309L263.264 72.8672L377.898 506.288L379.594 512.712L371.752 515.466L371.585 515.132L139.481 -5.22352L134.476 -16.4868L239.097 -330.352ZM358.292 464.851L252.808 65.9704L251.556 61.1593L251.528 61.1314L251.25 60.0468L251.111 59.6019V59.4905L251.028 56.9321L250.805 48.589L247.246 -74.888L246.967 -83.9263L246.912 -85.8174L246.828 -89.2937L246.745 -92.2415L246.634 -96.1072L240.516 -308.243L143.403 -16.9316L358.292 464.851ZM246.94 -85.8174L246.995 -83.9263L249.721 -83.8985L252.168 -82.2576L255.45 -80.0328V-80.005L259.204 50.8695V50.8973L255.7 53.4836L250.805 48.589L247.246 -74.888L246.967 -83.9263L246.912 -85.8174L246.828 -89.2937L246.94 -85.8174ZM246.94 -85.8174L246.995 -83.9263L249.721 -83.8985L252.168 -82.2576L255.45 -80.0328V-80.005L259.204 50.8695V50.8973L255.7 53.4836L250.805 48.589L247.246 -74.888L246.967 -83.9263L246.912 -85.8174L246.828 -89.2937L246.94 -85.8174ZM246.94 -85.8174L246.995 -83.9263L249.721 -83.8985L252.168 -82.2576L255.45 -80.0328V-80.005L259.204 50.8695V50.8973L255.7 53.4836L250.805 48.589L247.246 -74.888L246.967 -83.9263L246.912 -85.8174L246.828 -89.2937L246.94 -85.8174ZM246.94 -85.8174L246.995 -83.9263L249.721 -83.8985L252.168 -82.2576L255.45 -80.0328V-80.005L259.204 50.8695V50.8973L255.7 53.4836L250.805 48.589L247.246 -74.888L246.967 -83.9263L246.912 -85.8174L246.828 -89.2937L246.94 -85.8174ZM246.94 -85.8174L246.995 -83.9263L249.721 -83.8985L252.168 -82.2576L255.45 -80.0328V-80.005L259.204 50.8695V50.8973L255.7 53.4836L250.805 48.589L247.246 -74.888L246.967 -83.9263L246.912 -85.8174L246.828 -89.2937L246.94 -85.8174ZM246.94 -85.8174L246.995 -83.9263L249.721 -83.8985L252.168 -82.2576L255.45 -80.0328V-80.005L259.204 50.8695V50.8973L255.7 53.4836L250.805 48.589L247.246 -74.888L246.967 -83.9263L246.912 -85.8174L246.828 -89.2937L246.94 -85.8174ZM246.94 -85.8174L246.995 -83.9263L249.721 -83.8985L252.168 -82.2576L255.45 -80.0328V-80.005L259.204 50.8695V50.8973L255.7 53.4836L250.805 48.589L247.246 -74.888L246.967 -83.9263L246.912 -85.8174L246.828 -89.2937L246.94 -85.8174ZM246.94 -85.8174L246.995 -83.9263L249.721 -83.8985L252.168 -82.2576L255.45 -80.0328V-80.005L259.204 50.8695V50.8973L255.7 53.4836L250.805 48.589L247.246 -74.888L246.967 -83.9263L246.912 -85.8174L246.828 -89.2937L246.94 -85.8174ZM246.94 -85.8174L246.995 -83.9263L249.721 -83.8985L252.168 -82.2576L255.45 -80.0328V-80.005L259.204 50.8695V50.8973L255.7 53.4836L250.805 48.589L247.246 -74.888L246.967 -83.9263L246.912 -85.8174L246.828 -89.2937L246.94 -85.8174ZM246.94 -85.8174L246.995 -83.9263L249.721 -83.8985L252.168 -82.2576L255.45 -80.0328V-80.005L259.204 50.8695V50.8973L255.7 53.4836L250.805 48.589L247.246 -74.888L246.967 -83.9263L246.912 -85.8174L246.828 -89.2937L246.94 -85.8174ZM246.94 -85.8174L246.995 -83.9263L249.721 -83.8985L252.168 -82.2576L255.45 -80.0328V-80.005L259.204 50.8695V50.8973L255.7 53.4836L250.805 48.589L247.246 -74.888L246.967 -83.9263L246.912 -85.8174L246.828 -89.2937L246.94 -85.8174ZM246.94 -85.8174L246.995 -83.9263L249.721 -83.8985L252.168 -82.2576L255.45 -80.0328V-80.005L259.204 50.8695V50.8973L255.7 53.4836L250.805 48.589L247.246 -74.888L246.967 -83.9263L246.912 -85.8174L246.828 -89.2937L246.94 -85.8174ZM246.94 -85.8174L246.995 -83.9263L249.721 -83.8985L252.168 -82.2576L255.45 -80.0328V-80.005L259.204 50.8695V50.8973L255.7 53.4836L250.805 48.589L247.246 -74.888L246.967 -83.9263L246.912 -85.8174L246.828 -89.2937L246.94 -85.8174ZM246.94 -85.8174L246.995 -83.9263L249.721 -83.8985L252.168 -82.2576L255.45 -80.0328V-80.005L259.204 50.8695V50.8973L255.7 53.4836L250.805 48.589L247.246 -74.888L246.967 -83.9263L246.912 -85.8174L246.828 -89.2937L246.94 -85.8174Z" fill="#141312"/>
<path d="M33.9809 -361.462V-361.518L129.815 -663.758L134.125 -677.357L138.603 -663.842V-663.814L241.695 -352.285V-352.257L244.059 -345.138L246.2 -338.63L247.591 -334.486L248.008 -333.207L248.202 -332.623L248.258 -332.4L248.425 -331.9L248.23 -331.316L248.147 -331.038L247.563 -329.314L246.172 -325.17L244.003 -318.662L240.555 -308.317V-308.233L143.442 -16.9223L139.52 -5.21412L130.76 21.0942L36.0388 -346.417L32.9798 -358.347L33.9809 -361.462ZM131.789 -8.35668L134.515 -16.4774L239.108 -330.343H239.136L239.637 -331.9L239.108 -333.485L134.292 -650.243L41.6565 -358.097L131.789 -8.35668ZM138.603 -663.814L241.695 -352.285V-352.257L244.059 -345.138L246.2 -338.63L244.059 -337.073L241.889 -338.658L240.499 -334.486L240.054 -334.153L239.832 -333.986L239.108 -333.485L134.292 -650.243V-650.27L138.603 -663.814Z" fill="#141312"/>
<path d="M458.629 248.168L647.209 59.5594H647.237V59.5316L658.083 48.6855L657.861 57.0286L657.777 59.5872V59.6151L657.638 60.1435L657.36 61.2279L657.332 61.2558L656.081 66.0669H656.053L550.597 464.948L537.304 515.228L535.663 521.374L454.374 451.682L450.23 448.123V256.566L458.629 248.168ZM645.624 72.9639L458.629 259.959L458.573 260.015V444.313L458.629 444.368L530.991 506.385L645.624 72.9639Z" fill="#141312"/>
<path d="M647.255 59.5291V59.5569H647.227L553.034 -10.2743L647.255 59.5291ZM647.255 59.5291V59.5569H647.227L553.034 -10.2743L647.255 59.5291ZM647.255 59.5291V59.5569H647.227L553.034 -10.2743L647.255 59.5291ZM647.255 59.5291V59.5569H647.227L553.034 -10.2743L647.255 59.5291ZM647.255 59.5291V59.5569H647.227L553.034 -10.2743L647.255 59.5291ZM647.255 59.5291V59.5569H647.227L553.034 -10.2743L647.255 59.5291ZM647.255 59.5291V59.5569H647.227L553.034 -10.2743L647.255 59.5291ZM647.255 59.5291V59.5569H647.227L553.034 -10.2743L647.255 59.5291ZM647.255 59.5291V59.5569H647.227L553.034 -10.2743L647.255 59.5291ZM647.255 59.5291V59.5569H647.227L553.034 -10.2743L647.255 59.5291ZM647.255 59.5291V59.5569H647.227L553.034 -10.2743L647.255 59.5291ZM647.255 59.5291V59.5569H647.227L553.034 -10.2743L647.255 59.5291ZM647.255 59.5291V59.5569H647.227L553.034 -10.2743L647.255 59.5291ZM454.475 108.391L458.591 102.857V102.829L458.647 102.746L546.277 -15.1968H546.304V-15.2246L549.225 -19.1736L551.255 -21.8989L551.282 -21.9268L552.228 -21.2037H552.256L554.453 -19.5908L557.985 -16.9488L559.347 -15.9477L572.613 -6.13062L649.703 50.9913L653.207 53.5777L657.879 57.0261L657.795 59.5847V59.6959L657.656 60.141L657.378 61.2254L654.041 64.5627L645.642 72.9614L458.647 259.957L450.248 268.355V114.065L454.475 108.391ZM647.255 59.5569L553.034 -10.2743H553.007L493.855 69.3738L458.647 116.762L458.591 116.846V248.221L647.255 59.5569ZM647.255 59.5291V59.5569H647.227L553.034 -10.2743L647.255 59.5291ZM647.255 59.5291V59.5569H647.227L553.034 -10.2743L647.255 59.5291ZM647.255 59.5291V59.5569H647.227L553.034 -10.2743L647.255 59.5291ZM647.255 59.5291V59.5569H647.227L553.034 -10.2743L647.255 59.5291ZM647.255 59.5291V59.5569H647.227L553.034 -10.2743L647.255 59.5291ZM647.255 59.5291V59.5569H647.227L553.034 -10.2743L647.255 59.5291ZM647.255 59.5291V59.5569H647.227L553.034 -10.2743L647.255 59.5291ZM647.255 59.5291V59.5569H647.227L553.034 -10.2743L647.255 59.5291ZM647.255 59.5291V59.5569H647.227L553.034 -10.2743L647.255 59.5291ZM647.255 59.5291V59.5569H647.227L553.034 -10.2743L647.255 59.5291ZM647.255 59.5291V59.5569H647.227L553.034 -10.2743L647.255 59.5291ZM647.255 59.5291V59.5569H647.227L553.034 -10.2743L647.255 59.5291ZM647.255 59.5291V59.5569H647.227L553.034 -10.2743L647.255 59.5291Z" fill="#141312"/>
<path d="M450.325 -95.7114L454.414 -92.7079L455.721 -91.7624L455.832 -91.6789L458.668 -89.5932L467.179 -83.3637H467.206L551.276 -21.9032L552.25 -21.208H552.277L554.474 -19.5951L558.034 -16.9809L558.006 -16.9531L555.142 -13.0874L553.056 -10.2786L493.876 69.3695L458.668 116.758L458.613 116.841L454.497 122.376L450.325 127.965L450.27 128.049V-95.7393L450.325 -95.7114ZM546.326 -15.201H546.298L502.08 -47.5442L458.668 -79.2755L458.613 -79.3034V102.825L458.668 102.742L546.326 -15.201ZM546.326 -15.2289V-15.201H546.298L502.08 -47.5442L546.326 -15.2289Z" fill="#141312"/>
<path d="M549.215 -19.1747L552.218 -21.2048H552.246L644.27 -83.7776L652.112 -89.1173L653.753 -90.2296L656.562 -92.1485L659.009 -93.7894L662.263 -96.0142L662.151 -92.1485L662.068 -89.2006L661.957 -85.7244L661.901 -83.8333L661.651 -74.795L658.091 48.6819L657.869 57.0249L657.785 59.5836V59.6948L657.646 60.1398L657.368 61.2243L657.34 61.2521L656.089 66.0632H656.061L654.031 64.5615L648.858 60.7237L647.245 59.5557V59.5279L553.024 -10.2755H552.997L552.051 -10.9986L550.327 -12.2779L546.294 -15.2258L544.932 -16.2547L549.215 -19.1747ZM572.603 -6.13178L649.693 50.9623L653.447 -79.9122V-79.94L575.495 -26.9337L559.337 -15.9488L572.603 -6.13178Z" fill="#141312"/>
<path d="M653.477 -79.9109V-79.9388L656.758 -82.1636L659.205 -83.8043L661.931 -83.8321L661.986 -85.7232L662.098 -89.1994L662.014 -85.7232L661.959 -83.8321L661.681 -74.7938L658.121 48.6831L653.226 53.5777L649.722 50.9914V50.9635L653.477 -79.9109ZM653.477 -79.9109V-79.9388L656.758 -82.1636L659.205 -83.8043L661.931 -83.8321L661.986 -85.7232L662.098 -89.1994L662.014 -85.7232L661.959 -83.8321L661.681 -74.7938L658.121 48.6831L653.226 53.5777L649.722 50.9914V50.9635L653.477 -79.9109ZM653.477 -79.9109V-79.9388L656.758 -82.1636L659.205 -83.8043L661.931 -83.8321L661.986 -85.7232L662.098 -89.1994L662.014 -85.7232L661.959 -83.8321L661.681 -74.7938L658.121 48.6831L653.226 53.5777L649.722 50.9914V50.9635L653.477 -79.9109ZM653.477 -79.9109V-79.9388L656.758 -82.1636L659.205 -83.8043L661.931 -83.8321L661.986 -85.7232L662.098 -89.1994L662.014 -85.7232L661.959 -83.8321L661.681 -74.7938L658.121 48.6831L653.226 53.5777L649.722 50.9914V50.9635L653.477 -79.9109ZM653.477 -79.9109V-79.9388L656.758 -82.1636L659.205 -83.8043L661.931 -83.8321L661.986 -85.7232L662.098 -89.1994L662.014 -85.7232L661.959 -83.8321L661.681 -74.7938L658.121 48.6831L653.226 53.5777L649.722 50.9914V50.9635L653.477 -79.9109ZM653.477 -79.9109V-79.9388L656.758 -82.1636L659.205 -83.8043L661.931 -83.8321L661.986 -85.7232L662.098 -89.1994L662.014 -85.7232L661.959 -83.8321L661.681 -74.7938L658.121 48.6831L653.226 53.5777L649.722 50.9914V50.9635L653.477 -79.9109ZM653.477 -79.9109V-79.9388L656.758 -82.1636L659.205 -83.8043L661.931 -83.8321L661.986 -85.7232L662.098 -89.1994L662.014 -85.7232L661.959 -83.8321L661.681 -74.7938L658.121 48.6831L653.226 53.5777L649.722 50.9914V50.9635L653.477 -79.9109ZM653.477 -79.9109V-79.9388L656.758 -82.1636L659.205 -83.8043L661.931 -83.8321L661.986 -85.7232L662.098 -89.1994L662.014 -85.7232L661.959 -83.8321L661.681 -74.7938L658.121 48.6831L653.226 53.5777L649.722 50.9914V50.9635L653.477 -79.9109ZM653.477 -79.9109V-79.9388L656.758 -82.1636L659.205 -83.8043L661.931 -83.8321L661.986 -85.7232L662.098 -89.1994L662.014 -85.7232L661.959 -83.8321L661.681 -74.7938L658.121 48.6831L653.226 53.5777L649.722 50.9914V50.9635L653.477 -79.9109ZM653.477 -79.9109V-79.9388L656.758 -82.1636L659.205 -83.8043L661.931 -83.8321L661.986 -85.7232L662.098 -89.1994L662.014 -85.7232L661.959 -83.8321L661.681 -74.7938L658.121 48.6831L653.226 53.5777L649.722 50.9914V50.9635L653.477 -79.9109ZM653.477 -79.9109V-79.9388L656.758 -82.1636L659.205 -83.8043L661.931 -83.8321L661.986 -85.7232L662.098 -89.1994L662.014 -85.7232L661.959 -83.8321L661.681 -74.7938L658.121 48.6831L653.226 53.5777L649.722 50.9914V50.9635L653.477 -79.9109ZM653.477 -79.9109V-79.9388L656.758 -82.1636L659.205 -83.8043L661.931 -83.8321L661.986 -85.7232L662.098 -89.1994L662.014 -85.7232L661.959 -83.8321L661.681 -74.7938L658.121 48.6831L653.226 53.5777L649.722 50.9914V50.9635L653.477 -79.9109ZM653.477 -79.9109V-79.9388L656.758 -82.1636L659.205 -83.8043L661.931 -83.8321L661.986 -85.7232L662.098 -89.1994L662.014 -85.7232L661.959 -83.8321L661.681 -74.7938L658.121 48.6831L653.226 53.5777L649.722 50.9914V50.9635L653.477 -79.9109ZM653.477 -79.9109V-79.9388L656.758 -82.1636L659.205 -83.8043L661.931 -83.8321L661.986 -85.7232L662.098 -89.1994L662.014 -85.7232L661.959 -83.8321L661.681 -74.7938L658.121 48.6831L653.226 53.5777L649.722 50.9914V50.9635L653.477 -79.9109ZM531.029 506.382L645.662 72.9614L648.888 60.7249L649.5 58.4723L649.528 57.2765L649.722 50.9914V50.9635L653.477 -79.9109V-79.9388L653.588 -83.8043L653.699 -86.78L653.783 -90.2284L653.838 -92.1473L654.088 -101.186V-101.213L660.513 -323.416L660.679 -329.729L660.735 -331.231V-331.815L660.763 -332.538L660.819 -333.984L660.985 -339.824L661.43 -355.481L664.907 -345.053L667.076 -338.573L668.466 -334.401L669.05 -332.649L669.106 -332.455L669.328 -331.815L669.829 -330.258L774.451 -16.3925L769.445 -5.12945L537.342 515.226L537.175 515.56L529.332 512.806L531.029 506.382ZM765.524 -16.8376L668.411 -308.149L662.292 -96.0129L662.181 -92.1473L662.098 -89.1994L662.014 -85.7232L661.959 -83.8321L661.681 -74.7938L658.121 48.6831L657.898 57.0261L657.815 59.5848V59.696L657.676 60.141L657.398 61.2255L657.37 61.2533L656.119 66.0644L550.635 464.945L765.524 -16.8376ZM653.477 -79.9109V-79.9388L656.758 -82.1636L659.205 -83.8043L661.931 -83.8321L661.986 -85.7232L662.098 -89.1994L662.014 -85.7232L661.959 -83.8321L661.681 -74.7938L658.121 48.6831L653.226 53.5777L649.722 50.9914V50.9635L653.477 -79.9109ZM653.477 -79.9109V-79.9388L656.758 -82.1636L659.205 -83.8043L661.931 -83.8321L661.986 -85.7232L662.098 -89.1994L662.014 -85.7232L661.959 -83.8321L661.681 -74.7938L658.121 48.6831L653.226 53.5777L649.722 50.9914V50.9635L653.477 -79.9109ZM653.477 -79.9109V-79.9388L656.758 -82.1636L659.205 -83.8043L661.931 -83.8321L661.986 -85.7232L662.098 -89.1994L662.014 -85.7232L661.959 -83.8321L661.681 -74.7938L658.121 48.6831L653.226 53.5777L649.722 50.9914V50.9635L653.477 -79.9109ZM653.477 -79.9109V-79.9388L656.758 -82.1636L659.205 -83.8043L661.931 -83.8321L661.986 -85.7232L662.098 -89.1994L662.014 -85.7232L661.959 -83.8321L661.681 -74.7938L658.121 48.6831L653.226 53.5777L649.722 50.9914V50.9635L653.477 -79.9109ZM653.477 -79.9109V-79.9388L656.758 -82.1636L659.205 -83.8043L661.931 -83.8321L661.986 -85.7232L662.098 -89.1994L662.014 -85.7232L661.959 -83.8321L661.681 -74.7938L658.121 48.6831L653.226 53.5777L649.722 50.9914V50.9635L653.477 -79.9109ZM653.477 -79.9109V-79.9388L656.758 -82.1636L659.205 -83.8043L661.931 -83.8321L661.986 -85.7232L662.098 -89.1994L662.014 -85.7232L661.959 -83.8321L661.681 -74.7938L658.121 48.6831L653.226 53.5777L649.722 50.9914V50.9635L653.477 -79.9109ZM653.477 -79.9109V-79.9388L656.758 -82.1636L659.205 -83.8043L661.931 -83.8321L661.986 -85.7232L662.098 -89.1994L662.014 -85.7232L661.959 -83.8321L661.681 -74.7938L658.121 48.6831L653.226 53.5777L649.722 50.9914V50.9635L653.477 -79.9109ZM653.477 -79.9109V-79.9388L656.758 -82.1636L659.205 -83.8043L661.931 -83.8321L661.986 -85.7232L662.098 -89.1994L662.014 -85.7232L661.959 -83.8321L661.681 -74.7938L658.121 48.6831L653.226 53.5777L649.722 50.9914V50.9635L653.477 -79.9109ZM653.477 -79.9109V-79.9388L656.758 -82.1636L659.205 -83.8043L661.931 -83.8321L661.986 -85.7232L662.098 -89.1994L662.014 -85.7232L661.959 -83.8321L661.681 -74.7938L658.121 48.6831L653.226 53.5777L649.722 50.9914V50.9635L653.477 -79.9109ZM653.477 -79.9109V-79.9388L656.758 -82.1636L659.205 -83.8043L661.931 -83.8321L661.986 -85.7232L662.098 -89.1994L662.014 -85.7232L661.959 -83.8321L661.681 -74.7938L658.121 48.6831L653.226 53.5777L649.722 50.9914V50.9635L653.477 -79.9109ZM653.477 -79.9109V-79.9388L656.758 -82.1636L659.205 -83.8043L661.931 -83.8321L661.986 -85.7232L662.098 -89.1994L662.014 -85.7232L661.959 -83.8321L661.681 -74.7938L658.121 48.6831L653.226 53.5777L649.722 50.9914V50.9635L653.477 -79.9109ZM653.477 -79.9109V-79.9388L656.758 -82.1636L659.205 -83.8043L661.931 -83.8321L661.986 -85.7232L662.098 -89.1994L662.014 -85.7232L661.959 -83.8321L661.681 -74.7938L658.121 48.6831L653.226 53.5777L649.722 50.9914V50.9635L653.477 -79.9109ZM653.477 -79.9109V-79.9388L656.758 -82.1636L659.205 -83.8043L661.931 -83.8321L661.986 -85.7232L662.098 -89.1994L662.014 -85.7232L661.959 -83.8321L661.681 -74.7938L658.121 48.6831L653.226 53.5777L649.722 50.9914V50.9635L653.477 -79.9109ZM653.477 -79.9109V-79.9388L656.758 -82.1636L659.205 -83.8043L661.931 -83.8321L661.986 -85.7232L662.098 -89.1994L662.014 -85.7232L661.959 -83.8321L661.681 -74.7938L658.121 48.6831L653.226 53.5777L649.722 50.9914V50.9635L653.477 -79.9109Z" fill="#141312"/>
<path d="M660.7 -332.313L660.756 -332.536L660.951 -333.12L661.368 -334.399L662.758 -338.543L664.9 -345.05L667.264 -352.169V-352.197L770.356 -663.726V-663.754L774.833 -677.27L779.144 -663.671L874.978 -361.43V-361.375L875.979 -358.26L872.92 -346.329L778.198 21.1816L769.438 -5.12686L765.517 -16.835L668.404 -308.146V-308.229L664.955 -318.575L662.786 -325.082L661.396 -329.226L660.812 -330.95L660.728 -331.229L660.534 -331.812L660.7 -332.313ZM777.169 -8.26942L867.302 -358.01L774.666 -650.155L669.85 -333.398L669.322 -331.812L669.822 -330.255H669.85L774.444 -16.3899L777.169 -8.26942ZM664.9 -345.05L667.264 -352.169V-352.197L770.356 -663.726L774.666 -650.183V-650.155L669.85 -333.398L669.127 -333.898L668.46 -334.399L667.069 -338.57L664.9 -336.985L662.758 -338.543L664.9 -345.05Z" fill="#141312"/>
</g>
</g>
<defs>
<filter id="filter0_d_845_863" x="-4" y="-1609" width="916.924" height="2138.37" filterUnits="userSpaceOnUse" color-interpolation-filters="sRGB">
<feFlood flood-opacity="0" result="BackgroundImageFix"/>
<feColorMatrix in="SourceAlpha" type="matrix" values="0 0 0 0 0 0 0 0 0 0 0 0 0 0 0 0 0 0 127 0" result="hardAlpha"/>
<feOffset dy="4"/>
<feGaussianBlur stdDeviation="2"/>
<feComposite in2="hardAlpha" operator="out"/>
<feColorMatrix type="matrix" values="0 0 0 0 0 0 0 0 0 0 0 0 0 0 0 0 0 0 0.25 0"/>
<feBlend mode="normal" in2="BackgroundImageFix" result="effect1_dropShadow_845_863"/>
<feBlend mode="normal" in="SourceGraphic" in2="effect1_dropShadow_845_863" result="shape"/>
</filter>
<clipPath id="clip0_845_863">
<rect width="909" height="521" fill="white"/>
</clipPath>
</defs>
</svg>
