<svg width="71" height="49" viewBox="0 0 71 49" fill="none" xmlns="http://www.w3.org/2000/svg">
<path d="M31.8319 7.97058V12.8615L26.1519 9.27831L31.8319 7.97058Z" fill="white"/>
<path d="M21.714 9.48755C22.1282 9.48755 24.7644 9.48755 25.1786 9.48755L31.8315 13.6919C31.8315 13.8292 31.8315 17.0005 31.8315 17.2751V17.8244L20.3335 16.1701C20.2612 16.0981 18.5322 13.62 18.4664 13.5546C18.5256 13.4827 21.6483 9.55294 21.714 9.48755Z" fill="white"/>
<path d="M28.0912 26.8478L31.9042 28.3647V28.6394V38.4212L30.3067 33.6022C30.2344 33.393 28.2293 27.2597 28.0912 26.8478Z" fill="white"/>
<path d="M26.2898 24.435C25.2511 22.99 22.0626 18.439 20.9582 16.8567L31.549 18.3737L26.2898 24.435Z" fill="white"/>
<path d="M31.8314 19.0668V27.6063L27.67 25.952L26.7036 24.9908L31.8314 19.0668Z" fill="white"/>
<path d="M23.6536 23.9577C24.2058 24.095 24.8303 24.2323 25.3825 24.3696L25.7967 24.9908L25.7244 25.0627L25.7967 25.1346C25.3102 25.9585 23.5812 28.7832 21.0831 28.3059C18.3154 27.9594 15.6792 25.5531 16.7902 22.3099C17.6186 22.5192 18.5915 22.7219 19.3541 22.9311C18.5981 26.7105 22.9633 27.057 23.6536 23.9577Z" fill="white"/>
<path d="M20.1232 23.0619L22.9632 23.7485C22.411 26.0893 19.4987 25.8866 20.1232 23.0619Z" fill="white"/>
<path d="M24.7647 23.5392C24.4886 23.4673 24.1402 23.4019 23.8641 23.33C22.4769 22.9835 20.9517 22.5715 19.5712 22.225C17.6318 21.7411 13.9635 20.8453 11.9518 20.2961L10.637 19.8841C12.0899 18.4391 16.317 15.1959 18.046 13.9601L24.7647 23.5392Z" fill="white"/>
<path d="M2.11017 0.941528L16.0341 3.83816L20.5373 8.59177L6.68572 5.9763L2.11017 0.941528Z" fill="white"/>
<path d="M5.71277 8.38263L6.68573 6.66296L20.9515 9.35036L17.9734 13.1362L10.4264 12.2404L5.71277 8.38263Z" fill="white"/>
<path d="M10.4265 12.9335L17.2175 13.7573L11.3929 18.3083C10.1438 18.6548 6.88964 19.616 5.57483 20.0279L10.4265 12.9335Z" fill="white"/>
<path d="M60.4353 46.3461C56.9051 44.7637 45.4727 39.7289 42.4224 37.7346L49.6341 36.9108L49.9826 36.8388L50.2587 36.4923L55.5245 30.359L55.8006 30.0844V28.2274L61.9671 33.5303L60.4353 46.3461Z" fill="white"/>
<path d="M51.153 27.6063L52.8885 20.9238L54.2033 20.5118C54.3414 21.6169 54.9659 26.3705 55.104 27.5409V29.4698L51.153 27.6063Z" fill="white"/>
<path d="M54.8279 30.1563L49.7724 36.015L46.4459 31.9479L50.7388 28.2274L54.8279 30.1563Z" fill="white"/>
<path d="M44.8484 22.2314C43.4613 22.578 41.9361 22.9899 40.5556 23.3365C40.2794 23.4084 39.931 23.4738 39.6549 23.5457L46.4459 13.9666C48.1749 15.2743 52.402 18.4455 53.8549 19.8906C51.291 20.7145 47.4123 21.5449 44.8484 22.2314Z" fill="white"/>
<path d="M38.616 24.9909L39.0302 24.3697C39.5824 24.2324 40.2069 24.0951 40.7592 23.9578C41.4494 27.0571 45.8146 26.6452 44.9863 22.9246C45.8146 22.7154 46.7876 22.5127 47.5502 22.3035C48.6612 25.5401 46.025 27.9529 43.2573 28.2994C40.8315 28.7833 39.0302 25.9586 38.5437 25.1282L38.616 24.9909Z" fill="white"/>
<path d="M41.3901 23.8203L44.2301 23.1338C44.3024 23.9577 44.3024 24.5788 44.0198 24.9908C43.0534 26.0239 41.6662 24.9188 41.3901 23.8203Z" fill="white"/>
<path d="M38.1297 24.435L32.8704 18.3737L43.4678 16.8567C42.3568 18.4456 39.1684 22.9246 38.1297 24.435Z" fill="white"/>
<path d="M37.7153 24.9908L36.7489 25.952L32.5875 27.6063V19.0668L37.7153 24.9908Z" fill="white"/>
<path d="M37.2288 26.4359L38.1294 25.5401C38.6817 26.5732 40.3449 28.9859 42.7707 28.9859C46.7217 28.6394 49.4237 25.952 48.3127 22.0942L52.1914 21.1265L50.4624 27.5998L45.8934 31.5295L35.0856 32.9745C35.0856 33.0465 37.2288 26.4359 37.2288 26.4359Z" fill="white"/>
<path d="M45.8939 32.2225L49.148 36.2896L41.4564 37.1135L35.6383 33.6022L45.8939 32.2225Z" fill="white"/>
<path d="M61.7502 32.4972L55.7217 27.3317L54.8277 20.2372L54.7554 19.8253C54.6173 19.7534 53.1644 18.3802 53.0264 18.2429C54.1374 18.5895 57.6677 19.6226 58.8444 19.9626L61.7502 32.4972Z" fill="white"/>
<path d="M58.3581 19.1322C56.971 18.7203 53.0922 17.6152 51.8497 17.2752L47.2808 13.7639L54.0718 12.9401L58.3581 19.1322Z" fill="white"/>
<path d="M48.3851 3.83816L62.309 0.941528L57.7334 5.9763L43.8818 8.59177L48.3851 3.83816Z" fill="white"/>
<path d="M57.7333 6.66296L58.7062 8.38263L53.9926 12.1751L46.439 13.0709L43.4609 9.27843C45.1965 9.00381 55.7939 7.0749 57.7333 6.66296Z" fill="white"/>
<path d="M39.2407 9.41565C39.7272 9.41565 42.2911 9.41565 42.7053 9.41565C42.7053 9.48757 45.6176 13.1362 45.6833 13.1362L45.8937 13.4108L45.8214 13.4827L44.0201 16.0328L32.522 17.6871C32.522 17.4778 32.522 13.8946 32.522 13.62L39.2407 9.41565Z" fill="white"/>
<path d="M32.5875 7.97058L38.2675 9.27831L32.5875 12.8615V7.97058Z" fill="white"/>
<path d="M32.5875 28.6394V28.3647C32.6598 28.3647 36.3282 26.8478 36.4005 26.8478L34.3888 32.9091L34.3165 33.1184C34.3165 33.1903 32.6533 38.2185 32.5875 38.4212V28.6394Z" fill="white"/>
<path d="M34.7376 33.9423L40.2072 37.2508H40.1349C40.1349 37.2508 40.6214 37.5255 40.5491 37.4601C38.4717 38.5651 34.5207 40.7686 32.5156 41.8671C32.1737 41.1086 34.5272 34.7727 34.7376 33.9423Z" fill="white"/>
</svg>
