<svg width="909" height="915" viewBox="0 0 909 915" fill="none" xmlns="http://www.w3.org/2000/svg">
<g clip-path="url(#clip0_845_703)">
<g opacity="0.03" filter="url(#filter0_d_845_703)">
<path d="M355.88 904.639L261.687 974.47H261.659V974.442L355.88 904.639ZM355.88 904.639L261.687 974.47H261.659V974.442L355.88 904.639ZM355.88 904.639L261.687 974.47H261.659V974.442L355.88 904.639ZM355.88 904.639L261.687 974.47H261.659V974.442L355.88 904.639ZM355.88 904.639L261.687 974.47H261.659V974.442L355.88 904.639ZM355.88 904.639L261.687 974.47H261.659V974.442L355.88 904.639ZM355.88 904.639L261.687 974.47H261.659V974.442L355.88 904.639ZM355.88 904.639L261.687 974.47H261.659V974.442L355.88 904.639ZM355.88 904.639L261.687 974.47H261.659V974.442L355.88 904.639ZM355.88 904.639L261.687 974.47H261.659V974.442L355.88 904.639ZM355.88 904.639L261.687 974.47H261.659V974.442L355.88 904.639ZM355.88 904.639L261.687 974.47H261.659V974.442L355.88 904.639ZM355.88 904.639L261.687 974.47H261.659V974.442L355.88 904.639ZM255.708 968.491L259.212 965.905L336.301 908.782L349.567 898.966L350.93 897.964L354.462 895.322L356.658 893.709H356.686L357.632 892.986L357.66 893.014L359.69 895.74L362.61 899.689V899.716H362.638L450.267 1017.66L450.323 1017.74V1017.77L454.494 1023.39L458.666 1028.98V1183.27L458.611 1183.21L454.494 1179.12L450.323 1174.93L450.267 1174.87L251.564 976.167L251.536 976.139L251.258 975.054L251.119 974.609V974.498L251.036 971.939L255.708 968.491ZM450.267 1163.08L450.323 1163.13V1031.76L450.267 1031.68L415.06 984.287L355.908 904.639H355.88L261.687 974.47H261.659L450.267 1163.08ZM356.853 903.916L358.577 902.637L362.61 899.689V899.716H362.638L450.267 1017.66V1031.68L415.06 984.287L355.908 904.639L356.853 903.916ZM355.88 904.639L261.687 974.47H261.659V974.442L355.88 904.639ZM355.88 904.639L261.687 974.47H261.659V974.442L355.88 904.639ZM355.88 904.639L261.687 974.47H261.659V974.442L355.88 904.639ZM355.88 904.639L261.687 974.47H261.659V974.442L355.88 904.639ZM355.88 904.639L261.687 974.47H261.659V974.442L355.88 904.639ZM355.88 904.639L261.687 974.47H261.659V974.442L355.88 904.639ZM355.88 904.639L261.687 974.47H261.659V974.442L355.88 904.639ZM355.88 904.639L261.687 974.47H261.659V974.442L355.88 904.639ZM355.88 904.639L261.687 974.47H261.659V974.442L355.88 904.639ZM355.88 904.639L261.687 974.47H261.659V974.442L355.88 904.639ZM355.88 904.639L261.687 974.47H261.659V974.442L355.88 904.639ZM355.88 904.639L261.687 974.47H261.659V974.442L355.88 904.639ZM355.88 904.639L261.687 974.47H261.659V974.442L355.88 904.639ZM355.88 904.639L261.687 974.47H261.659V974.442L355.88 904.639Z" fill="white"/>
<path d="M354.462 895.317L356.658 893.704H356.686L357.66 893.009L441.73 831.549H441.758L450.267 825.319L452.993 823.317L453.104 823.234L454.411 822.288L458.611 819.201L458.666 819.173V1042.96L458.611 1042.88L454.494 1037.37L450.323 1031.75L450.267 1031.67L415.06 984.282L355.88 904.634L353.794 901.825L350.93 897.959L350.902 897.932L354.462 895.317ZM450.267 1017.65L450.323 1017.74V835.609L450.267 835.637L406.856 867.368L362.638 899.711H362.61L450.267 1017.65ZM406.856 867.368L362.638 899.711H362.61V899.684L406.856 867.368ZM406.856 867.368L362.638 899.711H362.61V899.684L406.856 867.368Z" fill="white"/>
<path d="M255.096 822.763L258.822 822.791L450.267 823.235H458.666V829.521L455.857 831.578L455.746 831.662L454.411 832.635L450.323 835.611L450.267 835.639L406.856 867.37L362.61 899.686V899.713L358.577 902.633L356.853 903.913L353.794 901.827L349.567 898.963L333.409 887.977L255.457 834.999V834.971L252.176 832.747L249.729 831.106L246.948 829.187H246.92L246.836 825.711L246.753 822.763H255.096ZM356.658 893.706H356.686L357.66 893.011L441.73 831.551L264.635 831.134L356.658 893.706Z" fill="white"/>
<path d="M249.903 821.123L252.35 822.764L255.159 824.683L256.8 825.795L264.643 831.135L356.666 893.708H356.694L359.698 895.738L363.98 898.658L362.618 899.687L358.585 902.635L356.861 903.914L355.915 904.637H355.888L261.667 974.441V974.468L260.054 975.636L254.881 979.474L252.851 980.976H252.823L251.572 976.165L251.544 976.137L251.266 975.052L251.127 974.608V974.496L251.043 971.938L250.821 963.595L247.261 840.118L247.011 831.079L246.955 829.188L246.844 825.712L246.761 822.764L246.649 818.898L249.903 821.123ZM349.575 898.964L333.417 887.979L255.465 834.973V835.001L259.219 965.875L336.309 908.781L349.575 898.964Z" fill="white"/>
<path d="M450.267 728.958L450.323 728.985L454.522 732.044L450.267 735.159V739.275L423.931 720.03L421.873 708.462L421.818 708.183L450.267 728.958ZM248.811 822.761L249.895 821.12L254.846 813.723V813.695L352.265 667.747L356.909 660.795L412.084 701.092L421.818 708.183L450.267 728.958L450.323 728.985L454.522 732.044L458.666 735.076V831.577H450.267L441.758 831.549H441.73L264.635 831.132L255.346 831.104H249.729L247.003 831.076H246.975L246.92 829.185L246.836 825.709L248.811 822.761ZM414.198 712.939L359.022 672.67V672.698H358.995L258.822 822.761L450.267 823.206H450.323V739.303L450.267 739.275L423.931 720.03L414.198 712.939ZM450.267 728.958L450.323 728.985L454.522 732.044L450.267 735.159V739.275L423.931 720.03L421.873 708.462L421.818 708.183L450.267 728.958Z" fill="white"/>
<path d="M240.529 575.333L241.864 576.334L244.033 577.919L247.565 580.506L248.122 580.923L248.372 581.09L251.097 583.092V583.12H251.125L356.915 660.793L363.645 665.744L359.028 672.668V672.696H359.001L258.828 822.76V822.787L256.798 825.791L255.241 828.127L253.266 831.103L252.182 832.744L247.259 840.113L247.009 831.075L246.954 829.184L246.842 825.707L246.759 822.76L246.648 818.894L240.529 606.758V606.675L240.084 591.073L239.918 585.261L239.89 583.871L239.834 582.842V582.452L239.806 581.006L239.612 574.666L240.529 575.333ZM352.271 667.746L248.427 591.491L254.852 813.693L352.271 667.746Z" fill="white"/>
<path d="M239.094 581.506L239.817 581.006L240.04 580.839L240.485 580.505L244.044 577.919L246.186 576.362L247.966 575.082L248.994 574.331H249.022V574.304L373.612 484.032L381.12 478.581L382.733 487.731L421.834 708.182L421.89 708.46L423.948 720.029L423.976 720.251L424.004 720.39L414.27 713.243L359.039 672.696H359.011L352.281 667.746L248.438 591.49L247.493 590.795L246.158 589.822L244.017 588.236L240.485 585.65L239.928 585.261L239.65 585.038L239.122 584.649L239.622 583.092L239.094 581.506ZM356.926 660.793L363.656 665.743L412.157 701.34L412.101 701.09L375.225 493.181V493.154L303.947 544.825L251.136 583.119L356.926 660.793Z" fill="white"/>
<path d="M248.991 574.335L270.461 338.45L249.019 574.307V574.335H248.991ZM315.485 328.799V328.827L270.461 338.45L315.485 328.799ZM248.991 574.335L270.461 338.45L249.019 574.307V574.335H248.991ZM315.485 328.799V328.827L270.461 338.45L315.485 328.799ZM248.991 574.335L270.461 338.45L249.019 574.307V574.335H248.991ZM315.485 328.799V328.827L270.461 338.45L315.485 328.799ZM248.991 574.335L270.461 338.45L249.019 574.307V574.335H248.991ZM315.485 328.799V328.827L270.461 338.45L315.485 328.799ZM248.991 574.335L270.461 338.45L249.019 574.307V574.335H248.991ZM315.485 328.799V328.827L270.461 338.45L315.485 328.799ZM248.991 574.335L270.461 338.45L249.019 574.307V574.335H248.991ZM315.485 328.799V328.827L270.461 338.45L315.485 328.799ZM248.991 574.335L270.461 338.45L249.019 574.307V574.335H248.991ZM315.485 328.799V328.827L270.461 338.45L315.485 328.799ZM248.991 574.335L270.461 338.45L249.019 574.307V574.335H248.991ZM315.485 328.799V328.827L270.461 338.45L315.485 328.799ZM248.991 574.335L270.461 338.45L249.019 574.307V574.335H248.991ZM315.485 328.799V328.827L270.461 338.45L315.485 328.799ZM248.991 574.335L270.461 338.45L249.019 574.307V574.335H248.991ZM315.485 328.799V328.827L270.461 338.45L315.485 328.799ZM248.991 574.335L270.461 338.45L249.019 574.307V574.335H248.991ZM315.485 328.799V328.827L270.461 338.45L315.485 328.799ZM248.991 574.335L270.461 338.45L249.019 574.307V574.335H248.991ZM315.485 328.799V328.827L270.461 338.45L315.485 328.799ZM248.991 574.335L270.461 338.45L249.019 574.307V574.335H248.991ZM315.485 328.799V328.827L270.461 338.45L315.485 328.799ZM239.647 585.042L239.786 583.596L239.842 582.845L239.897 582.261L240.036 580.843L240.537 575.336L241.677 562.738V562.71L262.312 335.947V335.919L262.424 334.64L262.702 331.58L268.709 330.301L314.707 320.456V320.429L316.403 320.095L320.741 319.149L323.217 322.042L324.19 323.154L350.526 353.884V353.912L361.205 366.371L364.07 382.529L381.117 478.585L382.73 487.734L375.222 493.157V493.185L303.944 544.829L251.105 583.095V583.123L248.268 585.181L247.99 585.376L247.545 585.682L244.013 588.24L241.844 589.825L240.092 591.077L239.035 591.856L239.647 585.042ZM373.609 484.036L353.391 370.07L320.074 331.191L317.655 328.355H317.627L315.485 328.827L270.461 338.45L249.019 574.307V574.335L373.609 484.036ZM315.485 328.799V328.827L270.461 338.45L315.485 328.799ZM248.991 574.335L270.461 338.45L249.019 574.307V574.335H248.991ZM315.485 328.799V328.827L270.461 338.45L315.485 328.799ZM248.991 574.335L270.461 338.45L249.019 574.307V574.335H248.991ZM315.485 328.799V328.827L270.461 338.45L315.485 328.799ZM248.991 574.335L270.461 338.45L249.019 574.307V574.335H248.991ZM315.485 328.799V328.827L270.461 338.45L315.485 328.799ZM248.991 574.335L270.461 338.45L249.019 574.307V574.335H248.991ZM315.485 328.799V328.827L270.461 338.45L315.485 328.799ZM248.991 574.335L270.461 338.45L249.019 574.307V574.335H248.991ZM315.485 328.799V328.827L270.461 338.45L315.485 328.799ZM248.991 574.335L270.461 338.45L249.019 574.307V574.335H248.991ZM315.485 328.799V328.827L270.461 338.45L315.485 328.799ZM248.991 574.335L270.461 338.45L249.019 574.307V574.335H248.991ZM315.485 328.799V328.827L270.461 338.45L315.485 328.799ZM248.991 574.335L270.461 338.45L249.019 574.307V574.335H248.991ZM315.485 328.799V328.827L270.461 338.45L315.485 328.799ZM248.991 574.335L270.461 338.45L249.019 574.307V574.335H248.991ZM315.485 328.799V328.827L270.461 338.45L315.485 328.799ZM248.991 574.335L270.461 338.45L249.019 574.307V574.335H248.991ZM315.485 328.799V328.827L270.461 338.45L315.485 328.799ZM248.991 574.335L270.461 338.45L249.019 574.307V574.335H248.991ZM315.485 328.799V328.827L270.461 338.45L315.485 328.799ZM248.991 574.335L270.461 338.45L249.019 574.307V574.335H248.991ZM248.991 574.335L270.461 338.45L249.019 574.307V574.335H248.991Z" fill="white"/>
<path d="M382.717 487.734L421.818 708.185L412.084 701.094L375.208 493.185V493.157L382.717 487.734ZM382.717 487.734L421.818 708.185L412.084 701.094L375.208 493.185V493.157L382.717 487.734ZM382.717 487.734L421.818 708.185L412.084 701.094L375.208 493.185V493.157L382.717 487.734ZM382.717 487.734L421.818 708.185L412.084 701.094L375.208 493.185V493.157L382.717 487.734ZM382.717 487.734L421.818 708.185L412.084 701.094L375.208 493.185V493.157L382.717 487.734ZM382.717 487.734L421.818 708.185L412.084 701.094L375.208 493.185V493.157L382.717 487.734ZM382.717 487.734L421.818 708.185L412.084 701.094L375.208 493.185V493.157L382.717 487.734ZM382.717 487.734L421.818 708.185L412.084 701.094L375.208 493.185V493.157L382.717 487.734ZM382.717 487.734L421.818 708.185L412.084 701.094L375.208 493.185V493.157L382.717 487.734ZM382.717 487.734L421.818 708.185L412.084 701.094L375.208 493.185V493.157L382.717 487.734ZM382.717 487.734L421.818 708.185L412.084 701.094L375.208 493.185V493.157L382.717 487.734ZM382.717 487.734L421.818 708.185L412.084 701.094L375.208 493.185V493.157L382.717 487.734ZM382.717 487.734L421.818 708.185L412.084 701.094L375.208 493.185V493.157L382.717 487.734ZM361.192 366.371L395.954 406.89L447.959 467.572L450.267 470.27L451.797 472.05L454.494 475.192L458.416 479.753L458.666 480.059V745.34L458.611 745.312L454.522 742.336L450.323 739.305L450.267 739.277L423.959 720.255L414.253 713.247L414.198 712.941L412.14 701.344L412.084 701.094L375.208 493.185V493.157L373.595 484.036L353.377 370.07L350.513 353.912L361.192 366.371ZM382.717 487.734L421.818 708.185L421.873 708.463L450.267 729.015L450.323 729.043V483.174L450.267 483.118L364.084 382.557L381.104 478.585L382.717 487.734ZM382.717 487.734L421.818 708.185L412.084 701.094L375.208 493.185V493.157L382.717 487.734ZM382.717 487.734L421.818 708.185L412.084 701.094L375.208 493.185V493.157L382.717 487.734ZM382.717 487.734L421.818 708.185L412.084 701.094L375.208 493.185V493.157L382.717 487.734ZM382.717 487.734L421.818 708.185L412.084 701.094L375.208 493.185V493.157L382.717 487.734ZM382.717 487.734L421.818 708.185L412.084 701.094L375.208 493.185V493.157L382.717 487.734ZM382.717 487.734L421.818 708.185L412.084 701.094L375.208 493.185V493.157L382.717 487.734ZM382.717 487.734L421.818 708.185L412.084 701.094L375.208 493.185V493.157L382.717 487.734ZM382.717 487.734L421.818 708.185L412.084 701.094L375.208 493.185V493.157L382.717 487.734ZM382.717 487.734L421.818 708.185L412.084 701.094L375.208 493.185V493.157L382.717 487.734ZM382.717 487.734L421.818 708.185L412.084 701.094L375.208 493.185V493.157L382.717 487.734ZM382.717 487.734L421.818 708.185L412.084 701.094L375.208 493.185V493.157L382.717 487.734ZM382.717 487.734L421.818 708.185L412.084 701.094L375.208 493.185V493.157L382.717 487.734ZM382.717 487.734L421.818 708.185L412.084 701.094L375.208 493.185V493.157L382.717 487.734Z" fill="white"/>
<path d="M246.94 829.183L246.995 831.074L249.721 831.102L252.168 832.742L255.45 834.967V834.995L259.204 965.869V965.897L255.7 968.484L250.805 963.589L247.246 840.112L246.967 831.074L246.912 829.183L246.828 825.706L246.94 829.183ZM246.94 829.183L246.995 831.074L249.721 831.102L252.168 832.742L255.45 834.967V834.995L259.204 965.869V965.897L255.7 968.484L250.805 963.589L247.246 840.112L246.967 831.074L246.912 829.183L246.828 825.706L246.94 829.183ZM246.94 829.183L246.995 831.074L249.721 831.102L252.168 832.742L255.45 834.967V834.995L259.204 965.869V965.897L255.7 968.484L250.805 963.589L247.246 840.112L246.967 831.074L246.912 829.183L246.828 825.706L246.94 829.183ZM246.94 829.183L246.995 831.074L249.721 831.102L252.168 832.742L255.45 834.967V834.995L259.204 965.869V965.897L255.7 968.484L250.805 963.589L247.246 840.112L246.967 831.074L246.912 829.183L246.828 825.706L246.94 829.183ZM246.94 829.183L246.995 831.074L249.721 831.102L252.168 832.742L255.45 834.967V834.995L259.204 965.869V965.897L255.7 968.484L250.805 963.589L247.246 840.112L246.967 831.074L246.912 829.183L246.828 825.706L246.94 829.183ZM246.94 829.183L246.995 831.074L249.721 831.102L252.168 832.742L255.45 834.967V834.995L259.204 965.869V965.897L255.7 968.484L250.805 963.589L247.246 840.112L246.967 831.074L246.912 829.183L246.828 825.706L246.94 829.183ZM246.94 829.183L246.995 831.074L249.721 831.102L252.168 832.742L255.45 834.967V834.995L259.204 965.869V965.897L255.7 968.484L250.805 963.589L247.246 840.112L246.967 831.074L246.912 829.183L246.828 825.706L246.94 829.183ZM246.94 829.183L246.995 831.074L249.721 831.102L252.168 832.742L255.45 834.967V834.995L259.204 965.869V965.897L255.7 968.484L250.805 963.589L247.246 840.112L246.967 831.074L246.912 829.183L246.828 825.706L246.94 829.183ZM246.94 829.183L246.995 831.074L249.721 831.102L252.168 832.742L255.45 834.967V834.995L259.204 965.869V965.897L255.7 968.484L250.805 963.589L247.246 840.112L246.967 831.074L246.912 829.183L246.828 825.706L246.94 829.183ZM246.94 829.183L246.995 831.074L249.721 831.102L252.168 832.742L255.45 834.967V834.995L259.204 965.869V965.897L255.7 968.484L250.805 963.589L247.246 840.112L246.967 831.074L246.912 829.183L246.828 825.706L246.94 829.183ZM246.94 829.183L246.995 831.074L249.721 831.102L252.168 832.742L255.45 834.967V834.995L259.204 965.869V965.897L255.7 968.484L250.805 963.589L247.246 840.112L246.967 831.074L246.912 829.183L246.828 825.706L246.94 829.183ZM246.94 829.183L246.995 831.074L249.721 831.102L252.168 832.742L255.45 834.967V834.995L259.204 965.869V965.897L255.7 968.484L250.805 963.589L247.246 840.112L246.967 831.074L246.912 829.183L246.828 825.706L246.94 829.183ZM246.94 829.183L246.995 831.074L249.721 831.102L252.168 832.742L255.45 834.967V834.995L259.204 965.869V965.897L255.7 968.484L250.805 963.589L247.246 840.112L246.967 831.074L246.912 829.183L246.828 825.706L246.94 829.183ZM246.94 829.183L246.995 831.074L249.721 831.102L252.168 832.742L255.45 834.967V834.995L259.204 965.869V965.897L255.7 968.484L250.805 963.589L247.246 840.112L246.967 831.074L246.912 829.183L246.828 825.706L246.94 829.183ZM239.097 584.648L239.598 583.091L239.82 582.451L239.876 582.256L240.46 580.504L241.85 576.333L244.02 569.853L247.496 559.424L247.941 575.081L248.108 580.922L248.163 582.368L248.191 583.091V583.675L248.247 585.177L248.414 591.489L254.838 813.692V813.72L255.088 822.758L255.144 824.677L255.227 828.126L255.338 831.102L255.45 834.967V834.995L259.204 965.869V965.897L259.399 972.182L259.427 973.378L260.038 975.631L263.264 987.867L377.898 1421.29L379.594 1427.71L371.752 1430.47L371.585 1430.13L139.481 909.776L134.476 898.513L239.097 584.648ZM358.292 1379.85L252.808 980.97L251.556 976.159L251.528 976.131L251.25 975.047L251.111 974.602V974.491L251.028 971.932L250.805 963.589L247.246 840.112L246.967 831.074L246.912 829.183L246.828 825.706L246.745 822.758L246.634 818.893L240.516 606.757L143.403 898.068L358.292 1379.85ZM246.94 829.183L246.995 831.074L249.721 831.102L252.168 832.742L255.45 834.967V834.995L259.204 965.869V965.897L255.7 968.484L250.805 963.589L247.246 840.112L246.967 831.074L246.912 829.183L246.828 825.706L246.94 829.183ZM246.94 829.183L246.995 831.074L249.721 831.102L252.168 832.742L255.45 834.967V834.995L259.204 965.869V965.897L255.7 968.484L250.805 963.589L247.246 840.112L246.967 831.074L246.912 829.183L246.828 825.706L246.94 829.183ZM246.94 829.183L246.995 831.074L249.721 831.102L252.168 832.742L255.45 834.967V834.995L259.204 965.869V965.897L255.7 968.484L250.805 963.589L247.246 840.112L246.967 831.074L246.912 829.183L246.828 825.706L246.94 829.183ZM246.94 829.183L246.995 831.074L249.721 831.102L252.168 832.742L255.45 834.967V834.995L259.204 965.869V965.897L255.7 968.484L250.805 963.589L247.246 840.112L246.967 831.074L246.912 829.183L246.828 825.706L246.94 829.183ZM246.94 829.183L246.995 831.074L249.721 831.102L252.168 832.742L255.45 834.967V834.995L259.204 965.869V965.897L255.7 968.484L250.805 963.589L247.246 840.112L246.967 831.074L246.912 829.183L246.828 825.706L246.94 829.183ZM246.94 829.183L246.995 831.074L249.721 831.102L252.168 832.742L255.45 834.967V834.995L259.204 965.869V965.897L255.7 968.484L250.805 963.589L247.246 840.112L246.967 831.074L246.912 829.183L246.828 825.706L246.94 829.183ZM246.94 829.183L246.995 831.074L249.721 831.102L252.168 832.742L255.45 834.967V834.995L259.204 965.869V965.897L255.7 968.484L250.805 963.589L247.246 840.112L246.967 831.074L246.912 829.183L246.828 825.706L246.94 829.183ZM246.94 829.183L246.995 831.074L249.721 831.102L252.168 832.742L255.45 834.967V834.995L259.204 965.869V965.897L255.7 968.484L250.805 963.589L247.246 840.112L246.967 831.074L246.912 829.183L246.828 825.706L246.94 829.183ZM246.94 829.183L246.995 831.074L249.721 831.102L252.168 832.742L255.45 834.967V834.995L259.204 965.869V965.897L255.7 968.484L250.805 963.589L247.246 840.112L246.967 831.074L246.912 829.183L246.828 825.706L246.94 829.183ZM246.94 829.183L246.995 831.074L249.721 831.102L252.168 832.742L255.45 834.967V834.995L259.204 965.869V965.897L255.7 968.484L250.805 963.589L247.246 840.112L246.967 831.074L246.912 829.183L246.828 825.706L246.94 829.183ZM246.94 829.183L246.995 831.074L249.721 831.102L252.168 832.742L255.45 834.967V834.995L259.204 965.869V965.897L255.7 968.484L250.805 963.589L247.246 840.112L246.967 831.074L246.912 829.183L246.828 825.706L246.94 829.183ZM246.94 829.183L246.995 831.074L249.721 831.102L252.168 832.742L255.45 834.967V834.995L259.204 965.869V965.897L255.7 968.484L250.805 963.589L247.246 840.112L246.967 831.074L246.912 829.183L246.828 825.706L246.94 829.183ZM246.94 829.183L246.995 831.074L249.721 831.102L252.168 832.742L255.45 834.967V834.995L259.204 965.869V965.897L255.7 968.484L250.805 963.589L247.246 840.112L246.967 831.074L246.912 829.183L246.828 825.706L246.94 829.183ZM246.94 829.183L246.995 831.074L249.721 831.102L252.168 832.742L255.45 834.967V834.995L259.204 965.869V965.897L255.7 968.484L250.805 963.589L247.246 840.112L246.967 831.074L246.912 829.183L246.828 825.706L246.94 829.183Z" fill="white"/>
<path d="M33.9809 553.538V553.482L129.815 251.242L134.125 237.643L138.603 251.158V251.186L241.695 562.715V562.743L244.059 569.862L246.2 576.37L247.591 580.514L248.008 581.793L248.202 582.377L248.258 582.6L248.425 583.1L248.23 583.684L248.147 583.962L247.563 585.686L246.172 589.83L244.003 596.338L240.555 606.683V606.767L143.442 898.078L139.52 909.786L130.76 936.094L36.0388 568.583L32.9798 556.653L33.9809 553.538ZM131.789 906.643L134.515 898.523L239.108 584.657H239.136L239.637 583.1L239.108 581.515L134.292 264.757L41.6565 556.903L131.789 906.643ZM138.603 251.186L241.695 562.715V562.743L244.059 569.862L246.2 576.37L244.059 577.927L241.889 576.342L240.499 580.514L240.054 580.847L239.832 581.014L239.108 581.515L134.292 264.757V264.73L138.603 251.186Z" fill="white"/>
<path d="M134.105 237.636L160.219 155.29L163.667 144.416L169.285 154.344L268.706 330.299L270.848 334.109L270.458 338.447L248.989 574.333L248.377 581.091L248.238 582.592L248.21 583.093L248.127 583.955L247.988 585.374L247.487 590.797L246.347 603.422L243.983 596.331L241.842 589.823L240.479 585.652L239.895 583.872L239.784 583.594L239.089 581.508L134.272 264.75V264.723L130.24 252.486L129.795 251.235L134.105 237.636ZM241.675 562.708L262.31 335.944V335.917L165.837 165.218L138.583 251.151V251.179L241.675 562.708Z" fill="white"/>
<path d="M305.721 169.364L308.975 172.423L308.391 162.773V162.717L308.419 162.745L322.018 309.054V309.082L323.214 322.042L320.738 319.15L316.4 320.095L314.704 320.429L301.605 179.626L305.721 169.364ZM163.667 144.418L190.392 60.1259L193.201 51.3101L199.931 57.6786L299.352 151.844L302.578 154.875L308.168 160.187L308.307 161.828L308.391 162.717L308.419 162.745L322.018 309.054V309.082L323.214 322.042L323.464 324.572L323.686 327.048L321.99 327.409L317.652 328.355H317.624L315.482 328.8L270.458 338.45L264.451 339.729L262.309 335.947V335.919L165.836 165.22L160.218 155.292L163.667 144.418ZM268.706 330.301L314.704 320.457V320.429L301.605 179.626L300.159 164.08L300.076 163.997L197.122 66.5222L169.284 154.347L268.706 330.301ZM305.721 169.364L308.975 172.423L308.391 162.773V162.717L308.419 162.745L322.018 309.054V309.082L323.214 322.042L320.738 319.15L316.4 320.095L314.704 320.429L301.605 179.626L305.721 169.364Z" fill="white"/>
<path d="M314.916 322.931L316.389 320.094L322.007 309.082V309.054L398.012 160.547V160.52L403.936 148.951L406.161 162.439V162.466L450.267 430.278L450.323 430.612L454.467 455.808L457.164 472.105L458.416 479.752L458.666 481.31V492.906L458.611 492.851L454.494 488.04L450.323 483.173L450.267 483.117L364.084 382.556L364.056 382.528L353.377 370.069L320.06 331.19L317.641 328.354H317.613L315.166 325.489L314.192 324.349L314.916 322.931ZM350.513 353.884L361.192 366.37L395.954 406.89L447.959 467.571L399.82 175.315L324.176 323.153L350.513 353.884Z" fill="white"/>
<path d="M398.012 160.547V160.519L450.267 3.7531L450.323 3.58625L454.439 -8.78921L458.611 -21.276L458.666 -21.4429V481.615L453.938 482.004L450.379 482.282L450.295 481.698H450.267V481.615L447.959 467.571L399.82 175.314V175.203L397.762 162.799L397.595 161.77L398.012 160.547ZM450.267 430.277L450.323 430.611V29.9781L450.267 30.145L406.161 162.438V162.466L450.267 430.277Z" fill="white"/>
<path d="M305.71 169.362L308.38 162.771V162.715L367.032 16.7674L308.408 162.743L322.007 309.052L398.012 160.546L397.595 161.769L397.762 162.798L399.82 175.202L324.176 323.152L323.453 324.57L321.979 327.407L317.641 328.352H317.613L315.472 328.825V328.797L315.166 325.488L314.916 322.929L314.693 320.454V320.426L301.594 179.624L300.148 164.078L305.71 169.362ZM305.71 169.362L308.38 162.771V162.715L367.032 16.7674L308.408 162.743L322.007 309.052L398.012 160.546L397.595 161.769L397.762 162.798L399.82 175.202L324.176 323.152L323.453 324.57L321.979 327.407L317.641 328.352H317.613L315.472 328.825V328.797L315.166 325.488L314.916 322.929L314.693 320.454V320.426L301.594 179.624L300.148 164.078L305.71 169.362ZM305.71 169.362L308.38 162.771V162.715L367.032 16.7674L308.408 162.743L322.007 309.052L398.012 160.546L397.595 161.769L397.762 162.798L399.82 175.202L324.176 323.152L323.453 324.57L321.979 327.407L317.641 328.352H317.613L315.472 328.825V328.797L315.166 325.488L314.916 322.929L314.693 320.454V320.426L301.594 179.624L300.148 164.078L305.71 169.362ZM305.71 169.362L308.38 162.771V162.715L367.032 16.7674L308.408 162.743L322.007 309.052L398.012 160.546L397.595 161.769L397.762 162.798L399.82 175.202L324.176 323.152L323.453 324.57L321.979 327.407L317.641 328.352H317.613L315.472 328.825V328.797L315.166 325.488L314.916 322.929L314.693 320.454V320.426L301.594 179.624L300.148 164.078L305.71 169.362ZM305.71 169.362L308.38 162.771V162.715L367.032 16.7674L308.408 162.743L322.007 309.052L398.012 160.546L397.595 161.769L397.762 162.798L399.82 175.202L324.176 323.152L323.453 324.57L321.979 327.407L317.641 328.352H317.613L315.472 328.825V328.797L315.166 325.488L314.916 322.929L314.693 320.454V320.426L301.594 179.624L300.148 164.078L305.71 169.362ZM305.71 169.362L308.38 162.771V162.715L367.032 16.7674L308.408 162.743L322.007 309.052L398.012 160.546L397.595 161.769L397.762 162.798L399.82 175.202L324.176 323.152L323.453 324.57L321.979 327.407L317.641 328.352H317.613L315.472 328.825V328.797L315.166 325.488L314.916 322.929L314.693 320.454V320.426L301.594 179.624L300.148 164.078L305.71 169.362ZM305.71 169.362L308.38 162.771V162.715L367.032 16.7674L308.408 162.743L322.007 309.052L398.012 160.546L397.595 161.769L397.762 162.798L399.82 175.202L324.176 323.152L323.453 324.57L321.979 327.407L317.641 328.352H317.613L315.472 328.825V328.797L315.166 325.488L314.916 322.929L314.693 320.454V320.426L301.594 179.624L300.148 164.078L305.71 169.362ZM305.71 169.362L308.38 162.771V162.715L367.032 16.7674L308.408 162.743L322.007 309.052L398.012 160.546L397.595 161.769L397.762 162.798L399.82 175.202L324.176 323.152L323.453 324.57L321.979 327.407L317.641 328.352H317.613L315.472 328.825V328.797L315.166 325.488L314.916 322.929L314.693 320.454V320.426L301.594 179.624L300.148 164.078L305.71 169.362ZM305.71 169.362L308.38 162.771V162.715L367.032 16.7674L308.408 162.743L322.007 309.052L398.012 160.546L397.595 161.769L397.762 162.798L399.82 175.202L324.176 323.152L323.453 324.57L321.979 327.407L317.641 328.352H317.613L315.472 328.825V328.797L315.166 325.488L314.916 322.929L314.693 320.454V320.426L301.594 179.624L300.148 164.078L305.71 169.362ZM305.71 169.362L308.38 162.771V162.715L367.032 16.7674L308.408 162.743L322.007 309.052L398.012 160.546L397.595 161.769L397.762 162.798L399.82 175.202L324.176 323.152L323.453 324.57L321.979 327.407L317.641 328.352H317.613L315.472 328.825V328.797L315.166 325.488L314.916 322.929L314.693 320.454V320.426L301.594 179.624L300.148 164.078L305.71 169.362ZM305.71 169.362L308.38 162.771V162.715L367.032 16.7674L308.408 162.743L322.007 309.052L398.012 160.546L397.595 161.769L397.762 162.798L399.82 175.202L324.176 323.152L323.453 324.57L321.979 327.407L317.641 328.352H317.613L315.472 328.825V328.797L315.166 325.488L314.916 322.929L314.693 320.454V320.426L301.594 179.624L300.148 164.078L305.71 169.362ZM305.71 169.362L308.38 162.771V162.715L367.032 16.7674L308.408 162.743L322.007 309.052L398.012 160.546L397.595 161.769L397.762 162.798L399.82 175.202L324.176 323.152L323.453 324.57L321.979 327.407L317.641 328.352H317.613L315.472 328.825V328.797L315.166 325.488L314.916 322.929L314.693 320.454V320.426L301.594 179.624L300.148 164.078L305.71 169.362ZM305.71 169.362L308.38 162.771V162.715L367.032 16.7674L308.408 162.743L322.007 309.052L398.012 160.546L397.595 161.769L397.762 162.798L399.82 175.202L324.176 323.152L323.453 324.57L321.979 327.407L317.641 328.352H317.613L315.472 328.825V328.797L315.166 325.488L314.916 322.929L314.693 320.454V320.426L301.594 179.624L300.148 164.078L305.71 169.362ZM398.012 160.546V160.518L450.267 3.75217V5.0315L454.439 17.6017L450.323 29.9772L450.267 30.144L406.161 162.437V162.465L405.827 163.438L399.82 175.202L397.762 162.798L397.595 161.769L398.012 160.546ZM299.926 161.436L302.568 154.873L307.184 143.387V143.359L389.641 -61.8519V-61.8797L398.791 -84.6284L399.041 -85.268L415.672 -104.29L450.267 -143.836L450.323 -143.892L454.439 -148.592L458.611 -153.375L458.666 -153.431V4.94807L454.439 17.6017L450.323 29.9772L450.267 30.144L406.161 162.437V162.465L405.827 163.438L399.82 175.202L324.176 323.152L323.453 324.57L321.979 327.407L320.06 331.189L317.641 328.352H317.613L315.472 328.825V328.797L315.166 325.488L314.916 322.929L314.693 320.454V320.426L301.594 179.624L300.148 164.078L300.009 162.52L299.954 161.964L299.898 161.491L299.926 161.436ZM322.007 309.052L398.012 160.546V160.518L450.267 3.75217L450.323 3.58532V-131.21L450.267 -131.155L406.272 -80.9019L406.244 -80.8462L406.216 -80.8184L367.032 16.7674L308.408 162.743L322.007 309.052ZM398.012 160.546V160.518L450.267 3.75217V5.0315L454.439 17.6017L450.323 29.9772L450.267 30.144L406.161 162.437V162.465L405.827 163.438L399.82 175.202L397.762 162.798L397.595 161.769L398.012 160.546ZM305.71 169.362L308.38 162.771V162.715L367.032 16.7674L308.408 162.743L322.007 309.052L398.012 160.546L397.595 161.769L397.762 162.798L399.82 175.202L324.176 323.152L323.453 324.57L321.979 327.407L317.641 328.352H317.613L315.472 328.825V328.797L315.166 325.488L314.916 322.929L314.693 320.454V320.426L301.594 179.624L300.148 164.078L305.71 169.362ZM305.71 169.362L308.38 162.771V162.715L367.032 16.7674L308.408 162.743L322.007 309.052L398.012 160.546L397.595 161.769L397.762 162.798L399.82 175.202L324.176 323.152L323.453 324.57L321.979 327.407L317.641 328.352H317.613L315.472 328.825V328.797L315.166 325.488L314.916 322.929L314.693 320.454V320.426L301.594 179.624L300.148 164.078L305.71 169.362ZM305.71 169.362L308.38 162.771V162.715L367.032 16.7674L308.408 162.743L322.007 309.052L398.012 160.546L397.595 161.769L397.762 162.798L399.82 175.202L324.176 323.152L323.453 324.57L321.979 327.407L317.641 328.352H317.613L315.472 328.825V328.797L315.166 325.488L314.916 322.929L314.693 320.454V320.426L301.594 179.624L300.148 164.078L305.71 169.362ZM305.71 169.362L308.38 162.771V162.715L367.032 16.7674L308.408 162.743L322.007 309.052L398.012 160.546L397.595 161.769L397.762 162.798L399.82 175.202L324.176 323.152L323.453 324.57L321.979 327.407L317.641 328.352H317.613L315.472 328.825V328.797L315.166 325.488L314.916 322.929L314.693 320.454V320.426L301.594 179.624L300.148 164.078L305.71 169.362ZM305.71 169.362L308.38 162.771V162.715L367.032 16.7674L308.408 162.743L322.007 309.052L398.012 160.546L397.595 161.769L397.762 162.798L399.82 175.202L324.176 323.152L323.453 324.57L321.979 327.407L317.641 328.352H317.613L315.472 328.825V328.797L315.166 325.488L314.916 322.929L314.693 320.454V320.426L301.594 179.624L300.148 164.078L305.71 169.362ZM305.71 169.362L308.38 162.771V162.715L367.032 16.7674L308.408 162.743L322.007 309.052L398.012 160.546L397.595 161.769L397.762 162.798L399.82 175.202L324.176 323.152L323.453 324.57L321.979 327.407L317.641 328.352H317.613L315.472 328.825V328.797L315.166 325.488L314.916 322.929L314.693 320.454V320.426L301.594 179.624L300.148 164.078L305.71 169.362ZM305.71 169.362L308.38 162.771V162.715L367.032 16.7674L308.408 162.743L322.007 309.052L398.012 160.546L397.595 161.769L397.762 162.798L399.82 175.202L324.176 323.152L323.453 324.57L321.979 327.407L317.641 328.352H317.613L315.472 328.825V328.797L315.166 325.488L314.916 322.929L314.693 320.454V320.426L301.594 179.624L300.148 164.078L305.71 169.362ZM305.71 169.362L308.38 162.771V162.715L367.032 16.7674L308.408 162.743L322.007 309.052L398.012 160.546L397.595 161.769L397.762 162.798L399.82 175.202L324.176 323.152L323.453 324.57L321.979 327.407L317.641 328.352H317.613L315.472 328.825V328.797L315.166 325.488L314.916 322.929L314.693 320.454V320.426L301.594 179.624L300.148 164.078L305.71 169.362ZM305.71 169.362L308.38 162.771V162.715L367.032 16.7674L308.408 162.743L322.007 309.052L398.012 160.546L397.595 161.769L397.762 162.798L399.82 175.202L324.176 323.152L323.453 324.57L321.979 327.407L317.641 328.352H317.613L315.472 328.825V328.797L315.166 325.488L314.916 322.929L314.693 320.454V320.426L301.594 179.624L300.148 164.078L305.71 169.362ZM305.71 169.362L308.38 162.771V162.715L367.032 16.7674L308.408 162.743L322.007 309.052L398.012 160.546L397.595 161.769L397.762 162.798L399.82 175.202L324.176 323.152L323.453 324.57L321.979 327.407L317.641 328.352H317.613L315.472 328.825V328.797L315.166 325.488L314.916 322.929L314.693 320.454V320.426L301.594 179.624L300.148 164.078L305.71 169.362ZM305.71 169.362L308.38 162.771V162.715L367.032 16.7674L308.408 162.743L322.007 309.052L398.012 160.546L397.595 161.769L397.762 162.798L399.82 175.202L324.176 323.152L323.453 324.57L321.979 327.407L317.641 328.352H317.613L315.472 328.825V328.797L315.166 325.488L314.916 322.929L314.693 320.454V320.426L301.594 179.624L300.148 164.078L305.71 169.362ZM305.71 169.362L308.38 162.771V162.715L367.032 16.7674L308.408 162.743L322.007 309.052L398.012 160.546L397.595 161.769L397.762 162.798L399.82 175.202L324.176 323.152L323.453 324.57L321.979 327.407L317.641 328.352H317.613L315.472 328.825V328.797L315.166 325.488L314.916 322.929L314.693 320.454V320.426L301.594 179.624L300.148 164.078L305.71 169.362ZM305.71 169.362L308.38 162.771V162.715L367.032 16.7674L308.408 162.743L322.007 309.052L398.012 160.546L397.595 161.769L397.762 162.798L399.82 175.202L324.176 323.152L323.453 324.57L321.979 327.407L317.641 328.352H317.613L315.472 328.825V328.797L315.166 325.488L314.916 322.929L314.693 320.454V320.426L301.594 179.624L300.148 164.078L305.71 169.362Z" fill="white"/>
<path d="M298.369 29.7879V29.7601L399.041 -85.2625L415.672 -104.285L406.272 -80.8964L406.244 -80.8407L406.216 -80.8129L367.032 16.7728L308.38 162.72V162.776L305.71 169.367L301.595 179.629L301.094 180.88L300.065 164L299.954 161.969L299.926 161.441L299.342 151.847L292.501 38.9097V38.8262L292.362 36.6292L298.369 29.7879ZM389.642 -61.8465L300.899 39.5493L307.185 143.365L389.642 -61.8465Z" fill="white"/>
<path d="M193.178 51.3102L196.487 40.8258L223.908 -45.775L223.936 -45.8306L228.997 -61.877L244.71 -111.435L249.076 -125.229L253.442 -111.463V-111.435H253.47L280.863 -25.2511L298.356 29.7573V29.7852L300.58 36.8211L300.747 39.6856L307.171 143.362V143.39L308.284 161.828L308.367 162.718V162.773L308.951 172.423L305.697 169.364L300.135 164.08L300.052 163.997L197.099 66.5223L190.369 60.126L193.178 51.3102ZM299.329 151.844L292.487 38.9069V38.8235L254.805 -79.6477L249.076 -97.6131L241.373 -73.307L236.283 -57.2328L199.908 57.6787L299.329 151.844Z" fill="white"/>
<path d="M190.397 60.1249L197.127 66.5212L169.289 154.346L163.671 144.417L190.397 60.1249ZM190.397 60.1249L197.127 66.5212L169.289 154.346L163.671 144.417L190.397 60.1249ZM190.397 60.1249L197.127 66.5212L169.289 154.346L163.671 144.417L190.397 60.1249ZM190.397 60.1249L197.127 66.5212L169.289 154.346L163.671 144.417L190.397 60.1249ZM190.397 60.1249L197.127 66.5212L169.289 154.346L163.671 144.417L190.397 60.1249ZM190.397 60.1249L197.127 66.5212L169.289 154.346L163.671 144.417L190.397 60.1249ZM190.397 60.1249L197.127 66.5212L169.289 154.346L163.671 144.417L190.397 60.1249ZM190.397 60.1249L197.127 66.5212L169.289 154.346L163.671 144.417L190.397 60.1249ZM190.397 60.1249L197.127 66.5212L169.289 154.346L163.671 144.417L190.397 60.1249ZM190.397 60.1249L197.127 66.5212L169.289 154.346L163.671 144.417L190.397 60.1249ZM190.397 60.1249L197.127 66.5212L169.289 154.346L163.671 144.417L190.397 60.1249ZM190.397 60.1249L197.127 66.5212L169.289 154.346L163.671 144.417L190.397 60.1249ZM190.397 60.1249L197.127 66.5212L169.289 154.346L163.671 144.417L190.397 60.1249ZM190.397 60.1249L197.127 66.5212L169.289 154.346L163.671 144.417L190.397 60.1249ZM223.658 -56.9002L229.025 -61.8782L229.108 -61.9338L241.401 -73.3082L241.512 -73.4194L236.728 -58.3741L236.395 -57.3173L199.936 57.6776L197.127 66.5212L169.289 154.346L165.84 165.219L138.586 251.153V251.18L134.276 264.724V264.752L41.6403 556.897L41.2788 558.037L36.0226 568.578L25.6217 589.491V126.48L223.658 -56.9002ZM129.798 251.236L134.109 237.637L160.223 155.291L163.671 144.417L190.397 60.1249L193.206 51.309L196.515 40.8246L223.991 -45.8317H223.964L94.5074 74.0577L33.9647 130.123V553.477L129.798 251.236ZM190.397 60.1249L197.127 66.5212L169.289 154.346L163.671 144.417L190.397 60.1249ZM190.397 60.1249L197.127 66.5212L169.289 154.346L163.671 144.417L190.397 60.1249ZM190.397 60.1249L197.127 66.5212L169.289 154.346L163.671 144.417L190.397 60.1249ZM190.397 60.1249L197.127 66.5212L169.289 154.346L163.671 144.417L190.397 60.1249ZM190.397 60.1249L197.127 66.5212L169.289 154.346L163.671 144.417L190.397 60.1249ZM190.397 60.1249L197.127 66.5212L169.289 154.346L163.671 144.417L190.397 60.1249ZM190.397 60.1249L197.127 66.5212L169.289 154.346L163.671 144.417L190.397 60.1249ZM190.397 60.1249L197.127 66.5212L169.289 154.346L163.671 144.417L190.397 60.1249ZM190.397 60.1249L197.127 66.5212L169.289 154.346L163.671 144.417L190.397 60.1249ZM190.397 60.1249L197.127 66.5212L169.289 154.346L163.671 144.417L190.397 60.1249ZM190.397 60.1249L197.127 66.5212L169.289 154.346L163.671 144.417L190.397 60.1249ZM190.397 60.1249L197.127 66.5212L169.289 154.346L163.671 144.417L190.397 60.1249ZM190.397 60.1249L197.127 66.5212L169.289 154.346L163.671 144.417L190.397 60.1249ZM190.397 60.1249L197.127 66.5212L169.289 154.346L163.671 144.417L190.397 60.1249Z" fill="white"/>
<path d="M253.455 -111.407L280.876 -25.2516L298.369 29.7569L399.041 -85.2658L398.791 -84.6262L389.641 -61.8775V-61.8497L300.899 39.5461L300.76 39.6851L294.892 46.4152L292.5 38.9064V38.823L254.818 -79.6482L249.089 -97.6135L253.455 -111.407ZM253.455 -111.407L280.876 -25.2516L298.369 29.7569L399.041 -85.2658L398.791 -84.6262L389.641 -61.8775V-61.8497L300.899 39.5461L300.76 39.6851L294.892 46.4152L292.5 38.9064V38.823L254.818 -79.6482L249.089 -97.6135L253.455 -111.407ZM253.455 -111.407L280.876 -25.2516L298.369 29.7569L399.041 -85.2658L398.791 -84.6262L389.641 -61.8775V-61.8497L300.899 39.5461L300.76 39.6851L294.892 46.4152L292.5 38.9064V38.823L254.818 -79.6482L249.089 -97.6135L253.455 -111.407ZM253.455 -111.407L280.876 -25.2516L298.369 29.7569L399.041 -85.2658L398.791 -84.6262L389.641 -61.8775V-61.8497L300.899 39.5461L300.76 39.6851L294.892 46.4152L292.5 38.9064V38.823L254.818 -79.6482L249.089 -97.6135L253.455 -111.407ZM253.455 -111.407L280.876 -25.2516L298.369 29.7569L399.041 -85.2658L398.791 -84.6262L389.641 -61.8775V-61.8497L300.899 39.5461L300.76 39.6851L294.892 46.4152L292.5 38.9064V38.823L254.818 -79.6482L249.089 -97.6135L253.455 -111.407ZM253.455 -111.407L280.876 -25.2516L298.369 29.7569L399.041 -85.2658L398.791 -84.6262L389.641 -61.8775V-61.8497L300.899 39.5461L300.76 39.6851L294.892 46.4152L292.5 38.9064V38.823L254.818 -79.6482L249.089 -97.6135L253.455 -111.407ZM253.455 -111.407L280.876 -25.2516L298.369 29.7569L399.041 -85.2658L398.791 -84.6262L389.641 -61.8775V-61.8497L300.899 39.5461L300.76 39.6851L294.892 46.4152L292.5 38.9064V38.823L254.818 -79.6482L249.089 -97.6135L253.455 -111.407ZM253.455 -111.407L280.876 -25.2516L298.369 29.7569L399.041 -85.2658L398.791 -84.6262L389.641 -61.8775V-61.8497L300.899 39.5461L300.76 39.6851L294.892 46.4152L292.5 38.9064V38.823L254.818 -79.6482L249.089 -97.6135L253.455 -111.407ZM253.455 -111.407L280.876 -25.2516L298.369 29.7569L399.041 -85.2658L398.791 -84.6262L389.641 -61.8775V-61.8497L300.899 39.5461L300.76 39.6851L294.892 46.4152L292.5 38.9064V38.823L254.818 -79.6482L249.089 -97.6135L253.455 -111.407ZM253.455 -111.407L280.876 -25.2516L298.369 29.7569L399.041 -85.2658L398.791 -84.6262L389.641 -61.8775V-61.8497L300.899 39.5461L300.76 39.6851L294.892 46.4152L292.5 38.9064V38.823L254.818 -79.6482L249.089 -97.6135L253.455 -111.407ZM253.455 -111.407L280.876 -25.2516L298.369 29.7569L399.041 -85.2658L398.791 -84.6262L389.641 -61.8775V-61.8497L300.899 39.5461L300.76 39.6851L294.892 46.4152L292.5 38.9064V38.823L254.818 -79.6482L249.089 -97.6135L253.455 -111.407ZM253.455 -111.407L280.876 -25.2516L298.369 29.7569L399.041 -85.2658L398.791 -84.6262L389.641 -61.8775V-61.8497L300.899 39.5461L300.76 39.6851L294.892 46.4152L292.5 38.9064V38.823L254.818 -79.6482L249.089 -97.6135L253.455 -111.407ZM253.455 -111.407L280.876 -25.2516L298.369 29.7569L399.041 -85.2658L398.791 -84.6262L389.641 -61.8775V-61.8497L300.899 39.5461L300.76 39.6851L294.892 46.4152L292.5 38.9064V38.823L254.818 -79.6482L249.089 -97.6135L253.455 -111.407ZM398.791 -84.6262L399.041 -85.2658L415.672 -104.288L450.267 -143.834L450.323 -143.89V-177.456L450.657 -177.29L452.715 -183.658L454.55 -184.659L456.219 -183.741L458.332 -177.234L458.611 -177.373V-143.806L458.666 -143.75V-140.747L454.439 -135.908L450.323 -131.208L450.267 -131.153L406.272 -80.8997L406.244 -80.844L406.216 -80.8161L389.641 -61.8775L398.791 -84.6262ZM249.089 -125.229L271.031 -194.782L271.059 -194.81L274.368 -205.294L275.954 -206.184L276.093 -206.268L332.019 -237.359H332.047L343.31 -243.617L344.644 -244.34L345.479 -244.812L346.758 -244.117L353.822 -240.224V-240.196L354.1 -240.057L450.267 -186.995L450.323 -186.967L453.271 -185.355L454.55 -184.659L456.219 -183.741L458.666 -182.379V-140.747L454.439 -135.908L450.323 -131.208L450.267 -131.153L406.272 -80.8997L406.244 -80.844L406.216 -80.8161L389.641 -61.8775V-61.8497L300.899 39.5461L300.76 39.6851L294.892 46.4152L292.5 38.9064V38.823L254.818 -79.6482L249.089 -97.6135L245.112 -110.156L244.723 -111.435L249.089 -125.229ZM280.876 -25.2516L298.369 29.7569L399.041 -85.2658L415.672 -104.288L450.267 -143.834L450.323 -143.89V-177.456L450.267 -177.484L345.507 -235.274L281.321 -199.621L268.89 -160.242L253.455 -111.463V-111.407L280.876 -25.2516ZM398.791 -84.6262L399.041 -85.2658L415.672 -104.288L450.267 -143.834L450.323 -143.89V-177.456L450.657 -177.29L452.715 -183.658L454.55 -184.659L456.219 -183.741L458.332 -177.234L458.611 -177.373V-143.806L458.666 -143.75V-140.747L454.439 -135.908L450.323 -131.208L450.267 -131.153L406.272 -80.8997L406.244 -80.844L406.216 -80.8161L389.641 -61.8775L398.791 -84.6262ZM253.455 -111.407L280.876 -25.2516L298.369 29.7569L399.041 -85.2658L398.791 -84.6262L389.641 -61.8775V-61.8497L300.899 39.5461L300.76 39.6851L294.892 46.4152L292.5 38.9064V38.823L254.818 -79.6482L249.089 -97.6135L253.455 -111.407ZM253.455 -111.407L280.876 -25.2516L298.369 29.7569L399.041 -85.2658L398.791 -84.6262L389.641 -61.8775V-61.8497L300.899 39.5461L300.76 39.6851L294.892 46.4152L292.5 38.9064V38.823L254.818 -79.6482L249.089 -97.6135L253.455 -111.407ZM253.455 -111.407L280.876 -25.2516L298.369 29.7569L399.041 -85.2658L398.791 -84.6262L389.641 -61.8775V-61.8497L300.899 39.5461L300.76 39.6851L294.892 46.4152L292.5 38.9064V38.823L254.818 -79.6482L249.089 -97.6135L253.455 -111.407ZM253.455 -111.407L280.876 -25.2516L298.369 29.7569L399.041 -85.2658L398.791 -84.6262L389.641 -61.8775V-61.8497L300.899 39.5461L300.76 39.6851L294.892 46.4152L292.5 38.9064V38.823L254.818 -79.6482L249.089 -97.6135L253.455 -111.407ZM253.455 -111.407L280.876 -25.2516L298.369 29.7569L399.041 -85.2658L398.791 -84.6262L389.641 -61.8775V-61.8497L300.899 39.5461L300.76 39.6851L294.892 46.4152L292.5 38.9064V38.823L254.818 -79.6482L249.089 -97.6135L253.455 -111.407ZM253.455 -111.407L280.876 -25.2516L298.369 29.7569L399.041 -85.2658L398.791 -84.6262L389.641 -61.8775V-61.8497L300.899 39.5461L300.76 39.6851L294.892 46.4152L292.5 38.9064V38.823L254.818 -79.6482L249.089 -97.6135L253.455 -111.407ZM253.455 -111.407L280.876 -25.2516L298.369 29.7569L399.041 -85.2658L398.791 -84.6262L389.641 -61.8775V-61.8497L300.899 39.5461L300.76 39.6851L294.892 46.4152L292.5 38.9064V38.823L254.818 -79.6482L249.089 -97.6135L253.455 -111.407ZM253.455 -111.407L280.876 -25.2516L298.369 29.7569L399.041 -85.2658L398.791 -84.6262L389.641 -61.8775V-61.8497L300.899 39.5461L300.76 39.6851L294.892 46.4152L292.5 38.9064V38.823L254.818 -79.6482L249.089 -97.6135L253.455 -111.407ZM253.455 -111.407L280.876 -25.2516L298.369 29.7569L399.041 -85.2658L398.791 -84.6262L389.641 -61.8775V-61.8497L300.899 39.5461L300.76 39.6851L294.892 46.4152L292.5 38.9064V38.823L254.818 -79.6482L249.089 -97.6135L253.455 -111.407ZM253.455 -111.407L280.876 -25.2516L298.369 29.7569L399.041 -85.2658L398.791 -84.6262L389.641 -61.8775V-61.8497L300.899 39.5461L300.76 39.6851L294.892 46.4152L292.5 38.9064V38.823L254.818 -79.6482L249.089 -97.6135L253.455 -111.407ZM253.455 -111.407L280.876 -25.2516L298.369 29.7569L399.041 -85.2658L398.791 -84.6262L389.641 -61.8775V-61.8497L300.899 39.5461L300.76 39.6851L294.892 46.4152L292.5 38.9064V38.823L254.818 -79.6482L249.089 -97.6135L253.455 -111.407ZM253.455 -111.407L280.876 -25.2516L298.369 29.7569L399.041 -85.2658L398.791 -84.6262L389.641 -61.8775V-61.8497L300.899 39.5461L300.76 39.6851L294.892 46.4152L292.5 38.9064V38.823L254.818 -79.6482L249.089 -97.6135L253.455 -111.407ZM253.455 -111.407L280.876 -25.2516L298.369 29.7569L399.041 -85.2658L398.791 -84.6262L389.641 -61.8775V-61.8497L300.899 39.5461L300.76 39.6851L294.892 46.4152L292.5 38.9064V38.823L254.818 -79.6482L249.089 -97.6135L253.455 -111.407Z" fill="white"/>
<path d="M271.038 -194.786L271.065 -194.813L279.881 -198.818L281.327 -199.624L268.896 -160.245L253.461 -111.466L249.095 -125.232L271.038 -194.786ZM271.038 -194.786L271.065 -194.813L279.881 -198.818L281.327 -199.624L268.896 -160.245L253.461 -111.466L249.095 -125.232L271.038 -194.786ZM271.038 -194.786L271.065 -194.813L279.881 -198.818L281.327 -199.624L268.896 -160.245L253.461 -111.466L249.095 -125.232L271.038 -194.786ZM271.038 -194.786L271.065 -194.813L279.881 -198.818L281.327 -199.624L268.896 -160.245L253.461 -111.466L249.095 -125.232L271.038 -194.786ZM271.038 -194.786L271.065 -194.813L279.881 -198.818L281.327 -199.624L268.896 -160.245L253.461 -111.466L249.095 -125.232L271.038 -194.786ZM271.038 -194.786L271.065 -194.813L279.881 -198.818L281.327 -199.624L268.896 -160.245L253.461 -111.466L249.095 -125.232L271.038 -194.786ZM271.038 -194.786L271.065 -194.813L279.881 -198.818L281.327 -199.624L268.896 -160.245L253.461 -111.466L249.095 -125.232L271.038 -194.786ZM271.038 -194.786L271.065 -194.813L279.881 -198.818L281.327 -199.624L268.896 -160.245L253.461 -111.466L249.095 -125.232L271.038 -194.786ZM271.038 -194.786L271.065 -194.813L279.881 -198.818L281.327 -199.624L268.896 -160.245L253.461 -111.466L249.095 -125.232L271.038 -194.786ZM271.038 -194.786L271.065 -194.813L279.881 -198.818L281.327 -199.624L268.896 -160.245L253.461 -111.466L249.095 -125.232L271.038 -194.786ZM271.038 -194.786L271.065 -194.813L279.881 -198.818L281.327 -199.624L268.896 -160.245L253.461 -111.466L249.095 -125.232L271.038 -194.786ZM271.038 -194.786L271.065 -194.813L279.881 -198.818L281.327 -199.624L268.896 -160.245L253.461 -111.466L249.095 -125.232L271.038 -194.786ZM271.038 -194.786L271.065 -194.813L279.881 -198.818L281.327 -199.624L268.896 -160.245L253.461 -111.466L249.095 -125.232L271.038 -194.786ZM271.038 -194.786L271.065 -194.813L279.881 -198.818L281.327 -199.624L268.896 -160.245L253.461 -111.466L249.095 -125.232L271.038 -194.786ZM108.209 -127.874L109.21 -130.405L115.94 -133.464L275.96 -206.188L276.099 -206.271L284.637 -210.137L281.327 -199.624L268.896 -160.245L253.489 -111.439H253.461V-111.411L249.095 -97.6169L241.448 -73.3665L236.72 -58.3769L236.386 -57.3201L236.303 -57.2367L223.983 -45.8623V-45.8345H223.955L223.927 -45.7789L94.4989 74.055L33.9561 130.12L32.6213 131.344L31.9539 131.956L-8.92672e-05 142.607L108.209 -127.874ZM229.016 -61.8809L229.1 -61.9366L244.729 -111.439L249.095 -125.232L271.038 -194.786L115.718 -124.176L14.4334 129.008L27.5877 124.614L223.649 -56.9029L229.016 -61.8809ZM271.038 -194.786L271.065 -194.813L279.881 -198.818L281.327 -199.624L268.896 -160.245L253.461 -111.466L249.095 -125.232L271.038 -194.786ZM271.038 -194.786L271.065 -194.813L279.881 -198.818L281.327 -199.624L268.896 -160.245L253.461 -111.466L249.095 -125.232L271.038 -194.786ZM271.038 -194.786L271.065 -194.813L279.881 -198.818L281.327 -199.624L268.896 -160.245L253.461 -111.466L249.095 -125.232L271.038 -194.786ZM271.038 -194.786L271.065 -194.813L279.881 -198.818L281.327 -199.624L268.896 -160.245L253.461 -111.466L249.095 -125.232L271.038 -194.786ZM271.038 -194.786L271.065 -194.813L279.881 -198.818L281.327 -199.624L268.896 -160.245L253.461 -111.466L249.095 -125.232L271.038 -194.786ZM271.038 -194.786L271.065 -194.813L279.881 -198.818L281.327 -199.624L268.896 -160.245L253.461 -111.466L249.095 -125.232L271.038 -194.786ZM271.038 -194.786L271.065 -194.813L279.881 -198.818L281.327 -199.624L268.896 -160.245L253.461 -111.466L249.095 -125.232L271.038 -194.786ZM271.038 -194.786L271.065 -194.813L279.881 -198.818L281.327 -199.624L268.896 -160.245L253.461 -111.466L249.095 -125.232L271.038 -194.786ZM271.038 -194.786L271.065 -194.813L279.881 -198.818L281.327 -199.624L268.896 -160.245L253.461 -111.466L249.095 -125.232L271.038 -194.786ZM271.038 -194.786L271.065 -194.813L279.881 -198.818L281.327 -199.624L268.896 -160.245L253.461 -111.466L249.095 -125.232L271.038 -194.786ZM271.038 -194.786L271.065 -194.813L279.881 -198.818L281.327 -199.624L268.896 -160.245L253.461 -111.466L249.095 -125.232L271.038 -194.786ZM271.038 -194.786L271.065 -194.813L279.881 -198.818L281.327 -199.624L268.896 -160.245L253.461 -111.466L249.095 -125.232L271.038 -194.786ZM271.038 -194.786L271.065 -194.813L279.881 -198.818L281.327 -199.624L268.896 -160.245L253.461 -111.466L249.095 -125.232L271.038 -194.786ZM271.038 -194.786L271.065 -194.813L279.881 -198.818L281.327 -199.624L268.896 -160.245L253.461 -111.466L249.095 -125.232L271.038 -194.786Z" fill="white"/>
<path d="M647.255 974.529V974.557H647.227L553.034 904.726L647.255 974.529ZM647.255 974.529V974.557H647.227L553.034 904.726L647.255 974.529ZM647.255 974.529V974.557H647.227L553.034 904.726L647.255 974.529ZM647.255 974.529V974.557H647.227L553.034 904.726L647.255 974.529ZM647.255 974.529V974.557H647.227L553.034 904.726L647.255 974.529ZM647.255 974.529V974.557H647.227L553.034 904.726L647.255 974.529ZM647.255 974.529V974.557H647.227L553.034 904.726L647.255 974.529ZM647.255 974.529V974.557H647.227L553.034 904.726L647.255 974.529ZM647.255 974.529V974.557H647.227L553.034 904.726L647.255 974.529ZM647.255 974.529V974.557H647.227L553.034 904.726L647.255 974.529ZM647.255 974.529V974.557H647.227L553.034 904.726L647.255 974.529ZM647.255 974.529V974.557H647.227L553.034 904.726L647.255 974.529ZM647.255 974.529V974.557H647.227L553.034 904.726L647.255 974.529ZM454.475 1023.39L458.591 1017.86V1017.83L458.647 1017.75L546.277 899.803H546.304V899.775L549.225 895.826L551.255 893.101L551.282 893.073L552.228 893.796H552.256L554.453 895.409L557.985 898.051L559.347 899.052L572.613 908.869L649.703 965.991L653.207 968.578L657.879 972.026L657.795 974.585V974.696L657.656 975.141L657.378 976.225L654.041 979.563L645.642 987.961L458.647 1174.96L450.248 1183.36V1029.06L454.475 1023.39ZM647.255 974.557L553.034 904.726H553.007L493.855 984.374L458.647 1031.76L458.591 1031.85V1163.22L647.255 974.557ZM647.255 974.529V974.557H647.227L553.034 904.726L647.255 974.529ZM647.255 974.529V974.557H647.227L553.034 904.726L647.255 974.529ZM647.255 974.529V974.557H647.227L553.034 904.726L647.255 974.529ZM647.255 974.529V974.557H647.227L553.034 904.726L647.255 974.529ZM647.255 974.529V974.557H647.227L553.034 904.726L647.255 974.529ZM647.255 974.529V974.557H647.227L553.034 904.726L647.255 974.529ZM647.255 974.529V974.557H647.227L553.034 904.726L647.255 974.529ZM647.255 974.529V974.557H647.227L553.034 904.726L647.255 974.529ZM647.255 974.529V974.557H647.227L553.034 904.726L647.255 974.529ZM647.255 974.529V974.557H647.227L553.034 904.726L647.255 974.529ZM647.255 974.529V974.557H647.227L553.034 904.726L647.255 974.529ZM647.255 974.529V974.557H647.227L553.034 904.726L647.255 974.529ZM647.255 974.529V974.557H647.227L553.034 904.726L647.255 974.529Z" fill="white"/>
<path d="M450.325 819.289L454.414 822.292L455.721 823.238L455.832 823.321L458.668 825.407L467.179 831.636H467.206L551.276 893.097L552.25 893.792H552.277L554.474 895.405L558.034 898.019L558.006 898.047L555.142 901.913L553.056 904.721L493.876 984.37L458.668 1031.76L458.613 1031.84L454.497 1037.38L450.325 1042.97L450.27 1043.05V819.261L450.325 819.289ZM546.326 899.799H546.298L502.08 867.456L458.668 835.724L458.613 835.697V1017.83L458.668 1017.74L546.326 899.799ZM546.326 899.771V899.799H546.298L502.08 867.456L546.326 899.771Z" fill="white"/>
<path d="M458.681 823.329L650.126 822.884L653.853 822.856H662.196L662.112 825.804L662.029 829.281H662.001L659.22 831.199L656.773 832.84L653.491 835.065V835.093L575.539 888.071L559.381 899.056L555.154 901.921L552.095 904.006L550.371 902.727L546.339 899.807V899.779L502.093 867.464L458.681 835.733L458.625 835.705L454.426 832.645L453.091 831.672L452.98 831.589L450.282 829.614V823.329H458.681ZM551.289 893.105L552.262 893.8H552.29L644.314 831.227L467.219 831.644L551.289 893.105Z" fill="white"/>
<path d="M549.215 895.825L552.218 893.795H552.246L644.27 831.222L652.112 825.883L653.753 824.77L656.562 822.851L659.009 821.211L662.263 818.986L662.151 822.851L662.068 825.799L661.957 829.276L661.901 831.167L661.651 840.205L658.091 963.682L657.869 972.025L657.785 974.584V974.695L657.646 975.14L657.368 976.224L657.34 976.252L656.089 981.063H656.061L654.031 979.562L648.858 975.724L647.245 974.556V974.528L553.024 904.725H552.997L552.051 904.001L550.327 902.722L546.294 899.774L544.932 898.745L549.215 895.825ZM572.603 908.868L649.693 965.962L653.447 835.088V835.06L575.495 888.066L559.337 899.051L572.603 908.868Z" fill="white"/>
<path d="M454.52 732.048L458.608 729.073L458.664 729.045L487.114 708.271L487.058 708.549L485 720.118L458.664 739.362L458.608 739.39V823.238H455.716L454.409 822.292L450.321 819.289V739.307L450.265 739.279V735.163L454.52 732.048ZM454.52 732.048L458.608 729.073L458.664 729.045L487.114 708.271L496.847 701.179L552.022 660.882L556.667 667.835L654.086 813.782V813.81L659.036 821.208L660.12 822.849L662.095 825.796L662.012 829.273L661.956 831.164H661.928L659.203 831.192H653.585L644.297 831.219L467.201 831.636H467.174L458.664 831.664H450.265V735.163L454.52 732.048ZM549.937 672.785L549.909 672.757L494.734 713.026L485 720.118L458.664 739.362L458.608 739.39V823.293H458.664L650.109 822.849L549.937 672.785ZM454.52 732.048L458.608 729.073L458.664 729.045L487.114 708.271L487.058 708.549L485 720.118L458.664 739.362L458.608 739.39V823.238H455.716L454.409 822.292L450.321 819.289V739.307L450.265 739.279V735.163L454.52 732.048Z" fill="white"/>
<path d="M552.007 660.888L657.796 583.214H657.824V583.186L660.55 581.184L660.8 581.017L661.356 580.6L664.888 578.014L667.057 576.428L668.392 575.427L669.31 574.76L669.115 581.101L669.087 582.547V582.936L669.032 583.965L669.004 585.355L668.837 591.168L668.392 606.769V606.853L662.274 818.988L662.163 822.854L662.079 825.802L661.968 829.278L661.912 831.169L661.662 840.208L656.74 832.838L655.655 831.197L653.681 828.221L652.123 825.885L650.093 822.882V822.854L549.921 672.79H549.893V672.763L545.277 665.838L552.007 660.888ZM654.07 813.788L660.494 591.585L556.651 667.84L654.07 813.788Z" fill="white"/>
<path d="M484.968 720.339L484.996 720.117L487.054 708.547L487.109 708.269L526.211 487.818L527.823 478.669L535.332 484.12L659.922 574.391V574.419H659.949L660.978 575.17L662.758 576.449L664.9 578.007L668.459 580.593L669.127 581.094L669.85 581.594L669.321 583.179L669.822 584.737L669.294 585.126L669.015 585.349L668.459 585.738L664.927 588.324L662.786 589.909L661.451 590.883L660.506 591.578L556.663 667.834L549.933 672.784H549.905L494.674 713.331L484.94 720.478L484.968 720.339ZM552.018 660.881L657.808 583.207L604.997 544.913L533.719 493.241V493.269L496.843 701.178L496.787 701.428L545.288 665.831L552.018 660.881Z" fill="white"/>
<path d="M659.927 574.423L659.899 574.395L638.458 338.537L659.927 574.423ZM638.458 338.537L593.433 328.915V328.887L638.458 338.537ZM659.927 574.423L659.899 574.395L638.458 338.537L659.927 574.423ZM638.458 338.537L593.433 328.915V328.887L638.458 338.537ZM659.927 574.423L659.899 574.395L638.458 338.537L659.927 574.423ZM638.458 338.537L593.433 328.915V328.887L638.458 338.537ZM659.927 574.423L659.899 574.395L638.458 338.537L659.927 574.423ZM638.458 338.537L593.433 328.915V328.887L638.458 338.537ZM659.927 574.423L659.899 574.395L638.458 338.537L659.927 574.423ZM638.458 338.537L593.433 328.915V328.887L638.458 338.537ZM659.927 574.423L659.899 574.395L638.458 338.537L659.927 574.423ZM638.458 338.537L593.433 328.915V328.887L638.458 338.537ZM659.927 574.423L659.899 574.395L638.458 338.537L659.927 574.423ZM638.458 338.537L593.433 328.915V328.887L638.458 338.537ZM659.927 574.423L659.899 574.395L638.458 338.537L659.927 574.423ZM638.458 338.537L593.433 328.915V328.887L638.458 338.537ZM659.927 574.423L659.899 574.395L638.458 338.537L659.927 574.423ZM638.458 338.537L593.433 328.915V328.887L638.458 338.537ZM659.927 574.423L659.899 574.395L638.458 338.537L659.927 574.423ZM638.458 338.537L593.433 328.915V328.887L638.458 338.537ZM659.927 574.423L659.899 574.395L638.458 338.537L659.927 574.423ZM638.458 338.537L593.433 328.915V328.887L638.458 338.537ZM659.927 574.423L659.899 574.395L638.458 338.537L659.927 574.423ZM638.458 338.537L593.433 328.915V328.887L638.458 338.537ZM659.927 574.423L659.899 574.395L638.458 338.537L659.927 574.423ZM638.458 338.537L593.433 328.915V328.887L638.458 338.537ZM527.801 478.672L544.849 382.616L547.713 366.458L558.392 353.999V353.972L584.729 323.241L585.702 322.129L588.177 319.237L592.515 320.182L594.212 320.516V320.544L640.21 330.389L646.217 331.668L646.495 334.727L646.606 336.006V336.034L667.241 562.798V562.826L668.382 575.424L668.882 580.93L669.021 582.348L669.077 582.933L669.132 583.683L669.271 585.129L669.883 591.943L668.827 591.164L667.075 589.913L664.905 588.328L661.373 585.769L660.928 585.463L660.65 585.269L657.814 583.211V583.183L604.974 544.916L533.697 493.273V493.245L526.188 487.822L527.801 478.672ZM659.899 574.423V574.395L638.458 338.537L593.433 328.915L591.292 328.442H591.264L588.845 331.279L555.528 370.157L535.31 484.123L659.899 574.423ZM638.458 338.537L593.433 328.915V328.887L638.458 338.537ZM659.927 574.423L659.899 574.395L638.458 338.537L659.927 574.423ZM638.458 338.537L593.433 328.915V328.887L638.458 338.537ZM659.927 574.423L659.899 574.395L638.458 338.537L659.927 574.423ZM638.458 338.537L593.433 328.915V328.887L638.458 338.537ZM659.927 574.423L659.899 574.395L638.458 338.537L659.927 574.423ZM638.458 338.537L593.433 328.915V328.887L638.458 338.537ZM659.927 574.423L659.899 574.395L638.458 338.537L659.927 574.423ZM638.458 338.537L593.433 328.915V328.887L638.458 338.537ZM659.927 574.423L659.899 574.395L638.458 338.537L659.927 574.423ZM638.458 338.537L593.433 328.915V328.887L638.458 338.537ZM659.927 574.423L659.899 574.395L638.458 338.537L659.927 574.423ZM638.458 338.537L593.433 328.915V328.887L638.458 338.537ZM659.927 574.423L659.899 574.395L638.458 338.537L659.927 574.423ZM638.458 338.537L593.433 328.915V328.887L638.458 338.537ZM659.927 574.423L659.899 574.395L638.458 338.537L659.927 574.423ZM638.458 338.537L593.433 328.915V328.887L638.458 338.537ZM659.927 574.423L659.899 574.395L638.458 338.537L659.927 574.423ZM638.458 338.537L593.433 328.915V328.887L638.458 338.537ZM659.927 574.423L659.899 574.395L638.458 338.537L659.927 574.423ZM638.458 338.537L593.433 328.915V328.887L638.458 338.537ZM659.927 574.423L659.899 574.395L638.458 338.537L659.927 574.423ZM638.458 338.537L593.433 328.915V328.887L638.458 338.537ZM659.927 574.423L659.899 574.395L638.458 338.537L659.927 574.423ZM659.927 574.423L659.899 574.395L638.458 338.537L659.927 574.423Z" fill="white"/>
<path d="M526.202 487.822L533.711 493.245V493.273L496.835 701.182L487.101 708.273L526.202 487.822ZM526.202 487.822L533.711 493.245V493.273L496.835 701.182L487.101 708.273L526.202 487.822ZM526.202 487.822L533.711 493.245V493.273L496.835 701.182L487.101 708.273L526.202 487.822ZM526.202 487.822L533.711 493.245V493.273L496.835 701.182L487.101 708.273L526.202 487.822ZM526.202 487.822L533.711 493.245V493.273L496.835 701.182L487.101 708.273L526.202 487.822ZM526.202 487.822L533.711 493.245V493.273L496.835 701.182L487.101 708.273L526.202 487.822ZM526.202 487.822L533.711 493.245V493.273L496.835 701.182L487.101 708.273L526.202 487.822ZM526.202 487.822L533.711 493.245V493.273L496.835 701.182L487.101 708.273L526.202 487.822ZM526.202 487.822L533.711 493.245V493.273L496.835 701.182L487.101 708.273L526.202 487.822ZM526.202 487.822L533.711 493.245V493.273L496.835 701.182L487.101 708.273L526.202 487.822ZM526.202 487.822L533.711 493.245V493.273L496.835 701.182L487.101 708.273L526.202 487.822ZM526.202 487.822L533.711 493.245V493.273L496.835 701.182L487.101 708.273L526.202 487.822ZM526.202 487.822L533.711 493.245V493.273L496.835 701.182L487.101 708.273L526.202 487.822ZM450.503 479.841L454.48 475.197L457.15 472.11L458.651 470.358L460.96 467.66L512.965 406.978L547.727 366.459L558.406 354L555.542 370.158L535.324 484.124L533.711 493.245V493.273L496.835 701.182L496.779 701.432L494.721 713.029L494.666 713.335L484.96 720.343L458.651 739.365L458.596 739.393L454.508 742.341L450.308 745.4L450.253 745.428V480.147L450.503 479.841ZM487.046 708.551L487.101 708.273L526.202 487.822L527.815 478.673L544.835 382.644L458.651 483.206L458.596 483.261V729.131L458.651 729.103L487.046 708.551ZM526.202 487.822L533.711 493.245V493.273L496.835 701.182L487.101 708.273L526.202 487.822ZM526.202 487.822L533.711 493.245V493.273L496.835 701.182L487.101 708.273L526.202 487.822ZM526.202 487.822L533.711 493.245V493.273L496.835 701.182L487.101 708.273L526.202 487.822ZM526.202 487.822L533.711 493.245V493.273L496.835 701.182L487.101 708.273L526.202 487.822ZM526.202 487.822L533.711 493.245V493.273L496.835 701.182L487.101 708.273L526.202 487.822ZM526.202 487.822L533.711 493.245V493.273L496.835 701.182L487.101 708.273L526.202 487.822ZM526.202 487.822L533.711 493.245V493.273L496.835 701.182L487.101 708.273L526.202 487.822ZM526.202 487.822L533.711 493.245V493.273L496.835 701.182L487.101 708.273L526.202 487.822ZM526.202 487.822L533.711 493.245V493.273L496.835 701.182L487.101 708.273L526.202 487.822ZM526.202 487.822L533.711 493.245V493.273L496.835 701.182L487.101 708.273L526.202 487.822ZM526.202 487.822L533.711 493.245V493.273L496.835 701.182L487.101 708.273L526.202 487.822ZM526.202 487.822L533.711 493.245V493.273L496.835 701.182L487.101 708.273L526.202 487.822ZM526.202 487.822L533.711 493.245V493.273L496.835 701.182L487.101 708.273L526.202 487.822Z" fill="white"/>
<path d="M653.477 835.089V835.061L656.758 832.836L659.205 831.196L661.931 831.168L661.986 829.277L662.098 825.801L662.014 829.277L661.959 831.168L661.681 840.206L658.121 963.683L653.226 968.578L649.722 965.991V965.964L653.477 835.089ZM653.477 835.089V835.061L656.758 832.836L659.205 831.196L661.931 831.168L661.986 829.277L662.098 825.801L662.014 829.277L661.959 831.168L661.681 840.206L658.121 963.683L653.226 968.578L649.722 965.991V965.964L653.477 835.089ZM653.477 835.089V835.061L656.758 832.836L659.205 831.196L661.931 831.168L661.986 829.277L662.098 825.801L662.014 829.277L661.959 831.168L661.681 840.206L658.121 963.683L653.226 968.578L649.722 965.991V965.964L653.477 835.089ZM653.477 835.089V835.061L656.758 832.836L659.205 831.196L661.931 831.168L661.986 829.277L662.098 825.801L662.014 829.277L661.959 831.168L661.681 840.206L658.121 963.683L653.226 968.578L649.722 965.991V965.964L653.477 835.089ZM653.477 835.089V835.061L656.758 832.836L659.205 831.196L661.931 831.168L661.986 829.277L662.098 825.801L662.014 829.277L661.959 831.168L661.681 840.206L658.121 963.683L653.226 968.578L649.722 965.991V965.964L653.477 835.089ZM653.477 835.089V835.061L656.758 832.836L659.205 831.196L661.931 831.168L661.986 829.277L662.098 825.801L662.014 829.277L661.959 831.168L661.681 840.206L658.121 963.683L653.226 968.578L649.722 965.991V965.964L653.477 835.089ZM653.477 835.089V835.061L656.758 832.836L659.205 831.196L661.931 831.168L661.986 829.277L662.098 825.801L662.014 829.277L661.959 831.168L661.681 840.206L658.121 963.683L653.226 968.578L649.722 965.991V965.964L653.477 835.089ZM653.477 835.089V835.061L656.758 832.836L659.205 831.196L661.931 831.168L661.986 829.277L662.098 825.801L662.014 829.277L661.959 831.168L661.681 840.206L658.121 963.683L653.226 968.578L649.722 965.991V965.964L653.477 835.089ZM653.477 835.089V835.061L656.758 832.836L659.205 831.196L661.931 831.168L661.986 829.277L662.098 825.801L662.014 829.277L661.959 831.168L661.681 840.206L658.121 963.683L653.226 968.578L649.722 965.991V965.964L653.477 835.089ZM653.477 835.089V835.061L656.758 832.836L659.205 831.196L661.931 831.168L661.986 829.277L662.098 825.801L662.014 829.277L661.959 831.168L661.681 840.206L658.121 963.683L653.226 968.578L649.722 965.991V965.964L653.477 835.089ZM653.477 835.089V835.061L656.758 832.836L659.205 831.196L661.931 831.168L661.986 829.277L662.098 825.801L662.014 829.277L661.959 831.168L661.681 840.206L658.121 963.683L653.226 968.578L649.722 965.991V965.964L653.477 835.089ZM653.477 835.089V835.061L656.758 832.836L659.205 831.196L661.931 831.168L661.986 829.277L662.098 825.801L662.014 829.277L661.959 831.168L661.681 840.206L658.121 963.683L653.226 968.578L649.722 965.991V965.964L653.477 835.089ZM653.477 835.089V835.061L656.758 832.836L659.205 831.196L661.931 831.168L661.986 829.277L662.098 825.801L662.014 829.277L661.959 831.168L661.681 840.206L658.121 963.683L653.226 968.578L649.722 965.991V965.964L653.477 835.089ZM653.477 835.089V835.061L656.758 832.836L659.205 831.196L661.931 831.168L661.986 829.277L662.098 825.801L662.014 829.277L661.959 831.168L661.681 840.206L658.121 963.683L653.226 968.578L649.722 965.991V965.964L653.477 835.089ZM531.029 1421.38L645.662 987.961L648.888 975.725L649.5 973.472L649.528 972.276L649.722 965.991V965.964L653.477 835.089V835.061L653.588 831.196L653.699 828.22L653.783 824.772L653.838 822.853L654.088 813.814V813.787L660.513 591.584L660.679 585.271L660.735 583.769V583.185L660.763 582.462L660.819 581.016L660.985 575.176L661.43 559.519L664.907 569.947L667.076 576.427L668.466 580.599L669.05 582.351L669.106 582.545L669.328 583.185L669.829 584.742L774.451 898.607L769.445 909.871L537.342 1430.23L537.175 1430.56L529.332 1427.81L531.029 1421.38ZM765.524 898.162L668.411 606.851L662.292 818.987L662.181 822.853L662.098 825.801L662.014 829.277L661.959 831.168L661.681 840.206L658.121 963.683L657.898 972.026L657.815 974.585V974.696L657.676 975.141L657.398 976.225L657.37 976.253L656.119 981.064L550.635 1379.95L765.524 898.162ZM653.477 835.089V835.061L656.758 832.836L659.205 831.196L661.931 831.168L661.986 829.277L662.098 825.801L662.014 829.277L661.959 831.168L661.681 840.206L658.121 963.683L653.226 968.578L649.722 965.991V965.964L653.477 835.089ZM653.477 835.089V835.061L656.758 832.836L659.205 831.196L661.931 831.168L661.986 829.277L662.098 825.801L662.014 829.277L661.959 831.168L661.681 840.206L658.121 963.683L653.226 968.578L649.722 965.991V965.964L653.477 835.089ZM653.477 835.089V835.061L656.758 832.836L659.205 831.196L661.931 831.168L661.986 829.277L662.098 825.801L662.014 829.277L661.959 831.168L661.681 840.206L658.121 963.683L653.226 968.578L649.722 965.991V965.964L653.477 835.089ZM653.477 835.089V835.061L656.758 832.836L659.205 831.196L661.931 831.168L661.986 829.277L662.098 825.801L662.014 829.277L661.959 831.168L661.681 840.206L658.121 963.683L653.226 968.578L649.722 965.991V965.964L653.477 835.089ZM653.477 835.089V835.061L656.758 832.836L659.205 831.196L661.931 831.168L661.986 829.277L662.098 825.801L662.014 829.277L661.959 831.168L661.681 840.206L658.121 963.683L653.226 968.578L649.722 965.991V965.964L653.477 835.089ZM653.477 835.089V835.061L656.758 832.836L659.205 831.196L661.931 831.168L661.986 829.277L662.098 825.801L662.014 829.277L661.959 831.168L661.681 840.206L658.121 963.683L653.226 968.578L649.722 965.991V965.964L653.477 835.089ZM653.477 835.089V835.061L656.758 832.836L659.205 831.196L661.931 831.168L661.986 829.277L662.098 825.801L662.014 829.277L661.959 831.168L661.681 840.206L658.121 963.683L653.226 968.578L649.722 965.991V965.964L653.477 835.089ZM653.477 835.089V835.061L656.758 832.836L659.205 831.196L661.931 831.168L661.986 829.277L662.098 825.801L662.014 829.277L661.959 831.168L661.681 840.206L658.121 963.683L653.226 968.578L649.722 965.991V965.964L653.477 835.089ZM653.477 835.089V835.061L656.758 832.836L659.205 831.196L661.931 831.168L661.986 829.277L662.098 825.801L662.014 829.277L661.959 831.168L661.681 840.206L658.121 963.683L653.226 968.578L649.722 965.991V965.964L653.477 835.089ZM653.477 835.089V835.061L656.758 832.836L659.205 831.196L661.931 831.168L661.986 829.277L662.098 825.801L662.014 829.277L661.959 831.168L661.681 840.206L658.121 963.683L653.226 968.578L649.722 965.991V965.964L653.477 835.089ZM653.477 835.089V835.061L656.758 832.836L659.205 831.196L661.931 831.168L661.986 829.277L662.098 825.801L662.014 829.277L661.959 831.168L661.681 840.206L658.121 963.683L653.226 968.578L649.722 965.991V965.964L653.477 835.089ZM653.477 835.089V835.061L656.758 832.836L659.205 831.196L661.931 831.168L661.986 829.277L662.098 825.801L662.014 829.277L661.959 831.168L661.681 840.206L658.121 963.683L653.226 968.578L649.722 965.991V965.964L653.477 835.089ZM653.477 835.089V835.061L656.758 832.836L659.205 831.196L661.931 831.168L661.986 829.277L662.098 825.801L662.014 829.277L661.959 831.168L661.681 840.206L658.121 963.683L653.226 968.578L649.722 965.991V965.964L653.477 835.089ZM653.477 835.089V835.061L656.758 832.836L659.205 831.196L661.931 831.168L661.986 829.277L662.098 825.801L662.014 829.277L661.959 831.168L661.681 840.206L658.121 963.683L653.226 968.578L649.722 965.991V965.964L653.477 835.089Z" fill="white"/>
<path d="M660.7 582.687L660.756 582.464L660.951 581.88L661.368 580.601L662.758 576.457L664.9 569.95L667.264 562.831V562.803L770.356 251.274V251.246L774.833 237.73L779.144 251.329L874.978 553.57V553.625L875.979 556.74L872.92 568.671L778.198 936.182L769.438 909.873L765.517 898.165L668.404 606.854V606.771L664.955 596.425L662.786 589.918L661.396 585.774L660.812 584.05L660.728 583.771L660.534 583.188L660.7 582.687ZM777.169 906.731L867.302 556.99L774.666 264.845L669.85 581.602L669.322 583.188L669.822 584.745H669.85L774.444 898.61L777.169 906.731ZM664.9 569.95L667.264 562.831V562.803L770.356 251.274L774.666 264.817V264.845L669.85 581.602L669.127 581.102L668.46 580.601L667.069 576.43L664.9 578.015L662.758 576.457L664.9 569.95Z" fill="white"/>
<path d="M640.225 330.393L739.646 154.438L745.264 144.51L748.712 155.384L774.826 237.729L779.136 251.329L778.692 252.58L774.659 264.816V264.844L669.843 581.602L669.147 583.687L669.036 583.965L668.452 585.745L667.09 589.917L664.948 596.424L662.584 603.516L661.444 590.89L660.943 585.467L660.804 584.049L660.721 583.187L660.693 582.686L660.554 581.184L659.942 574.427L638.473 338.541L638.083 334.203L640.225 330.393ZM667.256 562.802L770.348 251.273V251.245L743.095 165.312L646.621 336.01V336.038L667.256 562.802Z" fill="white"/>
<path d="M585.475 324.66L585.725 322.129L586.921 309.17V309.142L600.52 162.833L600.548 162.805L600.631 161.915L600.771 160.274L606.36 154.962L609.586 151.931L709.008 57.766L715.738 51.3975L718.547 60.2133L745.272 144.506L748.72 155.38L743.103 165.308L646.629 336.006V336.034L644.488 339.816L638.481 338.537L593.457 328.887L591.315 328.442H591.287L586.949 327.497L585.252 327.135L585.475 324.66ZM739.654 154.434L711.816 66.6096L608.863 164.084L608.78 164.168L607.334 179.713L594.235 320.516V320.544L640.233 330.389L739.654 154.434Z" fill="white"/>
<path d="M584.739 323.241L509.095 175.402V175.291L584.739 323.241ZM450.499 479.84L451.778 472.053L454.448 455.812L458.592 430.699L458.647 430.365L502.754 162.554V162.526L504.979 149.038L510.903 160.607V160.635L586.908 309.141V309.169L592.525 320.182L593.999 323.018L594.722 324.437L593.749 325.577L591.302 328.441H591.274L588.855 331.278L555.538 370.156L544.859 382.615L544.831 382.643L458.647 483.205L458.592 483.26L454.476 488.044L450.304 492.938L450.249 492.994V481.397L450.499 479.84ZM512.961 406.977L547.723 366.458L558.402 353.999V353.971L584.739 323.241L509.095 175.402L460.956 467.659L512.961 406.977Z" fill="white"/>
<path d="M450.318 -21.1818L454.434 -8.7784L458.606 3.68049L458.661 3.84734L510.917 160.613V160.641L511.334 161.865L511.167 162.894L509.109 175.297V175.408L460.97 467.665L458.661 481.626V481.709L458.55 482.376L453.934 482.015L450.291 481.709H450.263V-21.3486L450.318 -21.1818ZM502.768 162.56L458.661 30.2392L458.606 30.0724V430.705L458.661 430.371L502.768 162.56Z" fill="white"/>
<path d="M511.158 162.893L511.324 161.864L510.907 160.64L586.912 309.146L600.512 162.837L541.888 16.8616L600.539 162.809V162.865L603.209 169.456L608.771 164.172L607.325 179.718L594.226 320.52V320.548L594.004 323.023L593.754 325.582L593.448 328.891V328.919L591.306 328.446H591.279L586.94 327.501L585.466 324.664L584.743 323.246L509.1 175.296L511.158 162.893ZM511.158 162.893L511.324 161.864L510.907 160.64L586.912 309.146L600.512 162.837L541.888 16.8616L600.539 162.809V162.865L603.209 169.456L608.771 164.172L607.325 179.718L594.226 320.52V320.548L594.004 323.023L593.754 325.582L593.448 328.891V328.919L591.306 328.446H591.279L586.94 327.501L585.466 324.664L584.743 323.246L509.1 175.296L511.158 162.893ZM511.158 162.893L511.324 161.864L510.907 160.64L586.912 309.146L600.512 162.837L541.888 16.8616L600.539 162.809V162.865L603.209 169.456L608.771 164.172L607.325 179.718L594.226 320.52V320.548L594.004 323.023L593.754 325.582L593.448 328.891V328.919L591.306 328.446H591.279L586.94 327.501L585.466 324.664L584.743 323.246L509.1 175.296L511.158 162.893ZM511.158 162.893L511.324 161.864L510.907 160.64L586.912 309.146L600.512 162.837L541.888 16.8616L600.539 162.809V162.865L603.209 169.456L608.771 164.172L607.325 179.718L594.226 320.52V320.548L594.004 323.023L593.754 325.582L593.448 328.891V328.919L591.306 328.446H591.279L586.94 327.501L585.466 324.664L584.743 323.246L509.1 175.296L511.158 162.893ZM511.158 162.893L511.324 161.864L510.907 160.64L586.912 309.146L600.512 162.837L541.888 16.8616L600.539 162.809V162.865L603.209 169.456L608.771 164.172L607.325 179.718L594.226 320.52V320.548L594.004 323.023L593.754 325.582L593.448 328.891V328.919L591.306 328.446H591.279L586.94 327.501L585.466 324.664L584.743 323.246L509.1 175.296L511.158 162.893ZM511.158 162.893L511.324 161.864L510.907 160.64L586.912 309.146L600.512 162.837L541.888 16.8616L600.539 162.809V162.865L603.209 169.456L608.771 164.172L607.325 179.718L594.226 320.52V320.548L594.004 323.023L593.754 325.582L593.448 328.891V328.919L591.306 328.446H591.279L586.94 327.501L585.466 324.664L584.743 323.246L509.1 175.296L511.158 162.893ZM511.158 162.893L511.324 161.864L510.907 160.64L586.912 309.146L600.512 162.837L541.888 16.8616L600.539 162.809V162.865L603.209 169.456L608.771 164.172L607.325 179.718L594.226 320.52V320.548L594.004 323.023L593.754 325.582L593.448 328.891V328.919L591.306 328.446H591.279L586.94 327.501L585.466 324.664L584.743 323.246L509.1 175.296L511.158 162.893ZM511.158 162.893L511.324 161.864L510.907 160.64L586.912 309.146L600.512 162.837L541.888 16.8616L600.539 162.809V162.865L603.209 169.456L608.771 164.172L607.325 179.718L594.226 320.52V320.548L594.004 323.023L593.754 325.582L593.448 328.891V328.919L591.306 328.446H591.279L586.94 327.501L585.466 324.664L584.743 323.246L509.1 175.296L511.158 162.893ZM511.158 162.893L511.324 161.864L510.907 160.64L586.912 309.146L600.512 162.837L541.888 16.8616L600.539 162.809V162.865L603.209 169.456L608.771 164.172L607.325 179.718L594.226 320.52V320.548L594.004 323.023L593.754 325.582L593.448 328.891V328.919L591.306 328.446H591.279L586.94 327.501L585.466 324.664L584.743 323.246L509.1 175.296L511.158 162.893ZM511.158 162.893L511.324 161.864L510.907 160.64L586.912 309.146L600.512 162.837L541.888 16.8616L600.539 162.809V162.865L603.209 169.456L608.771 164.172L607.325 179.718L594.226 320.52V320.548L594.004 323.023L593.754 325.582L593.448 328.891V328.919L591.306 328.446H591.279L586.94 327.501L585.466 324.664L584.743 323.246L509.1 175.296L511.158 162.893ZM511.158 162.893L511.324 161.864L510.907 160.64L586.912 309.146L600.512 162.837L541.888 16.8616L600.539 162.809V162.865L603.209 169.456L608.771 164.172L607.325 179.718L594.226 320.52V320.548L594.004 323.023L593.754 325.582L593.448 328.891V328.919L591.306 328.446H591.279L586.94 327.501L585.466 324.664L584.743 323.246L509.1 175.296L511.158 162.893ZM511.158 162.893L511.324 161.864L510.907 160.64L586.912 309.146L600.512 162.837L541.888 16.8616L600.539 162.809V162.865L603.209 169.456L608.771 164.172L607.325 179.718L594.226 320.52V320.548L594.004 323.023L593.754 325.582L593.448 328.891V328.919L591.306 328.446H591.279L586.94 327.501L585.466 324.664L584.743 323.246L509.1 175.296L511.158 162.893ZM511.158 162.893L511.324 161.864L510.907 160.64L586.912 309.146L600.512 162.837L541.888 16.8616L600.539 162.809V162.865L603.209 169.456L608.771 164.172L607.325 179.718L594.226 320.52V320.548L594.004 323.023L593.754 325.582L593.448 328.891V328.919L591.306 328.446H591.279L586.94 327.501L585.466 324.664L584.743 323.246L509.1 175.296L511.158 162.893ZM510.907 160.612L511.324 161.864L511.158 162.893L509.1 175.296L503.093 163.532L502.759 162.559V162.531L458.652 30.2383V3.84641L510.907 160.612ZM450.309 -153.281L454.425 -148.581L458.596 -143.798L458.652 -143.742L493.248 -104.196L509.878 -85.1738L510.129 -84.5342L519.278 -61.7854V-61.7577L601.735 143.453V143.481L606.352 154.967L608.994 161.53L609.021 161.585L608.966 162.058L608.91 162.615L608.771 164.172L607.325 179.718L594.226 320.52V320.548L594.004 323.023L593.754 325.582L593.448 328.891V328.919L591.306 328.446H591.279L588.859 331.283L586.94 327.501L585.466 324.664L584.743 323.246L509.1 175.296L503.093 163.532L502.759 162.559V162.531L458.652 30.2383L458.596 30.0714L454.425 17.6125L450.253 5.04231V-153.336L450.309 -153.281ZM510.907 160.612L586.912 309.146L600.512 162.837L541.888 16.8616L502.703 -80.7241L502.675 -80.752L502.648 -80.8076L458.652 -131.06L458.596 -131.116V3.67956L458.652 3.84641L510.907 160.612ZM600.539 162.809L600.512 162.837L541.888 16.8616L600.539 162.809ZM510.907 160.612L586.912 309.146V309.174L585.717 322.133L584.743 323.246L509.1 175.296L503.093 163.532L502.759 162.559V162.531L458.652 30.2383V3.84641L510.907 160.612ZM511.158 162.893L511.324 161.864L510.907 160.64L586.912 309.146L600.512 162.837L541.888 16.8616L600.539 162.809V162.865L603.209 169.456L608.771 164.172L607.325 179.718L594.226 320.52V320.548L594.004 323.023L593.754 325.582L593.448 328.891V328.919L591.306 328.446H591.279L586.94 327.501L585.466 324.664L584.743 323.246L509.1 175.296L511.158 162.893ZM511.158 162.893L511.324 161.864L510.907 160.64L586.912 309.146L600.512 162.837L541.888 16.8616L600.539 162.809V162.865L603.209 169.456L608.771 164.172L607.325 179.718L594.226 320.52V320.548L594.004 323.023L593.754 325.582L593.448 328.891V328.919L591.306 328.446H591.279L586.94 327.501L585.466 324.664L584.743 323.246L509.1 175.296L511.158 162.893ZM511.158 162.893L511.324 161.864L510.907 160.64L586.912 309.146L600.512 162.837L541.888 16.8616L600.539 162.809V162.865L603.209 169.456L608.771 164.172L607.325 179.718L594.226 320.52V320.548L594.004 323.023L593.754 325.582L593.448 328.891V328.919L591.306 328.446H591.279L586.94 327.501L585.466 324.664L584.743 323.246L509.1 175.296L511.158 162.893ZM511.158 162.893L511.324 161.864L510.907 160.64L586.912 309.146L600.512 162.837L541.888 16.8616L600.539 162.809V162.865L603.209 169.456L608.771 164.172L607.325 179.718L594.226 320.52V320.548L594.004 323.023L593.754 325.582L593.448 328.891V328.919L591.306 328.446H591.279L586.94 327.501L585.466 324.664L584.743 323.246L509.1 175.296L511.158 162.893ZM511.158 162.893L511.324 161.864L510.907 160.64L586.912 309.146L600.512 162.837L541.888 16.8616L600.539 162.809V162.865L603.209 169.456L608.771 164.172L607.325 179.718L594.226 320.52V320.548L594.004 323.023L593.754 325.582L593.448 328.891V328.919L591.306 328.446H591.279L586.94 327.501L585.466 324.664L584.743 323.246L509.1 175.296L511.158 162.893ZM511.158 162.893L511.324 161.864L510.907 160.64L586.912 309.146L600.512 162.837L541.888 16.8616L600.539 162.809V162.865L603.209 169.456L608.771 164.172L607.325 179.718L594.226 320.52V320.548L594.004 323.023L593.754 325.582L593.448 328.891V328.919L591.306 328.446H591.279L586.94 327.501L585.466 324.664L584.743 323.246L509.1 175.296L511.158 162.893ZM511.158 162.893L511.324 161.864L510.907 160.64L586.912 309.146L600.512 162.837L541.888 16.8616L600.539 162.809V162.865L603.209 169.456L608.771 164.172L607.325 179.718L594.226 320.52V320.548L594.004 323.023L593.754 325.582L593.448 328.891V328.919L591.306 328.446H591.279L586.94 327.501L585.466 324.664L584.743 323.246L509.1 175.296L511.158 162.893ZM511.158 162.893L511.324 161.864L510.907 160.64L586.912 309.146L600.512 162.837L541.888 16.8616L600.539 162.809V162.865L603.209 169.456L608.771 164.172L607.325 179.718L594.226 320.52V320.548L594.004 323.023L593.754 325.582L593.448 328.891V328.919L591.306 328.446H591.279L586.94 327.501L585.466 324.664L584.743 323.246L509.1 175.296L511.158 162.893ZM511.158 162.893L511.324 161.864L510.907 160.64L586.912 309.146L600.512 162.837L541.888 16.8616L600.539 162.809V162.865L603.209 169.456L608.771 164.172L607.325 179.718L594.226 320.52V320.548L594.004 323.023L593.754 325.582L593.448 328.891V328.919L591.306 328.446H591.279L586.94 327.501L585.466 324.664L584.743 323.246L509.1 175.296L511.158 162.893ZM511.158 162.893L511.324 161.864L510.907 160.64L586.912 309.146L600.512 162.837L541.888 16.8616L600.539 162.809V162.865L603.209 169.456L608.771 164.172L607.325 179.718L594.226 320.52V320.548L594.004 323.023L593.754 325.582L593.448 328.891V328.919L591.306 328.446H591.279L586.94 327.501L585.466 324.664L584.743 323.246L509.1 175.296L511.158 162.893ZM511.158 162.893L511.324 161.864L510.907 160.64L586.912 309.146L600.512 162.837L541.888 16.8616L600.539 162.809V162.865L603.209 169.456L608.771 164.172L607.325 179.718L594.226 320.52V320.548L594.004 323.023L593.754 325.582L593.448 328.891V328.919L591.306 328.446H591.279L586.94 327.501L585.466 324.664L584.743 323.246L509.1 175.296L511.158 162.893ZM511.158 162.893L511.324 161.864L510.907 160.64L586.912 309.146L600.512 162.837L541.888 16.8616L600.539 162.809V162.865L603.209 169.456L608.771 164.172L607.325 179.718L594.226 320.52V320.548L594.004 323.023L593.754 325.582L593.448 328.891V328.919L591.306 328.446H591.279L586.94 327.501L585.466 324.664L584.743 323.246L509.1 175.296L511.158 162.893ZM511.158 162.893L511.324 161.864L510.907 160.64L586.912 309.146L600.512 162.837L541.888 16.8616L600.539 162.809V162.865L603.209 169.456L608.771 164.172L607.325 179.718L594.226 320.52V320.548L594.004 323.023L593.754 325.582L593.448 328.891V328.919L591.306 328.446H591.279L586.94 327.501L585.466 324.664L584.743 323.246L509.1 175.296L511.158 162.893Z" fill="white"/>
<path d="M509.892 -85.1751L610.565 29.8475V29.8753L616.572 36.7166L616.433 38.9136V38.9971L609.591 151.934L609.007 161.528L608.98 162.057L608.868 164.087L607.839 180.968L607.339 179.716L603.223 169.454L600.553 162.863V162.808L541.902 16.8602L502.717 -80.7255L502.689 -80.7533L502.661 -80.8089L493.262 -104.197L509.892 -85.1751ZM601.749 143.452L608.034 39.6367L519.292 -61.7591L601.749 143.452Z" fill="white"/>
<path d="M601.74 143.477V143.449L608.164 39.773L614.032 46.5031L616.424 38.9943L609.583 151.931L606.357 154.963L600.767 160.274L600.628 161.915L601.74 143.477ZM600.544 162.861V162.805L600.628 161.915L601.74 143.477V143.449L608.164 39.773L608.331 36.9085L610.556 29.8726V29.8447L628.049 -25.1637L655.442 -111.347H655.469V-111.375L659.835 -125.141L664.202 -111.347L679.914 -61.7896L684.976 -45.7432L685.004 -45.6876L712.424 40.9132L715.734 51.3976L718.543 60.2134L711.813 66.6097L608.86 164.084L608.776 164.168L603.214 169.452L599.96 172.511L600.544 162.861ZM709.004 57.7661L672.628 -57.1454L667.539 -73.2196L659.835 -97.5257L654.107 -79.5603L616.424 38.9109V38.9943L609.583 151.931L709.004 57.7661ZM601.74 143.477V143.449L608.164 39.773L614.032 46.5031L616.424 38.9943L609.583 151.931L606.357 154.963L600.767 160.274L600.628 161.915L601.74 143.477Z" fill="white"/>
<path d="M718.523 60.2123L745.248 144.505L739.631 154.433L711.793 66.6086L718.523 60.2123ZM718.523 60.2123L745.248 144.505L739.631 154.433L711.793 66.6086L718.523 60.2123ZM718.523 60.2123L745.248 144.505L739.631 154.433L711.793 66.6086L718.523 60.2123ZM718.523 60.2123L745.248 144.505L739.631 154.433L711.793 66.6086L718.523 60.2123ZM718.523 60.2123L745.248 144.505L739.631 154.433L711.793 66.6086L718.523 60.2123ZM718.523 60.2123L745.248 144.505L739.631 154.433L711.793 66.6086L718.523 60.2123ZM718.523 60.2123L745.248 144.505L739.631 154.433L711.793 66.6086L718.523 60.2123ZM718.523 60.2123L745.248 144.505L739.631 154.433L711.793 66.6086L718.523 60.2123ZM718.523 60.2123L745.248 144.505L739.631 154.433L711.793 66.6086L718.523 60.2123ZM718.523 60.2123L745.248 144.505L739.631 154.433L711.793 66.6086L718.523 60.2123ZM718.523 60.2123L745.248 144.505L739.631 154.433L711.793 66.6086L718.523 60.2123ZM718.523 60.2123L745.248 144.505L739.631 154.433L711.793 66.6086L718.523 60.2123ZM718.523 60.2123L745.248 144.505L739.631 154.433L711.793 66.6086L718.523 60.2123ZM718.523 60.2123L745.248 144.505L739.631 154.433L711.793 66.6086L718.523 60.2123ZM667.519 -73.2208L679.811 -61.8464L679.895 -61.7908L685.262 -56.8128L883.298 126.567V589.578L872.897 568.665L867.641 558.125L867.279 556.985L774.644 264.839V264.811L770.333 251.268V251.24L743.079 165.307L739.631 154.433L711.793 66.6086L708.984 57.765L672.525 -57.2299L672.191 -58.2867L667.408 -73.332L667.519 -73.2208ZM712.405 40.912L715.714 51.3964L718.523 60.2123L745.248 144.505L748.697 155.379L774.811 237.724L779.121 251.324L874.955 553.564V130.21L814.412 74.1451L684.956 -45.7443H684.928L712.405 40.912ZM718.523 60.2123L745.248 144.505L739.631 154.433L711.793 66.6086L718.523 60.2123ZM718.523 60.2123L745.248 144.505L739.631 154.433L711.793 66.6086L718.523 60.2123ZM718.523 60.2123L745.248 144.505L739.631 154.433L711.793 66.6086L718.523 60.2123ZM718.523 60.2123L745.248 144.505L739.631 154.433L711.793 66.6086L718.523 60.2123ZM718.523 60.2123L745.248 144.505L739.631 154.433L711.793 66.6086L718.523 60.2123ZM718.523 60.2123L745.248 144.505L739.631 154.433L711.793 66.6086L718.523 60.2123ZM718.523 60.2123L745.248 144.505L739.631 154.433L711.793 66.6086L718.523 60.2123ZM718.523 60.2123L745.248 144.505L739.631 154.433L711.793 66.6086L718.523 60.2123ZM718.523 60.2123L745.248 144.505L739.631 154.433L711.793 66.6086L718.523 60.2123ZM718.523 60.2123L745.248 144.505L739.631 154.433L711.793 66.6086L718.523 60.2123ZM718.523 60.2123L745.248 144.505L739.631 154.433L711.793 66.6086L718.523 60.2123ZM718.523 60.2123L745.248 144.505L739.631 154.433L711.793 66.6086L718.523 60.2123ZM718.523 60.2123L745.248 144.505L739.631 154.433L711.793 66.6086L718.523 60.2123ZM718.523 60.2123L745.248 144.505L739.631 154.433L711.793 66.6086L718.523 60.2123Z" fill="white"/>
<path d="M610.539 29.8448L628.031 -25.1637L655.452 -111.319L659.818 -97.5256L654.089 -79.5603L616.407 38.9109V38.9943L614.015 46.5031L608.147 39.773L608.008 39.634L519.266 -61.7618V-61.7896L510.116 -84.5383L509.866 -85.1779L610.539 29.8448ZM610.539 29.8448L628.031 -25.1637L655.452 -111.319L659.818 -97.5256L654.089 -79.5603L616.407 38.9109V38.9943L614.015 46.5031L608.147 39.773L608.008 39.634L519.266 -61.7618V-61.7896L510.116 -84.5383L509.866 -85.1779L610.539 29.8448ZM610.539 29.8448L628.031 -25.1637L655.452 -111.319L659.818 -97.5256L654.089 -79.5603L616.407 38.9109V38.9943L614.015 46.5031L608.147 39.773L608.008 39.634L519.266 -61.7618V-61.7896L510.116 -84.5383L509.866 -85.1779L610.539 29.8448ZM610.539 29.8448L628.031 -25.1637L655.452 -111.319L659.818 -97.5256L654.089 -79.5603L616.407 38.9109V38.9943L614.015 46.5031L608.147 39.773L608.008 39.634L519.266 -61.7618V-61.7896L510.116 -84.5383L509.866 -85.1779L610.539 29.8448ZM610.539 29.8448L628.031 -25.1637L655.452 -111.319L659.818 -97.5256L654.089 -79.5603L616.407 38.9109V38.9943L614.015 46.5031L608.147 39.773L608.008 39.634L519.266 -61.7618V-61.7896L510.116 -84.5383L509.866 -85.1779L610.539 29.8448ZM610.539 29.8448L628.031 -25.1637L655.452 -111.319L659.818 -97.5256L654.089 -79.5603L616.407 38.9109V38.9943L614.015 46.5031L608.147 39.773L608.008 39.634L519.266 -61.7618V-61.7896L510.116 -84.5383L509.866 -85.1779L610.539 29.8448ZM610.539 29.8448L628.031 -25.1637L655.452 -111.319L659.818 -97.5256L654.089 -79.5603L616.407 38.9109V38.9943L614.015 46.5031L608.147 39.773L608.008 39.634L519.266 -61.7618V-61.7896L510.116 -84.5383L509.866 -85.1779L610.539 29.8448ZM610.539 29.8448L628.031 -25.1637L655.452 -111.319L659.818 -97.5256L654.089 -79.5603L616.407 38.9109V38.9943L614.015 46.5031L608.147 39.773L608.008 39.634L519.266 -61.7618V-61.7896L510.116 -84.5383L509.866 -85.1779L610.539 29.8448ZM610.539 29.8448L628.031 -25.1637L655.452 -111.319L659.818 -97.5256L654.089 -79.5603L616.407 38.9109V38.9943L614.015 46.5031L608.147 39.773L608.008 39.634L519.266 -61.7618V-61.7896L510.116 -84.5383L509.866 -85.1779L610.539 29.8448ZM610.539 29.8448L628.031 -25.1637L655.452 -111.319L659.818 -97.5256L654.089 -79.5603L616.407 38.9109V38.9943L614.015 46.5031L608.147 39.773L608.008 39.634L519.266 -61.7618V-61.7896L510.116 -84.5383L509.866 -85.1779L610.539 29.8448ZM610.539 29.8448L628.031 -25.1637L655.452 -111.319L659.818 -97.5256L654.089 -79.5603L616.407 38.9109V38.9943L614.015 46.5031L608.147 39.773L608.008 39.634L519.266 -61.7618V-61.7896L510.116 -84.5383L509.866 -85.1779L610.539 29.8448ZM610.539 29.8448L628.031 -25.1637L655.452 -111.319L659.818 -97.5256L654.089 -79.5603L616.407 38.9109V38.9943L614.015 46.5031L608.147 39.773L608.008 39.634L519.266 -61.7618V-61.7896L510.116 -84.5383L509.866 -85.1779L610.539 29.8448ZM610.539 29.8448L628.031 -25.1637L655.452 -111.319L659.818 -97.5256L654.089 -79.5603L616.407 38.9109V38.9943L614.015 46.5031L608.147 39.773L608.008 39.634L519.266 -61.7618V-61.7896L510.116 -84.5383L509.866 -85.1779L610.539 29.8448ZM458.64 -140.743V-143.746L493.236 -104.2L509.866 -85.1779L510.116 -84.5383L519.266 -61.7896L502.691 -80.7283L502.663 -80.7561L502.635 -80.8117L458.64 -131.065L458.584 -131.12L454.413 -135.904L458.64 -140.743ZM452.689 -183.654L454.524 -184.655L455.692 -185.294L458.584 -186.88L458.64 -186.907L554.807 -239.969L555.085 -240.108V-240.136L562.149 -244.029L563.428 -244.725L564.263 -244.252L565.598 -243.529L576.861 -237.272H576.889L632.815 -206.18L632.954 -206.096L634.539 -205.206L637.848 -194.722L637.876 -194.694L659.818 -125.141L664.185 -111.347L663.795 -110.068L659.818 -97.5256L654.089 -79.5603L616.407 38.9109V38.9943L614.015 46.5031L608.147 39.773L608.008 39.634L519.266 -61.7618V-61.7896L502.691 -80.7283L502.663 -80.7561L502.635 -80.8117L458.64 -131.065L458.584 -131.12L454.413 -135.904L450.241 -140.659V-182.291L452.689 -183.654ZM493.236 -104.2L509.866 -85.1779L610.539 29.8448L628.031 -25.1637L655.452 -111.319V-111.375L640.018 -160.154L627.586 -199.533L563.401 -235.186L458.64 -177.396L458.584 -177.368V-143.802L458.64 -143.746L493.236 -104.2ZM458.64 -140.743V-143.746L493.236 -104.2L509.866 -85.1779L610.539 29.8448V29.8726L608.314 36.9086L608.147 39.773L608.008 39.634L519.266 -61.7618V-61.7896L502.691 -80.7283L502.663 -80.7561L502.635 -80.8117L458.64 -131.065L458.584 -131.12L454.413 -135.904L458.64 -140.743ZM610.539 29.8448L628.031 -25.1637L655.452 -111.319L659.818 -97.5256L654.089 -79.5603L616.407 38.9109V38.9943L614.015 46.5031L608.147 39.773L608.008 39.634L519.266 -61.7618V-61.7896L510.116 -84.5383L509.866 -85.1779L610.539 29.8448ZM610.539 29.8448L628.031 -25.1637L655.452 -111.319L659.818 -97.5256L654.089 -79.5603L616.407 38.9109V38.9943L614.015 46.5031L608.147 39.773L608.008 39.634L519.266 -61.7618V-61.7896L510.116 -84.5383L509.866 -85.1779L610.539 29.8448ZM610.539 29.8448L628.031 -25.1637L655.452 -111.319L659.818 -97.5256L654.089 -79.5603L616.407 38.9109V38.9943L614.015 46.5031L608.147 39.773L608.008 39.634L519.266 -61.7618V-61.7896L510.116 -84.5383L509.866 -85.1779L610.539 29.8448ZM610.539 29.8448L628.031 -25.1637L655.452 -111.319L659.818 -97.5256L654.089 -79.5603L616.407 38.9109V38.9943L614.015 46.5031L608.147 39.773L608.008 39.634L519.266 -61.7618V-61.7896L510.116 -84.5383L509.866 -85.1779L610.539 29.8448ZM610.539 29.8448L628.031 -25.1637L655.452 -111.319L659.818 -97.5256L654.089 -79.5603L616.407 38.9109V38.9943L614.015 46.5031L608.147 39.773L608.008 39.634L519.266 -61.7618V-61.7896L510.116 -84.5383L509.866 -85.1779L610.539 29.8448ZM610.539 29.8448L628.031 -25.1637L655.452 -111.319L659.818 -97.5256L654.089 -79.5603L616.407 38.9109V38.9943L614.015 46.5031L608.147 39.773L608.008 39.634L519.266 -61.7618V-61.7896L510.116 -84.5383L509.866 -85.1779L610.539 29.8448ZM610.539 29.8448L628.031 -25.1637L655.452 -111.319L659.818 -97.5256L654.089 -79.5603L616.407 38.9109V38.9943L614.015 46.5031L608.147 39.773L608.008 39.634L519.266 -61.7618V-61.7896L510.116 -84.5383L509.866 -85.1779L610.539 29.8448ZM610.539 29.8448L628.031 -25.1637L655.452 -111.319L659.818 -97.5256L654.089 -79.5603L616.407 38.9109V38.9943L614.015 46.5031L608.147 39.773L608.008 39.634L519.266 -61.7618V-61.7896L510.116 -84.5383L509.866 -85.1779L610.539 29.8448ZM610.539 29.8448L628.031 -25.1637L655.452 -111.319L659.818 -97.5256L654.089 -79.5603L616.407 38.9109V38.9943L614.015 46.5031L608.147 39.773L608.008 39.634L519.266 -61.7618V-61.7896L510.116 -84.5383L509.866 -85.1779L610.539 29.8448ZM610.539 29.8448L628.031 -25.1637L655.452 -111.319L659.818 -97.5256L654.089 -79.5603L616.407 38.9109V38.9943L614.015 46.5031L608.147 39.773L608.008 39.634L519.266 -61.7618V-61.7896L510.116 -84.5383L509.866 -85.1779L610.539 29.8448ZM610.539 29.8448L628.031 -25.1637L655.452 -111.319L659.818 -97.5256L654.089 -79.5603L616.407 38.9109V38.9943L614.015 46.5031L608.147 39.773L608.008 39.634L519.266 -61.7618V-61.7896L510.116 -84.5383L509.866 -85.1779L610.539 29.8448ZM610.539 29.8448L628.031 -25.1637L655.452 -111.319L659.818 -97.5256L654.089 -79.5603L616.407 38.9109V38.9943L614.015 46.5031L608.147 39.773L608.008 39.634L519.266 -61.7618V-61.7896L510.116 -84.5383L509.866 -85.1779L610.539 29.8448ZM610.539 29.8448L628.031 -25.1637L655.452 -111.319L659.818 -97.5256L654.089 -79.5603L616.407 38.9109V38.9943L614.015 46.5031L608.147 39.773L608.008 39.634L519.266 -61.7618V-61.7896L510.116 -84.5383L509.866 -85.1779L610.539 29.8448Z" fill="white"/>
<path d="M629.043 -198.731L637.858 -194.726L637.886 -194.698L659.828 -125.145L655.462 -111.379L640.028 -160.158L627.596 -199.537L629.043 -198.731ZM629.043 -198.731L637.858 -194.726L637.886 -194.698L659.828 -125.145L655.462 -111.379L640.028 -160.158L627.596 -199.537L629.043 -198.731ZM629.043 -198.731L637.858 -194.726L637.886 -194.698L659.828 -125.145L655.462 -111.379L640.028 -160.158L627.596 -199.537L629.043 -198.731ZM629.043 -198.731L637.858 -194.726L637.886 -194.698L659.828 -125.145L655.462 -111.379L640.028 -160.158L627.596 -199.537L629.043 -198.731ZM629.043 -198.731L637.858 -194.726L637.886 -194.698L659.828 -125.145L655.462 -111.379L640.028 -160.158L627.596 -199.537L629.043 -198.731ZM629.043 -198.731L637.858 -194.726L637.886 -194.698L659.828 -125.145L655.462 -111.379L640.028 -160.158L627.596 -199.537L629.043 -198.731ZM629.043 -198.731L637.858 -194.726L637.886 -194.698L659.828 -125.145L655.462 -111.379L640.028 -160.158L627.596 -199.537L629.043 -198.731ZM629.043 -198.731L637.858 -194.726L637.886 -194.698L659.828 -125.145L655.462 -111.379L640.028 -160.158L627.596 -199.537L629.043 -198.731ZM629.043 -198.731L637.858 -194.726L637.886 -194.698L659.828 -125.145L655.462 -111.379L640.028 -160.158L627.596 -199.537L629.043 -198.731ZM629.043 -198.731L637.858 -194.726L637.886 -194.698L659.828 -125.145L655.462 -111.379L640.028 -160.158L627.596 -199.537L629.043 -198.731ZM629.043 -198.731L637.858 -194.726L637.886 -194.698L659.828 -125.145L655.462 -111.379L640.028 -160.158L627.596 -199.537L629.043 -198.731ZM629.043 -198.731L637.858 -194.726L637.886 -194.698L659.828 -125.145L655.462 -111.379L640.028 -160.158L627.596 -199.537L629.043 -198.731ZM629.043 -198.731L637.858 -194.726L637.886 -194.698L659.828 -125.145L655.462 -111.379L640.028 -160.158L627.596 -199.537L629.043 -198.731ZM632.825 -206.184L632.964 -206.1L792.983 -133.377L799.713 -130.318L800.715 -127.787L908.924 142.694L883.311 134.157L876.97 132.043L876.303 131.431L874.968 130.208L814.425 74.1424L684.997 -45.6915L684.969 -45.7471H684.941V-45.7749L672.621 -57.1492L672.538 -57.2327L672.204 -58.2895L667.476 -73.2791L659.828 -97.5295L655.462 -111.323V-111.351H655.434L640.028 -160.158L627.596 -199.537L624.287 -210.049L632.825 -206.184ZM659.828 -125.145L664.195 -111.351L679.824 -61.8492L679.907 -61.7935L685.275 -56.8155L881.336 124.701L894.49 129.095L793.206 -124.088L637.886 -194.698L659.828 -125.145ZM629.043 -198.731L637.858 -194.726L637.886 -194.698L659.828 -125.145L655.462 -111.379L640.028 -160.158L627.596 -199.537L629.043 -198.731ZM629.043 -198.731L637.858 -194.726L637.886 -194.698L659.828 -125.145L655.462 -111.379L640.028 -160.158L627.596 -199.537L629.043 -198.731ZM629.043 -198.731L637.858 -194.726L637.886 -194.698L659.828 -125.145L655.462 -111.379L640.028 -160.158L627.596 -199.537L629.043 -198.731ZM629.043 -198.731L637.858 -194.726L637.886 -194.698L659.828 -125.145L655.462 -111.379L640.028 -160.158L627.596 -199.537L629.043 -198.731ZM629.043 -198.731L637.858 -194.726L637.886 -194.698L659.828 -125.145L655.462 -111.379L640.028 -160.158L627.596 -199.537L629.043 -198.731ZM629.043 -198.731L637.858 -194.726L637.886 -194.698L659.828 -125.145L655.462 -111.379L640.028 -160.158L627.596 -199.537L629.043 -198.731ZM629.043 -198.731L637.858 -194.726L637.886 -194.698L659.828 -125.145L655.462 -111.379L640.028 -160.158L627.596 -199.537L629.043 -198.731ZM629.043 -198.731L637.858 -194.726L637.886 -194.698L659.828 -125.145L655.462 -111.379L640.028 -160.158L627.596 -199.537L629.043 -198.731ZM629.043 -198.731L637.858 -194.726L637.886 -194.698L659.828 -125.145L655.462 -111.379L640.028 -160.158L627.596 -199.537L629.043 -198.731ZM629.043 -198.731L637.858 -194.726L637.886 -194.698L659.828 -125.145L655.462 -111.379L640.028 -160.158L627.596 -199.537L629.043 -198.731ZM629.043 -198.731L637.858 -194.726L637.886 -194.698L659.828 -125.145L655.462 -111.379L640.028 -160.158L627.596 -199.537L629.043 -198.731ZM629.043 -198.731L637.858 -194.726L637.886 -194.698L659.828 -125.145L655.462 -111.379L640.028 -160.158L627.596 -199.537L629.043 -198.731ZM629.043 -198.731L637.858 -194.726L637.886 -194.698L659.828 -125.145L655.462 -111.379L640.028 -160.158L627.596 -199.537L629.043 -198.731Z" fill="white"/>
</g>
</g>
<defs>
<filter id="filter0_d_845_703" x="-4" y="-694" width="916.924" height="2138.37" filterUnits="userSpaceOnUse" color-interpolation-filters="sRGB">
<feFlood flood-opacity="0" result="BackgroundImageFix"/>
<feColorMatrix in="SourceAlpha" type="matrix" values="0 0 0 0 0 0 0 0 0 0 0 0 0 0 0 0 0 0 127 0" result="hardAlpha"/>
<feOffset dy="4"/>
<feGaussianBlur stdDeviation="2"/>
<feComposite in2="hardAlpha" operator="out"/>
<feColorMatrix type="matrix" values="0 0 0 0 0 0 0 0 0 0 0 0 0 0 0 0 0 0 0.25 0"/>
<feBlend mode="normal" in2="BackgroundImageFix" result="effect1_dropShadow_845_703"/>
<feBlend mode="normal" in="SourceGraphic" in2="effect1_dropShadow_845_703" result="shape"/>
</filter>
<clipPath id="clip0_845_703">
<rect width="909" height="915" fill="white"/>
</clipPath>
</defs>
</svg>
