<svg width="120" height="549" viewBox="0 0 120 549" fill="none" xmlns="http://www.w3.org/2000/svg">
<path d="M3.14164 478.361L51.7155 429.78H51.7227V429.773L54.5164 426.979L54.459 429.128L54.4376 429.787V429.794L54.4017 429.93L54.3301 430.21L54.323 430.217L54.0006 431.456H53.9934L26.8305 534.198L23.4064 547.149L22.9838 548.732L2.04568 530.781L0.978367 529.865V480.524L3.14164 478.361ZM51.3072 433.233L3.14164 481.398L3.12734 481.412V528.883L3.14164 528.897L21.7804 544.871L51.3072 433.233Z" fill="white"/>
<path d="M51.7244 429.773V429.78H51.7172L27.4553 411.793L51.7244 429.773ZM51.7244 429.773V429.78H51.7172L27.4553 411.793L51.7244 429.773ZM51.7244 429.773V429.78H51.7172L27.4553 411.793L51.7244 429.773ZM51.7244 429.773V429.78H51.7172L27.4553 411.793L51.7244 429.773ZM51.7244 429.773V429.78H51.7172L27.4553 411.793L51.7244 429.773ZM51.7244 429.773V429.78H51.7172L27.4553 411.793L51.7244 429.773ZM51.7244 429.773V429.78H51.7172L27.4553 411.793L51.7244 429.773ZM51.7244 429.773V429.78H51.7172L27.4553 411.793L51.7244 429.773ZM51.7244 429.773V429.78H51.7172L27.4553 411.793L51.7244 429.773ZM51.7244 429.773V429.78H51.7172L27.4553 411.793L51.7244 429.773ZM51.7244 429.773V429.78H51.7172L27.4553 411.793L51.7244 429.773ZM51.7244 429.773V429.78H51.7172L27.4553 411.793L51.7244 429.773ZM51.7244 429.773V429.78H51.7172L27.4553 411.793L51.7244 429.773ZM2.0688 442.358L3.12899 440.933V440.926L3.14328 440.904L25.7147 410.525H25.7218V410.518L26.474 409.501L26.9969 408.799L27.004 408.792L27.2476 408.978H27.2547L27.8207 409.393L28.7304 410.074L29.0814 410.332L32.4982 412.86L52.3547 427.573L53.2573 428.24L54.4607 429.128L54.4392 429.787V429.816L54.4034 429.93L54.3318 430.21L53.4722 431.069L51.3089 433.232L3.14328 481.398L0.980019 483.561V443.82L2.0688 442.358ZM51.7244 429.78L27.4553 411.793H27.4481L12.212 432.308L3.14328 444.515L3.12899 444.536V478.375L51.7244 429.78ZM51.7244 429.773V429.78H51.7172L27.4553 411.793L51.7244 429.773ZM51.7244 429.773V429.78H51.7172L27.4553 411.793L51.7244 429.773ZM51.7244 429.773V429.78H51.7172L27.4553 411.793L51.7244 429.773ZM51.7244 429.773V429.78H51.7172L27.4553 411.793L51.7244 429.773ZM51.7244 429.773V429.78H51.7172L27.4553 411.793L51.7244 429.773ZM51.7244 429.773V429.78H51.7172L27.4553 411.793L51.7244 429.773ZM51.7244 429.773V429.78H51.7172L27.4553 411.793L51.7244 429.773ZM51.7244 429.773V429.78H51.7172L27.4553 411.793L51.7244 429.773ZM51.7244 429.773V429.78H51.7172L27.4553 411.793L51.7244 429.773ZM51.7244 429.773V429.78H51.7172L27.4553 411.793L51.7244 429.773ZM51.7244 429.773V429.78H51.7172L27.4553 411.793L51.7244 429.773ZM51.7244 429.773V429.78H51.7172L27.4553 411.793L51.7244 429.773ZM51.7244 429.773V429.78H51.7172L27.4553 411.793L51.7244 429.773Z" fill="white"/>
<path d="M0.995295 389.787L2.04831 390.561L2.38496 390.805L2.41364 390.826L3.14426 391.363L5.33625 392.968H5.34338L26.9978 408.799L27.2486 408.978H27.2557L27.8216 409.393L28.7385 410.067L28.7314 410.074L27.9935 411.069L27.4563 411.793L12.2129 432.308L3.14426 444.515L3.12997 444.536L2.06978 445.962L0.995295 447.401L0.980997 447.423V389.78L0.995295 389.787ZM25.7228 410.525H25.7156L14.3261 402.194L3.14426 394.021L3.12997 394.014V440.926L3.14426 440.904L25.7228 410.525ZM25.7228 410.518V410.525H25.7156L14.3261 402.194L25.7228 410.518Z" fill="white"/>
<path d="M3.14463 390.826L52.4563 390.711L53.4162 390.704H55.5652L55.5437 391.463L55.5222 392.359H55.515L54.7987 392.853L54.1684 393.276L53.3231 393.849V393.856L33.2446 407.502L29.0827 410.331L27.9939 411.069L27.2059 411.606L26.7618 411.277L25.7232 410.525V410.518L14.3265 402.194L3.14463 394.021L3.13034 394.014L2.04868 393.226L1.70486 392.975L1.67618 392.953L0.981365 392.445V390.826H3.14463ZM26.9982 408.798L27.2489 408.978H27.2561L50.9592 392.86L5.34375 392.968L26.9982 408.798Z" fill="white"/>
<path d="M26.474 409.501L27.2476 408.978H27.2548L50.9579 392.86L52.978 391.485L53.4006 391.198L54.1241 390.704L54.7544 390.282L55.5925 389.708L55.5639 390.704L55.5424 391.463L55.5137 392.359L55.4994 392.846L55.4349 395.174L54.518 426.979L54.4607 429.128L54.4392 429.787V429.815L54.4034 429.93L54.3318 430.209L54.3246 430.217L54.0023 431.456H53.9951L53.4722 431.069L52.1398 430.08L51.7244 429.78V429.772L27.4554 411.793H27.4482L27.2046 411.607L26.7605 411.277L25.7218 410.518L25.3708 410.253L26.474 409.501ZM32.4983 412.86L52.3548 427.566L53.3218 393.856V393.849L33.2432 407.502L29.0814 410.331L32.4983 412.86Z" fill="white"/>
<path d="M2.07635 367.316L3.12936 366.55L3.14366 366.542L10.4717 361.191L10.4573 361.263L9.92727 364.243L3.14366 369.2L3.12936 369.207V390.804H2.38436L2.04771 390.561L0.99469 389.787V369.186L0.980396 369.179V368.118L2.07635 367.316ZM2.07635 367.316L3.12936 366.55L3.14366 366.542L10.4717 361.191L12.9788 359.365L27.1907 348.985L28.3869 350.776L53.4797 388.369V388.376L54.7548 390.281L55.0341 390.704L55.5427 391.463L55.5212 392.359L55.5069 392.846H55.4997L54.7977 392.853H53.3508L50.9583 392.86L5.34278 392.968H5.33565L3.14366 392.975H0.980396V368.118L2.07635 367.316ZM26.6534 352.051L26.6462 352.044L12.4344 362.416L9.92727 364.243L3.14366 369.2L3.12936 369.207V390.819H3.14366L52.4554 390.704L26.6534 352.051ZM2.07635 367.316L3.12936 366.55L3.14366 366.542L10.4717 361.191L10.4573 361.263L9.92727 364.243L3.14366 369.2L3.12936 369.207V390.804H2.38436L2.04771 390.561L0.99469 389.787V369.186L0.980396 369.179V368.118L2.07635 367.316Z" fill="white"/>
<path d="M27.1895 348.986L54.4385 328.979H54.4456V328.972L55.1476 328.456L55.2121 328.413L55.3554 328.306L56.2651 327.639L56.8238 327.231L57.1677 326.973L57.4041 326.801L57.3539 328.435L57.3468 328.807V328.907L57.3324 329.172L57.3252 329.53L57.2823 331.028L57.1677 335.046V335.068L55.5918 389.709L55.5631 390.704L55.5416 391.464L55.5129 392.359L55.4986 392.846L55.4342 395.174L54.1663 393.276L53.8869 392.853L53.3783 392.087L52.9772 391.485L52.4543 390.712V390.704L26.6523 352.052H26.6451V352.044L25.456 350.261L27.1895 348.986ZM53.4786 388.369L55.1333 331.135L28.3858 350.777L53.4786 388.369Z" fill="white"/>
<path d="M9.9196 364.3L9.92677 364.243L10.4568 361.263L10.4712 361.191L20.5427 304.408L20.9581 302.052L22.8922 303.456L54.9835 326.708V326.715H54.9907L55.2557 326.908L55.7141 327.238L56.2657 327.639L57.1826 328.305L57.3545 328.434L57.5408 328.563L57.4047 328.971L57.5336 329.372L57.3975 329.473L57.3259 329.53L57.1826 329.63L56.2729 330.296L55.7213 330.705L55.3775 330.955L55.1339 331.134L28.3864 350.776L26.6529 352.051H26.6457L12.4196 362.495L9.91243 364.336L9.9196 364.3ZM27.1902 348.985L54.4391 328.978L40.8361 319.115L22.4767 305.805V305.812L12.9783 359.365L12.964 359.429L25.4566 350.26L27.1902 348.985Z" fill="white"/>
<path d="M54.989 326.715L54.9819 326.708L49.459 265.957L54.989 326.715ZM49.459 265.957L37.8617 263.478V263.471L49.459 265.957ZM54.989 326.715L54.9819 326.708L49.459 265.957L54.989 326.715ZM49.459 265.957L37.8617 263.478V263.471L49.459 265.957ZM54.989 326.715L54.9819 326.708L49.459 265.957L54.989 326.715ZM49.459 265.957L37.8617 263.478V263.471L49.459 265.957ZM54.989 326.715L54.9819 326.708L49.459 265.957L54.989 326.715ZM49.459 265.957L37.8617 263.478V263.471L49.459 265.957ZM54.989 326.715L54.9819 326.708L49.459 265.957L54.989 326.715ZM49.459 265.957L37.8617 263.478V263.471L49.459 265.957ZM54.989 326.715L54.9819 326.708L49.459 265.957L54.989 326.715ZM49.459 265.957L37.8617 263.478V263.471L49.459 265.957ZM54.989 326.715L54.9819 326.708L49.459 265.957L54.989 326.715ZM49.459 265.957L37.8617 263.478V263.471L49.459 265.957ZM54.989 326.715L54.9819 326.708L49.459 265.957L54.989 326.715ZM49.459 265.957L37.8617 263.478V263.471L49.459 265.957ZM54.989 326.715L54.9819 326.708L49.459 265.957L54.989 326.715ZM49.459 265.957L37.8617 263.478V263.471L49.459 265.957ZM54.989 326.715L54.9819 326.708L49.459 265.957L54.989 326.715ZM49.459 265.957L37.8617 263.478V263.471L49.459 265.957ZM54.989 326.715L54.9819 326.708L49.459 265.957L54.989 326.715ZM49.459 265.957L37.8617 263.478V263.471L49.459 265.957ZM54.989 326.715L54.9819 326.708L49.459 265.957L54.989 326.715ZM49.459 265.957L37.8617 263.478V263.471L49.459 265.957ZM54.989 326.715L54.9819 326.708L49.459 265.957L54.989 326.715ZM49.459 265.957L37.8617 263.478V263.471L49.459 265.957ZM20.9565 302.052L25.3476 277.31L26.0854 273.149L28.8361 269.939V269.932L35.6197 262.017L35.8704 261.73L36.5079 260.985L37.6253 261.229L38.0623 261.315V261.322L49.9103 263.858L51.4576 264.187L51.5292 264.975L51.5578 265.305V265.312L56.873 323.721V323.728L57.1667 326.973L57.2956 328.391L57.3314 328.757L57.3457 328.907L57.3601 329.101L57.3959 329.473L57.5535 331.228L57.2813 331.027L56.83 330.705L56.2713 330.297L55.3615 329.638L55.2469 329.559L55.1753 329.509L54.4446 328.979V328.972L40.8345 319.115L22.4751 305.813V305.806L20.5411 304.409L20.9565 302.052ZM54.9819 326.715V326.708L49.459 265.957L37.8617 263.478L37.3102 263.356H37.303L36.6798 264.087L28.0983 274.101L22.8906 303.456L54.9819 326.715ZM49.459 265.957L37.8617 263.478V263.471L49.459 265.957ZM54.989 326.715L54.9819 326.708L49.459 265.957L54.989 326.715ZM49.459 265.957L37.8617 263.478V263.471L49.459 265.957ZM54.989 326.715L54.9819 326.708L49.459 265.957L54.989 326.715ZM49.459 265.957L37.8617 263.478V263.471L49.459 265.957ZM54.989 326.715L54.9819 326.708L49.459 265.957L54.989 326.715ZM49.459 265.957L37.8617 263.478V263.471L49.459 265.957ZM54.989 326.715L54.9819 326.708L49.459 265.957L54.989 326.715ZM49.459 265.957L37.8617 263.478V263.471L49.459 265.957ZM54.989 326.715L54.9819 326.708L49.459 265.957L54.989 326.715ZM49.459 265.957L37.8617 263.478V263.471L49.459 265.957ZM54.989 326.715L54.9819 326.708L49.459 265.957L54.989 326.715ZM49.459 265.957L37.8617 263.478V263.471L49.459 265.957ZM54.989 326.715L54.9819 326.708L49.459 265.957L54.989 326.715ZM49.459 265.957L37.8617 263.478V263.471L49.459 265.957ZM54.989 326.715L54.9819 326.708L49.459 265.957L54.989 326.715ZM49.459 265.957L37.8617 263.478V263.471L49.459 265.957ZM54.989 326.715L54.9819 326.708L49.459 265.957L54.989 326.715ZM49.459 265.957L37.8617 263.478V263.471L49.459 265.957ZM54.989 326.715L54.9819 326.708L49.459 265.957L54.989 326.715ZM49.459 265.957L37.8617 263.478V263.471L49.459 265.957ZM54.989 326.715L54.9819 326.708L49.459 265.957L54.989 326.715ZM49.459 265.957L37.8617 263.478V263.471L49.459 265.957ZM54.989 326.715L54.9819 326.708L49.459 265.957L54.989 326.715ZM54.989 326.715L54.9819 326.708L49.459 265.957L54.989 326.715Z" fill="white"/>
<path d="M20.5431 304.409L22.4772 305.806V305.813L12.9787 359.365L10.4716 361.192L20.5431 304.409ZM20.5431 304.409L22.4772 305.806V305.813L12.9787 359.365L10.4716 361.192L20.5431 304.409ZM20.5431 304.409L22.4772 305.806V305.813L12.9787 359.365L10.4716 361.192L20.5431 304.409ZM20.5431 304.409L22.4772 305.806V305.813L12.9787 359.365L10.4716 361.192L20.5431 304.409ZM20.5431 304.409L22.4772 305.806V305.813L12.9787 359.365L10.4716 361.192L20.5431 304.409ZM20.5431 304.409L22.4772 305.806V305.813L12.9787 359.365L10.4716 361.192L20.5431 304.409ZM20.5431 304.409L22.4772 305.806V305.813L12.9787 359.365L10.4716 361.192L20.5431 304.409ZM20.5431 304.409L22.4772 305.806V305.813L12.9787 359.365L10.4716 361.192L20.5431 304.409ZM20.5431 304.409L22.4772 305.806V305.813L12.9787 359.365L10.4716 361.192L20.5431 304.409ZM20.5431 304.409L22.4772 305.806V305.813L12.9787 359.365L10.4716 361.192L20.5431 304.409ZM20.5431 304.409L22.4772 305.806V305.813L12.9787 359.365L10.4716 361.192L20.5431 304.409ZM20.5431 304.409L22.4772 305.806V305.813L12.9787 359.365L10.4716 361.192L20.5431 304.409ZM20.5431 304.409L22.4772 305.806V305.813L12.9787 359.365L10.4716 361.192L20.5431 304.409ZM1.04478 302.353L2.06912 301.157L2.7568 300.362L3.1436 299.91L3.73816 299.216L17.1334 283.585L26.0875 273.149L28.8381 269.939L28.1003 274.101L22.8927 303.456L22.4772 305.806V305.813L12.9787 359.365L12.9644 359.43L12.4343 362.417L12.42 362.496L9.92003 364.301L3.1436 369.2L3.1293 369.208L2.07629 369.967L0.994631 370.755L0.980335 370.762V302.432L1.04478 302.353ZM10.4573 361.263L10.4716 361.192L20.5431 304.409L20.9586 302.052L25.3425 277.318L3.1436 303.22L3.1293 303.234V366.564L3.1436 366.557L10.4573 361.263ZM20.5431 304.409L22.4772 305.806V305.813L12.9787 359.365L10.4716 361.192L20.5431 304.409ZM20.5431 304.409L22.4772 305.806V305.813L12.9787 359.365L10.4716 361.192L20.5431 304.409ZM20.5431 304.409L22.4772 305.806V305.813L12.9787 359.365L10.4716 361.192L20.5431 304.409ZM20.5431 304.409L22.4772 305.806V305.813L12.9787 359.365L10.4716 361.192L20.5431 304.409ZM20.5431 304.409L22.4772 305.806V305.813L12.9787 359.365L10.4716 361.192L20.5431 304.409ZM20.5431 304.409L22.4772 305.806V305.813L12.9787 359.365L10.4716 361.192L20.5431 304.409ZM20.5431 304.409L22.4772 305.806V305.813L12.9787 359.365L10.4716 361.192L20.5431 304.409ZM20.5431 304.409L22.4772 305.806V305.813L12.9787 359.365L10.4716 361.192L20.5431 304.409ZM20.5431 304.409L22.4772 305.806V305.813L12.9787 359.365L10.4716 361.192L20.5431 304.409ZM20.5431 304.409L22.4772 305.806V305.813L12.9787 359.365L10.4716 361.192L20.5431 304.409ZM20.5431 304.409L22.4772 305.806V305.813L12.9787 359.365L10.4716 361.192L20.5431 304.409ZM20.5431 304.409L22.4772 305.806V305.813L12.9787 359.365L10.4716 361.192L20.5431 304.409ZM20.5431 304.409L22.4772 305.806V305.813L12.9787 359.365L10.4716 361.192L20.5431 304.409Z" fill="white"/>
<path d="M53.3236 393.856V393.849L54.1689 393.276L54.7992 392.854L55.5012 392.846L55.5155 392.359L55.5442 391.464L55.5227 392.359L55.5084 392.846L55.4367 395.174L54.5198 426.979L53.2591 428.24L52.3566 427.574V427.567L53.3236 393.856ZM53.3236 393.856V393.849L54.1689 393.276L54.7992 392.854L55.5012 392.846L55.5155 392.359L55.5442 391.464L55.5227 392.359L55.5084 392.846L55.4367 395.174L54.5198 426.979L53.2591 428.24L52.3566 427.574V427.567L53.3236 393.856ZM53.3236 393.856V393.849L54.1689 393.276L54.7992 392.854L55.5012 392.846L55.5155 392.359L55.5442 391.464L55.5227 392.359L55.5084 392.846L55.4367 395.174L54.5198 426.979L53.2591 428.24L52.3566 427.574V427.567L53.3236 393.856ZM53.3236 393.856V393.849L54.1689 393.276L54.7992 392.854L55.5012 392.846L55.5155 392.359L55.5442 391.464L55.5227 392.359L55.5084 392.846L55.4367 395.174L54.5198 426.979L53.2591 428.24L52.3566 427.574V427.567L53.3236 393.856ZM53.3236 393.856V393.849L54.1689 393.276L54.7992 392.854L55.5012 392.846L55.5155 392.359L55.5442 391.464L55.5227 392.359L55.5084 392.846L55.4367 395.174L54.5198 426.979L53.2591 428.24L52.3566 427.574V427.567L53.3236 393.856ZM53.3236 393.856V393.849L54.1689 393.276L54.7992 392.854L55.5012 392.846L55.5155 392.359L55.5442 391.464L55.5227 392.359L55.5084 392.846L55.4367 395.174L54.5198 426.979L53.2591 428.24L52.3566 427.574V427.567L53.3236 393.856ZM53.3236 393.856V393.849L54.1689 393.276L54.7992 392.854L55.5012 392.846L55.5155 392.359L55.5442 391.464L55.5227 392.359L55.5084 392.846L55.4367 395.174L54.5198 426.979L53.2591 428.24L52.3566 427.574V427.567L53.3236 393.856ZM53.3236 393.856V393.849L54.1689 393.276L54.7992 392.854L55.5012 392.846L55.5155 392.359L55.5442 391.464L55.5227 392.359L55.5084 392.846L55.4367 395.174L54.5198 426.979L53.2591 428.24L52.3566 427.574V427.567L53.3236 393.856ZM53.3236 393.856V393.849L54.1689 393.276L54.7992 392.854L55.5012 392.846L55.5155 392.359L55.5442 391.464L55.5227 392.359L55.5084 392.846L55.4367 395.174L54.5198 426.979L53.2591 428.24L52.3566 427.574V427.567L53.3236 393.856ZM53.3236 393.856V393.849L54.1689 393.276L54.7992 392.854L55.5012 392.846L55.5155 392.359L55.5442 391.464L55.5227 392.359L55.5084 392.846L55.4367 395.174L54.5198 426.979L53.2591 428.24L52.3566 427.574V427.567L53.3236 393.856ZM53.3236 393.856V393.849L54.1689 393.276L54.7992 392.854L55.5012 392.846L55.5155 392.359L55.5442 391.464L55.5227 392.359L55.5084 392.846L55.4367 395.174L54.5198 426.979L53.2591 428.24L52.3566 427.574V427.567L53.3236 393.856ZM53.3236 393.856V393.849L54.1689 393.276L54.7992 392.854L55.5012 392.846L55.5155 392.359L55.5442 391.464L55.5227 392.359L55.5084 392.846L55.4367 395.174L54.5198 426.979L53.2591 428.24L52.3566 427.574V427.567L53.3236 393.856ZM53.3236 393.856V393.849L54.1689 393.276L54.7992 392.854L55.5012 392.846L55.5155 392.359L55.5442 391.464L55.5227 392.359L55.5084 392.846L55.4367 395.174L54.5198 426.979L53.2591 428.24L52.3566 427.574V427.567L53.3236 393.856ZM53.3236 393.856V393.849L54.1689 393.276L54.7992 392.854L55.5012 392.846L55.5155 392.359L55.5442 391.464L55.5227 392.359L55.5084 392.846L55.4367 395.174L54.5198 426.979L53.2591 428.24L52.3566 427.574V427.567L53.3236 393.856ZM21.7839 544.872L51.3107 433.233L52.1417 430.081L52.2992 429.501L52.3064 429.193L52.3566 427.574V427.567L53.3236 393.856V393.849L53.3522 392.854L53.3809 392.087L53.4024 391.199L53.4167 390.705L53.4812 388.377V388.369L55.1359 331.135L55.1789 329.509L55.1932 329.122V328.972L55.2004 328.786L55.2147 328.413L55.2577 326.909L55.3723 322.876L56.2677 325.562L56.8264 327.231L57.1846 328.306L57.335 328.757L57.3493 328.807L57.4066 328.972L57.5356 329.373L84.4836 410.217L83.1943 413.118L23.4099 547.15L23.367 547.236L21.3469 546.526L21.7839 544.872ZM82.1843 410.103L57.1703 335.068L55.5943 389.709L55.5657 390.705L55.5442 391.464L55.5227 392.359L55.5084 392.846L55.4367 395.174L54.5198 426.979L54.4625 429.128L54.441 429.787V429.816L54.4052 429.93L54.3336 430.21L54.3265 430.217L54.0041 431.456L26.834 534.198L82.1843 410.103ZM53.3236 393.856V393.849L54.1689 393.276L54.7992 392.854L55.5012 392.846L55.5155 392.359L55.5442 391.464L55.5227 392.359L55.5084 392.846L55.4367 395.174L54.5198 426.979L53.2591 428.24L52.3566 427.574V427.567L53.3236 393.856ZM53.3236 393.856V393.849L54.1689 393.276L54.7992 392.854L55.5012 392.846L55.5155 392.359L55.5442 391.464L55.5227 392.359L55.5084 392.846L55.4367 395.174L54.5198 426.979L53.2591 428.24L52.3566 427.574V427.567L53.3236 393.856ZM53.3236 393.856V393.849L54.1689 393.276L54.7992 392.854L55.5012 392.846L55.5155 392.359L55.5442 391.464L55.5227 392.359L55.5084 392.846L55.4367 395.174L54.5198 426.979L53.2591 428.24L52.3566 427.574V427.567L53.3236 393.856ZM53.3236 393.856V393.849L54.1689 393.276L54.7992 392.854L55.5012 392.846L55.5155 392.359L55.5442 391.464L55.5227 392.359L55.5084 392.846L55.4367 395.174L54.5198 426.979L53.2591 428.24L52.3566 427.574V427.567L53.3236 393.856ZM53.3236 393.856V393.849L54.1689 393.276L54.7992 392.854L55.5012 392.846L55.5155 392.359L55.5442 391.464L55.5227 392.359L55.5084 392.846L55.4367 395.174L54.5198 426.979L53.2591 428.24L52.3566 427.574V427.567L53.3236 393.856ZM53.3236 393.856V393.849L54.1689 393.276L54.7992 392.854L55.5012 392.846L55.5155 392.359L55.5442 391.464L55.5227 392.359L55.5084 392.846L55.4367 395.174L54.5198 426.979L53.2591 428.24L52.3566 427.574V427.567L53.3236 393.856ZM53.3236 393.856V393.849L54.1689 393.276L54.7992 392.854L55.5012 392.846L55.5155 392.359L55.5442 391.464L55.5227 392.359L55.5084 392.846L55.4367 395.174L54.5198 426.979L53.2591 428.24L52.3566 427.574V427.567L53.3236 393.856ZM53.3236 393.856V393.849L54.1689 393.276L54.7992 392.854L55.5012 392.846L55.5155 392.359L55.5442 391.464L55.5227 392.359L55.5084 392.846L55.4367 395.174L54.5198 426.979L53.2591 428.24L52.3566 427.574V427.567L53.3236 393.856ZM53.3236 393.856V393.849L54.1689 393.276L54.7992 392.854L55.5012 392.846L55.5155 392.359L55.5442 391.464L55.5227 392.359L55.5084 392.846L55.4367 395.174L54.5198 426.979L53.2591 428.24L52.3566 427.574V427.567L53.3236 393.856ZM53.3236 393.856V393.849L54.1689 393.276L54.7992 392.854L55.5012 392.846L55.5155 392.359L55.5442 391.464L55.5227 392.359L55.5084 392.846L55.4367 395.174L54.5198 426.979L53.2591 428.24L52.3566 427.574V427.567L53.3236 393.856ZM53.3236 393.856V393.849L54.1689 393.276L54.7992 392.854L55.5012 392.846L55.5155 392.359L55.5442 391.464L55.5227 392.359L55.5084 392.846L55.4367 395.174L54.5198 426.979L53.2591 428.24L52.3566 427.574V427.567L53.3236 393.856ZM53.3236 393.856V393.849L54.1689 393.276L54.7992 392.854L55.5012 392.846L55.5155 392.359L55.5442 391.464L55.5227 392.359L55.5084 392.846L55.4367 395.174L54.5198 426.979L53.2591 428.24L52.3566 427.574V427.567L53.3236 393.856ZM53.3236 393.856V393.849L54.1689 393.276L54.7992 392.854L55.5012 392.846L55.5155 392.359L55.5442 391.464L55.5227 392.359L55.5084 392.846L55.4367 395.174L54.5198 426.979L53.2591 428.24L52.3566 427.574V427.567L53.3236 393.856ZM53.3236 393.856V393.849L54.1689 393.276L54.7992 392.854L55.5012 392.846L55.5155 392.359L55.5442 391.464L55.5227 392.359L55.5084 392.846L55.4367 395.174L54.5198 426.979L53.2591 428.24L52.3566 427.574V427.567L53.3236 393.856Z" fill="white"/>
<path d="M55.1832 328.842L55.1975 328.785L55.2477 328.635L55.3551 328.305L55.7133 327.238L56.2649 325.562L56.8737 323.728V323.721L83.4278 243.478V243.471L84.5811 239.99L85.6914 243.493L110.376 321.343V321.357L110.634 322.159L109.846 325.232L85.4479 419.894L83.1914 413.118L82.1814 410.102L57.1674 335.067V335.046L56.2792 332.381L55.7204 330.705L55.3623 329.638L55.2119 329.194L55.1904 329.122L55.1402 328.971L55.1832 328.842ZM85.1828 412.308L108.399 322.224L84.5381 246.974L57.5399 328.563L57.4038 328.971L57.5327 329.373H57.5399L84.4808 410.217L85.1828 412.308ZM56.2649 325.562L56.8737 323.728V323.721L83.4278 243.478L84.5381 246.967V246.974L57.5399 328.563L57.3537 328.434L57.1818 328.305L56.8236 327.231L56.2649 327.639L55.7133 327.238L56.2649 325.562Z" fill="white"/>
<path d="M49.9113 263.858L75.5199 218.536L76.9668 215.979L77.8551 218.779L84.5814 239.99L85.6917 243.492L85.577 243.815L84.5384 246.967V246.974L57.5402 328.563L57.3611 329.1L57.3324 329.172L57.182 329.63L56.831 330.705L56.2794 332.381L55.6705 334.208L55.3769 330.956L55.2479 329.559L55.2121 329.193L55.1906 328.971L55.1834 328.842L55.1476 328.456L54.99 326.715L49.46 265.956L49.3597 264.839L49.9113 263.858ZM56.874 323.721L83.4281 243.478V243.471L76.4081 221.337L51.5589 265.305V265.312L56.874 323.721Z" fill="white"/>
<path d="M35.8078 262.382L35.8723 261.73L36.1803 258.392V258.385L39.6831 220.699L39.6903 220.692L39.7117 220.463L39.7476 220.04L41.1874 218.672L42.0183 217.891L67.6269 193.636L69.3604 191.996L70.0839 194.267L76.9677 215.979L77.856 218.779L76.409 221.337L51.5597 265.305V265.312L51.0082 266.286L49.4609 265.956L37.8636 263.471L37.3121 263.356H37.3049L36.1874 263.113L35.7505 263.02L35.8078 262.382ZM75.5208 218.536L68.3504 195.914L41.8321 221.022L41.8106 221.043L41.4381 225.047L38.0642 261.315V261.322L49.9122 263.858L75.5208 218.536Z" fill="white"/>
<path d="M35.6227 262.017L16.1387 223.937V223.909L35.6227 262.017ZM1.0458 302.353L1.37533 300.347L2.06301 296.164L3.13033 289.696L3.14463 289.61L14.5055 220.628V220.621L15.0786 217.146L16.6044 220.126V220.134L36.1815 258.385V258.392L37.6284 261.229L38.0081 261.96L38.1943 262.325L37.9436 262.619L37.3133 263.356H37.3061L36.6829 264.087L28.1013 274.101L25.3507 277.31L25.3435 277.318L3.14463 303.22L3.13033 303.234L2.07014 304.466L0.995655 305.727L0.981358 305.741V302.754L1.0458 302.353ZM17.1344 283.585L26.0885 273.149L28.8392 269.939V269.932L35.6227 262.017L16.1387 223.937L3.73919 299.216L17.1344 283.585Z" fill="white"/>
<path d="M0.994293 173.3L2.05448 176.495L3.12897 179.704L3.14326 179.747L16.603 220.126V220.133L16.7104 220.448L16.6675 220.713L16.1374 223.908V223.937L3.73782 299.215L3.14326 302.811V302.833L3.11463 303.005L1.92555 302.911L0.987166 302.833H0.979997V173.257L0.994293 173.3ZM14.5042 220.627L3.14326 186.545L3.12897 186.502V289.695L3.14326 289.609L14.5042 220.627Z" fill="white"/>
<path d="M16.6676 220.713L16.7106 220.448L16.6031 220.133L36.1802 258.385L39.6831 220.699L24.5829 183.099L39.6902 220.692V220.706L40.3779 222.404L41.8105 221.043L41.438 225.047L38.0642 261.315V261.322L38.0069 261.959L37.9424 262.618L37.8636 263.471V263.478L37.312 263.356H37.3049L36.1874 263.113L35.8077 262.382L35.6215 262.017L16.1375 223.908L16.6676 220.713ZM16.6676 220.713L16.7106 220.448L16.6031 220.133L36.1802 258.385L39.6831 220.699L24.5829 183.099L39.6902 220.692V220.706L40.3779 222.404L41.8105 221.043L41.438 225.047L38.0642 261.315V261.322L38.0069 261.959L37.9424 262.618L37.8636 263.471V263.478L37.312 263.356H37.3049L36.1874 263.113L35.8077 262.382L35.6215 262.017L16.1375 223.908L16.6676 220.713ZM16.6676 220.713L16.7106 220.448L16.6031 220.133L36.1802 258.385L39.6831 220.699L24.5829 183.099L39.6902 220.692V220.706L40.3779 222.404L41.8105 221.043L41.438 225.047L38.0642 261.315V261.322L38.0069 261.959L37.9424 262.618L37.8636 263.471V263.478L37.312 263.356H37.3049L36.1874 263.113L35.8077 262.382L35.6215 262.017L16.1375 223.908L16.6676 220.713ZM16.6676 220.713L16.7106 220.448L16.6031 220.133L36.1802 258.385L39.6831 220.699L24.5829 183.099L39.6902 220.692V220.706L40.3779 222.404L41.8105 221.043L41.438 225.047L38.0642 261.315V261.322L38.0069 261.959L37.9424 262.618L37.8636 263.471V263.478L37.312 263.356H37.3049L36.1874 263.113L35.8077 262.382L35.6215 262.017L16.1375 223.908L16.6676 220.713ZM16.6676 220.713L16.7106 220.448L16.6031 220.133L36.1802 258.385L39.6831 220.699L24.5829 183.099L39.6902 220.692V220.706L40.3779 222.404L41.8105 221.043L41.438 225.047L38.0642 261.315V261.322L38.0069 261.959L37.9424 262.618L37.8636 263.471V263.478L37.312 263.356H37.3049L36.1874 263.113L35.8077 262.382L35.6215 262.017L16.1375 223.908L16.6676 220.713ZM16.6676 220.713L16.7106 220.448L16.6031 220.133L36.1802 258.385L39.6831 220.699L24.5829 183.099L39.6902 220.692V220.706L40.3779 222.404L41.8105 221.043L41.438 225.047L38.0642 261.315V261.322L38.0069 261.959L37.9424 262.618L37.8636 263.471V263.478L37.312 263.356H37.3049L36.1874 263.113L35.8077 262.382L35.6215 262.017L16.1375 223.908L16.6676 220.713ZM16.6676 220.713L16.7106 220.448L16.6031 220.133L36.1802 258.385L39.6831 220.699L24.5829 183.099L39.6902 220.692V220.706L40.3779 222.404L41.8105 221.043L41.438 225.047L38.0642 261.315V261.322L38.0069 261.959L37.9424 262.618L37.8636 263.471V263.478L37.312 263.356H37.3049L36.1874 263.113L35.8077 262.382L35.6215 262.017L16.1375 223.908L16.6676 220.713ZM16.6676 220.713L16.7106 220.448L16.6031 220.133L36.1802 258.385L39.6831 220.699L24.5829 183.099L39.6902 220.692V220.706L40.3779 222.404L41.8105 221.043L41.438 225.047L38.0642 261.315V261.322L38.0069 261.959L37.9424 262.618L37.8636 263.471V263.478L37.312 263.356H37.3049L36.1874 263.113L35.8077 262.382L35.6215 262.017L16.1375 223.908L16.6676 220.713ZM16.6676 220.713L16.7106 220.448L16.6031 220.133L36.1802 258.385L39.6831 220.699L24.5829 183.099L39.6902 220.692V220.706L40.3779 222.404L41.8105 221.043L41.438 225.047L38.0642 261.315V261.322L38.0069 261.959L37.9424 262.618L37.8636 263.471V263.478L37.312 263.356H37.3049L36.1874 263.113L35.8077 262.382L35.6215 262.017L16.1375 223.908L16.6676 220.713ZM16.6676 220.713L16.7106 220.448L16.6031 220.133L36.1802 258.385L39.6831 220.699L24.5829 183.099L39.6902 220.692V220.706L40.3779 222.404L41.8105 221.043L41.438 225.047L38.0642 261.315V261.322L38.0069 261.959L37.9424 262.618L37.8636 263.471V263.478L37.312 263.356H37.3049L36.1874 263.113L35.8077 262.382L35.6215 262.017L16.1375 223.908L16.6676 220.713ZM16.6676 220.713L16.7106 220.448L16.6031 220.133L36.1802 258.385L39.6831 220.699L24.5829 183.099L39.6902 220.692V220.706L40.3779 222.404L41.8105 221.043L41.438 225.047L38.0642 261.315V261.322L38.0069 261.959L37.9424 262.618L37.8636 263.471V263.478L37.312 263.356H37.3049L36.1874 263.113L35.8077 262.382L35.6215 262.017L16.1375 223.908L16.6676 220.713ZM16.6676 220.713L16.7106 220.448L16.6031 220.133L36.1802 258.385L39.6831 220.699L24.5829 183.099L39.6902 220.692V220.706L40.3779 222.404L41.8105 221.043L41.438 225.047L38.0642 261.315V261.322L38.0069 261.959L37.9424 262.618L37.8636 263.471V263.478L37.312 263.356H37.3049L36.1874 263.113L35.8077 262.382L35.6215 262.017L16.1375 223.908L16.6676 220.713ZM16.6676 220.713L16.7106 220.448L16.6031 220.133L36.1802 258.385L39.6831 220.699L24.5829 183.099L39.6902 220.692V220.706L40.3779 222.404L41.8105 221.043L41.438 225.047L38.0642 261.315V261.322L38.0069 261.959L37.9424 262.618L37.8636 263.471V263.478L37.312 263.356H37.3049L36.1874 263.113L35.8077 262.382L35.6215 262.017L16.1375 223.908L16.6676 220.713ZM16.6031 220.126L16.7106 220.448L16.6676 220.713L16.1375 223.908L14.5903 220.878L14.5043 220.627V220.62L3.14338 186.545V179.747L16.6031 220.126ZM0.994408 139.275L2.0546 140.485L3.12908 141.717L3.14338 141.732L12.0544 151.918L16.3381 156.817L16.4025 156.982L18.7592 162.842V162.849L39.9982 215.706V215.713L41.1873 218.672L41.8678 220.362L41.875 220.377L41.8607 220.498L41.8463 220.642L41.8105 221.043L41.438 225.047L38.0642 261.315V261.322L38.0069 261.959L37.9424 262.618L37.8636 263.471V263.478L37.312 263.356H37.3049L36.6817 264.087L36.1874 263.113L35.8077 262.382L35.6215 262.017L16.1375 223.908L14.5903 220.878L14.5043 220.627V220.62L3.14338 186.545L3.12908 186.502L2.0546 183.293L0.98011 180.055V139.26L0.994408 139.275ZM16.6031 220.126L36.1802 258.385L39.6831 220.699L24.5829 183.099L14.49 157.963L14.4828 157.956L14.4756 157.942L3.14338 144.998L3.12908 144.984V179.704L3.14338 179.747L16.6031 220.126ZM39.6902 220.692L39.6831 220.699L24.5829 183.099L39.6902 220.692ZM16.6031 220.126L36.1802 258.385V258.392L35.8722 261.73L35.6215 262.017L16.1375 223.908L14.5903 220.878L14.5043 220.627V220.62L3.14338 186.545V179.747L16.6031 220.126ZM16.6676 220.713L16.7106 220.448L16.6031 220.133L36.1802 258.385L39.6831 220.699L24.5829 183.099L39.6902 220.692V220.706L40.3779 222.404L41.8105 221.043L41.438 225.047L38.0642 261.315V261.322L38.0069 261.959L37.9424 262.618L37.8636 263.471V263.478L37.312 263.356H37.3049L36.1874 263.113L35.8077 262.382L35.6215 262.017L16.1375 223.908L16.6676 220.713ZM16.6676 220.713L16.7106 220.448L16.6031 220.133L36.1802 258.385L39.6831 220.699L24.5829 183.099L39.6902 220.692V220.706L40.3779 222.404L41.8105 221.043L41.438 225.047L38.0642 261.315V261.322L38.0069 261.959L37.9424 262.618L37.8636 263.471V263.478L37.312 263.356H37.3049L36.1874 263.113L35.8077 262.382L35.6215 262.017L16.1375 223.908L16.6676 220.713ZM16.6676 220.713L16.7106 220.448L16.6031 220.133L36.1802 258.385L39.6831 220.699L24.5829 183.099L39.6902 220.692V220.706L40.3779 222.404L41.8105 221.043L41.438 225.047L38.0642 261.315V261.322L38.0069 261.959L37.9424 262.618L37.8636 263.471V263.478L37.312 263.356H37.3049L36.1874 263.113L35.8077 262.382L35.6215 262.017L16.1375 223.908L16.6676 220.713ZM16.6676 220.713L16.7106 220.448L16.6031 220.133L36.1802 258.385L39.6831 220.699L24.5829 183.099L39.6902 220.692V220.706L40.3779 222.404L41.8105 221.043L41.438 225.047L38.0642 261.315V261.322L38.0069 261.959L37.9424 262.618L37.8636 263.471V263.478L37.312 263.356H37.3049L36.1874 263.113L35.8077 262.382L35.6215 262.017L16.1375 223.908L16.6676 220.713ZM16.6676 220.713L16.7106 220.448L16.6031 220.133L36.1802 258.385L39.6831 220.699L24.5829 183.099L39.6902 220.692V220.706L40.3779 222.404L41.8105 221.043L41.438 225.047L38.0642 261.315V261.322L38.0069 261.959L37.9424 262.618L37.8636 263.471V263.478L37.312 263.356H37.3049L36.1874 263.113L35.8077 262.382L35.6215 262.017L16.1375 223.908L16.6676 220.713ZM16.6676 220.713L16.7106 220.448L16.6031 220.133L36.1802 258.385L39.6831 220.699L24.5829 183.099L39.6902 220.692V220.706L40.3779 222.404L41.8105 221.043L41.438 225.047L38.0642 261.315V261.322L38.0069 261.959L37.9424 262.618L37.8636 263.471V263.478L37.312 263.356H37.3049L36.1874 263.113L35.8077 262.382L35.6215 262.017L16.1375 223.908L16.6676 220.713ZM16.6676 220.713L16.7106 220.448L16.6031 220.133L36.1802 258.385L39.6831 220.699L24.5829 183.099L39.6902 220.692V220.706L40.3779 222.404L41.8105 221.043L41.438 225.047L38.0642 261.315V261.322L38.0069 261.959L37.9424 262.618L37.8636 263.471V263.478L37.312 263.356H37.3049L36.1874 263.113L35.8077 262.382L35.6215 262.017L16.1375 223.908L16.6676 220.713ZM16.6676 220.713L16.7106 220.448L16.6031 220.133L36.1802 258.385L39.6831 220.699L24.5829 183.099L39.6902 220.692V220.706L40.3779 222.404L41.8105 221.043L41.438 225.047L38.0642 261.315V261.322L38.0069 261.959L37.9424 262.618L37.8636 263.471V263.478L37.312 263.356H37.3049L36.1874 263.113L35.8077 262.382L35.6215 262.017L16.1375 223.908L16.6676 220.713ZM16.6676 220.713L16.7106 220.448L16.6031 220.133L36.1802 258.385L39.6831 220.699L24.5829 183.099L39.6902 220.692V220.706L40.3779 222.404L41.8105 221.043L41.438 225.047L38.0642 261.315V261.322L38.0069 261.959L37.9424 262.618L37.8636 263.471V263.478L37.312 263.356H37.3049L36.1874 263.113L35.8077 262.382L35.6215 262.017L16.1375 223.908L16.6676 220.713ZM16.6676 220.713L16.7106 220.448L16.6031 220.133L36.1802 258.385L39.6831 220.699L24.5829 183.099L39.6902 220.692V220.706L40.3779 222.404L41.8105 221.043L41.438 225.047L38.0642 261.315V261.322L38.0069 261.959L37.9424 262.618L37.8636 263.471V263.478L37.312 263.356H37.3049L36.1874 263.113L35.8077 262.382L35.6215 262.017L16.1375 223.908L16.6676 220.713ZM16.6676 220.713L16.7106 220.448L16.6031 220.133L36.1802 258.385L39.6831 220.699L24.5829 183.099L39.6902 220.692V220.706L40.3779 222.404L41.8105 221.043L41.438 225.047L38.0642 261.315V261.322L38.0069 261.959L37.9424 262.618L37.8636 263.471V263.478L37.312 263.356H37.3049L36.1874 263.113L35.8077 262.382L35.6215 262.017L16.1375 223.908L16.6676 220.713ZM16.6676 220.713L16.7106 220.448L16.6031 220.133L36.1802 258.385L39.6831 220.699L24.5829 183.099L39.6902 220.692V220.706L40.3779 222.404L41.8105 221.043L41.438 225.047L38.0642 261.315V261.322L38.0069 261.959L37.9424 262.618L37.8636 263.471V263.478L37.312 263.356H37.3049L36.1874 263.113L35.8077 262.382L35.6215 262.017L16.1375 223.908L16.6676 220.713ZM16.6676 220.713L16.7106 220.448L16.6031 220.133L36.1802 258.385L39.6831 220.699L24.5829 183.099L39.6902 220.692V220.706L40.3779 222.404L41.8105 221.043L41.438 225.047L38.0642 261.315V261.322L38.0069 261.959L37.9424 262.618L37.8636 263.471V263.478L37.312 263.356H37.3049L36.1874 263.113L35.8077 262.382L35.6215 262.017L16.1375 223.908L16.6676 220.713Z" fill="white"/>
<path d="M16.3383 156.818L42.2691 186.445V186.452L43.8164 188.214L43.7806 188.78V188.801L42.0184 217.891L41.868 220.363L41.8608 220.499L41.8322 221.022L41.5671 225.37L41.4382 225.047L40.3781 222.404L39.6904 220.706V220.692L24.5831 183.1L14.4901 157.964L14.483 157.957L14.4758 157.942L12.0546 151.918L16.3383 156.818ZM39.9984 215.707L41.6173 188.966L18.7594 162.849L39.9984 215.707Z" fill="white"/>
<path d="M39.9969 215.714V215.706L41.6516 189.002L43.1631 190.735L43.7791 188.801L42.017 217.891L41.186 218.672L39.7462 220.04L39.7104 220.463L39.9969 215.714ZM39.6889 220.706V220.692L39.7104 220.463L39.9969 215.714V215.706L41.6516 189.002L41.6946 188.264L42.2677 186.452V186.445L46.7734 172.276L53.8291 150.077H53.8363V150.07L54.9609 146.524L56.0856 150.077L60.1328 162.842L61.4365 166.975L61.4436 166.989L68.5066 189.296L69.359 191.996L70.0825 194.267L68.349 195.914L41.8307 221.022L41.8092 221.043L40.3766 222.404L39.5385 223.192L39.6889 220.706ZM67.6255 193.636L58.256 164.038L56.9451 159.898L54.9609 153.637L53.4853 158.264L43.7791 188.78V188.801L42.017 217.891L67.6255 193.636ZM39.9969 215.714V215.706L41.6516 189.002L43.1631 190.735L43.7791 188.801L42.017 217.891L41.186 218.672L39.7462 220.04L39.7104 220.463L39.9969 215.714Z" fill="white"/>
<path d="M70.0832 194.267L76.9671 215.979L75.5201 218.536L68.3497 195.915L70.0832 194.267ZM70.0832 194.267L76.9671 215.979L75.5201 218.536L68.3497 195.915L70.0832 194.267ZM70.0832 194.267L76.9671 215.979L75.5201 218.536L68.3497 195.915L70.0832 194.267ZM70.0832 194.267L76.9671 215.979L75.5201 218.536L68.3497 195.915L70.0832 194.267ZM70.0832 194.267L76.9671 215.979L75.5201 218.536L68.3497 195.915L70.0832 194.267ZM70.0832 194.267L76.9671 215.979L75.5201 218.536L68.3497 195.915L70.0832 194.267ZM70.0832 194.267L76.9671 215.979L75.5201 218.536L68.3497 195.915L70.0832 194.267ZM70.0832 194.267L76.9671 215.979L75.5201 218.536L68.3497 195.915L70.0832 194.267ZM70.0832 194.267L76.9671 215.979L75.5201 218.536L68.3497 195.915L70.0832 194.267ZM70.0832 194.267L76.9671 215.979L75.5201 218.536L68.3497 195.915L70.0832 194.267ZM70.0832 194.267L76.9671 215.979L75.5201 218.536L68.3497 195.915L70.0832 194.267ZM70.0832 194.267L76.9671 215.979L75.5201 218.536L68.3497 195.915L70.0832 194.267ZM70.0832 194.267L76.9671 215.979L75.5201 218.536L68.3497 195.915L70.0832 194.267ZM70.0832 194.267L76.9671 215.979L75.5201 218.536L68.3497 195.915L70.0832 194.267ZM56.9459 159.898L60.112 162.828L60.1335 162.842L61.516 164.124L112.525 211.358V330.619L109.846 325.232L108.492 322.518L108.399 322.224L84.5386 246.974V246.967L83.4283 243.478V243.471L76.4084 221.337L75.5201 218.536L68.3497 195.915L67.6262 193.637L58.2352 164.017L58.1493 163.744L56.9172 159.869L56.9459 159.898ZM68.5073 189.296L69.3597 191.996L70.0832 194.267L76.9671 215.979L77.8553 218.78L84.5816 239.99L85.6919 243.493L110.376 321.343V212.297L94.782 197.856L61.4372 166.975H61.43L68.5073 189.296ZM70.0832 194.267L76.9671 215.979L75.5201 218.536L68.3497 195.915L70.0832 194.267ZM70.0832 194.267L76.9671 215.979L75.5201 218.536L68.3497 195.915L70.0832 194.267ZM70.0832 194.267L76.9671 215.979L75.5201 218.536L68.3497 195.915L70.0832 194.267ZM70.0832 194.267L76.9671 215.979L75.5201 218.536L68.3497 195.915L70.0832 194.267ZM70.0832 194.267L76.9671 215.979L75.5201 218.536L68.3497 195.915L70.0832 194.267ZM70.0832 194.267L76.9671 215.979L75.5201 218.536L68.3497 195.915L70.0832 194.267ZM70.0832 194.267L76.9671 215.979L75.5201 218.536L68.3497 195.915L70.0832 194.267ZM70.0832 194.267L76.9671 215.979L75.5201 218.536L68.3497 195.915L70.0832 194.267ZM70.0832 194.267L76.9671 215.979L75.5201 218.536L68.3497 195.915L70.0832 194.267ZM70.0832 194.267L76.9671 215.979L75.5201 218.536L68.3497 195.915L70.0832 194.267ZM70.0832 194.267L76.9671 215.979L75.5201 218.536L68.3497 195.915L70.0832 194.267ZM70.0832 194.267L76.9671 215.979L75.5201 218.536L68.3497 195.915L70.0832 194.267ZM70.0832 194.267L76.9671 215.979L75.5201 218.536L68.3497 195.915L70.0832 194.267ZM70.0832 194.267L76.9671 215.979L75.5201 218.536L68.3497 195.915L70.0832 194.267Z" fill="white"/>
<path d="M42.2688 186.444L46.7745 172.275L53.8374 150.084L54.962 153.637L53.4864 158.264L43.7802 188.779V188.801L43.1642 190.735L41.6528 189.002L41.6169 188.966L18.7591 162.849V162.841L16.4024 156.982L16.3379 156.817L42.2688 186.444ZM42.2688 186.444L46.7745 172.275L53.8374 150.084L54.962 153.637L53.4864 158.264L43.7802 188.779V188.801L43.1642 190.735L41.6528 189.002L41.6169 188.966L18.7591 162.849V162.841L16.4024 156.982L16.3379 156.817L42.2688 186.444ZM42.2688 186.444L46.7745 172.275L53.8374 150.084L54.962 153.637L53.4864 158.264L43.7802 188.779V188.801L43.1642 190.735L41.6528 189.002L41.6169 188.966L18.7591 162.849V162.841L16.4024 156.982L16.3379 156.817L42.2688 186.444ZM42.2688 186.444L46.7745 172.275L53.8374 150.084L54.962 153.637L53.4864 158.264L43.7802 188.779V188.801L43.1642 190.735L41.6528 189.002L41.6169 188.966L18.7591 162.849V162.841L16.4024 156.982L16.3379 156.817L42.2688 186.444ZM42.2688 186.444L46.7745 172.275L53.8374 150.084L54.962 153.637L53.4864 158.264L43.7802 188.779V188.801L43.1642 190.735L41.6528 189.002L41.6169 188.966L18.7591 162.849V162.841L16.4024 156.982L16.3379 156.817L42.2688 186.444ZM42.2688 186.444L46.7745 172.275L53.8374 150.084L54.962 153.637L53.4864 158.264L43.7802 188.779V188.801L43.1642 190.735L41.6528 189.002L41.6169 188.966L18.7591 162.849V162.841L16.4024 156.982L16.3379 156.817L42.2688 186.444ZM42.2688 186.444L46.7745 172.275L53.8374 150.084L54.962 153.637L53.4864 158.264L43.7802 188.779V188.801L43.1642 190.735L41.6528 189.002L41.6169 188.966L18.7591 162.849V162.841L16.4024 156.982L16.3379 156.817L42.2688 186.444ZM42.2688 186.444L46.7745 172.275L53.8374 150.084L54.962 153.637L53.4864 158.264L43.7802 188.779V188.801L43.1642 190.735L41.6528 189.002L41.6169 188.966L18.7591 162.849V162.841L16.4024 156.982L16.3379 156.817L42.2688 186.444ZM42.2688 186.444L46.7745 172.275L53.8374 150.084L54.962 153.637L53.4864 158.264L43.7802 188.779V188.801L43.1642 190.735L41.6528 189.002L41.6169 188.966L18.7591 162.849V162.841L16.4024 156.982L16.3379 156.817L42.2688 186.444ZM42.2688 186.444L46.7745 172.275L53.8374 150.084L54.962 153.637L53.4864 158.264L43.7802 188.779V188.801L43.1642 190.735L41.6528 189.002L41.6169 188.966L18.7591 162.849V162.841L16.4024 156.982L16.3379 156.817L42.2688 186.444ZM42.2688 186.444L46.7745 172.275L53.8374 150.084L54.962 153.637L53.4864 158.264L43.7802 188.779V188.801L43.1642 190.735L41.6528 189.002L41.6169 188.966L18.7591 162.849V162.841L16.4024 156.982L16.3379 156.817L42.2688 186.444ZM42.2688 186.444L46.7745 172.275L53.8374 150.084L54.962 153.637L53.4864 158.264L43.7802 188.779V188.801L43.1642 190.735L41.6528 189.002L41.6169 188.966L18.7591 162.849V162.841L16.4024 156.982L16.3379 156.817L42.2688 186.444ZM42.2688 186.444L46.7745 172.275L53.8374 150.084L54.962 153.637L53.4864 158.264L43.7802 188.779V188.801L43.1642 190.735L41.6528 189.002L41.6169 188.966L18.7591 162.849V162.841L16.4024 156.982L16.3379 156.817L42.2688 186.444ZM3.1432 142.505V141.731L12.0543 151.917L16.3379 156.817L16.4024 156.982L18.7591 162.841L14.4898 157.963L14.4826 157.956L14.4755 157.942L3.1432 144.998L3.1289 144.983L2.05442 143.751L3.1432 142.505ZM1.6103 131.452L2.08305 131.194L2.3839 131.03L3.1289 130.621L3.1432 130.614L27.9137 116.947L27.9853 116.911V116.904L29.8048 115.901L30.1343 115.722L30.3492 115.843L30.693 116.03L33.5941 117.641H33.6013L48.0065 125.65L48.0424 125.671L48.4507 125.901L49.3031 128.601L49.3103 128.608L54.962 146.524L56.0867 150.077L55.9864 150.406L54.962 153.637L53.4864 158.264L43.7802 188.779V188.801L43.1642 190.735L41.6528 189.002L41.6169 188.966L18.7591 162.849V162.841L14.4898 157.963L14.4826 157.956L14.4755 157.942L3.1432 144.998L3.1289 144.983L2.05442 143.751L0.979931 142.526V131.803L1.6103 131.452ZM12.0543 151.917L16.3379 156.817L42.2688 186.444L46.7745 172.275L53.8374 150.084V150.069L49.8618 137.505L46.6599 127.362L30.1271 118.179L3.1432 133.064L3.1289 133.071V141.717L3.1432 141.731L12.0543 151.917ZM3.1432 142.505V141.731L12.0543 151.917L16.3379 156.817L42.2688 186.444V186.451L41.6957 188.264L41.6528 189.002L41.6169 188.966L18.7591 162.849V162.841L14.4898 157.963L14.4826 157.956L14.4755 157.942L3.1432 144.998L3.1289 144.983L2.05442 143.751L3.1432 142.505ZM42.2688 186.444L46.7745 172.275L53.8374 150.084L54.962 153.637L53.4864 158.264L43.7802 188.779V188.801L43.1642 190.735L41.6528 189.002L41.6169 188.966L18.7591 162.849V162.841L16.4024 156.982L16.3379 156.817L42.2688 186.444ZM42.2688 186.444L46.7745 172.275L53.8374 150.084L54.962 153.637L53.4864 158.264L43.7802 188.779V188.801L43.1642 190.735L41.6528 189.002L41.6169 188.966L18.7591 162.849V162.841L16.4024 156.982L16.3379 156.817L42.2688 186.444ZM42.2688 186.444L46.7745 172.275L53.8374 150.084L54.962 153.637L53.4864 158.264L43.7802 188.779V188.801L43.1642 190.735L41.6528 189.002L41.6169 188.966L18.7591 162.849V162.841L16.4024 156.982L16.3379 156.817L42.2688 186.444ZM42.2688 186.444L46.7745 172.275L53.8374 150.084L54.962 153.637L53.4864 158.264L43.7802 188.779V188.801L43.1642 190.735L41.6528 189.002L41.6169 188.966L18.7591 162.849V162.841L16.4024 156.982L16.3379 156.817L42.2688 186.444ZM42.2688 186.444L46.7745 172.275L53.8374 150.084L54.962 153.637L53.4864 158.264L43.7802 188.779V188.801L43.1642 190.735L41.6528 189.002L41.6169 188.966L18.7591 162.849V162.841L16.4024 156.982L16.3379 156.817L42.2688 186.444ZM42.2688 186.444L46.7745 172.275L53.8374 150.084L54.962 153.637L53.4864 158.264L43.7802 188.779V188.801L43.1642 190.735L41.6528 189.002L41.6169 188.966L18.7591 162.849V162.841L16.4024 156.982L16.3379 156.817L42.2688 186.444ZM42.2688 186.444L46.7745 172.275L53.8374 150.084L54.962 153.637L53.4864 158.264L43.7802 188.779V188.801L43.1642 190.735L41.6528 189.002L41.6169 188.966L18.7591 162.849V162.841L16.4024 156.982L16.3379 156.817L42.2688 186.444ZM42.2688 186.444L46.7745 172.275L53.8374 150.084L54.962 153.637L53.4864 158.264L43.7802 188.779V188.801L43.1642 190.735L41.6528 189.002L41.6169 188.966L18.7591 162.849V162.841L16.4024 156.982L16.3379 156.817L42.2688 186.444ZM42.2688 186.444L46.7745 172.275L53.8374 150.084L54.962 153.637L53.4864 158.264L43.7802 188.779V188.801L43.1642 190.735L41.6528 189.002L41.6169 188.966L18.7591 162.849V162.841L16.4024 156.982L16.3379 156.817L42.2688 186.444ZM42.2688 186.444L46.7745 172.275L53.8374 150.084L54.962 153.637L53.4864 158.264L43.7802 188.779V188.801L43.1642 190.735L41.6528 189.002L41.6169 188.966L18.7591 162.849V162.841L16.4024 156.982L16.3379 156.817L42.2688 186.444ZM42.2688 186.444L46.7745 172.275L53.8374 150.084L54.962 153.637L53.4864 158.264L43.7802 188.779V188.801L43.1642 190.735L41.6528 189.002L41.6169 188.966L18.7591 162.849V162.841L16.4024 156.982L16.3379 156.817L42.2688 186.444ZM42.2688 186.444L46.7745 172.275L53.8374 150.084L54.962 153.637L53.4864 158.264L43.7802 188.779V188.801L43.1642 190.735L41.6528 189.002L41.6169 188.966L18.7591 162.849V162.841L16.4024 156.982L16.3379 156.817L42.2688 186.444ZM42.2688 186.444L46.7745 172.275L53.8374 150.084L54.962 153.637L53.4864 158.264L43.7802 188.779V188.801L43.1642 190.735L41.6528 189.002L41.6169 188.966L18.7591 162.849V162.841L16.4024 156.982L16.3379 156.817L42.2688 186.444Z" fill="white"/>
<path d="M47.0323 127.57L49.303 128.601L49.3102 128.608L54.962 146.524L53.8373 150.069L49.8617 137.505L46.6598 127.362L47.0323 127.57ZM47.0323 127.57L49.303 128.601L49.3102 128.608L54.962 146.524L53.8373 150.069L49.8617 137.505L46.6598 127.362L47.0323 127.57ZM47.0323 127.57L49.303 128.601L49.3102 128.608L54.962 146.524L53.8373 150.069L49.8617 137.505L46.6598 127.362L47.0323 127.57ZM47.0323 127.57L49.303 128.601L49.3102 128.608L54.962 146.524L53.8373 150.069L49.8617 137.505L46.6598 127.362L47.0323 127.57ZM47.0323 127.57L49.303 128.601L49.3102 128.608L54.962 146.524L53.8373 150.069L49.8617 137.505L46.6598 127.362L47.0323 127.57ZM47.0323 127.57L49.303 128.601L49.3102 128.608L54.962 146.524L53.8373 150.069L49.8617 137.505L46.6598 127.362L47.0323 127.57ZM47.0323 127.57L49.303 128.601L49.3102 128.608L54.962 146.524L53.8373 150.069L49.8617 137.505L46.6598 127.362L47.0323 127.57ZM47.0323 127.57L49.303 128.601L49.3102 128.608L54.962 146.524L53.8373 150.069L49.8617 137.505L46.6598 127.362L47.0323 127.57ZM47.0323 127.57L49.303 128.601L49.3102 128.608L54.962 146.524L53.8373 150.069L49.8617 137.505L46.6598 127.362L47.0323 127.57ZM47.0323 127.57L49.303 128.601L49.3102 128.608L54.962 146.524L53.8373 150.069L49.8617 137.505L46.6598 127.362L47.0323 127.57ZM47.0323 127.57L49.303 128.601L49.3102 128.608L54.962 146.524L53.8373 150.069L49.8617 137.505L46.6598 127.362L47.0323 127.57ZM47.0323 127.57L49.303 128.601L49.3102 128.608L54.962 146.524L53.8373 150.069L49.8617 137.505L46.6598 127.362L47.0323 127.57ZM47.0323 127.57L49.303 128.601L49.3102 128.608L54.962 146.524L53.8373 150.069L49.8617 137.505L46.6598 127.362L47.0323 127.57ZM48.0065 125.65L48.0423 125.671L89.2595 144.403L90.993 145.191L91.2509 145.843L119.123 215.513L112.526 213.314L110.892 212.769L110.721 212.612L110.377 212.296L94.7824 197.855L61.4447 166.989L61.4375 166.975H61.4304V166.967L58.2571 164.038L58.2356 164.016L58.1496 163.744L56.9319 159.883L54.962 153.637L53.8373 150.084V150.077H53.8302L49.8617 137.505L46.6598 127.362L45.8074 124.654L48.0065 125.65ZM54.962 146.524L56.0866 150.077L60.1123 162.827L60.1338 162.841L61.5163 164.124L112.017 210.878L115.405 212.01L89.3168 146.796L49.3102 128.608L54.962 146.524ZM47.0323 127.57L49.303 128.601L49.3102 128.608L54.962 146.524L53.8373 150.069L49.8617 137.505L46.6598 127.362L47.0323 127.57ZM47.0323 127.57L49.303 128.601L49.3102 128.608L54.962 146.524L53.8373 150.069L49.8617 137.505L46.6598 127.362L47.0323 127.57ZM47.0323 127.57L49.303 128.601L49.3102 128.608L54.962 146.524L53.8373 150.069L49.8617 137.505L46.6598 127.362L47.0323 127.57ZM47.0323 127.57L49.303 128.601L49.3102 128.608L54.962 146.524L53.8373 150.069L49.8617 137.505L46.6598 127.362L47.0323 127.57ZM47.0323 127.57L49.303 128.601L49.3102 128.608L54.962 146.524L53.8373 150.069L49.8617 137.505L46.6598 127.362L47.0323 127.57ZM47.0323 127.57L49.303 128.601L49.3102 128.608L54.962 146.524L53.8373 150.069L49.8617 137.505L46.6598 127.362L47.0323 127.57ZM47.0323 127.57L49.303 128.601L49.3102 128.608L54.962 146.524L53.8373 150.069L49.8617 137.505L46.6598 127.362L47.0323 127.57ZM47.0323 127.57L49.303 128.601L49.3102 128.608L54.962 146.524L53.8373 150.069L49.8617 137.505L46.6598 127.362L47.0323 127.57ZM47.0323 127.57L49.303 128.601L49.3102 128.608L54.962 146.524L53.8373 150.069L49.8617 137.505L46.6598 127.362L47.0323 127.57ZM47.0323 127.57L49.303 128.601L49.3102 128.608L54.962 146.524L53.8373 150.069L49.8617 137.505L46.6598 127.362L47.0323 127.57ZM47.0323 127.57L49.303 128.601L49.3102 128.608L54.962 146.524L53.8373 150.069L49.8617 137.505L46.6598 127.362L47.0323 127.57ZM47.0323 127.57L49.303 128.601L49.3102 128.608L54.962 146.524L53.8373 150.069L49.8617 137.505L46.6598 127.362L47.0323 127.57ZM47.0323 127.57L49.303 128.601L49.3102 128.608L54.962 146.524L53.8373 150.069L49.8617 137.505L46.6598 127.362L47.0323 127.57Z" fill="white"/>
<path d="M2.06186 123.129L3.12917 119.869L3.14347 119.826L8.0288 104.841L8.5016 103.387H8.50877L8.71648 102.742L9.5474 103.244L10.6004 103.881L12.47 105.013L30.3781 115.837V115.844L30.6933 116.03L32.2764 116.99L30.4569 117.993L30.1274 118.172V118.179L3.14347 133.064L3.12917 133.071L3.05751 133.107L2.08332 133.652L0.994499 134.253L0.980202 134.26V126.46L2.06186 123.129ZM27.9139 116.947L27.9784 116.904L26.8681 116.231H26.8609L9.9199 105.98L3.14347 126.761L3.12917 126.804V130.621L3.14347 130.614L27.9139 116.947ZM8.0288 104.841L9.9199 105.98L3.14347 126.761V119.826L8.0288 104.841Z" fill="white"/>
<path d="M30.3778 115.844V115.837L54.2099 113.193L55.7285 113.021L56.2944 112.355L71.9533 94.089H71.9604L72.6194 93.3154V85.9946L72.6839 86.5103L74.7684 88.3083V94.1177L73.9804 95.0346L57.6698 114.067H57.6626L56.8102 115.063L55.8073 115.178H55.8002L33.6013 117.642H33.5942L30.693 116.03L30.3492 115.844H30.3778ZM30.3778 115.844V115.837L54.2099 113.193L55.7285 113.021L56.2944 112.355L71.9533 94.089H71.9604L72.6194 93.3154V85.9946L72.6839 86.5103L74.7684 88.3083V94.1177L73.9804 95.0346L57.6698 114.067H57.6626L56.8102 115.063L55.8073 115.178H55.8002L33.6013 117.642H33.5942L30.693 116.03L30.3492 115.844H30.3778ZM30.3778 115.844V115.837L54.2099 113.193L55.7285 113.021L56.2944 112.355L71.9533 94.089H71.9604L72.6194 93.3154V85.9946L72.6839 86.5103L74.7684 88.3083V94.1177L73.9804 95.0346L57.6698 114.067H57.6626L56.8102 115.063L55.8073 115.178H55.8002L33.6013 117.642H33.5942L30.693 116.03L30.3492 115.844H30.3778ZM30.3778 115.844V115.837L54.2099 113.193L55.7285 113.021L56.2944 112.355L71.9533 94.089H71.9604L72.6194 93.3154V85.9946L72.6839 86.5103L74.7684 88.3083V94.1177L73.9804 95.0346L57.6698 114.067H57.6626L56.8102 115.063L55.8073 115.178H55.8002L33.6013 117.642H33.5942L30.693 116.03L30.3492 115.844H30.3778ZM30.3778 115.844V115.837L54.2099 113.193L55.7285 113.021L56.2944 112.355L71.9533 94.089H71.9604L72.6194 93.3154V85.9946L72.6839 86.5103L74.7684 88.3083V94.1177L73.9804 95.0346L57.6698 114.067H57.6626L56.8102 115.063L55.8073 115.178H55.8002L33.6013 117.642H33.5942L30.693 116.03L30.3492 115.844H30.3778ZM30.3778 115.844V115.837L54.2099 113.193L55.7285 113.021L56.2944 112.355L71.9533 94.089H71.9604L72.6194 93.3154V85.9946L72.6839 86.5103L74.7684 88.3083V94.1177L73.9804 95.0346L57.6698 114.067H57.6626L56.8102 115.063L55.8073 115.178H55.8002L33.6013 117.642H33.5942L30.693 116.03L30.3492 115.844H30.3778ZM30.3778 115.844V115.837L54.2099 113.193L55.7285 113.021L56.2944 112.355L71.9533 94.089H71.9604L72.6194 93.3154V85.9946L72.6839 86.5103L74.7684 88.3083V94.1177L73.9804 95.0346L57.6698 114.067H57.6626L56.8102 115.063L55.8073 115.178H55.8002L33.6013 117.642H33.5942L30.693 116.03L30.3492 115.844H30.3778ZM30.3778 115.844V115.837L54.2099 113.193L55.7285 113.021L56.2944 112.355L71.9533 94.089H71.9604L72.6194 93.3154V85.9946L72.6839 86.5103L74.7684 88.3083V94.1177L73.9804 95.0346L57.6698 114.067H57.6626L56.8102 115.063L55.8073 115.178H55.8002L33.6013 117.642H33.5942L30.693 116.03L30.3492 115.844H30.3778ZM30.3778 115.844V115.837L54.2099 113.193L55.7285 113.021L56.2944 112.355L71.9533 94.089H71.9604L72.6194 93.3154V85.9946L72.6839 86.5103L74.7684 88.3083V94.1177L73.9804 95.0346L57.6698 114.067H57.6626L56.8102 115.063L55.8073 115.178H55.8002L33.6013 117.642H33.5942L30.693 116.03L30.3492 115.844H30.3778ZM30.3778 115.844V115.837L54.2099 113.193L55.7285 113.021L56.2944 112.355L71.9533 94.089H71.9604L72.6194 93.3154V85.9946L72.6839 86.5103L74.7684 88.3083V94.1177L73.9804 95.0346L57.6698 114.067H57.6626L56.8102 115.063L55.8073 115.178H55.8002L33.6013 117.642H33.5942L30.693 116.03L30.3492 115.844H30.3778ZM30.3778 115.844V115.837L54.2099 113.193L55.7285 113.021L56.2944 112.355L71.9533 94.089H71.9604L72.6194 93.3154V85.9946L72.6839 86.5103L74.7684 88.3083V94.1177L73.9804 95.0346L57.6698 114.067H57.6626L56.8102 115.063L55.8073 115.178H55.8002L33.6013 117.642H33.5942L30.693 116.03L30.3492 115.844H30.3778ZM30.3778 115.844V115.837L54.2099 113.193L55.7285 113.021L56.2944 112.355L71.9533 94.089H71.9604L72.6194 93.3154V85.9946L72.6839 86.5103L74.7684 88.3083V94.1177L73.9804 95.0346L57.6698 114.067H57.6626L56.8102 115.063L55.8073 115.178H55.8002L33.6013 117.642H33.5942L30.693 116.03L30.3492 115.844H30.3778ZM30.3778 115.844V115.837L54.2099 113.193L55.7285 113.021L56.2944 112.355L71.9533 94.089H71.9604L72.6194 93.3154V85.9946L72.6839 86.5103L74.7684 88.3083V94.1177L73.9804 95.0346L57.6698 114.067H57.6626L56.8102 115.063L55.8073 115.178H55.8002L33.6013 117.642H33.5942L30.693 116.03L30.3492 115.844H30.3778ZM26.8607 116.231H26.8679L29.8048 115.901L30.3492 115.844H30.3778V115.837L54.2099 113.193L55.7285 113.021L56.2944 112.355L71.9533 94.089H71.9604L73.9804 95.0346L57.6698 114.067H57.6626L56.8102 115.063L55.8073 115.178H55.8002L33.6013 117.642L48.0066 125.65L45.8075 124.655L46.6599 127.362L30.1272 118.179V118.172L29.9122 118.057L29.5254 117.842L27.9137 116.947L26.6673 116.252L26.8607 116.231ZM26.8607 116.231H26.8679L29.8048 115.901L30.3492 115.844H30.3778V115.837L54.2099 113.193L55.7285 113.021L56.2944 112.355L71.9533 94.089H71.9604L72.6194 93.3154V83.6235L74.7039 85.4215L74.7111 85.4287L93.2209 101.41L95.9644 103.781L96.0862 104.311L95.8283 106.503L91.251 145.843L91.0504 147.584L89.3169 146.796L49.3103 128.609L49.3031 128.601L47.0324 127.57L46.6599 127.362L30.1272 118.179V118.172L29.9122 118.057L29.5254 117.842L27.9137 116.947L26.6673 116.252L26.8607 116.231ZM48.0066 125.65L48.0424 125.672L89.2596 144.404L93.8656 104.805L74.7684 88.3154V94.1177L73.9804 95.0346L57.6698 114.067H57.6626L56.8102 115.063L55.8073 115.178H55.8002L33.6013 117.642L48.0066 125.65ZM26.8607 116.231H26.8679L29.8048 115.901L30.3492 115.844H30.3778V115.837L54.2099 113.193L55.7285 113.021L56.2944 112.355L71.9533 94.089H71.9604L73.9804 95.0346L57.6698 114.067H57.6626L56.8102 115.063L55.8073 115.178H55.8002L33.6013 117.642L48.0066 125.65L45.8075 124.655L46.6599 127.362L30.1272 118.179V118.172L29.9122 118.057L29.5254 117.842L27.9137 116.947L26.6673 116.252L26.8607 116.231ZM30.3778 115.844V115.837L54.2099 113.193L55.7285 113.021L56.2944 112.355L71.9533 94.089H71.9604L72.6194 93.3154V85.9946L72.6839 86.5103L74.7684 88.3083V94.1177L73.9804 95.0346L57.6698 114.067H57.6626L56.8102 115.063L55.8073 115.178H55.8002L33.6013 117.642H33.5942L30.693 116.03L30.3492 115.844H30.3778ZM30.3778 115.844V115.837L54.2099 113.193L55.7285 113.021L56.2944 112.355L71.9533 94.089H71.9604L72.6194 93.3154V85.9946L72.6839 86.5103L74.7684 88.3083V94.1177L73.9804 95.0346L57.6698 114.067H57.6626L56.8102 115.063L55.8073 115.178H55.8002L33.6013 117.642H33.5942L30.693 116.03L30.3492 115.844H30.3778ZM30.3778 115.844V115.837L54.2099 113.193L55.7285 113.021L56.2944 112.355L71.9533 94.089H71.9604L72.6194 93.3154V85.9946L72.6839 86.5103L74.7684 88.3083V94.1177L73.9804 95.0346L57.6698 114.067H57.6626L56.8102 115.063L55.8073 115.178H55.8002L33.6013 117.642H33.5942L30.693 116.03L30.3492 115.844H30.3778ZM30.3778 115.844V115.837L54.2099 113.193L55.7285 113.021L56.2944 112.355L71.9533 94.089H71.9604L72.6194 93.3154V85.9946L72.6839 86.5103L74.7684 88.3083V94.1177L73.9804 95.0346L57.6698 114.067H57.6626L56.8102 115.063L55.8073 115.178H55.8002L33.6013 117.642H33.5942L30.693 116.03L30.3492 115.844H30.3778ZM30.3778 115.844V115.837L54.2099 113.193L55.7285 113.021L56.2944 112.355L71.9533 94.089H71.9604L72.6194 93.3154V85.9946L72.6839 86.5103L74.7684 88.3083V94.1177L73.9804 95.0346L57.6698 114.067H57.6626L56.8102 115.063L55.8073 115.178H55.8002L33.6013 117.642H33.5942L30.693 116.03L30.3492 115.844H30.3778ZM30.3778 115.844V115.837L54.2099 113.193L55.7285 113.021L56.2944 112.355L71.9533 94.089H71.9604L72.6194 93.3154V85.9946L72.6839 86.5103L74.7684 88.3083V94.1177L73.9804 95.0346L57.6698 114.067H57.6626L56.8102 115.063L55.8073 115.178H55.8002L33.6013 117.642H33.5942L30.693 116.03L30.3492 115.844H30.3778ZM30.3778 115.844V115.837L54.2099 113.193L55.7285 113.021L56.2944 112.355L71.9533 94.089H71.9604L72.6194 93.3154V85.9946L72.6839 86.5103L74.7684 88.3083V94.1177L73.9804 95.0346L57.6698 114.067H57.6626L56.8102 115.063L55.8073 115.178H55.8002L33.6013 117.642H33.5942L30.693 116.03L30.3492 115.844H30.3778ZM30.3778 115.844V115.837L54.2099 113.193L55.7285 113.021L56.2944 112.355L71.9533 94.089H71.9604L72.6194 93.3154V85.9946L72.6839 86.5103L74.7684 88.3083V94.1177L73.9804 95.0346L57.6698 114.067H57.6626L56.8102 115.063L55.8073 115.178H55.8002L33.6013 117.642H33.5942L30.693 116.03L30.3492 115.844H30.3778ZM30.3778 115.844V115.837L54.2099 113.193L55.7285 113.021L56.2944 112.355L71.9533 94.089H71.9604L72.6194 93.3154V85.9946L72.6839 86.5103L74.7684 88.3083V94.1177L73.9804 95.0346L57.6698 114.067H57.6626L56.8102 115.063L55.8073 115.178H55.8002L33.6013 117.642H33.5942L30.693 116.03L30.3492 115.844H30.3778ZM30.3778 115.844V115.837L54.2099 113.193L55.7285 113.021L56.2944 112.355L71.9533 94.089H71.9604L72.6194 93.3154V85.9946L72.6839 86.5103L74.7684 88.3083V94.1177L73.9804 95.0346L57.6698 114.067H57.6626L56.8102 115.063L55.8073 115.178H55.8002L33.6013 117.642H33.5942L30.693 116.03L30.3492 115.844H30.3778ZM30.3778 115.844V115.837L54.2099 113.193L55.7285 113.021L56.2944 112.355L71.9533 94.089H71.9604L72.6194 93.3154V85.9946L72.6839 86.5103L74.7684 88.3083V94.1177L73.9804 95.0346L57.6698 114.067H57.6626L56.8102 115.063L55.8073 115.178H55.8002L33.6013 117.642H33.5942L30.693 116.03L30.3492 115.844H30.3778ZM30.3778 115.844V115.837L54.2099 113.193L55.7285 113.021L56.2944 112.355L71.9533 94.089H71.9604L72.6194 93.3154V85.9946L72.6839 86.5103L74.7684 88.3083V94.1177L73.9804 95.0346L57.6698 114.067H57.6626L56.8102 115.063L55.8073 115.178H55.8002L33.6013 117.642H33.5942L30.693 116.03L30.3492 115.844H30.3778ZM30.3778 115.844V115.837L54.2099 113.193L55.7285 113.021L56.2944 112.355L71.9533 94.089H71.9604L72.6194 93.3154V85.9946L72.6839 86.5103L74.7684 88.3083V94.1177L73.9804 95.0346L57.6698 114.067H57.6626L56.8102 115.063L55.8073 115.178H55.8002L33.6013 117.642H33.5942L30.693 116.03L30.3492 115.844H30.3778Z" fill="white"/>
<path d="M8.71531 102.743L8.50759 103.387H8.50042L8.71531 102.743ZM8.71531 102.743L8.50759 103.387H8.50042L8.71531 102.743ZM8.71531 102.743L8.50759 103.387H8.50042L8.71531 102.743ZM8.71531 102.743L8.50759 103.387H8.50042L8.71531 102.743ZM8.71531 102.743L8.50759 103.387H8.50042L8.71531 102.743ZM8.71531 102.743L8.50759 103.387H8.50042L8.71531 102.743ZM8.71531 102.743L8.50759 103.387H8.50042L8.71531 102.743ZM8.71531 102.743L8.50759 103.387H8.50042L8.71531 102.743ZM8.71531 102.743L8.50759 103.387H8.50042L8.71531 102.743ZM8.71531 102.743L8.50759 103.387H8.50042L8.71531 102.743ZM8.71531 102.743L8.50759 103.387H8.50042L8.71531 102.743ZM8.71531 102.743L8.50759 103.387H8.50042L8.71531 102.743ZM8.71531 102.743L8.50759 103.387H8.50042L8.71531 102.743ZM8.71531 102.743L8.50759 103.387H8.50042L8.71531 102.743ZM2.08932 86.7327L3.12799 86.3173L3.14229 86.3101L15.9717 81.1812L18.3069 80.25L17.5118 82.6855L10.8714 103.065L10.5992 103.882L9.91872 105.98L3.14229 126.761L3.12799 126.804L2.06068 130.063L1.75267 131.016L1.60939 131.453L1.07932 133.093L0.993322 133.351L0.979025 133.394V87.1769L2.08932 86.7327ZM8.02762 104.841L8.50042 103.387L8.71531 102.743L14.8399 83.9534V83.9462L3.14229 88.6238L3.12799 88.631V119.87L3.14229 119.827L8.02762 104.841ZM8.71531 102.743L8.50759 103.387H8.50042L8.71531 102.743ZM8.71531 102.743L8.50759 103.387H8.50042L8.71531 102.743ZM8.71531 102.743L8.50759 103.387H8.50042L8.71531 102.743ZM8.71531 102.743L8.50759 103.387H8.50042L8.71531 102.743ZM8.71531 102.743L8.50759 103.387H8.50042L8.71531 102.743ZM8.71531 102.743L8.50759 103.387H8.50042L8.71531 102.743ZM8.71531 102.743L8.50759 103.387H8.50042L8.71531 102.743ZM8.71531 102.743L8.50759 103.387H8.50042L8.71531 102.743ZM8.71531 102.743L8.50759 103.387H8.50042L8.71531 102.743ZM8.71531 102.743L8.50759 103.387H8.50042L8.71531 102.743ZM8.71531 102.743L8.50759 103.387H8.50042L8.71531 102.743ZM8.71531 102.743L8.50759 103.387H8.50042L8.71531 102.743ZM8.71531 102.743L8.50759 103.387H8.50042L8.71531 102.743ZM8.71531 102.743L8.50759 103.387H8.50042L8.71531 102.743Z" fill="white"/>
<path d="M8.50159 103.387H8.50877L9.5474 103.244L10.8726 103.064L44.2031 98.4943L45.1129 98.3726L46.1372 99.6548L56.2947 112.355L56.3018 112.362L57.6628 114.067L56.8104 115.063V115.07L55.8076 115.177H55.8004L33.6015 117.642H33.5944L30.4569 117.993L29.9125 118.057H29.8838L29.5257 117.842L27.9856 116.911V116.904H27.9784L26.8681 116.23H26.8609L9.9199 105.98L8.0288 104.841L8.50159 103.387ZM30.3709 115.844H30.3781L54.2102 113.193L44.196 100.672L12.47 105.013L30.3709 115.844Z" fill="white"/>
<path d="M44.2035 98.4945L58.2148 86.3457L58.9956 85.6724L60.4426 86.3457L72.6201 92.0261L74.769 93.029V94.1178L73.9811 95.0347L57.6704 114.067H57.6632L56.8108 115.063V115.07L55.808 115.178H55.8008L54.2106 113.194L44.1964 100.672L43.172 99.3899L44.2035 98.4945ZM56.2951 112.355L56.3022 112.363L71.9611 94.0892H71.9539L59.3538 88.2082L46.1376 99.655L56.2951 112.355Z" fill="white"/>
<path d="M58.2148 86.3453L63.4798 66.1593L64.0887 63.8313L64.6331 63.6522L64.6832 63.6379L68.6875 62.3055L68.6946 62.2984L71.0442 61.5176L71.8106 62.1981V62.2053L71.9682 63.4731L74.7046 85.4213L74.769 85.9657V94.1175L73.9811 95.0343L71.9611 94.0888H71.9539L59.3538 88.2078L57.9068 87.5344L58.2148 86.3453ZM72.6201 92.0258V86.0373L70.5499 69.433L69.8909 64.168L65.8795 65.5075L60.4426 86.3453L72.6201 92.0258Z" fill="white"/>
<path d="M61.5881 55.9663L66.3588 57.356H66.3659L71.0435 61.5178L68.694 62.2986L62.3044 56.6253L61.4161 55.8374L61.5881 55.9663ZM61.5881 55.9663L66.3588 57.356H66.3659L71.0435 61.5178L68.694 62.2986L62.3044 56.6253L61.4161 55.8374L61.5881 55.9663ZM61.5881 55.9663L66.3588 57.356H66.3659L71.0435 61.5178L68.694 62.2986L62.3044 56.6253L61.4161 55.8374L61.5881 55.9663ZM61.5881 55.9663L66.3588 57.356H66.3659L71.0435 61.5178L68.694 62.2986L62.3044 56.6253L61.4161 55.8374L61.5881 55.9663ZM61.5881 55.9663L66.3588 57.356H66.3659L71.0435 61.5178L68.694 62.2986L62.3044 56.6253L61.4161 55.8374L61.5881 55.9663ZM61.5881 55.9663L66.3588 57.356H66.3659L71.0435 61.5178L68.694 62.2986L62.3044 56.6253L61.4161 55.8374L61.5881 55.9663ZM61.5881 55.9663L66.3588 57.356H66.3659L71.0435 61.5178L68.694 62.2986L62.3044 56.6253L61.4161 55.8374L61.5881 55.9663ZM61.5881 55.9663L66.3588 57.356H66.3659L71.0435 61.5178L68.694 62.2986L62.3044 56.6253L61.4161 55.8374L61.5881 55.9663ZM61.5881 55.9663L66.3588 57.356H66.3659L71.0435 61.5178L68.694 62.2986L62.3044 56.6253L61.4161 55.8374L61.5881 55.9663ZM61.5881 55.9663L66.3588 57.356H66.3659L71.0435 61.5178L68.694 62.2986L62.3044 56.6253L61.4161 55.8374L61.5881 55.9663ZM61.5881 55.9663L66.3588 57.356H66.3659L71.0435 61.5178L68.694 62.2986L62.3044 56.6253L61.4161 55.8374L61.5881 55.9663ZM61.5881 55.9663L66.3588 57.356H66.3659L71.0435 61.5178L68.694 62.2986L62.3044 56.6253L61.4161 55.8374L61.5881 55.9663ZM61.5881 55.9663L66.3588 57.356H66.3659L71.0435 61.5178L68.694 62.2986L62.3044 56.6253L61.4161 55.8374L61.5881 55.9663ZM71.0435 61.5178L71.81 62.1983V62.2055L71.9676 63.4734L74.7111 85.4287L74.7039 85.4215L72.6194 83.6236V85.9946L70.5493 69.4332L69.8902 64.1682L69.7756 63.2657L68.694 62.2986L71.0435 61.5178ZM62.5694 54.0108L68.5507 55.7586L82.6981 59.8775V59.8846L85.9788 60.8373L86.3155 61.3316L86.7668 63.3158L95.9644 103.781L96.0862 104.311L95.8283 106.503L93.8656 104.805L74.7684 88.3155V88.3083L72.6839 86.5104L72.6194 85.9946L70.5493 69.4332L69.8902 64.1682L69.7756 63.2657L68.694 62.2986L62.3044 56.6253L61.4161 55.8374L61.3875 55.8087L57.7987 52.6211L62.5694 54.0108ZM71.0435 61.5178L71.81 62.1983V62.2055L71.9676 63.4734L74.7111 85.4287L93.2209 101.41L84.4101 62.621L66.3659 57.356L71.0435 61.5178ZM71.0435 61.5178L71.81 62.1983V62.2055L71.9676 63.4734L74.7111 85.4287L74.7039 85.4215L72.6194 83.6236V85.9946L70.5493 69.4332L69.8902 64.1682L69.7756 63.2657L68.694 62.2986L71.0435 61.5178ZM61.5881 55.9663L66.3588 57.356H66.3659L71.0435 61.5178L68.694 62.2986L62.3044 56.6253L61.4161 55.8374L61.5881 55.9663ZM61.5881 55.9663L66.3588 57.356H66.3659L71.0435 61.5178L68.694 62.2986L62.3044 56.6253L61.4161 55.8374L61.5881 55.9663ZM61.5881 55.9663L66.3588 57.356H66.3659L71.0435 61.5178L68.694 62.2986L62.3044 56.6253L61.4161 55.8374L61.5881 55.9663ZM61.5881 55.9663L66.3588 57.356H66.3659L71.0435 61.5178L68.694 62.2986L62.3044 56.6253L61.4161 55.8374L61.5881 55.9663ZM61.5881 55.9663L66.3588 57.356H66.3659L71.0435 61.5178L68.694 62.2986L62.3044 56.6253L61.4161 55.8374L61.5881 55.9663ZM61.5881 55.9663L66.3588 57.356H66.3659L71.0435 61.5178L68.694 62.2986L62.3044 56.6253L61.4161 55.8374L61.5881 55.9663ZM61.5881 55.9663L66.3588 57.356H66.3659L71.0435 61.5178L68.694 62.2986L62.3044 56.6253L61.4161 55.8374L61.5881 55.9663ZM61.5881 55.9663L66.3588 57.356H66.3659L71.0435 61.5178L68.694 62.2986L62.3044 56.6253L61.4161 55.8374L61.5881 55.9663ZM61.5881 55.9663L66.3588 57.356H66.3659L71.0435 61.5178L68.694 62.2986L62.3044 56.6253L61.4161 55.8374L61.5881 55.9663ZM61.5881 55.9663L66.3588 57.356H66.3659L71.0435 61.5178L68.694 62.2986L62.3044 56.6253L61.4161 55.8374L61.5881 55.9663ZM61.5881 55.9663L66.3588 57.356H66.3659L71.0435 61.5178L68.694 62.2986L62.3044 56.6253L61.4161 55.8374L61.5881 55.9663ZM61.5881 55.9663L66.3588 57.356H66.3659L71.0435 61.5178L68.694 62.2986L62.3044 56.6253L61.4161 55.8374L61.5881 55.9663ZM61.5881 55.9663L66.3588 57.356H66.3659L71.0435 61.5178L68.694 62.2986L62.3044 56.6253L61.4161 55.8374L61.5881 55.9663Z" fill="white"/>
<path d="M44.2817 42.4351L43.5941 41.5683H43.6012L45.0195 41.3964L45.9221 41.289L46.094 41.2675L69.3889 38.4667L70.3344 38.3521L71.2728 39.7059L85.9789 60.8374L86.3156 61.3317L86.7668 63.3159L84.4102 62.6211L66.366 57.3561H66.3588L61.5881 55.9664L61.4162 55.8375L61.3875 55.8088L45.8576 43.9394L45.3204 43.5239L44.8548 43.1729L44.1456 42.6285L44.2817 42.4351ZM62.5694 54.0109L68.5508 55.7587L82.6981 59.8847V59.8776L69.3101 40.6443L48.3719 43.1586L62.5694 54.0109Z" fill="white"/>
<path d="M24.9911 73.6238L25.385 73.5236C25.4853 73.4949 25.5928 73.4734 25.7002 73.4447L26.7174 73.1869C26.9538 73.1224 27.2045 73.0651 27.4552 73.0006L27.8134 72.9147L27.8492 72.9004L27.9638 72.8717L28.6658 72.6926L41.137 69.5623L46.8246 68.1296C47.8418 67.8718 48.8804 67.6139 49.9406 67.3488L50.9363 67.0981L64.6324 63.6526L64.6825 63.6383L68.6868 62.3059L62.3043 56.6255L68.6939 62.2988L69.7756 63.2658L69.8902 64.1684L65.8788 65.5079L65.2484 65.7156L63.4791 66.1597L51.538 69.1611L49.4535 69.684V69.6912L48.1426 70.0136C47.7128 70.121 47.283 70.2285 46.8604 70.3359C46.3876 70.4577 45.9149 70.5723 45.4564 70.6869C45.1126 70.7729 44.7616 70.8588 44.4249 70.9448L41.4378 71.7041L39.339 72.2342L30.4709 74.4619L28.3793 74.992L27.0756 75.3144C26.9395 75.343 26.8105 75.3788 26.6816 75.4146C25.8936 75.6152 25.2131 75.78 24.6472 75.9304L23.8951 76.1166C23.5584 76.2026 23.2934 76.2671 23.1 76.3172L24.9911 73.6238ZM39.7616 52.5711L45.8576 43.9394L24.9982 73.6167L39.7616 52.5711ZM20.3565 76.4748L21.7963 74.4333L25.077 69.7629L36.8677 52.9866L38.5654 50.5725L44.1455 42.6285L44.2816 42.4423V42.4351L45.0195 41.3964L45.3848 40.8735L45.922 41.289L46.3876 41.64L48.3718 43.1586L62.5694 54.0109L62.7914 54.1828L66.3587 57.3561H66.3659L71.0435 61.518L71.8099 62.1985V62.2056L71.9675 63.4735L69.8902 64.1684L65.8788 65.5079L65.2484 65.7156L63.4791 66.1597L51.538 69.1611L49.4535 69.684V69.6912L48.1426 70.0136C47.7128 70.121 47.283 70.2285 46.8604 70.3359C46.3876 70.4577 45.9149 70.5723 45.4564 70.6869C45.1126 70.7729 44.7616 70.8588 44.4249 70.9448L41.4378 71.7041L39.339 72.2342L30.4709 74.4619L28.3793 74.992L27.0756 75.3144C26.9395 75.343 26.8105 75.3788 26.6816 75.4146C25.8936 75.6152 25.2131 75.78 24.6472 75.9304L23.8951 76.1166C23.5584 76.2026 23.2934 76.2671 23.1 76.3172L20.7361 76.9117L19.9123 77.1195H19.9052L20.3565 76.4748ZM25.385 73.5236C25.4853 73.4949 25.5928 73.4734 25.7002 73.4447L26.7174 73.1869C26.9538 73.1224 27.2045 73.0651 27.4552 73.0006L27.8134 72.9147L27.8492 72.9004L27.9638 72.8717L28.6658 72.6926L41.137 69.5623L46.8246 68.1296C47.8418 67.8718 48.8804 67.6139 49.9406 67.3488L50.9363 67.0981L64.6324 63.6526L64.6825 63.6383L68.6868 62.3059L62.3043 56.6255L61.4161 55.8375L61.3874 55.8089L45.8576 43.9394L24.9982 73.6167H24.9911V73.6238L25.385 73.5236ZM68.6939 62.2988L68.6868 62.3059L62.3043 56.6255L68.6939 62.2988ZM46.8246 68.1296C47.8418 67.8718 48.8804 67.6139 49.9406 67.3488L50.9363 67.0981L64.6324 63.6526L64.088 63.8317L63.4791 66.1597L51.538 69.1611L49.4535 69.684V69.6912L48.1426 70.0136C47.7128 70.121 47.283 70.2285 46.8604 70.3359C46.3876 70.4577 45.9149 70.5723 45.4564 70.6869C45.1126 70.7729 44.7616 70.8588 44.4249 70.9448L41.4378 71.7041V71.6969C41.402 71.3817 41.359 71.0594 41.3089 70.7299L41.137 69.5623L46.8246 68.1296Z" fill="white"/>
<path d="M34.4264 27.8577L34.8991 27.7717L38.0223 27.1843L80.8871 19.1472L81.9974 18.9395L82.7567 20.2718L86.7036 27.17L71.274 39.7057L70.264 40.5294L69.3113 40.6441L48.3731 43.1583L46.2242 43.4162L45.3216 43.5237L45.1497 43.5452L44.856 43.1727L44.2829 42.442V42.4349L43.5953 41.5681L34.5266 30.0281L34.4478 29.9207H34.4407L33.5524 28.7889L33.0295 28.1227L34.4264 27.8577ZM69.3901 38.4664L83.9314 26.6543L80.8871 21.332L36.912 29.5769L46.0952 41.2672L69.3901 38.4664Z" fill="white"/>
<path d="M33.5519 28.789L34.4258 27.8578L34.5118 27.7719L50.8798 10.4368L100.879 0.0214844L82.7562 20.2719L81.9969 21.1244L80.8866 21.3321L36.9115 29.577L34.5333 30.0283H34.5261L34.4473 29.9208H32.4774L33.5519 28.789ZM80.8866 19.1473L94.9193 3.45984L51.9829 12.4067L38.0218 27.1845L80.8866 19.1473Z" fill="white"/>
<path d="M15.9727 81.181L18.9813 78.1725L19.5544 78.8315V78.8387L20.3924 79.8057L17.5128 82.6853L18.308 80.2498L15.9727 81.181ZM15.9727 81.181L18.9813 78.1725L19.5544 78.8315V78.8387L20.3924 79.8057L17.5128 82.6853L18.308 80.2498L15.9727 81.181ZM15.9727 81.181L18.9813 78.1725L19.5544 78.8315V78.8387L20.3924 79.8057L17.5128 82.6853L18.308 80.2498L15.9727 81.181ZM15.9727 81.181L18.9813 78.1725L19.5544 78.8315V78.8387L20.3924 79.8057L17.5128 82.6853L18.308 80.2498L15.9727 81.181ZM15.9727 81.181L18.9813 78.1725L19.5544 78.8315V78.8387L20.3924 79.8057L17.5128 82.6853L18.308 80.2498L15.9727 81.181ZM15.9727 81.181L18.9813 78.1725L19.5544 78.8315V78.8387L20.3924 79.8057L17.5128 82.6853L18.308 80.2498L15.9727 81.181ZM15.9727 81.181L18.9813 78.1725L19.5544 78.8315V78.8387L20.3924 79.8057L17.5128 82.6853L18.308 80.2498L15.9727 81.181ZM15.9727 81.181L18.9813 78.1725L19.5544 78.8315V78.8387L20.3924 79.8057L17.5128 82.6853L18.308 80.2498L15.9727 81.181ZM15.9727 81.181L18.9813 78.1725L19.5544 78.8315V78.8387L20.3924 79.8057L17.5128 82.6853L18.308 80.2498L15.9727 81.181ZM15.9727 81.181L18.9813 78.1725L19.5544 78.8315V78.8387L20.3924 79.8057L17.5128 82.6853L18.308 80.2498L15.9727 81.181ZM15.9727 81.181L18.9813 78.1725L19.5544 78.8315V78.8387L20.3924 79.8057L17.5128 82.6853L18.308 80.2498L15.9727 81.181ZM15.9727 81.181L18.9813 78.1725L19.5544 78.8315V78.8387L20.3924 79.8057L17.5128 82.6853L18.308 80.2498L15.9727 81.181ZM15.9727 81.181L18.9813 78.1725L19.5544 78.8315V78.8387L20.3924 79.8057L17.5128 82.6853L18.308 80.2498L15.9727 81.181ZM0.994394 54.0539L2.05458 55.2788L2.48436 55.7802L2.58466 55.8948L3.14336 56.5467L4.14623 57.7071H4.1534L20.3566 76.4748L20.3638 76.482L20.7363 76.9117L21.8108 78.151V78.1582L21.9182 78.2799L17.1833 83.0148L14.8409 83.946V83.9532L3.14336 88.6236L3.12907 88.6308L2.09039 89.0463L0.994394 89.4832L0.980099 89.4904V54.0396L0.994394 54.0539ZM15.9727 81.181L18.9813 78.1725L3.14336 59.8346L3.12907 59.8203V86.3171L3.14336 86.3099L15.9727 81.181ZM15.9727 81.181L18.9813 78.1725L19.5544 78.8315V78.8387L20.3924 79.8057L17.5128 82.6853L18.308 80.2498L15.9727 81.181ZM15.9727 81.181L18.9813 78.1725L19.5544 78.8315V78.8387L20.3924 79.8057L17.5128 82.6853L18.308 80.2498L15.9727 81.181ZM15.9727 81.181L18.9813 78.1725L19.5544 78.8315V78.8387L20.3924 79.8057L17.5128 82.6853L18.308 80.2498L15.9727 81.181ZM15.9727 81.181L18.9813 78.1725L19.5544 78.8315V78.8387L20.3924 79.8057L17.5128 82.6853L18.308 80.2498L15.9727 81.181ZM15.9727 81.181L18.9813 78.1725L19.5544 78.8315V78.8387L20.3924 79.8057L17.5128 82.6853L18.308 80.2498L15.9727 81.181ZM15.9727 81.181L18.9813 78.1725L19.5544 78.8315V78.8387L20.3924 79.8057L17.5128 82.6853L18.308 80.2498L15.9727 81.181ZM15.9727 81.181L18.9813 78.1725L19.5544 78.8315V78.8387L20.3924 79.8057L17.5128 82.6853L18.308 80.2498L15.9727 81.181ZM15.9727 81.181L18.9813 78.1725L19.5544 78.8315V78.8387L20.3924 79.8057L17.5128 82.6853L18.308 80.2498L15.9727 81.181ZM15.9727 81.181L18.9813 78.1725L19.5544 78.8315V78.8387L20.3924 79.8057L17.5128 82.6853L18.308 80.2498L15.9727 81.181ZM15.9727 81.181L18.9813 78.1725L19.5544 78.8315V78.8387L20.3924 79.8057L17.5128 82.6853L18.308 80.2498L15.9727 81.181ZM15.9727 81.181L18.9813 78.1725L19.5544 78.8315V78.8387L20.3924 79.8057L17.5128 82.6853L18.308 80.2498L15.9727 81.181ZM15.9727 81.181L18.9813 78.1725L19.5544 78.8315V78.8387L20.3924 79.8057L17.5128 82.6853L18.308 80.2498L15.9727 81.181ZM15.9727 81.181L18.9813 78.1725L19.5544 78.8315V78.8387L20.3924 79.8057L17.5128 82.6853L18.308 80.2498L15.9727 81.181Z" fill="white"/>
<path d="M1.49659 55.9236L2.13413 55.8305L2.48512 55.7804L3.12983 55.6872H3.14413L38.5377 50.5799L38.5663 50.5727L41.4531 50.1572L39.7626 52.5712L24.9992 73.6168H24.992V73.624L23.1009 76.3174L21.8115 78.1511V78.1583L21.7041 78.3087L21.26 78.9391L20.5365 79.9706L20.3932 79.8058L19.5551 78.8388V78.8317L18.982 78.1726L3.14413 59.8348L3.12983 59.8204L2.05535 58.574L1.6184 58.0726L1.46796 57.9007L0.980862 57.3348V55.9953L1.49659 55.9236ZM20.3574 76.4749L20.3646 76.4821L21.7972 74.4334H21.8044L25.078 69.763L36.84 52.9939L4.15417 57.7073L20.3574 76.4749Z" fill="white"/>
<path d="M38.5357 50.5797L44.1446 42.6285L44.8537 43.1729L45.1474 43.5454L45.3193 43.5239L45.8566 43.9394L39.7607 52.5711L41.4512 50.1571L38.5644 50.5725L38.5357 50.5797ZM38.5357 50.5797L44.1446 42.6285L44.8537 43.1729L45.1474 43.5454L45.3193 43.5239L45.8566 43.9394L39.7607 52.5711L41.4512 50.1571L38.5644 50.5725L38.5357 50.5797ZM38.5357 50.5797L44.1446 42.6285L44.8537 43.1729L45.1474 43.5454L45.3193 43.5239L45.8566 43.9394L39.7607 52.5711L41.4512 50.1571L38.5644 50.5725L38.5357 50.5797ZM38.5357 50.5797L44.1446 42.6285L44.8537 43.1729L45.1474 43.5454L45.3193 43.5239L45.8566 43.9394L39.7607 52.5711L41.4512 50.1571L38.5644 50.5725L38.5357 50.5797ZM38.5357 50.5797L44.1446 42.6285L44.8537 43.1729L45.1474 43.5454L45.3193 43.5239L45.8566 43.9394L39.7607 52.5711L41.4512 50.1571L38.5644 50.5725L38.5357 50.5797ZM38.5357 50.5797L44.1446 42.6285L44.8537 43.1729L45.1474 43.5454L45.3193 43.5239L45.8566 43.9394L39.7607 52.5711L41.4512 50.1571L38.5644 50.5725L38.5357 50.5797ZM38.5357 50.5797L44.1446 42.6285L44.8537 43.1729L45.1474 43.5454L45.3193 43.5239L45.8566 43.9394L39.7607 52.5711L41.4512 50.1571L38.5644 50.5725L38.5357 50.5797ZM38.5357 50.5797L44.1446 42.6285L44.8537 43.1729L45.1474 43.5454L45.3193 43.5239L45.8566 43.9394L39.7607 52.5711L41.4512 50.1571L38.5644 50.5725L38.5357 50.5797ZM38.5357 50.5797L44.1446 42.6285L44.8537 43.1729L45.1474 43.5454L45.3193 43.5239L45.8566 43.9394L39.7607 52.5711L41.4512 50.1571L38.5644 50.5725L38.5357 50.5797ZM38.5357 50.5797L44.1446 42.6285L44.8537 43.1729L45.1474 43.5454L45.3193 43.5239L45.8566 43.9394L39.7607 52.5711L41.4512 50.1571L38.5644 50.5725L38.5357 50.5797ZM38.5357 50.5797L44.1446 42.6285L44.8537 43.1729L45.1474 43.5454L45.3193 43.5239L45.8566 43.9394L39.7607 52.5711L41.4512 50.1571L38.5644 50.5725L38.5357 50.5797ZM38.5357 50.5797L44.1446 42.6285L44.8537 43.1729L45.1474 43.5454L45.3193 43.5239L45.8566 43.9394L39.7607 52.5711L41.4512 50.1571L38.5644 50.5725L38.5357 50.5797ZM38.5357 50.5797L44.1446 42.6285L44.8537 43.1729L45.1474 43.5454L45.3193 43.5239L45.8566 43.9394L39.7607 52.5711L41.4512 50.1571L38.5644 50.5725L38.5357 50.5797ZM3.1422 57.3131V55.6871L38.5357 50.5797L44.1446 42.6285L44.2807 42.4423L44.8537 43.1729L45.1474 43.5454L45.3193 43.5239L45.8566 43.9394L39.7607 52.5711L36.8667 52.9865L36.8381 52.9937L4.15224 57.7071H4.14507L3.1422 57.8504L2.61212 57.9292L3.1422 57.3131ZM44.2807 42.4351L43.6002 41.5684L34.5315 30.0284L36.9097 29.5771L46.0929 41.2675L45.921 41.289L45.0185 41.3964L44.2807 42.4351ZM2.07488 41.1099L3.1279 40.4437L3.1422 40.4366L20.599 29.3264L23.0417 27.772H35.4914L36.9097 29.5771L46.0929 41.2675L46.3866 41.64L46.9597 42.3706L46.2219 43.4165L45.8566 43.9394L39.7607 52.5711L36.8667 52.9865L36.8381 52.9937L4.15224 57.7071H4.14507L3.1422 57.8504L2.61212 57.9292L2.1322 58.0008L1.61647 58.0724L0.978928 58.1656V41.8119L2.07488 41.1099ZM38.5357 50.5797L44.1446 42.6285L44.2807 42.4423V42.4351L43.6002 41.5684L34.5315 30.0284H34.5243L34.4455 29.9209H23.672L3.1422 42.9867L3.1279 42.9938V55.6871H3.1422L38.5357 50.5797ZM36.9097 29.5771L46.0929 41.2675L45.921 41.289L45.0185 41.3964L44.2807 42.4351L43.6002 41.5684L34.5315 30.0284L36.9097 29.5771ZM3.1422 57.3131V55.6871L38.5357 50.5797L44.1446 42.6285L44.2807 42.4423L44.8537 43.1729L45.1474 43.5454L45.3193 43.5239L45.8566 43.9394L39.7607 52.5711L36.8667 52.9865L36.8381 52.9937L4.15224 57.7071H4.14507L3.1422 57.8504L2.61212 57.9292L3.1422 57.3131ZM38.5357 50.5797L44.1446 42.6285L44.8537 43.1729L45.1474 43.5454L45.3193 43.5239L45.8566 43.9394L39.7607 52.5711L41.4512 50.1571L38.5644 50.5725L38.5357 50.5797ZM38.5357 50.5797L44.1446 42.6285L44.8537 43.1729L45.1474 43.5454L45.3193 43.5239L45.8566 43.9394L39.7607 52.5711L41.4512 50.1571L38.5644 50.5725L38.5357 50.5797ZM38.5357 50.5797L44.1446 42.6285L44.8537 43.1729L45.1474 43.5454L45.3193 43.5239L45.8566 43.9394L39.7607 52.5711L41.4512 50.1571L38.5644 50.5725L38.5357 50.5797ZM38.5357 50.5797L44.1446 42.6285L44.8537 43.1729L45.1474 43.5454L45.3193 43.5239L45.8566 43.9394L39.7607 52.5711L41.4512 50.1571L38.5644 50.5725L38.5357 50.5797ZM38.5357 50.5797L44.1446 42.6285L44.8537 43.1729L45.1474 43.5454L45.3193 43.5239L45.8566 43.9394L39.7607 52.5711L41.4512 50.1571L38.5644 50.5725L38.5357 50.5797ZM38.5357 50.5797L44.1446 42.6285L44.8537 43.1729L45.1474 43.5454L45.3193 43.5239L45.8566 43.9394L39.7607 52.5711L41.4512 50.1571L38.5644 50.5725L38.5357 50.5797ZM38.5357 50.5797L44.1446 42.6285L44.8537 43.1729L45.1474 43.5454L45.3193 43.5239L45.8566 43.9394L39.7607 52.5711L41.4512 50.1571L38.5644 50.5725L38.5357 50.5797ZM38.5357 50.5797L44.1446 42.6285L44.8537 43.1729L45.1474 43.5454L45.3193 43.5239L45.8566 43.9394L39.7607 52.5711L41.4512 50.1571L38.5644 50.5725L38.5357 50.5797ZM38.5357 50.5797L44.1446 42.6285L44.8537 43.1729L45.1474 43.5454L45.3193 43.5239L45.8566 43.9394L39.7607 52.5711L41.4512 50.1571L38.5644 50.5725L38.5357 50.5797ZM38.5357 50.5797L44.1446 42.6285L44.8537 43.1729L45.1474 43.5454L45.3193 43.5239L45.8566 43.9394L39.7607 52.5711L41.4512 50.1571L38.5644 50.5725L38.5357 50.5797ZM38.5357 50.5797L44.1446 42.6285L44.8537 43.1729L45.1474 43.5454L45.3193 43.5239L45.8566 43.9394L39.7607 52.5711L41.4512 50.1571L38.5644 50.5725L38.5357 50.5797ZM38.5357 50.5797L44.1446 42.6285L44.8537 43.1729L45.1474 43.5454L45.3193 43.5239L45.8566 43.9394L39.7607 52.5711L41.4512 50.1571L38.5644 50.5725L38.5357 50.5797ZM38.5357 50.5797L44.1446 42.6285L44.8537 43.1729L45.1474 43.5454L45.3193 43.5239L45.8566 43.9394L39.7607 52.5711L41.4512 50.1571L38.5644 50.5725L38.5357 50.5797Z" fill="white"/>
<path d="M2.01358 22.9009L3.14534 23.1588L23.4531 27.7719L26.1035 28.3736L23.6752 29.9208L3.14534 42.9866L3.13105 42.9937L2.07803 43.6599L0.996372 44.3548L0.982075 44.3619V23.1373L2.01358 22.9009ZM20.6022 29.3263L3.14534 25.3579H3.13105V40.4436L3.14534 40.4365L20.6022 29.3263Z" fill="white"/>
<path d="M19.9115 77.1195L20.3628 76.482L21.7955 74.4333H21.8026L22.1823 74.333C22.2181 74.3259 23.1995 74.0751 24.9903 73.6167H24.9974C25.1192 73.588 25.2481 73.5594 25.3842 73.5236C25.4845 73.4949 25.592 73.4734 25.6994 73.4448L26.7166 73.1869C26.953 73.1224 27.2037 73.0651 27.4544 73.0006C27.5762 72.9648 27.6908 72.9362 27.8126 72.9075L27.8484 72.9004L27.963 72.8717L28.665 72.6926L30.9286 72.1196L32.9486 71.611L35.1406 71.0594L38.7365 70.1568L41.1362 69.5551C42.9342 69.0967 44.8396 68.6239 46.8238 68.1296C47.841 67.8718 48.8796 67.6139 49.9398 67.3489L50.9355 67.0981L51.2363 68.0795C51.3438 68.4448 51.4441 68.803 51.5372 69.1611C52.8481 74.2399 52.4398 78.6023 50.3123 82.1409C47.841 86.2526 43.1132 89.1179 36.6305 90.4145C35.8784 90.5649 35.1477 90.6294 34.4314 90.6294C27.0604 90.6294 21.9817 83.1223 20.1909 80.0063C19.8757 79.4619 19.668 79.0536 19.5534 78.8387V78.8315C19.5176 78.7599 19.4961 78.7097 19.4817 78.6882L19.2095 78.1223L19.9115 77.1195ZM36.2151 88.3013C40.3053 87.4847 45.7565 85.5578 48.4713 81.0378C50.2908 78.0006 50.6203 74.1969 49.4527 69.6912V69.6841C49.0086 69.7915 48.5788 69.9061 48.1418 70.0136C47.712 70.121 47.2822 70.2285 46.8596 70.3359C46.3868 70.4577 45.9141 70.5723 45.4556 70.6869C45.1118 70.7729 44.7608 70.8588 44.4241 70.9448C43.3998 71.1955 42.4041 71.4462 41.437 71.6969C40.7207 71.876 40.0187 72.0479 39.3382 72.2199L33.4357 73.7098L30.9214 74.3402L30.4701 74.4548C29.7252 74.641 29.0232 74.8201 28.3713 74.9848C27.9129 75.0995 27.4831 75.2069 27.0748 75.3144C26.9387 75.343 26.8097 75.3788 26.6808 75.4146C25.8928 75.6152 25.2123 75.78 24.6464 75.9304L23.8943 76.1167C23.5576 76.2026 23.2926 76.2671 23.0992 76.3172L21.8098 78.151V78.1582L21.7024 78.3086C21.7238 78.3444 21.7453 78.3874 21.7668 78.4304C23.178 80.9733 28.6722 89.8056 36.2151 88.3013Z" fill="white"/>
<path d="M27.8482 72.9004L27.9628 72.8718L28.6648 72.6927L30.9284 72.1196L32.9484 71.611L35.1403 71.0595L38.7363 70.1569L41.136 69.5552V69.5623L41.3079 70.73C41.358 71.0595 41.401 71.3818 41.4368 71.697V71.7041C41.8523 75.0279 41.7806 77.4706 40.4698 79.2112C39.5386 80.4433 38.0701 81.1811 35.9784 81.4748C35.6919 81.5178 35.4197 81.5393 35.1547 81.5393C31.0788 81.5393 29.0874 77.0837 28.3783 74.9921L28.3711 74.9849C28.1777 74.4047 28.0846 74.0107 28.0631 73.9391L27.8124 72.9147V72.9076L27.8482 72.9004ZM30.4699 74.462C31.1074 76.26 32.7192 79.77 35.6776 79.3473C37.1747 79.1396 38.1847 78.6668 38.7506 77.9147C39.6102 76.7757 39.6388 74.8201 39.338 72.2342C39.338 72.2271 39.338 72.2271 39.338 72.2199L33.4355 73.7098L30.9212 74.3402L30.4699 74.4548V74.462Z" fill="white"/>
</svg>
