<svg width="119" height="549" viewBox="0 0 119 549" fill="none" xmlns="http://www.w3.org/2000/svg">
<path d="M67.4002 429.751V429.758H67.4074L115.981 478.339V481.377L67.8157 433.211L66.9847 430.059L66.8272 429.479L66.82 429.171L67.4002 429.751ZM65.8673 428.218L66.82 429.171L67.4002 429.751V429.758H67.4074L115.981 478.339L115.996 478.354L117.07 479.435L118.145 480.503V529.843L117.049 530.781L96.1391 548.711L95.7165 547.128L92.2925 534.177L65.1295 431.435H65.1223L64.8 430.195L64.7928 430.188L64.7212 429.909L64.6854 429.773V429.765L64.6639 429.106L64.6065 426.958L65.8673 428.218ZM97.3425 544.85L115.981 528.876L115.996 528.862V481.391L115.981 481.377L67.8157 433.211L97.3425 544.85ZM67.4002 429.751V429.758H67.4074L115.981 478.339V481.377L67.8157 433.211L66.9847 430.059L66.8272 429.479L66.82 429.171L67.4002 429.751Z" fill="#141312"/>
<path d="M91.6693 411.771L67.4074 429.758H67.4002V429.751L91.6693 411.771ZM91.6693 411.771L67.4074 429.758H67.4002V429.751L91.6693 411.771ZM91.6693 411.771L67.4074 429.758H67.4002V429.751L91.6693 411.771ZM91.6693 411.771L67.4074 429.758H67.4002V429.751L91.6693 411.771ZM91.6693 411.771L67.4074 429.758H67.4002V429.751L91.6693 411.771ZM91.6693 411.771L67.4074 429.758H67.4002V429.751L91.6693 411.771ZM91.6693 411.771L67.4074 429.758H67.4002V429.751L91.6693 411.771ZM91.6693 411.771L67.4074 429.758H67.4002V429.751L91.6693 411.771ZM91.6693 411.771L67.4074 429.758H67.4002V429.751L91.6693 411.771ZM91.6693 411.771L67.4074 429.758H67.4002V429.751L91.6693 411.771ZM91.6693 411.771L67.4074 429.758H67.4002V429.751L91.6693 411.771ZM91.6693 411.771L67.4074 429.758H67.4002V429.751L91.6693 411.771ZM91.6693 411.771L67.4074 429.758H67.4002V429.751L91.6693 411.771ZM65.8673 428.218L66.7698 427.552L86.6263 412.839L90.0432 410.31L90.3942 410.052L91.3039 409.372L91.8698 408.956H91.877L92.1205 408.77L92.1277 408.777L92.6506 409.479L93.4027 410.496V410.504H93.4099L115.981 440.883L115.996 440.904V440.911L117.07 442.358L118.145 443.798V483.54L118.13 483.525L117.07 482.473L115.996 481.391L115.981 481.377L64.8 430.195L64.7928 430.188L64.7212 429.909L64.6854 429.794V429.765L64.6639 429.106L65.8673 428.218ZM115.981 478.339L115.996 478.354V444.515L115.981 444.493L106.913 432.287L91.6764 411.771H91.6693L67.4074 429.758H67.4002L115.981 478.339ZM91.9199 411.585L92.3641 411.256L93.4027 410.496V410.504H93.4099L115.981 440.883V444.493L106.913 432.287L91.6764 411.771L91.9199 411.585ZM91.6693 411.771L67.4074 429.758H67.4002V429.751L91.6693 411.771ZM91.6693 411.771L67.4074 429.758H67.4002V429.751L91.6693 411.771ZM91.6693 411.771L67.4074 429.758H67.4002V429.751L91.6693 411.771ZM91.6693 411.771L67.4074 429.758H67.4002V429.751L91.6693 411.771ZM91.6693 411.771L67.4074 429.758H67.4002V429.751L91.6693 411.771ZM91.6693 411.771L67.4074 429.758H67.4002V429.751L91.6693 411.771ZM91.6693 411.771L67.4074 429.758H67.4002V429.751L91.6693 411.771ZM91.6693 411.771L67.4074 429.758H67.4002V429.751L91.6693 411.771ZM91.6693 411.771L67.4074 429.758H67.4002V429.751L91.6693 411.771ZM91.6693 411.771L67.4074 429.758H67.4002V429.751L91.6693 411.771ZM91.6693 411.771L67.4074 429.758H67.4002V429.751L91.6693 411.771ZM91.6693 411.771L67.4074 429.758H67.4002V429.751L91.6693 411.771ZM91.6693 411.771L67.4074 429.758H67.4002V429.751L91.6693 411.771ZM91.6693 411.771L67.4074 429.758H67.4002V429.751L91.6693 411.771Z" fill="#141312"/>
<path d="M91.3039 409.372L91.8698 408.956H91.877L92.1277 408.777L113.782 392.946H113.789L115.981 391.342L116.683 390.826L116.712 390.805L117.049 390.561L118.13 389.766L118.145 389.759V447.401L118.13 447.38L117.07 445.961L115.996 444.515L115.981 444.493L106.913 432.287L91.6692 411.771L91.132 411.048L90.3942 410.052L90.387 410.045L91.3039 409.372ZM115.981 440.883L115.996 440.904V393.992L115.981 393.999L104.799 402.173L93.4099 410.503H93.4027L115.981 440.883ZM104.799 402.173L93.4099 410.503H93.4027V410.496L104.799 402.173ZM104.799 402.173L93.4099 410.503H93.4027V410.496L104.799 402.173Z" fill="#141312"/>
<path d="M65.7097 390.683L66.6696 390.69L115.981 390.804H118.145V392.423L117.421 392.953L117.392 392.975L117.049 393.226L115.996 393.992L115.981 393.999L104.799 402.172L93.4027 410.496V410.503L92.3641 411.255L91.9199 411.585L91.132 411.048L90.0432 410.31L85.8813 407.48L65.8028 393.834V393.827L64.9575 393.254L64.3272 392.832L63.6109 392.337H63.6037L63.5822 391.442L63.5607 390.683H65.7097ZM91.8698 408.956H91.877L92.1277 408.777L113.782 392.946L68.1667 392.839L91.8698 408.956Z" fill="#141312"/>
<path d="M64.3696 390.26L65 390.683L65.7234 391.177L66.1461 391.464L68.1661 392.839L91.8692 408.956H91.8764L92.6501 409.479L93.7532 410.231L93.4022 410.496L92.3635 411.256L91.9194 411.585L91.6759 411.771H91.6687L67.3997 429.751V429.758L66.9842 430.059L65.6518 431.048L65.1289 431.434H65.1218L64.7994 430.195L64.7922 430.188L64.7206 429.909L64.6848 429.794V429.765L64.6633 429.106L64.606 426.957L63.6891 395.153L63.6246 392.825L63.6103 392.337L63.5816 391.442L63.5602 390.683L63.5315 389.687L64.3696 390.26ZM90.0426 410.31L85.8808 407.48L65.8023 393.827V393.835L66.7693 427.545L86.6257 412.839L90.0426 410.31Z" fill="#141312"/>
<path d="M115.981 366.521L115.996 366.528L117.077 367.316L115.981 368.118V369.179L109.198 364.222L108.668 361.242L108.653 361.17L115.981 366.521ZM64.0908 390.683L64.3702 390.26L65.6452 388.354V388.347L90.738 350.755L91.9343 348.964L106.146 359.343L108.653 361.17L115.981 366.521L115.996 366.528L117.077 367.316L118.145 368.097V392.953H115.981L113.789 392.946H113.782L68.1667 392.839L65.7741 392.832H64.3272L63.6252 392.824H63.618L63.6037 392.337L63.5822 391.442L64.0908 390.683ZM106.691 362.395L92.4787 352.023V352.03H92.4715L66.6696 390.683L115.981 390.797H115.996V369.186L115.981 369.179L109.198 364.222L106.691 362.395ZM115.981 366.521L115.996 366.528L117.077 367.316L115.981 368.118V369.179L109.198 364.222L108.668 361.242L108.653 361.17L115.981 366.521Z" fill="#141312"/>
<path d="M61.9556 326.952L62.2995 327.21L62.8582 327.618L63.7679 328.284L63.9112 328.392L63.9756 328.434L64.6777 328.95V328.957H64.6848L91.9337 348.964L93.6672 350.239L92.4782 352.023V352.03H92.471L66.669 390.683V390.69L66.1461 391.464L65.745 392.065L65.2364 392.832L64.957 393.255L63.6891 395.153L63.6246 392.825L63.6103 392.338L63.5817 391.442L63.5602 390.683L63.5315 389.687L61.9556 335.046V335.025L61.841 331.006L61.798 329.509L61.7909 329.151L61.7766 328.886V328.785L61.7694 328.413L61.7192 326.78L61.9556 326.952ZM90.7375 350.755L63.99 331.114L65.6447 388.348L90.7375 350.755Z" fill="#141312"/>
<path d="M61.5848 328.541L61.7711 328.412L61.8283 328.369L61.943 328.284L62.8598 327.617L63.4114 327.216L63.8699 326.887L64.1349 326.693H64.1421V326.686L96.2334 303.434L98.1674 302.03L98.5829 304.387L108.654 361.17L108.669 361.242L109.199 364.221L109.206 364.279L109.213 364.315L106.706 362.474L92.4798 352.03H92.4727L90.7392 350.755L63.9916 331.113L63.7481 330.934L63.4043 330.683L62.8527 330.275L61.943 329.609L61.7997 329.508L61.7281 329.451L61.592 329.351L61.7209 328.95L61.5848 328.541ZM91.9354 348.964L93.6689 350.239L106.162 359.408L106.147 359.343L96.6488 305.791V305.784L78.2895 319.093L64.6865 328.957L91.9354 348.964Z" fill="#141312"/>
<path d="M64.1343 326.694L69.6643 265.935L64.1415 326.687V326.694H64.1343ZM81.2616 263.449V263.457L69.6643 265.935L81.2616 263.449ZM64.1343 326.694L69.6643 265.935L64.1415 326.687V326.694H64.1343ZM81.2616 263.449V263.457L69.6643 265.935L81.2616 263.449ZM64.1343 326.694L69.6643 265.935L64.1415 326.687V326.694H64.1343ZM81.2616 263.449V263.457L69.6643 265.935L81.2616 263.449ZM64.1343 326.694L69.6643 265.935L64.1415 326.687V326.694H64.1343ZM81.2616 263.449V263.457L69.6643 265.935L81.2616 263.449ZM64.1343 326.694L69.6643 265.935L64.1415 326.687V326.694H64.1343ZM81.2616 263.449V263.457L69.6643 265.935L81.2616 263.449ZM64.1343 326.694L69.6643 265.935L64.1415 326.687V326.694H64.1343ZM81.2616 263.449V263.457L69.6643 265.935L81.2616 263.449ZM64.1343 326.694L69.6643 265.935L64.1415 326.687V326.694H64.1343ZM81.2616 263.449V263.457L69.6643 265.935L81.2616 263.449ZM64.1343 326.694L69.6643 265.935L64.1415 326.687V326.694H64.1343ZM81.2616 263.449V263.457L69.6643 265.935L81.2616 263.449ZM64.1343 326.694L69.6643 265.935L64.1415 326.687V326.694H64.1343ZM81.2616 263.449V263.457L69.6643 265.935L81.2616 263.449ZM64.1343 326.694L69.6643 265.935L64.1415 326.687V326.694H64.1343ZM81.2616 263.449V263.457L69.6643 265.935L81.2616 263.449ZM64.1343 326.694L69.6643 265.935L64.1415 326.687V326.694H64.1343ZM81.2616 263.449V263.457L69.6643 265.935L81.2616 263.449ZM64.1343 326.694L69.6643 265.935L64.1415 326.687V326.694H64.1343ZM81.2616 263.449V263.457L69.6643 265.935L81.2616 263.449ZM64.1343 326.694L69.6643 265.935L64.1415 326.687V326.694H64.1343ZM81.2616 263.449V263.457L69.6643 265.935L81.2616 263.449ZM61.7275 329.452L61.7633 329.079L61.7776 328.886L61.7919 328.735L61.8277 328.37L61.9567 326.952L62.2504 323.707V323.699L67.5655 265.29V265.283L67.5942 264.954L67.6658 264.166L69.213 263.836L81.061 261.301V261.293L81.498 261.207L82.6154 260.964L83.253 261.709L83.5037 261.995L90.2873 269.911V269.918L93.0379 273.127L93.7758 277.289L98.1668 302.031L98.5823 304.387L96.6482 305.784V305.791L78.2889 319.093L64.6787 328.95V328.957L63.9481 329.487L63.8764 329.537L63.7618 329.616L62.8521 330.275L62.2934 330.684L61.8421 331.006L61.5699 331.207L61.7275 329.452ZM96.2328 303.435L91.0251 274.08L82.4435 264.066L81.8203 263.335H81.8132L81.2616 263.457L69.6643 265.935L64.1415 326.687V326.694L96.2328 303.435ZM81.2616 263.449V263.457L69.6643 265.935L81.2616 263.449ZM64.1343 326.694L69.6643 265.935L64.1415 326.687V326.694H64.1343ZM81.2616 263.449V263.457L69.6643 265.935L81.2616 263.449ZM64.1343 326.694L69.6643 265.935L64.1415 326.687V326.694H64.1343ZM81.2616 263.449V263.457L69.6643 265.935L81.2616 263.449ZM64.1343 326.694L69.6643 265.935L64.1415 326.687V326.694H64.1343ZM81.2616 263.449V263.457L69.6643 265.935L81.2616 263.449ZM64.1343 326.694L69.6643 265.935L64.1415 326.687V326.694H64.1343ZM81.2616 263.449V263.457L69.6643 265.935L81.2616 263.449ZM64.1343 326.694L69.6643 265.935L64.1415 326.687V326.694H64.1343ZM81.2616 263.449V263.457L69.6643 265.935L81.2616 263.449ZM64.1343 326.694L69.6643 265.935L64.1415 326.687V326.694H64.1343ZM81.2616 263.449V263.457L69.6643 265.935L81.2616 263.449ZM64.1343 326.694L69.6643 265.935L64.1415 326.687V326.694H64.1343ZM81.2616 263.449V263.457L69.6643 265.935L81.2616 263.449ZM64.1343 326.694L69.6643 265.935L64.1415 326.687V326.694H64.1343ZM81.2616 263.449V263.457L69.6643 265.935L81.2616 263.449ZM64.1343 326.694L69.6643 265.935L64.1415 326.687V326.694H64.1343ZM81.2616 263.449V263.457L69.6643 265.935L81.2616 263.449ZM64.1343 326.694L69.6643 265.935L64.1415 326.687V326.694H64.1343ZM81.2616 263.449V263.457L69.6643 265.935L81.2616 263.449ZM64.1343 326.694L69.6643 265.935L64.1415 326.687V326.694H64.1343ZM81.2616 263.449V263.457L69.6643 265.935L81.2616 263.449ZM64.1343 326.694L69.6643 265.935L64.1415 326.687V326.694H64.1343ZM64.1343 326.694L69.6643 265.935L64.1415 326.687V326.694H64.1343Z" fill="#141312"/>
<path d="M98.5817 304.387L108.653 361.17L106.146 359.344L96.6477 305.791V305.784L98.5817 304.387ZM98.5817 304.387L108.653 361.17L106.146 359.344L96.6477 305.791V305.784L98.5817 304.387ZM98.5817 304.387L108.653 361.17L106.146 359.344L96.6477 305.791V305.784L98.5817 304.387ZM98.5817 304.387L108.653 361.17L106.146 359.344L96.6477 305.791V305.784L98.5817 304.387ZM98.5817 304.387L108.653 361.17L106.146 359.344L96.6477 305.791V305.784L98.5817 304.387ZM98.5817 304.387L108.653 361.17L106.146 359.344L96.6477 305.791V305.784L98.5817 304.387ZM98.5817 304.387L108.653 361.17L106.146 359.344L96.6477 305.791V305.784L98.5817 304.387ZM98.5817 304.387L108.653 361.17L106.146 359.344L96.6477 305.791V305.784L98.5817 304.387ZM98.5817 304.387L108.653 361.17L106.146 359.344L96.6477 305.791V305.784L98.5817 304.387ZM98.5817 304.387L108.653 361.17L106.146 359.344L96.6477 305.791V305.784L98.5817 304.387ZM98.5817 304.387L108.653 361.17L106.146 359.344L96.6477 305.791V305.784L98.5817 304.387ZM98.5817 304.387L108.653 361.17L106.146 359.344L96.6477 305.791V305.784L98.5817 304.387ZM98.5817 304.387L108.653 361.17L106.146 359.344L96.6477 305.791V305.784L98.5817 304.387ZM93.0374 273.127L101.991 283.564L115.387 299.194L115.981 299.889L116.375 300.347L117.07 301.157L118.08 302.332L118.145 302.41V370.74L118.13 370.733L117.077 369.967L115.996 369.186L115.981 369.179L109.205 364.279L106.705 362.474L106.691 362.395L106.16 359.408L106.146 359.344L96.6477 305.791V305.784L96.2322 303.435L91.0245 274.08L90.2868 269.918L93.0374 273.127ZM98.5817 304.387L108.653 361.17L108.668 361.242L115.981 366.536L115.996 366.543V303.213L115.981 303.198L93.7824 277.296L98.1663 302.031L98.5817 304.387ZM98.5817 304.387L108.653 361.17L106.146 359.344L96.6477 305.791V305.784L98.5817 304.387ZM98.5817 304.387L108.653 361.17L106.146 359.344L96.6477 305.791V305.784L98.5817 304.387ZM98.5817 304.387L108.653 361.17L106.146 359.344L96.6477 305.791V305.784L98.5817 304.387ZM98.5817 304.387L108.653 361.17L106.146 359.344L96.6477 305.791V305.784L98.5817 304.387ZM98.5817 304.387L108.653 361.17L106.146 359.344L96.6477 305.791V305.784L98.5817 304.387ZM98.5817 304.387L108.653 361.17L106.146 359.344L96.6477 305.791V305.784L98.5817 304.387ZM98.5817 304.387L108.653 361.17L106.146 359.344L96.6477 305.791V305.784L98.5817 304.387ZM98.5817 304.387L108.653 361.17L106.146 359.344L96.6477 305.791V305.784L98.5817 304.387ZM98.5817 304.387L108.653 361.17L106.146 359.344L96.6477 305.791V305.784L98.5817 304.387ZM98.5817 304.387L108.653 361.17L106.146 359.344L96.6477 305.791V305.784L98.5817 304.387ZM98.5817 304.387L108.653 361.17L106.146 359.344L96.6477 305.791V305.784L98.5817 304.387ZM98.5817 304.387L108.653 361.17L106.146 359.344L96.6477 305.791V305.784L98.5817 304.387ZM98.5817 304.387L108.653 361.17L106.146 359.344L96.6477 305.791V305.784L98.5817 304.387Z" fill="#141312"/>
<path d="M63.611 392.338L63.6253 392.825L64.3273 392.832L64.9576 393.255L65.8029 393.828V393.835L66.7699 427.545V427.552L65.8673 428.218L64.6066 426.958L63.6897 395.153L63.6181 392.825L63.6038 392.338L63.5823 391.442L63.611 392.338ZM63.611 392.338L63.6253 392.825L64.3273 392.832L64.9576 393.255L65.8029 393.828V393.835L66.7699 427.545V427.552L65.8673 428.218L64.6066 426.958L63.6897 395.153L63.6181 392.825L63.6038 392.338L63.5823 391.442L63.611 392.338ZM63.611 392.338L63.6253 392.825L64.3273 392.832L64.9576 393.255L65.8029 393.828V393.835L66.7699 427.545V427.552L65.8673 428.218L64.6066 426.958L63.6897 395.153L63.6181 392.825L63.6038 392.338L63.5823 391.442L63.611 392.338ZM63.611 392.338L63.6253 392.825L64.3273 392.832L64.9576 393.255L65.8029 393.828V393.835L66.7699 427.545V427.552L65.8673 428.218L64.6066 426.958L63.6897 395.153L63.6181 392.825L63.6038 392.338L63.5823 391.442L63.611 392.338ZM63.611 392.338L63.6253 392.825L64.3273 392.832L64.9576 393.255L65.8029 393.828V393.835L66.7699 427.545V427.552L65.8673 428.218L64.6066 426.958L63.6897 395.153L63.6181 392.825L63.6038 392.338L63.5823 391.442L63.611 392.338ZM63.611 392.338L63.6253 392.825L64.3273 392.832L64.9576 393.255L65.8029 393.828V393.835L66.7699 427.545V427.552L65.8673 428.218L64.6066 426.958L63.6897 395.153L63.6181 392.825L63.6038 392.338L63.5823 391.442L63.611 392.338ZM63.611 392.338L63.6253 392.825L64.3273 392.832L64.9576 393.255L65.8029 393.828V393.835L66.7699 427.545V427.552L65.8673 428.218L64.6066 426.958L63.6897 395.153L63.6181 392.825L63.6038 392.338L63.5823 391.442L63.611 392.338ZM63.611 392.338L63.6253 392.825L64.3273 392.832L64.9576 393.255L65.8029 393.828V393.835L66.7699 427.545V427.552L65.8673 428.218L64.6066 426.958L63.6897 395.153L63.6181 392.825L63.6038 392.338L63.5823 391.442L63.611 392.338ZM63.611 392.338L63.6253 392.825L64.3273 392.832L64.9576 393.255L65.8029 393.828V393.835L66.7699 427.545V427.552L65.8673 428.218L64.6066 426.958L63.6897 395.153L63.6181 392.825L63.6038 392.338L63.5823 391.442L63.611 392.338ZM63.611 392.338L63.6253 392.825L64.3273 392.832L64.9576 393.255L65.8029 393.828V393.835L66.7699 427.545V427.552L65.8673 428.218L64.6066 426.958L63.6897 395.153L63.6181 392.825L63.6038 392.338L63.5823 391.442L63.611 392.338ZM63.611 392.338L63.6253 392.825L64.3273 392.832L64.9576 393.255L65.8029 393.828V393.835L66.7699 427.545V427.552L65.8673 428.218L64.6066 426.958L63.6897 395.153L63.6181 392.825L63.6038 392.338L63.5823 391.442L63.611 392.338ZM63.611 392.338L63.6253 392.825L64.3273 392.832L64.9576 393.255L65.8029 393.828V393.835L66.7699 427.545V427.552L65.8673 428.218L64.6066 426.958L63.6897 395.153L63.6181 392.825L63.6038 392.338L63.5823 391.442L63.611 392.338ZM63.611 392.338L63.6253 392.825L64.3273 392.832L64.9576 393.255L65.8029 393.828V393.835L66.7699 427.545V427.552L65.8673 428.218L64.6066 426.958L63.6897 395.153L63.6181 392.825L63.6038 392.338L63.5823 391.442L63.611 392.338ZM63.611 392.338L63.6253 392.825L64.3273 392.832L64.9576 393.255L65.8029 393.828V393.835L66.7699 427.545V427.552L65.8673 428.218L64.6066 426.958L63.6897 395.153L63.6181 392.825L63.6038 392.338L63.5823 391.442L63.611 392.338ZM61.5909 329.352L61.7199 328.95L61.7772 328.786L61.7915 328.736L61.9419 328.284L62.3001 327.21L62.8588 325.541L63.7542 322.854L63.8688 326.887L63.9118 328.392L63.9261 328.764L63.9333 328.95V329.101L63.9476 329.488L63.9906 331.114L65.6453 388.348V388.355L65.7098 390.683L65.7241 391.177L65.7456 392.066L65.7742 392.832L65.8029 393.828V393.835L66.7699 427.545V427.552L66.8201 429.171L66.8272 429.479L66.9848 430.059L67.8158 433.211L97.3426 544.85L97.7795 546.505L95.7595 547.214L95.7165 547.128L35.9322 413.097L34.6428 410.196L61.5909 329.352ZM92.2925 534.177L65.1224 431.435L64.8 430.196L64.7929 430.188L64.7212 429.909L64.6854 429.794V429.766L64.6639 429.107L64.6066 426.958L63.6897 395.153L63.6181 392.825L63.6038 392.338L63.5823 391.442L63.5608 390.683L63.5321 389.687L61.9563 335.046L36.9422 410.081L92.2925 534.177ZM63.611 392.338L63.6253 392.825L64.3273 392.832L64.9576 393.255L65.8029 393.828V393.835L66.7699 427.545V427.552L65.8673 428.218L64.6066 426.958L63.6897 395.153L63.6181 392.825L63.6038 392.338L63.5823 391.442L63.611 392.338ZM63.611 392.338L63.6253 392.825L64.3273 392.832L64.9576 393.255L65.8029 393.828V393.835L66.7699 427.545V427.552L65.8673 428.218L64.6066 426.958L63.6897 395.153L63.6181 392.825L63.6038 392.338L63.5823 391.442L63.611 392.338ZM63.611 392.338L63.6253 392.825L64.3273 392.832L64.9576 393.255L65.8029 393.828V393.835L66.7699 427.545V427.552L65.8673 428.218L64.6066 426.958L63.6897 395.153L63.6181 392.825L63.6038 392.338L63.5823 391.442L63.611 392.338ZM63.611 392.338L63.6253 392.825L64.3273 392.832L64.9576 393.255L65.8029 393.828V393.835L66.7699 427.545V427.552L65.8673 428.218L64.6066 426.958L63.6897 395.153L63.6181 392.825L63.6038 392.338L63.5823 391.442L63.611 392.338ZM63.611 392.338L63.6253 392.825L64.3273 392.832L64.9576 393.255L65.8029 393.828V393.835L66.7699 427.545V427.552L65.8673 428.218L64.6066 426.958L63.6897 395.153L63.6181 392.825L63.6038 392.338L63.5823 391.442L63.611 392.338ZM63.611 392.338L63.6253 392.825L64.3273 392.832L64.9576 393.255L65.8029 393.828V393.835L66.7699 427.545V427.552L65.8673 428.218L64.6066 426.958L63.6897 395.153L63.6181 392.825L63.6038 392.338L63.5823 391.442L63.611 392.338ZM63.611 392.338L63.6253 392.825L64.3273 392.832L64.9576 393.255L65.8029 393.828V393.835L66.7699 427.545V427.552L65.8673 428.218L64.6066 426.958L63.6897 395.153L63.6181 392.825L63.6038 392.338L63.5823 391.442L63.611 392.338ZM63.611 392.338L63.6253 392.825L64.3273 392.832L64.9576 393.255L65.8029 393.828V393.835L66.7699 427.545V427.552L65.8673 428.218L64.6066 426.958L63.6897 395.153L63.6181 392.825L63.6038 392.338L63.5823 391.442L63.611 392.338ZM63.611 392.338L63.6253 392.825L64.3273 392.832L64.9576 393.255L65.8029 393.828V393.835L66.7699 427.545V427.552L65.8673 428.218L64.6066 426.958L63.6897 395.153L63.6181 392.825L63.6038 392.338L63.5823 391.442L63.611 392.338ZM63.611 392.338L63.6253 392.825L64.3273 392.832L64.9576 393.255L65.8029 393.828V393.835L66.7699 427.545V427.552L65.8673 428.218L64.6066 426.958L63.6897 395.153L63.6181 392.825L63.6038 392.338L63.5823 391.442L63.611 392.338ZM63.611 392.338L63.6253 392.825L64.3273 392.832L64.9576 393.255L65.8029 393.828V393.835L66.7699 427.545V427.552L65.8673 428.218L64.6066 426.958L63.6897 395.153L63.6181 392.825L63.6038 392.338L63.5823 391.442L63.611 392.338ZM63.611 392.338L63.6253 392.825L64.3273 392.832L64.9576 393.255L65.8029 393.828V393.835L66.7699 427.545V427.552L65.8673 428.218L64.6066 426.958L63.6897 395.153L63.6181 392.825L63.6038 392.338L63.5823 391.442L63.611 392.338ZM63.611 392.338L63.6253 392.825L64.3273 392.832L64.9576 393.255L65.8029 393.828V393.835L66.7699 427.545V427.552L65.8673 428.218L64.6066 426.958L63.6897 395.153L63.6181 392.825L63.6038 392.338L63.5823 391.442L63.611 392.338ZM63.611 392.338L63.6253 392.825L64.3273 392.832L64.9576 393.255L65.8029 393.828V393.835L66.7699 427.545V427.552L65.8673 428.218L64.6066 426.958L63.6897 395.153L63.6181 392.825L63.6038 392.338L63.5823 391.442L63.611 392.338Z" fill="#141312"/>
<path d="M8.74723 321.335V321.321L33.4317 243.471L34.542 239.968L35.6953 243.45V243.457L62.2494 323.699V323.706L62.8583 325.54L63.4099 327.216L63.768 328.284L63.8755 328.613L63.9256 328.764L63.9399 328.821L63.9829 328.95L63.9328 329.1L63.9113 329.172L63.7609 329.616L63.4027 330.683L62.844 332.36L61.9557 335.024V335.046L36.9417 410.081L35.9317 413.096L33.6753 419.873L9.27731 325.211L8.48937 322.138L8.74723 321.335ZM33.9403 412.287L34.6423 410.195L61.5832 329.351H61.5904L61.7193 328.95L61.5832 328.542L34.585 246.952L10.7243 322.202L33.9403 412.287ZM35.6953 243.457L62.2494 323.699V323.706L62.8583 325.54L63.4099 327.216L62.8583 327.618L62.2996 327.209L61.9414 328.284L61.8268 328.37L61.7695 328.413L61.5832 328.542L34.585 246.952V246.945L35.6953 243.457Z" fill="#141312"/>
<path d="M34.5426 239.968L41.2688 218.758L42.1571 215.957L43.604 218.514L69.2126 263.836L69.7642 264.817L69.6639 265.935L64.1339 326.693L63.9763 328.434L63.9404 328.821L63.9333 328.95L63.9118 329.172L63.876 329.537L63.7471 330.934L63.4534 334.186L62.8445 332.36L62.2929 330.683L61.9419 329.609L61.7915 329.15L61.7628 329.079L61.5838 328.542L34.5855 246.952V246.945L33.5469 243.793L33.4323 243.471L34.5426 239.968ZM62.2499 323.699L67.565 265.29V265.283L42.7158 221.315L35.6958 243.45V243.457L62.2499 323.699Z" fill="#141312"/>
<path d="M78.7478 222.383L79.5859 223.17L79.4355 220.685V220.671L79.4426 220.678L82.9455 258.363V258.371L83.2535 261.709L82.6159 260.964L81.4985 261.207L81.0615 261.293L77.6876 225.026L78.7478 222.383ZM42.158 215.957L49.0419 194.245L49.7654 191.975L51.4989 193.615L77.1074 217.87L77.9384 218.651L79.3781 220.019L79.414 220.441L79.4355 220.671L79.4426 220.678L82.9455 258.363V258.371L83.2535 261.709L83.3179 262.361L83.3752 262.998L82.9383 263.091L81.8208 263.335H81.8137L81.2621 263.449L69.6648 265.935L68.1176 266.264L67.566 265.29V265.283L42.7167 221.315L41.2698 218.758L42.158 215.957ZM69.2135 263.836L81.0615 261.3V261.293L77.6876 225.026L77.3151 221.022L77.2937 221L50.7754 195.893L43.605 218.514L69.2135 263.836ZM78.7478 222.383L79.5859 223.17L79.4355 220.685V220.671L79.4426 220.678L82.9455 258.363V258.371L83.2535 261.709L82.6159 260.964L81.4985 261.207L81.0615 261.293L77.6876 225.026L78.7478 222.383Z" fill="#141312"/>
<path d="M81.1178 261.938L81.4975 261.208L82.9444 258.371V258.364L102.522 220.112V220.105L104.047 217.125L104.62 220.599V220.606L115.981 289.588L115.996 289.674L117.063 296.164L117.758 300.362L118.08 302.332L118.145 302.733V305.72L118.13 305.706L117.07 304.466L115.996 303.213L115.981 303.198L93.7824 277.296L93.7752 277.289L91.0245 274.08L82.443 264.066L81.8198 263.335H81.8126L81.1823 262.597L80.9316 262.304L81.1178 261.938ZM90.2868 269.911L93.0374 273.127L101.991 283.564L115.387 299.194L102.987 223.916L83.5032 261.995L90.2868 269.911Z" fill="#141312"/>
<path d="M102.522 220.112V220.104L115.981 179.725L115.996 179.682L117.056 176.495L118.13 173.278L118.145 173.235V302.811L116.927 302.911L116.01 302.983L115.988 302.833H115.981V302.811L115.387 299.194L102.987 223.915V223.887L102.457 220.692L102.414 220.427L102.522 220.112ZM115.981 289.588L115.996 289.674V186.48L115.981 186.523L104.62 220.599V220.606L115.981 289.588Z" fill="#141312"/>
<path d="M78.7468 222.382L79.4344 220.685V220.67L94.5417 183.078L79.4416 220.678L82.9444 258.363L102.522 220.112L102.414 220.427L102.457 220.692L102.987 223.887L83.5032 261.995L83.3169 262.36L82.9373 263.091L81.8198 263.335H81.8126L81.2611 263.456V263.449L81.1823 262.597L81.1178 261.938L81.0605 261.3V261.293L77.6866 225.026L77.3141 221.021L78.7468 222.382ZM78.7468 222.382L79.4344 220.685V220.67L94.5417 183.078L79.4416 220.678L82.9444 258.363L102.522 220.112L102.414 220.427L102.457 220.692L102.987 223.887L83.5032 261.995L83.3169 262.36L82.9373 263.091L81.8198 263.335H81.8126L81.2611 263.456V263.449L81.1823 262.597L81.1178 261.938L81.0605 261.3V261.293L77.6866 225.026L77.3141 221.021L78.7468 222.382ZM78.7468 222.382L79.4344 220.685V220.67L94.5417 183.078L79.4416 220.678L82.9444 258.363L102.522 220.112L102.414 220.427L102.457 220.692L102.987 223.887L83.5032 261.995L83.3169 262.36L82.9373 263.091L81.8198 263.335H81.8126L81.2611 263.456V263.449L81.1823 262.597L81.1178 261.938L81.0605 261.3V261.293L77.6866 225.026L77.3141 221.021L78.7468 222.382ZM78.7468 222.382L79.4344 220.685V220.67L94.5417 183.078L79.4416 220.678L82.9444 258.363L102.522 220.112L102.414 220.427L102.457 220.692L102.987 223.887L83.5032 261.995L83.3169 262.36L82.9373 263.091L81.8198 263.335H81.8126L81.2611 263.456V263.449L81.1823 262.597L81.1178 261.938L81.0605 261.3V261.293L77.6866 225.026L77.3141 221.021L78.7468 222.382ZM78.7468 222.382L79.4344 220.685V220.67L94.5417 183.078L79.4416 220.678L82.9444 258.363L102.522 220.112L102.414 220.427L102.457 220.692L102.987 223.887L83.5032 261.995L83.3169 262.36L82.9373 263.091L81.8198 263.335H81.8126L81.2611 263.456V263.449L81.1823 262.597L81.1178 261.938L81.0605 261.3V261.293L77.6866 225.026L77.3141 221.021L78.7468 222.382ZM78.7468 222.382L79.4344 220.685V220.67L94.5417 183.078L79.4416 220.678L82.9444 258.363L102.522 220.112L102.414 220.427L102.457 220.692L102.987 223.887L83.5032 261.995L83.3169 262.36L82.9373 263.091L81.8198 263.335H81.8126L81.2611 263.456V263.449L81.1823 262.597L81.1178 261.938L81.0605 261.3V261.293L77.6866 225.026L77.3141 221.021L78.7468 222.382ZM78.7468 222.382L79.4344 220.685V220.67L94.5417 183.078L79.4416 220.678L82.9444 258.363L102.522 220.112L102.414 220.427L102.457 220.692L102.987 223.887L83.5032 261.995L83.3169 262.36L82.9373 263.091L81.8198 263.335H81.8126L81.2611 263.456V263.449L81.1823 262.597L81.1178 261.938L81.0605 261.3V261.293L77.6866 225.026L77.3141 221.021L78.7468 222.382ZM78.7468 222.382L79.4344 220.685V220.67L94.5417 183.078L79.4416 220.678L82.9444 258.363L102.522 220.112L102.414 220.427L102.457 220.692L102.987 223.887L83.5032 261.995L83.3169 262.36L82.9373 263.091L81.8198 263.335H81.8126L81.2611 263.456V263.449L81.1823 262.597L81.1178 261.938L81.0605 261.3V261.293L77.6866 225.026L77.3141 221.021L78.7468 222.382ZM78.7468 222.382L79.4344 220.685V220.67L94.5417 183.078L79.4416 220.678L82.9444 258.363L102.522 220.112L102.414 220.427L102.457 220.692L102.987 223.887L83.5032 261.995L83.3169 262.36L82.9373 263.091L81.8198 263.335H81.8126L81.2611 263.456V263.449L81.1823 262.597L81.1178 261.938L81.0605 261.3V261.293L77.6866 225.026L77.3141 221.021L78.7468 222.382ZM78.7468 222.382L79.4344 220.685V220.67L94.5417 183.078L79.4416 220.678L82.9444 258.363L102.522 220.112L102.414 220.427L102.457 220.692L102.987 223.887L83.5032 261.995L83.3169 262.36L82.9373 263.091L81.8198 263.335H81.8126L81.2611 263.456V263.449L81.1823 262.597L81.1178 261.938L81.0605 261.3V261.293L77.6866 225.026L77.3141 221.021L78.7468 222.382ZM78.7468 222.382L79.4344 220.685V220.67L94.5417 183.078L79.4416 220.678L82.9444 258.363L102.522 220.112L102.414 220.427L102.457 220.692L102.987 223.887L83.5032 261.995L83.3169 262.36L82.9373 263.091L81.8198 263.335H81.8126L81.2611 263.456V263.449L81.1823 262.597L81.1178 261.938L81.0605 261.3V261.293L77.6866 225.026L77.3141 221.021L78.7468 222.382ZM78.7468 222.382L79.4344 220.685V220.67L94.5417 183.078L79.4416 220.678L82.9444 258.363L102.522 220.112L102.414 220.427L102.457 220.692L102.987 223.887L83.5032 261.995L83.3169 262.36L82.9373 263.091L81.8198 263.335H81.8126L81.2611 263.456V263.449L81.1823 262.597L81.1178 261.938L81.0605 261.3V261.293L77.6866 225.026L77.3141 221.021L78.7468 222.382ZM78.7468 222.382L79.4344 220.685V220.67L94.5417 183.078L79.4416 220.678L82.9444 258.363L102.522 220.112L102.414 220.427L102.457 220.692L102.987 223.887L83.5032 261.995L83.3169 262.36L82.9373 263.091L81.8198 263.335H81.8126L81.2611 263.456V263.449L81.1823 262.597L81.1178 261.938L81.0605 261.3V261.293L77.6866 225.026L77.3141 221.021L78.7468 222.382ZM102.522 220.112V220.105L115.981 179.725V180.055L117.056 183.293L115.996 186.48L115.981 186.523L104.62 220.599V220.606L104.534 220.857L102.987 223.887L102.457 220.692L102.414 220.427L102.522 220.112ZM77.2568 220.341L77.9374 218.65L79.1264 215.692V215.685L100.365 162.827V162.82L102.722 156.961L102.787 156.796L107.07 151.896L115.981 141.71L115.996 141.696L117.056 140.485L118.13 139.253L118.145 139.239V180.033L117.056 183.293L115.996 186.48L115.981 186.523L104.62 220.599V220.606L104.534 220.857L102.987 223.887L83.5032 261.995L83.3169 262.36L82.9373 263.091L82.443 264.065L81.8198 263.335H81.8126L81.2611 263.456V263.449L81.1823 262.597L81.1178 261.938L81.0605 261.3V261.293L77.6866 225.026L77.3141 221.021L77.2783 220.62L77.264 220.477L77.2497 220.355L77.2568 220.341ZM82.9444 258.363L102.522 220.112V220.105L115.981 179.725L115.996 179.682V144.962L115.981 144.977L104.649 157.92L104.642 157.935L104.635 157.942L94.5417 183.078L79.4416 220.678L82.9444 258.363ZM102.522 220.112V220.105L115.981 179.725V180.055L117.056 183.293L115.996 186.48L115.981 186.523L104.62 220.599V220.606L104.534 220.857L102.987 223.887L102.457 220.692L102.414 220.427L102.522 220.112ZM78.7468 222.382L79.4344 220.685V220.67L94.5417 183.078L79.4416 220.678L82.9444 258.363L102.522 220.112L102.414 220.427L102.457 220.692L102.987 223.887L83.5032 261.995L83.3169 262.36L82.9373 263.091L81.8198 263.335H81.8126L81.2611 263.456V263.449L81.1823 262.597L81.1178 261.938L81.0605 261.3V261.293L77.6866 225.026L77.3141 221.021L78.7468 222.382ZM78.7468 222.382L79.4344 220.685V220.67L94.5417 183.078L79.4416 220.678L82.9444 258.363L102.522 220.112L102.414 220.427L102.457 220.692L102.987 223.887L83.5032 261.995L83.3169 262.36L82.9373 263.091L81.8198 263.335H81.8126L81.2611 263.456V263.449L81.1823 262.597L81.1178 261.938L81.0605 261.3V261.293L77.6866 225.026L77.3141 221.021L78.7468 222.382ZM78.7468 222.382L79.4344 220.685V220.67L94.5417 183.078L79.4416 220.678L82.9444 258.363L102.522 220.112L102.414 220.427L102.457 220.692L102.987 223.887L83.5032 261.995L83.3169 262.36L82.9373 263.091L81.8198 263.335H81.8126L81.2611 263.456V263.449L81.1823 262.597L81.1178 261.938L81.0605 261.3V261.293L77.6866 225.026L77.3141 221.021L78.7468 222.382ZM78.7468 222.382L79.4344 220.685V220.67L94.5417 183.078L79.4416 220.678L82.9444 258.363L102.522 220.112L102.414 220.427L102.457 220.692L102.987 223.887L83.5032 261.995L83.3169 262.36L82.9373 263.091L81.8198 263.335H81.8126L81.2611 263.456V263.449L81.1823 262.597L81.1178 261.938L81.0605 261.3V261.293L77.6866 225.026L77.3141 221.021L78.7468 222.382ZM78.7468 222.382L79.4344 220.685V220.67L94.5417 183.078L79.4416 220.678L82.9444 258.363L102.522 220.112L102.414 220.427L102.457 220.692L102.987 223.887L83.5032 261.995L83.3169 262.36L82.9373 263.091L81.8198 263.335H81.8126L81.2611 263.456V263.449L81.1823 262.597L81.1178 261.938L81.0605 261.3V261.293L77.6866 225.026L77.3141 221.021L78.7468 222.382ZM78.7468 222.382L79.4344 220.685V220.67L94.5417 183.078L79.4416 220.678L82.9444 258.363L102.522 220.112L102.414 220.427L102.457 220.692L102.987 223.887L83.5032 261.995L83.3169 262.36L82.9373 263.091L81.8198 263.335H81.8126L81.2611 263.456V263.449L81.1823 262.597L81.1178 261.938L81.0605 261.3V261.293L77.6866 225.026L77.3141 221.021L78.7468 222.382ZM78.7468 222.382L79.4344 220.685V220.67L94.5417 183.078L79.4416 220.678L82.9444 258.363L102.522 220.112L102.414 220.427L102.457 220.692L102.987 223.887L83.5032 261.995L83.3169 262.36L82.9373 263.091L81.8198 263.335H81.8126L81.2611 263.456V263.449L81.1823 262.597L81.1178 261.938L81.0605 261.3V261.293L77.6866 225.026L77.3141 221.021L78.7468 222.382ZM78.7468 222.382L79.4344 220.685V220.67L94.5417 183.078L79.4416 220.678L82.9444 258.363L102.522 220.112L102.414 220.427L102.457 220.692L102.987 223.887L83.5032 261.995L83.3169 262.36L82.9373 263.091L81.8198 263.335H81.8126L81.2611 263.456V263.449L81.1823 262.597L81.1178 261.938L81.0605 261.3V261.293L77.6866 225.026L77.3141 221.021L78.7468 222.382ZM78.7468 222.382L79.4344 220.685V220.67L94.5417 183.078L79.4416 220.678L82.9444 258.363L102.522 220.112L102.414 220.427L102.457 220.692L102.987 223.887L83.5032 261.995L83.3169 262.36L82.9373 263.091L81.8198 263.335H81.8126L81.2611 263.456V263.449L81.1823 262.597L81.1178 261.938L81.0605 261.3V261.293L77.6866 225.026L77.3141 221.021L78.7468 222.382ZM78.7468 222.382L79.4344 220.685V220.67L94.5417 183.078L79.4416 220.678L82.9444 258.363L102.522 220.112L102.414 220.427L102.457 220.692L102.987 223.887L83.5032 261.995L83.3169 262.36L82.9373 263.091L81.8198 263.335H81.8126L81.2611 263.456V263.449L81.1823 262.597L81.1178 261.938L81.0605 261.3V261.293L77.6866 225.026L77.3141 221.021L78.7468 222.382ZM78.7468 222.382L79.4344 220.685V220.67L94.5417 183.078L79.4416 220.678L82.9444 258.363L102.522 220.112L102.414 220.427L102.457 220.692L102.987 223.887L83.5032 261.995L83.3169 262.36L82.9373 263.091L81.8198 263.335H81.8126L81.2611 263.456V263.449L81.1823 262.597L81.1178 261.938L81.0605 261.3V261.293L77.6866 225.026L77.3141 221.021L78.7468 222.382ZM78.7468 222.382L79.4344 220.685V220.67L94.5417 183.078L79.4416 220.678L82.9444 258.363L102.522 220.112L102.414 220.427L102.457 220.692L102.987 223.887L83.5032 261.995L83.3169 262.36L82.9373 263.091L81.8198 263.335H81.8126L81.2611 263.456V263.449L81.1823 262.597L81.1178 261.938L81.0605 261.3V261.293L77.6866 225.026L77.3141 221.021L78.7468 222.382ZM78.7468 222.382L79.4344 220.685V220.67L94.5417 183.078L79.4416 220.678L82.9444 258.363L102.522 220.112L102.414 220.427L102.457 220.692L102.987 223.887L83.5032 261.995L83.3169 262.36L82.9373 263.091L81.8198 263.335H81.8126L81.2611 263.456V263.449L81.1823 262.597L81.1178 261.938L81.0605 261.3V261.293L77.6866 225.026L77.3141 221.021L78.7468 222.382Z" fill="#141312"/>
<path d="M76.8548 186.43V186.423L102.786 156.796L107.069 151.896L104.648 157.921L104.641 157.935L104.634 157.942L94.5408 183.078L79.4336 220.671V220.685L78.7459 222.383L77.6857 225.026L77.5568 225.348L77.2918 221L77.2631 220.477L77.256 220.341L77.1055 217.87L75.3434 188.78V188.758L75.3075 188.193L76.8548 186.43ZM100.365 162.828L77.5067 188.945L79.1256 215.685L100.365 162.828Z" fill="#141312"/>
<path d="M49.7647 191.975L50.6171 189.274L57.68 166.968L57.6872 166.953L58.9909 162.82L63.0381 150.055L64.1627 146.502L65.2874 150.048V150.055H65.2945L72.3503 172.254L76.856 186.423V186.43L77.4291 188.243L77.472 188.98L79.1267 215.685V215.692L79.4133 220.441L79.4348 220.671V220.685L79.5852 223.171L78.7471 222.383L77.3144 221.022L77.293 221L50.7747 195.893L49.0412 194.245L49.7647 191.975ZM77.1067 217.87L75.3445 188.78V188.758L65.6384 158.243L64.1627 153.616L62.1786 159.876L60.8677 164.017L51.4982 193.615L77.1067 217.87Z" fill="#141312"/>
<path d="M49.0408 194.246L50.7743 195.893L43.6038 218.515L42.1569 215.957L49.0408 194.246ZM49.0408 194.246L50.7743 195.893L43.6038 218.515L42.1569 215.957L49.0408 194.246ZM49.0408 194.246L50.7743 195.893L43.6038 218.515L42.1569 215.957L49.0408 194.246ZM49.0408 194.246L50.7743 195.893L43.6038 218.515L42.1569 215.957L49.0408 194.246ZM49.0408 194.246L50.7743 195.893L43.6038 218.515L42.1569 215.957L49.0408 194.246ZM49.0408 194.246L50.7743 195.893L43.6038 218.515L42.1569 215.957L49.0408 194.246ZM49.0408 194.246L50.7743 195.893L43.6038 218.515L42.1569 215.957L49.0408 194.246ZM49.0408 194.246L50.7743 195.893L43.6038 218.515L42.1569 215.957L49.0408 194.246ZM49.0408 194.246L50.7743 195.893L43.6038 218.515L42.1569 215.957L49.0408 194.246ZM49.0408 194.246L50.7743 195.893L43.6038 218.515L42.1569 215.957L49.0408 194.246ZM49.0408 194.246L50.7743 195.893L43.6038 218.515L42.1569 215.957L49.0408 194.246ZM49.0408 194.246L50.7743 195.893L43.6038 218.515L42.1569 215.957L49.0408 194.246ZM49.0408 194.246L50.7743 195.893L43.6038 218.515L42.1569 215.957L49.0408 194.246ZM49.0408 194.246L50.7743 195.893L43.6038 218.515L42.1569 215.957L49.0408 194.246ZM57.608 164.103L58.9905 162.82L59.012 162.806L62.1781 159.876L62.2068 159.848L60.9747 163.723L60.8887 163.995L51.4977 193.615L50.7743 195.893L43.6038 218.515L42.7156 221.315L35.6957 243.45V243.457L34.5854 246.945V246.953L10.7246 322.202L10.6315 322.496L9.27765 325.211L6.59861 330.598V211.337L57.608 164.103ZM33.4321 243.471L34.5424 239.968L41.2687 218.758L42.1569 215.957L49.0408 194.246L49.7643 191.975L50.6167 189.274L57.694 166.954H57.6868L24.3419 197.834L8.74758 212.275V321.321L33.4321 243.471ZM49.0408 194.246L50.7743 195.893L43.6038 218.515L42.1569 215.957L49.0408 194.246ZM49.0408 194.246L50.7743 195.893L43.6038 218.515L42.1569 215.957L49.0408 194.246ZM49.0408 194.246L50.7743 195.893L43.6038 218.515L42.1569 215.957L49.0408 194.246ZM49.0408 194.246L50.7743 195.893L43.6038 218.515L42.1569 215.957L49.0408 194.246ZM49.0408 194.246L50.7743 195.893L43.6038 218.515L42.1569 215.957L49.0408 194.246ZM49.0408 194.246L50.7743 195.893L43.6038 218.515L42.1569 215.957L49.0408 194.246ZM49.0408 194.246L50.7743 195.893L43.6038 218.515L42.1569 215.957L49.0408 194.246ZM49.0408 194.246L50.7743 195.893L43.6038 218.515L42.1569 215.957L49.0408 194.246ZM49.0408 194.246L50.7743 195.893L43.6038 218.515L42.1569 215.957L49.0408 194.246ZM49.0408 194.246L50.7743 195.893L43.6038 218.515L42.1569 215.957L49.0408 194.246ZM49.0408 194.246L50.7743 195.893L43.6038 218.515L42.1569 215.957L49.0408 194.246ZM49.0408 194.246L50.7743 195.893L43.6038 218.515L42.1569 215.957L49.0408 194.246ZM49.0408 194.246L50.7743 195.893L43.6038 218.515L42.1569 215.957L49.0408 194.246ZM49.0408 194.246L50.7743 195.893L43.6038 218.515L42.1569 215.957L49.0408 194.246Z" fill="#141312"/>
<path d="M65.2871 150.062L72.35 172.254L76.8557 186.423L102.787 156.796L102.722 156.96L100.365 162.82V162.827L77.5075 188.944L77.4717 188.98L75.9603 190.714L75.3442 188.779V188.758L65.6381 158.243L64.1624 153.615L65.2871 150.062ZM65.2871 150.062L72.35 172.254L76.8557 186.423L102.787 156.796L102.722 156.96L100.365 162.82V162.827L77.5075 188.944L77.4717 188.98L75.9603 190.714L75.3442 188.779V188.758L65.6381 158.243L64.1624 153.615L65.2871 150.062ZM65.2871 150.062L72.35 172.254L76.8557 186.423L102.787 156.796L102.722 156.96L100.365 162.82V162.827L77.5075 188.944L77.4717 188.98L75.9603 190.714L75.3442 188.779V188.758L65.6381 158.243L64.1624 153.615L65.2871 150.062ZM65.2871 150.062L72.35 172.254L76.8557 186.423L102.787 156.796L102.722 156.96L100.365 162.82V162.827L77.5075 188.944L77.4717 188.98L75.9603 190.714L75.3442 188.779V188.758L65.6381 158.243L64.1624 153.615L65.2871 150.062ZM65.2871 150.062L72.35 172.254L76.8557 186.423L102.787 156.796L102.722 156.96L100.365 162.82V162.827L77.5075 188.944L77.4717 188.98L75.9603 190.714L75.3442 188.779V188.758L65.6381 158.243L64.1624 153.615L65.2871 150.062ZM65.2871 150.062L72.35 172.254L76.8557 186.423L102.787 156.796L102.722 156.96L100.365 162.82V162.827L77.5075 188.944L77.4717 188.98L75.9603 190.714L75.3442 188.779V188.758L65.6381 158.243L64.1624 153.615L65.2871 150.062ZM65.2871 150.062L72.35 172.254L76.8557 186.423L102.787 156.796L102.722 156.96L100.365 162.82V162.827L77.5075 188.944L77.4717 188.98L75.9603 190.714L75.3442 188.779V188.758L65.6381 158.243L64.1624 153.615L65.2871 150.062ZM65.2871 150.062L72.35 172.254L76.8557 186.423L102.787 156.796L102.722 156.96L100.365 162.82V162.827L77.5075 188.944L77.4717 188.98L75.9603 190.714L75.3442 188.779V188.758L65.6381 158.243L64.1624 153.615L65.2871 150.062ZM65.2871 150.062L72.35 172.254L76.8557 186.423L102.787 156.796L102.722 156.96L100.365 162.82V162.827L77.5075 188.944L77.4717 188.98L75.9603 190.714L75.3442 188.779V188.758L65.6381 158.243L64.1624 153.615L65.2871 150.062ZM65.2871 150.062L72.35 172.254L76.8557 186.423L102.787 156.796L102.722 156.96L100.365 162.82V162.827L77.5075 188.944L77.4717 188.98L75.9603 190.714L75.3442 188.779V188.758L65.6381 158.243L64.1624 153.615L65.2871 150.062ZM65.2871 150.062L72.35 172.254L76.8557 186.423L102.787 156.796L102.722 156.96L100.365 162.82V162.827L77.5075 188.944L77.4717 188.98L75.9603 190.714L75.3442 188.779V188.758L65.6381 158.243L64.1624 153.615L65.2871 150.062ZM65.2871 150.062L72.35 172.254L76.8557 186.423L102.787 156.796L102.722 156.96L100.365 162.82V162.827L77.5075 188.944L77.4717 188.98L75.9603 190.714L75.3442 188.779V188.758L65.6381 158.243L64.1624 153.615L65.2871 150.062ZM65.2871 150.062L72.35 172.254L76.8557 186.423L102.787 156.796L102.722 156.96L100.365 162.82V162.827L77.5075 188.944L77.4717 188.98L75.9603 190.714L75.3442 188.779V188.758L65.6381 158.243L64.1624 153.615L65.2871 150.062ZM102.722 156.96L102.787 156.796L107.07 151.896L115.981 141.71L115.996 141.696V133.05L116.082 133.093L116.612 131.452L117.084 131.194L117.514 131.431L118.059 133.107L118.13 133.071V141.717L118.145 141.731V142.505L117.056 143.751L115.996 144.962L115.981 144.976L104.649 157.92L104.642 157.935L104.635 157.942L100.365 162.82L102.722 156.96ZM64.1624 146.502L69.8142 128.587L69.8214 128.58L70.6738 125.879L71.0821 125.65L71.1179 125.628L85.5232 117.62H85.5304L88.4315 116.008L88.7753 115.822L88.9902 115.7L89.3197 115.879L91.1392 116.882V116.889L91.2108 116.925L115.981 130.593L115.996 130.6L116.755 131.015L117.084 131.194L117.514 131.431L118.145 131.782V142.505L117.056 143.751L115.996 144.962L115.981 144.976L104.649 157.92L104.642 157.935L104.635 157.942L100.365 162.82V162.827L77.5075 188.944L77.4717 188.98L75.9603 190.714L75.3442 188.779V188.758L65.6381 158.243L64.1624 153.615L63.1381 150.385L63.0378 150.055L64.1624 146.502ZM72.35 172.254L76.8557 186.423L102.787 156.796L107.07 151.896L115.981 141.71L115.996 141.696V133.05L115.981 133.042L88.9974 118.157L72.4646 127.34L69.2626 137.484L65.2871 150.048V150.062L72.35 172.254ZM102.722 156.96L102.787 156.796L107.07 151.896L115.981 141.71L115.996 141.696V133.05L116.082 133.093L116.612 131.452L117.084 131.194L117.514 131.431L118.059 133.107L118.13 133.071V141.717L118.145 141.731V142.505L117.056 143.751L115.996 144.962L115.981 144.976L104.649 157.92L104.642 157.935L104.635 157.942L100.365 162.82L102.722 156.96ZM65.2871 150.062L72.35 172.254L76.8557 186.423L102.787 156.796L102.722 156.96L100.365 162.82V162.827L77.5075 188.944L77.4717 188.98L75.9603 190.714L75.3442 188.779V188.758L65.6381 158.243L64.1624 153.615L65.2871 150.062ZM65.2871 150.062L72.35 172.254L76.8557 186.423L102.787 156.796L102.722 156.96L100.365 162.82V162.827L77.5075 188.944L77.4717 188.98L75.9603 190.714L75.3442 188.779V188.758L65.6381 158.243L64.1624 153.615L65.2871 150.062ZM65.2871 150.062L72.35 172.254L76.8557 186.423L102.787 156.796L102.722 156.96L100.365 162.82V162.827L77.5075 188.944L77.4717 188.98L75.9603 190.714L75.3442 188.779V188.758L65.6381 158.243L64.1624 153.615L65.2871 150.062ZM65.2871 150.062L72.35 172.254L76.8557 186.423L102.787 156.796L102.722 156.96L100.365 162.82V162.827L77.5075 188.944L77.4717 188.98L75.9603 190.714L75.3442 188.779V188.758L65.6381 158.243L64.1624 153.615L65.2871 150.062ZM65.2871 150.062L72.35 172.254L76.8557 186.423L102.787 156.796L102.722 156.96L100.365 162.82V162.827L77.5075 188.944L77.4717 188.98L75.9603 190.714L75.3442 188.779V188.758L65.6381 158.243L64.1624 153.615L65.2871 150.062ZM65.2871 150.062L72.35 172.254L76.8557 186.423L102.787 156.796L102.722 156.96L100.365 162.82V162.827L77.5075 188.944L77.4717 188.98L75.9603 190.714L75.3442 188.779V188.758L65.6381 158.243L64.1624 153.615L65.2871 150.062ZM65.2871 150.062L72.35 172.254L76.8557 186.423L102.787 156.796L102.722 156.96L100.365 162.82V162.827L77.5075 188.944L77.4717 188.98L75.9603 190.714L75.3442 188.779V188.758L65.6381 158.243L64.1624 153.615L65.2871 150.062ZM65.2871 150.062L72.35 172.254L76.8557 186.423L102.787 156.796L102.722 156.96L100.365 162.82V162.827L77.5075 188.944L77.4717 188.98L75.9603 190.714L75.3442 188.779V188.758L65.6381 158.243L64.1624 153.615L65.2871 150.062ZM65.2871 150.062L72.35 172.254L76.8557 186.423L102.787 156.796L102.722 156.96L100.365 162.82V162.827L77.5075 188.944L77.4717 188.98L75.9603 190.714L75.3442 188.779V188.758L65.6381 158.243L64.1624 153.615L65.2871 150.062ZM65.2871 150.062L72.35 172.254L76.8557 186.423L102.787 156.796L102.722 156.96L100.365 162.82V162.827L77.5075 188.944L77.4717 188.98L75.9603 190.714L75.3442 188.779V188.758L65.6381 158.243L64.1624 153.615L65.2871 150.062ZM65.2871 150.062L72.35 172.254L76.8557 186.423L102.787 156.796L102.722 156.96L100.365 162.82V162.827L77.5075 188.944L77.4717 188.98L75.9603 190.714L75.3442 188.779V188.758L65.6381 158.243L64.1624 153.615L65.2871 150.062ZM65.2871 150.062L72.35 172.254L76.8557 186.423L102.787 156.796L102.722 156.96L100.365 162.82V162.827L77.5075 188.944L77.4717 188.98L75.9603 190.714L75.3442 188.779V188.758L65.6381 158.243L64.1624 153.615L65.2871 150.062ZM65.2871 150.062L72.35 172.254L76.8557 186.423L102.787 156.796L102.722 156.96L100.365 162.82V162.827L77.5075 188.944L77.4717 188.98L75.9603 190.714L75.3442 188.779V188.758L65.6381 158.243L64.1624 153.615L65.2871 150.062Z" fill="#141312"/>
<path d="M69.8131 128.587L69.8203 128.58L72.091 127.548L72.4635 127.341L69.2615 137.484L65.2859 150.048L64.1613 146.502L69.8131 128.587ZM69.8131 128.587L69.8203 128.58L72.091 127.548L72.4635 127.341L69.2615 137.484L65.2859 150.048L64.1613 146.502L69.8131 128.587ZM69.8131 128.587L69.8203 128.58L72.091 127.548L72.4635 127.341L69.2615 137.484L65.2859 150.048L64.1613 146.502L69.8131 128.587ZM69.8131 128.587L69.8203 128.58L72.091 127.548L72.4635 127.341L69.2615 137.484L65.2859 150.048L64.1613 146.502L69.8131 128.587ZM69.8131 128.587L69.8203 128.58L72.091 127.548L72.4635 127.341L69.2615 137.484L65.2859 150.048L64.1613 146.502L69.8131 128.587ZM69.8131 128.587L69.8203 128.58L72.091 127.548L72.4635 127.341L69.2615 137.484L65.2859 150.048L64.1613 146.502L69.8131 128.587ZM69.8131 128.587L69.8203 128.58L72.091 127.548L72.4635 127.341L69.2615 137.484L65.2859 150.048L64.1613 146.502L69.8131 128.587ZM69.8131 128.587L69.8203 128.58L72.091 127.548L72.4635 127.341L69.2615 137.484L65.2859 150.048L64.1613 146.502L69.8131 128.587ZM69.8131 128.587L69.8203 128.58L72.091 127.548L72.4635 127.341L69.2615 137.484L65.2859 150.048L64.1613 146.502L69.8131 128.587ZM69.8131 128.587L69.8203 128.58L72.091 127.548L72.4635 127.341L69.2615 137.484L65.2859 150.048L64.1613 146.502L69.8131 128.587ZM69.8131 128.587L69.8203 128.58L72.091 127.548L72.4635 127.341L69.2615 137.484L65.2859 150.048L64.1613 146.502L69.8131 128.587ZM69.8131 128.587L69.8203 128.58L72.091 127.548L72.4635 127.341L69.2615 137.484L65.2859 150.048L64.1613 146.502L69.8131 128.587ZM69.8131 128.587L69.8203 128.58L72.091 127.548L72.4635 127.341L69.2615 137.484L65.2859 150.048L64.1613 146.502L69.8131 128.587ZM69.8131 128.587L69.8203 128.58L72.091 127.548L72.4635 127.341L69.2615 137.484L65.2859 150.048L64.1613 146.502L69.8131 128.587ZM27.8724 145.822L28.1302 145.17L29.8637 144.382L71.081 125.65L71.1168 125.628L73.3159 124.633L72.4635 127.341L69.2615 137.484L65.2931 150.055H65.2859V150.062L64.1613 153.615L62.1914 159.862L60.9736 163.723L60.8877 163.995L60.8662 164.016L57.6929 166.946V166.953H57.6857L57.6786 166.968L24.3409 197.834L8.74653 212.275L8.40271 212.59L8.2308 212.748L0.000205994 215.491L27.8724 145.822ZM58.9895 162.82L59.0109 162.806L63.0367 150.055L64.1613 146.502L69.8131 128.587L29.8064 146.774L3.71793 211.988L7.10616 210.857L57.607 164.102L58.9895 162.82ZM69.8131 128.587L69.8203 128.58L72.091 127.548L72.4635 127.341L69.2615 137.484L65.2859 150.048L64.1613 146.502L69.8131 128.587ZM69.8131 128.587L69.8203 128.58L72.091 127.548L72.4635 127.341L69.2615 137.484L65.2859 150.048L64.1613 146.502L69.8131 128.587ZM69.8131 128.587L69.8203 128.58L72.091 127.548L72.4635 127.341L69.2615 137.484L65.2859 150.048L64.1613 146.502L69.8131 128.587ZM69.8131 128.587L69.8203 128.58L72.091 127.548L72.4635 127.341L69.2615 137.484L65.2859 150.048L64.1613 146.502L69.8131 128.587ZM69.8131 128.587L69.8203 128.58L72.091 127.548L72.4635 127.341L69.2615 137.484L65.2859 150.048L64.1613 146.502L69.8131 128.587ZM69.8131 128.587L69.8203 128.58L72.091 127.548L72.4635 127.341L69.2615 137.484L65.2859 150.048L64.1613 146.502L69.8131 128.587ZM69.8131 128.587L69.8203 128.58L72.091 127.548L72.4635 127.341L69.2615 137.484L65.2859 150.048L64.1613 146.502L69.8131 128.587ZM69.8131 128.587L69.8203 128.58L72.091 127.548L72.4635 127.341L69.2615 137.484L65.2859 150.048L64.1613 146.502L69.8131 128.587ZM69.8131 128.587L69.8203 128.58L72.091 127.548L72.4635 127.341L69.2615 137.484L65.2859 150.048L64.1613 146.502L69.8131 128.587ZM69.8131 128.587L69.8203 128.58L72.091 127.548L72.4635 127.341L69.2615 137.484L65.2859 150.048L64.1613 146.502L69.8131 128.587ZM69.8131 128.587L69.8203 128.58L72.091 127.548L72.4635 127.341L69.2615 137.484L65.2859 150.048L64.1613 146.502L69.8131 128.587ZM69.8131 128.587L69.8203 128.58L72.091 127.548L72.4635 127.341L69.2615 137.484L65.2859 150.048L64.1613 146.502L69.8131 128.587ZM69.8131 128.587L69.8203 128.58L72.091 127.548L72.4635 127.341L69.2615 137.484L65.2859 150.048L64.1613 146.502L69.8131 128.587ZM69.8131 128.587L69.8203 128.58L72.091 127.548L72.4635 127.341L69.2615 137.484L65.2859 150.048L64.1613 146.502L69.8131 128.587Z" fill="#141312"/>
<path d="M111.096 104.82L115.981 119.805V126.739L109.205 105.958L111.096 104.82ZM88.4315 116.009L88.7466 115.822V115.815L106.655 104.991L108.524 103.86L109.577 103.222L110.408 102.721L110.616 103.365H110.623L111.096 104.82L115.981 119.805L115.996 119.848L117.063 123.129L118.145 126.438V134.239L118.13 134.232L117.084 133.652L116.082 133.093L115.996 133.05L115.981 133.043L88.9974 118.157V118.15L88.6679 117.971L86.8484 116.968L88.4315 116.009ZM115.981 130.593L115.996 130.6V126.782L115.981 126.739L109.205 105.958L92.2638 116.209H92.2566L91.1463 116.882L91.2108 116.925L115.981 130.593ZM111.096 104.82L115.981 119.805V126.739L109.205 105.958L111.096 104.82Z" fill="#141312"/>
<path d="M46.4397 86.4889L46.5042 85.9731V93.2939L47.1632 94.0675H47.1704L62.8292 112.334L63.3951 113L64.9137 113.172L88.7457 115.815V115.822H88.7744L88.4306 116.009L85.5295 117.62H85.5223L63.3234 115.156H63.3163L62.3134 115.041L61.461 114.046H61.4539L45.1432 95.0131L44.3552 94.0962V88.2868L46.4397 86.4889ZM46.4397 86.4889L46.5042 85.9731V93.2939L47.1632 94.0675H47.1704L62.8292 112.334L63.3951 113L64.9137 113.172L88.7457 115.815V115.822H88.7744L88.4306 116.009L85.5295 117.62H85.5223L63.3234 115.156H63.3163L62.3134 115.041L61.461 114.046H61.4539L45.1432 95.0131L44.3552 94.0962V88.2868L46.4397 86.4889ZM46.4397 86.4889L46.5042 85.9731V93.2939L47.1632 94.0675H47.1704L62.8292 112.334L63.3951 113L64.9137 113.172L88.7457 115.815V115.822H88.7744L88.4306 116.009L85.5295 117.62H85.5223L63.3234 115.156H63.3163L62.3134 115.041L61.461 114.046H61.4539L45.1432 95.0131L44.3552 94.0962V88.2868L46.4397 86.4889ZM46.4397 86.4889L46.5042 85.9731V93.2939L47.1632 94.0675H47.1704L62.8292 112.334L63.3951 113L64.9137 113.172L88.7457 115.815V115.822H88.7744L88.4306 116.009L85.5295 117.62H85.5223L63.3234 115.156H63.3163L62.3134 115.041L61.461 114.046H61.4539L45.1432 95.0131L44.3552 94.0962V88.2868L46.4397 86.4889ZM46.4397 86.4889L46.5042 85.9731V93.2939L47.1632 94.0675H47.1704L62.8292 112.334L63.3951 113L64.9137 113.172L88.7457 115.815V115.822H88.7744L88.4306 116.009L85.5295 117.62H85.5223L63.3234 115.156H63.3163L62.3134 115.041L61.461 114.046H61.4539L45.1432 95.0131L44.3552 94.0962V88.2868L46.4397 86.4889ZM46.4397 86.4889L46.5042 85.9731V93.2939L47.1632 94.0675H47.1704L62.8292 112.334L63.3951 113L64.9137 113.172L88.7457 115.815V115.822H88.7744L88.4306 116.009L85.5295 117.62H85.5223L63.3234 115.156H63.3163L62.3134 115.041L61.461 114.046H61.4539L45.1432 95.0131L44.3552 94.0962V88.2868L46.4397 86.4889ZM46.4397 86.4889L46.5042 85.9731V93.2939L47.1632 94.0675H47.1704L62.8292 112.334L63.3951 113L64.9137 113.172L88.7457 115.815V115.822H88.7744L88.4306 116.009L85.5295 117.62H85.5223L63.3234 115.156H63.3163L62.3134 115.041L61.461 114.046H61.4539L45.1432 95.0131L44.3552 94.0962V88.2868L46.4397 86.4889ZM46.4397 86.4889L46.5042 85.9731V93.2939L47.1632 94.0675H47.1704L62.8292 112.334L63.3951 113L64.9137 113.172L88.7457 115.815V115.822H88.7744L88.4306 116.009L85.5295 117.62H85.5223L63.3234 115.156H63.3163L62.3134 115.041L61.461 114.046H61.4539L45.1432 95.0131L44.3552 94.0962V88.2868L46.4397 86.4889ZM46.4397 86.4889L46.5042 85.9731V93.2939L47.1632 94.0675H47.1704L62.8292 112.334L63.3951 113L64.9137 113.172L88.7457 115.815V115.822H88.7744L88.4306 116.009L85.5295 117.62H85.5223L63.3234 115.156H63.3163L62.3134 115.041L61.461 114.046H61.4539L45.1432 95.0131L44.3552 94.0962V88.2868L46.4397 86.4889ZM46.4397 86.4889L46.5042 85.9731V93.2939L47.1632 94.0675H47.1704L62.8292 112.334L63.3951 113L64.9137 113.172L88.7457 115.815V115.822H88.7744L88.4306 116.009L85.5295 117.62H85.5223L63.3234 115.156H63.3163L62.3134 115.041L61.461 114.046H61.4539L45.1432 95.0131L44.3552 94.0962V88.2868L46.4397 86.4889ZM46.4397 86.4889L46.5042 85.9731V93.2939L47.1632 94.0675H47.1704L62.8292 112.334L63.3951 113L64.9137 113.172L88.7457 115.815V115.822H88.7744L88.4306 116.009L85.5295 117.62H85.5223L63.3234 115.156H63.3163L62.3134 115.041L61.461 114.046H61.4539L45.1432 95.0131L44.3552 94.0962V88.2868L46.4397 86.4889ZM46.4397 86.4889L46.5042 85.9731V93.2939L47.1632 94.0675H47.1704L62.8292 112.334L63.3951 113L64.9137 113.172L88.7457 115.815V115.822H88.7744L88.4306 116.009L85.5295 117.62H85.5223L63.3234 115.156H63.3163L62.3134 115.041L61.461 114.046H61.4539L45.1432 95.0131L44.3552 94.0962V88.2868L46.4397 86.4889ZM46.4397 86.4889L46.5042 85.9731V93.2939L47.1632 94.0675H47.1704L62.8292 112.334L63.3951 113L64.9137 113.172L88.7457 115.815V115.822H88.7744L88.4306 116.009L85.5295 117.62H85.5223L63.3234 115.156H63.3163L62.3134 115.041L61.461 114.046H61.4539L45.1432 95.0131L44.3552 94.0962V88.2868L46.4397 86.4889ZM46.4397 86.4889L46.5042 85.9731V93.2939L47.1632 94.0675H47.1704L62.8292 112.334L63.3951 113L64.9137 113.172L88.7457 115.815V115.822H88.7744L88.4306 116.009L85.5295 117.62H85.5223L63.3234 115.156H63.3163L62.3134 115.041L61.461 114.046H61.4539L45.1432 95.0131L44.3552 94.0962V88.2868L46.4397 86.4889ZM23.1592 103.759L25.9027 101.388L44.4125 85.4072L44.4197 85.4L46.5042 83.6021V93.2939L47.1632 94.0675H47.1704L62.8292 112.334L63.3951 113L64.9137 113.172L88.7457 115.815V115.822H88.7744L89.3188 115.88L92.2558 116.209H92.2629L92.4563 116.231L91.2099 116.925L89.2114 118.036L88.9965 118.15V118.158L72.4637 127.341L72.0912 127.548L69.8205 128.58L69.8133 128.587L29.8067 146.775L28.0732 147.563L27.8726 145.822L23.2953 106.481L23.0374 104.289L23.1592 103.759ZM29.864 144.382L71.0812 125.65L71.117 125.629L85.5223 117.62L63.3234 115.156H63.3163L62.3134 115.041L61.461 114.046H61.4539L45.1432 95.0131L44.3552 94.0962V88.294L25.258 104.784L29.864 144.382ZM46.4397 86.4889L46.5042 85.9731V93.2939L47.1632 94.0675H47.1704L62.8292 112.334L63.3951 113L64.9137 113.172L88.7457 115.815V115.822H88.7744L88.4306 116.009L85.5295 117.62H85.5223L63.3234 115.156H63.3163L62.3134 115.041L61.461 114.046H61.4539L45.1432 95.0131L44.3552 94.0962V88.2868L46.4397 86.4889ZM46.4397 86.4889L46.5042 85.9731V93.2939L47.1632 94.0675H47.1704L62.8292 112.334L63.3951 113L64.9137 113.172L88.7457 115.815V115.822H88.7744L88.4306 116.009L85.5295 117.62H85.5223L63.3234 115.156H63.3163L62.3134 115.041L61.461 114.046H61.4539L45.1432 95.0131L44.3552 94.0962V88.2868L46.4397 86.4889ZM46.4397 86.4889L46.5042 85.9731V93.2939L47.1632 94.0675H47.1704L62.8292 112.334L63.3951 113L64.9137 113.172L88.7457 115.815V115.822H88.7744L88.4306 116.009L85.5295 117.62H85.5223L63.3234 115.156H63.3163L62.3134 115.041L61.461 114.046H61.4539L45.1432 95.0131L44.3552 94.0962V88.2868L46.4397 86.4889ZM46.4397 86.4889L46.5042 85.9731V93.2939L47.1632 94.0675H47.1704L62.8292 112.334L63.3951 113L64.9137 113.172L88.7457 115.815V115.822H88.7744L88.4306 116.009L85.5295 117.62H85.5223L63.3234 115.156H63.3163L62.3134 115.041L61.461 114.046H61.4539L45.1432 95.0131L44.3552 94.0962V88.2868L46.4397 86.4889ZM46.4397 86.4889L46.5042 85.9731V93.2939L47.1632 94.0675H47.1704L62.8292 112.334L63.3951 113L64.9137 113.172L88.7457 115.815V115.822H88.7744L88.4306 116.009L85.5295 117.62H85.5223L63.3234 115.156H63.3163L62.3134 115.041L61.461 114.046H61.4539L45.1432 95.0131L44.3552 94.0962V88.2868L46.4397 86.4889ZM46.4397 86.4889L46.5042 85.9731V93.2939L47.1632 94.0675H47.1704L62.8292 112.334L63.3951 113L64.9137 113.172L88.7457 115.815V115.822H88.7744L88.4306 116.009L85.5295 117.62H85.5223L63.3234 115.156H63.3163L62.3134 115.041L61.461 114.046H61.4539L45.1432 95.0131L44.3552 94.0962V88.2868L46.4397 86.4889ZM46.4397 86.4889L46.5042 85.9731V93.2939L47.1632 94.0675H47.1704L62.8292 112.334L63.3951 113L64.9137 113.172L88.7457 115.815V115.822H88.7744L88.4306 116.009L85.5295 117.62H85.5223L63.3234 115.156H63.3163L62.3134 115.041L61.461 114.046H61.4539L45.1432 95.0131L44.3552 94.0962V88.2868L46.4397 86.4889ZM46.4397 86.4889L46.5042 85.9731V93.2939L47.1632 94.0675H47.1704L62.8292 112.334L63.3951 113L64.9137 113.172L88.7457 115.815V115.822H88.7744L88.4306 116.009L85.5295 117.62H85.5223L63.3234 115.156H63.3163L62.3134 115.041L61.461 114.046H61.4539L45.1432 95.0131L44.3552 94.0962V88.2868L46.4397 86.4889ZM46.4397 86.4889L46.5042 85.9731V93.2939L47.1632 94.0675H47.1704L62.8292 112.334L63.3951 113L64.9137 113.172L88.7457 115.815V115.822H88.7744L88.4306 116.009L85.5295 117.62H85.5223L63.3234 115.156H63.3163L62.3134 115.041L61.461 114.046H61.4539L45.1432 95.0131L44.3552 94.0962V88.2868L46.4397 86.4889ZM46.4397 86.4889L46.5042 85.9731V93.2939L47.1632 94.0675H47.1704L62.8292 112.334L63.3951 113L64.9137 113.172L88.7457 115.815V115.822H88.7744L88.4306 116.009L85.5295 117.62H85.5223L63.3234 115.156H63.3163L62.3134 115.041L61.461 114.046H61.4539L45.1432 95.0131L44.3552 94.0962V88.2868L46.4397 86.4889ZM46.4397 86.4889L46.5042 85.9731V93.2939L47.1632 94.0675H47.1704L62.8292 112.334L63.3951 113L64.9137 113.172L88.7457 115.815V115.822H88.7744L88.4306 116.009L85.5295 117.62H85.5223L63.3234 115.156H63.3163L62.3134 115.041L61.461 114.046H61.4539L45.1432 95.0131L44.3552 94.0962V88.2868L46.4397 86.4889ZM46.4397 86.4889L46.5042 85.9731V93.2939L47.1632 94.0675H47.1704L62.8292 112.334L63.3951 113L64.9137 113.172L88.7457 115.815V115.822H88.7744L88.4306 116.009L85.5295 117.62H85.5223L63.3234 115.156H63.3163L62.3134 115.041L61.461 114.046H61.4539L45.1432 95.0131L44.3552 94.0962V88.2868L46.4397 86.4889ZM46.4397 86.4889L46.5042 85.9731V93.2939L47.1632 94.0675H47.1704L62.8292 112.334L63.3951 113L64.9137 113.172L88.7457 115.815V115.822H88.7744L88.4306 116.009L85.5295 117.62H85.5223L63.3234 115.156H63.3163L62.3134 115.041L61.461 114.046H61.4539L45.1432 95.0131L44.3552 94.0962V88.2868L46.4397 86.4889ZM46.4397 86.4889L46.5042 85.9731V93.2939L47.1632 94.0675H47.1704L62.8292 112.334L63.3951 113L64.9137 113.172L88.7457 115.815V115.822H88.7744L88.4306 116.009L85.5295 117.62H85.5223L63.3234 115.156H63.3163L62.3134 115.041L61.461 114.046H61.4539L45.1432 95.0131L44.3552 94.0962V88.2868L46.4397 86.4889Z" fill="#141312"/>
<path d="M110.623 103.366L110.408 102.721L110.623 103.366ZM110.623 103.366L110.408 102.721L110.623 103.366ZM110.623 103.366L110.408 102.721L110.623 103.366ZM110.623 103.366L110.408 102.721L110.623 103.366ZM110.623 103.366L110.408 102.721L110.623 103.366ZM110.623 103.366L110.408 102.721L110.623 103.366ZM110.623 103.366L110.408 102.721L110.623 103.366ZM110.623 103.366L110.408 102.721L110.623 103.366ZM110.623 103.366L110.408 102.721L110.623 103.366ZM110.623 103.366L110.408 102.721L110.623 103.366ZM110.623 103.366L110.408 102.721L110.623 103.366ZM110.623 103.366L110.408 102.721L110.623 103.366ZM110.623 103.366L110.408 102.721L110.623 103.366ZM103.152 81.1597L115.981 86.2886L115.996 86.2958L117.092 86.7327L118.145 87.1554V133.373L118.13 133.33L118.059 133.107L117.514 131.431L117.385 131.03L117.063 130.063L115.996 126.782L115.981 126.739L109.205 105.959L108.524 103.86L108.252 103.043L101.612 82.664L100.817 80.2285L103.152 81.1597ZM104.284 83.9319L110.408 102.721L110.623 103.366L111.096 104.82L115.981 119.805L115.996 119.848V88.6095L115.981 88.6023L104.284 83.9247V83.9319ZM110.623 103.366L110.408 102.721L110.623 103.366ZM110.623 103.366L110.408 102.721L110.623 103.366ZM110.623 103.366L110.408 102.721L110.623 103.366ZM110.623 103.366L110.408 102.721L110.623 103.366ZM110.623 103.366L110.408 102.721L110.623 103.366ZM110.623 103.366L110.408 102.721L110.623 103.366ZM110.623 103.366L110.408 102.721L110.623 103.366ZM110.623 103.366L110.408 102.721L110.623 103.366ZM110.623 103.366L110.408 102.721L110.623 103.366ZM110.623 103.366L110.408 102.721L110.623 103.366ZM110.623 103.366L110.408 102.721L110.623 103.366ZM110.623 103.366L110.408 102.721L110.623 103.366ZM110.623 103.366L110.408 102.721L110.623 103.366Z" fill="#141312"/>
<path d="M62.8217 112.341L62.8289 112.334L72.9863 99.6333L74.0107 98.3511L74.9204 98.4728L108.251 103.043L109.576 103.222L110.615 103.365H110.622L111.095 104.819L109.204 105.958L92.2626 116.209H92.2554L91.1451 116.882H91.138V116.89L89.5979 117.821L89.2397 118.036H89.2111L88.6666 117.971L85.5291 117.62H85.522L63.3231 115.156H63.316L62.3131 115.049V115.041L61.4607 114.046L62.8217 112.341ZM88.7454 115.822H88.7526L106.654 104.991L74.9276 100.65L64.9133 113.172L88.7454 115.822Z" fill="#141312"/>
<path d="M46.5056 92.0047L58.6831 86.3242L60.13 85.6509L60.9108 86.3242L74.9221 98.4731L75.9536 99.3685L74.9293 100.651L64.915 113.172L63.3248 115.156H63.3177L62.3148 115.049V115.042L61.4624 114.046H61.4552L45.1445 95.0132L44.3566 94.0963V93.0075L46.5056 92.0047ZM62.8234 112.341L62.8306 112.334L72.988 99.6335L59.7719 88.1867L47.1718 94.0677H47.1646L62.8234 112.341Z" fill="#141312"/>
<path d="M58.6825 86.3239L53.2456 65.486L53.8759 65.6937L55.6452 66.1379L60.9102 86.3239L61.2183 87.513L59.7713 88.1863L47.1712 94.0673H47.164L46.505 93.2937V92.0043L58.6825 86.3239ZM44.4205 85.3998L47.1568 63.4517L47.3144 62.1838V62.1766L48.0809 61.4961L50.4304 62.2769L50.4376 62.2841L54.4418 63.6164L54.492 63.6307L55.0364 63.8098L55.6452 66.1379L60.9102 86.3239L61.2183 87.513L59.7713 88.1863L47.1712 94.0673H47.164L45.144 95.0129L44.356 94.096V85.9442L44.4205 85.3998ZM58.6825 86.3239L53.2456 65.486L49.2342 64.1465L48.5751 69.4115L46.505 86.0158V92.0043L58.6825 86.3239ZM58.6825 86.3239L53.2456 65.486L53.8759 65.6937L55.6452 66.1379L60.9102 86.3239L61.2183 87.513L59.7713 88.1863L47.1712 94.0673H47.164L46.505 93.2937V92.0043L58.6825 86.3239Z" fill="#141312"/>
<path d="M52.7604 57.3345H52.7676L57.5383 55.9448L57.7102 55.8159L56.8219 56.6039L50.4323 62.2771L48.0828 61.4963L52.7604 57.3345ZM52.7604 57.3345H52.7676L57.5383 55.9448L57.7102 55.8159L56.8219 56.6039L50.4323 62.2771L48.0828 61.4963L52.7604 57.3345ZM52.7604 57.3345H52.7676L57.5383 55.9448L57.7102 55.8159L56.8219 56.6039L50.4323 62.2771L48.0828 61.4963L52.7604 57.3345ZM52.7604 57.3345H52.7676L57.5383 55.9448L57.7102 55.8159L56.8219 56.6039L50.4323 62.2771L48.0828 61.4963L52.7604 57.3345ZM52.7604 57.3345H52.7676L57.5383 55.9448L57.7102 55.8159L56.8219 56.6039L50.4323 62.2771L48.0828 61.4963L52.7604 57.3345ZM52.7604 57.3345H52.7676L57.5383 55.9448L57.7102 55.8159L56.8219 56.6039L50.4323 62.2771L48.0828 61.4963L52.7604 57.3345ZM52.7604 57.3345H52.7676L57.5383 55.9448L57.7102 55.8159L56.8219 56.6039L50.4323 62.2771L48.0828 61.4963L52.7604 57.3345ZM52.7604 57.3345H52.7676L57.5383 55.9448L57.7102 55.8159L56.8219 56.6039L50.4323 62.2771L48.0828 61.4963L52.7604 57.3345ZM52.7604 57.3345H52.7676L57.5383 55.9448L57.7102 55.8159L56.8219 56.6039L50.4323 62.2771L48.0828 61.4963L52.7604 57.3345ZM52.7604 57.3345H52.7676L57.5383 55.9448L57.7102 55.8159L56.8219 56.6039L50.4323 62.2771L48.0828 61.4963L52.7604 57.3345ZM52.7604 57.3345H52.7676L57.5383 55.9448L57.7102 55.8159L56.8219 56.6039L50.4323 62.2771L48.0828 61.4963L52.7604 57.3345ZM52.7604 57.3345H52.7676L57.5383 55.9448L57.7102 55.8159L56.8219 56.6039L50.4323 62.2771L48.0828 61.4963L52.7604 57.3345ZM52.7604 57.3345H52.7676L57.5383 55.9448L57.7102 55.8159L56.8219 56.6039L50.4323 62.2771L48.0828 61.4963L52.7604 57.3345ZM52.7604 57.3345H52.7676L57.5383 55.9448L57.7102 55.8159L56.8219 56.6039L50.4323 62.2771L48.0828 61.4963L52.7604 57.3345ZM23.1619 103.759L32.3595 63.2943L32.8108 61.3101L33.1475 60.8158L36.4282 59.8631V59.856L50.5756 55.7371L56.5569 53.9893L61.3276 52.5996L57.7389 55.7872L57.7102 55.8159L56.8219 56.6039L50.4323 62.2771L49.3507 63.2442L49.2361 64.1467L48.577 69.4117L46.5069 85.9731L46.4424 86.4889L44.3579 88.2868V88.294L25.2607 104.784L23.298 106.481L23.0401 104.289L23.1619 103.759ZM44.4152 85.4072L47.1587 63.4519L47.3164 62.184V62.1768L48.0828 61.4963L52.7604 57.3345L34.7162 62.5995L25.9054 101.388L44.4152 85.4072ZM52.7604 57.3345H52.7676L57.5383 55.9448L57.7102 55.8159L56.8219 56.6039L50.4323 62.2771L48.0828 61.4963L52.7604 57.3345ZM52.7604 57.3345H52.7676L57.5383 55.9448L57.7102 55.8159L56.8219 56.6039L50.4323 62.2771L48.0828 61.4963L52.7604 57.3345ZM52.7604 57.3345H52.7676L57.5383 55.9448L57.7102 55.8159L56.8219 56.6039L50.4323 62.2771L48.0828 61.4963L52.7604 57.3345ZM52.7604 57.3345H52.7676L57.5383 55.9448L57.7102 55.8159L56.8219 56.6039L50.4323 62.2771L48.0828 61.4963L52.7604 57.3345ZM52.7604 57.3345H52.7676L57.5383 55.9448L57.7102 55.8159L56.8219 56.6039L50.4323 62.2771L48.0828 61.4963L52.7604 57.3345ZM52.7604 57.3345H52.7676L57.5383 55.9448L57.7102 55.8159L56.8219 56.6039L50.4323 62.2771L48.0828 61.4963L52.7604 57.3345ZM52.7604 57.3345H52.7676L57.5383 55.9448L57.7102 55.8159L56.8219 56.6039L50.4323 62.2771L48.0828 61.4963L52.7604 57.3345ZM52.7604 57.3345H52.7676L57.5383 55.9448L57.7102 55.8159L56.8219 56.6039L50.4323 62.2771L48.0828 61.4963L52.7604 57.3345ZM52.7604 57.3345H52.7676L57.5383 55.9448L57.7102 55.8159L56.8219 56.6039L50.4323 62.2771L48.0828 61.4963L52.7604 57.3345ZM52.7604 57.3345H52.7676L57.5383 55.9448L57.7102 55.8159L56.8219 56.6039L50.4323 62.2771L48.0828 61.4963L52.7604 57.3345ZM52.7604 57.3345H52.7676L57.5383 55.9448L57.7102 55.8159L56.8219 56.6039L50.4323 62.2771L48.0828 61.4963L52.7604 57.3345ZM52.7604 57.3345H52.7676L57.5383 55.9448L57.7102 55.8159L56.8219 56.6039L50.4323 62.2771L48.0828 61.4963L52.7604 57.3345ZM52.7604 57.3345H52.7676L57.5383 55.9448L57.7102 55.8159L56.8219 56.6039L50.4323 62.2771L48.0828 61.4963L52.7604 57.3345ZM52.7604 57.3345H52.7676L57.5383 55.9448L57.7102 55.8159L56.8219 56.6039L50.4323 62.2771L48.0828 61.4963L52.7604 57.3345Z" fill="#141312"/>
<path d="M32.8073 61.3102L33.144 60.816L47.8501 39.6844L48.7885 38.3306L49.734 38.4452L73.0288 41.246L73.2008 41.2675L74.1033 41.3749L75.5216 41.5469H75.5288L74.8412 42.4136V42.4208L74.9773 42.607L74.2681 43.1514L73.8025 43.5024L73.2652 43.9179L57.7354 55.7874L57.7067 55.816L57.5348 55.945L52.7641 57.3346H52.7569L34.7127 62.5996L32.356 63.2944L32.8073 61.3102ZM50.5721 55.7372L56.5534 53.9894L70.7509 43.1371L49.8128 40.6228L36.4247 59.8561V59.8632L50.5721 55.7372Z" fill="#141312"/>
<path d="M79.3635 52.5496L94.1269 73.5952L73.2676 43.9179L79.3635 52.5496ZM91.061 73.9175L91.3118 72.8932L91.6699 72.9792C91.9207 73.0436 92.1713 73.1009 92.4077 73.1654L93.4249 73.4233C93.5324 73.4519 93.6398 73.4734 93.7401 73.5021L94.1341 73.6024V73.5952C95.9249 74.0536 96.9063 74.3044 96.9421 74.3115L97.3217 74.4118H97.3289L98.7615 76.4605L99.2128 77.098L98.3891 76.8903L96.0252 76.2957C95.8318 76.2456 95.5667 76.1811 95.23 76.0952L94.4779 75.9089C93.912 75.7585 93.2315 75.5937 92.4436 75.3932C92.3146 75.3573 92.1857 75.3215 92.0496 75.2929L90.7459 74.9705L90.753 74.9634C90.9464 74.3831 91.0395 73.9892 91.061 73.9175ZM47.3152 62.1842L48.0816 61.4965L52.7593 57.3347H52.7664L56.3337 54.1613L56.5558 53.9894L70.7533 43.1371L72.7375 41.6185L73.2031 41.2675L73.7403 40.8521L74.1057 41.375L74.8435 42.4136V42.4208L74.9796 42.6071L80.5598 50.5511L82.2574 52.9651L94.0481 69.7414L97.3289 74.4118L98.7687 76.4533L99.22 77.098H99.2128L98.3891 76.8903L96.0252 76.2957C95.8318 76.2456 95.5667 76.1811 95.23 76.0952L94.4779 75.9089C93.912 75.7585 93.2315 75.5937 92.4436 75.3932C92.3146 75.3573 92.1857 75.3215 92.0496 75.2929L90.7459 74.9705L88.6542 74.4405L79.7861 72.2127L77.6873 71.6826L74.7002 70.9233C74.3636 70.8374 74.0126 70.7514 73.6687 70.6654C73.2103 70.5508 72.7375 70.4362 72.2647 70.3144C71.8421 70.207 71.4123 70.0995 70.9825 69.9921L69.6716 69.6697V69.6626L67.5872 69.1397L55.646 66.1383L53.8767 65.6941L53.2464 65.4864L49.235 64.1469L47.1576 63.4521L47.3152 62.1842ZM54.4426 63.6168L54.4927 63.6311L68.1888 67.0766L69.1845 67.3274C70.2447 67.5924 71.2834 67.8503 72.3005 68.1082L77.9881 69.5408L90.4594 72.6711L91.1613 72.8502L91.276 72.8789L91.3118 72.8932L91.6699 72.9792C91.9207 73.0436 92.1713 73.1009 92.4077 73.1654L93.4249 73.4233C93.5324 73.4519 93.6398 73.4734 93.7401 73.5021L94.1341 73.6024V73.5952H94.1269L73.2676 43.9179L57.7377 55.7874L57.709 55.8161L56.8208 56.604L50.4384 62.2845L54.4426 63.6168ZM90.753 74.9634C90.9464 74.3831 91.0395 73.9892 91.061 73.9175L91.3118 72.8932L91.6699 72.9792C91.9207 73.0436 92.1713 73.1009 92.4077 73.1654L93.4249 73.4233C93.5324 73.4519 93.6398 73.4734 93.7401 73.5021L94.1341 73.6024L96.0252 76.2957C95.8318 76.2456 95.5667 76.1811 95.23 76.0952L94.4779 75.9089C93.912 75.7585 93.2315 75.5937 92.4436 75.3932C92.3146 75.3573 92.1857 75.3215 92.0496 75.2929L90.7459 74.9705L90.753 74.9634ZM79.3635 52.5496L94.1269 73.5952L73.2676 43.9179L79.3635 52.5496Z" fill="#141312"/>
<path d="M36.3698 20.2503L37.1291 18.918L38.2394 19.1257L81.1042 27.1629L84.2273 27.7502L84.7001 27.8362L86.0969 28.1012L85.574 28.7674L84.6858 29.8992H84.6786L84.5998 30.0066L75.5312 41.5466L74.8435 42.4134V42.4205L74.2704 43.1512L73.9767 43.5237L73.8048 43.5022L72.9023 43.3947L70.7533 43.1369L49.8152 40.6226L48.8625 40.508L47.8525 39.6842L32.4228 27.1485L36.3698 20.2503ZM49.7363 38.4449L73.0312 41.2458L82.2145 29.5554L38.2394 21.3105L35.195 26.6328L49.7363 38.4449Z" fill="#141312"/>
<path d="M68.2454 10.4153L84.6133 27.7504L84.6993 27.8363L85.5732 28.7675L86.6477 29.8993H84.6778L84.599 30.0068H84.5919L82.2137 29.5555L38.2386 21.3106L37.1283 21.1029L36.369 20.2505L18.246 0L68.2454 10.4153ZM38.2386 19.1258L81.1034 27.163L67.1422 12.3852L24.2058 3.43835L38.2386 19.1258Z" fill="#141312"/>
<path d="M99.5703 78.8172V78.81L100.143 78.151L103.152 81.1596L100.817 80.2283L101.612 82.6638L98.7322 79.7842L99.5703 78.8172ZM99.5703 78.8172V78.81L100.143 78.151L103.152 81.1596L100.817 80.2283L101.612 82.6638L98.7322 79.7842L99.5703 78.8172ZM99.5703 78.8172V78.81L100.143 78.151L103.152 81.1596L100.817 80.2283L101.612 82.6638L98.7322 79.7842L99.5703 78.8172ZM99.5703 78.8172V78.81L100.143 78.151L103.152 81.1596L100.817 80.2283L101.612 82.6638L98.7322 79.7842L99.5703 78.8172ZM99.5703 78.8172V78.81L100.143 78.151L103.152 81.1596L100.817 80.2283L101.612 82.6638L98.7322 79.7842L99.5703 78.8172ZM99.5703 78.8172V78.81L100.143 78.151L103.152 81.1596L100.817 80.2283L101.612 82.6638L98.7322 79.7842L99.5703 78.8172ZM99.5703 78.8172V78.81L100.143 78.151L103.152 81.1596L100.817 80.2283L101.612 82.6638L98.7322 79.7842L99.5703 78.8172ZM99.5703 78.8172V78.81L100.143 78.151L103.152 81.1596L100.817 80.2283L101.612 82.6638L98.7322 79.7842L99.5703 78.8172ZM99.5703 78.8172V78.81L100.143 78.151L103.152 81.1596L100.817 80.2283L101.612 82.6638L98.7322 79.7842L99.5703 78.8172ZM99.5703 78.8172V78.81L100.143 78.151L103.152 81.1596L100.817 80.2283L101.612 82.6638L98.7322 79.7842L99.5703 78.8172ZM99.5703 78.8172V78.81L100.143 78.151L103.152 81.1596L100.817 80.2283L101.612 82.6638L98.7322 79.7842L99.5703 78.8172ZM99.5703 78.8172V78.81L100.143 78.151L103.152 81.1596L100.817 80.2283L101.612 82.6638L98.7322 79.7842L99.5703 78.8172ZM99.5703 78.8172V78.81L100.143 78.151L103.152 81.1596L100.817 80.2283L101.612 82.6638L98.7322 79.7842L99.5703 78.8172ZM97.3139 78.1367V78.1295L98.3884 76.8903L98.7608 76.4605L98.768 76.4533L114.971 57.6856H114.978L115.981 56.5252L116.497 55.9235L116.64 55.7587L117.056 55.2788L118.13 54.0324L118.145 54.0181V89.4689L118.13 89.4618L117.092 89.0463L115.996 88.6093L115.981 88.6022L104.284 83.9317V83.9246L101.941 82.9934L101.612 82.6638L98.7322 79.7842L97.8654 78.9175L97.3569 78.4089L97.2064 78.2584L97.3139 78.1367ZM103.152 81.1596L115.981 86.2884L115.996 86.2956V59.7988L115.981 59.8131L100.143 78.151L103.152 81.1596ZM99.5703 78.8172V78.81L100.143 78.151L103.152 81.1596L100.817 80.2283L101.612 82.6638L98.7322 79.7842L99.5703 78.8172ZM99.5703 78.8172V78.81L100.143 78.151L103.152 81.1596L100.817 80.2283L101.612 82.6638L98.7322 79.7842L99.5703 78.8172ZM99.5703 78.8172V78.81L100.143 78.151L103.152 81.1596L100.817 80.2283L101.612 82.6638L98.7322 79.7842L99.5703 78.8172ZM99.5703 78.8172V78.81L100.143 78.151L103.152 81.1596L100.817 80.2283L101.612 82.6638L98.7322 79.7842L99.5703 78.8172ZM99.5703 78.8172V78.81L100.143 78.151L103.152 81.1596L100.817 80.2283L101.612 82.6638L98.7322 79.7842L99.5703 78.8172ZM99.5703 78.8172V78.81L100.143 78.151L103.152 81.1596L100.817 80.2283L101.612 82.6638L98.7322 79.7842L99.5703 78.8172ZM99.5703 78.8172V78.81L100.143 78.151L103.152 81.1596L100.817 80.2283L101.612 82.6638L98.7322 79.7842L99.5703 78.8172ZM99.5703 78.8172V78.81L100.143 78.151L103.152 81.1596L100.817 80.2283L101.612 82.6638L98.7322 79.7842L99.5703 78.8172ZM99.5703 78.8172V78.81L100.143 78.151L103.152 81.1596L100.817 80.2283L101.612 82.6638L98.7322 79.7842L99.5703 78.8172ZM99.5703 78.8172V78.81L100.143 78.151L103.152 81.1596L100.817 80.2283L101.612 82.6638L98.7322 79.7842L99.5703 78.8172ZM99.5703 78.8172V78.81L100.143 78.151L103.152 81.1596L100.817 80.2283L101.612 82.6638L98.7322 79.7842L99.5703 78.8172ZM99.5703 78.8172V78.81L100.143 78.151L103.152 81.1596L100.817 80.2283L101.612 82.6638L98.7322 79.7842L99.5703 78.8172ZM99.5703 78.8172V78.81L100.143 78.151L103.152 81.1596L100.817 80.2283L101.612 82.6638L98.7322 79.7842L99.5703 78.8172Z" fill="#141312"/>
<path d="M80.5591 50.5512L80.5877 50.5584L115.981 55.6658H115.996L116.64 55.7589L117.135 55.8305L117.586 55.895L118.145 55.9738V57.3133L117.614 57.9293L117.507 58.0511L117.056 58.574L115.996 59.7989L115.981 59.8133L100.143 78.1511L99.5703 78.8102V78.8173L98.7322 79.7844L98.5889 79.9491L97.8654 78.9176L97.4213 78.2873L97.3139 78.1368V78.1297L96.0245 76.2959L94.1334 73.6025V73.5953H94.1262L79.3628 52.5497L77.6723 50.1357L80.5591 50.5512ZM97.3211 74.4119L98.7608 76.4606L98.768 76.4535L114.971 57.6858L82.2854 52.9724L94.0475 69.7415L97.3211 74.4119Z" fill="#141312"/>
<path d="M73.2669 43.9179L73.8041 43.5024L73.9761 43.5239L74.2697 43.1514L74.9789 42.607L80.5877 50.5582L80.5591 50.5511L77.6723 50.1356L79.3628 52.5496L73.2669 43.9179ZM73.2669 43.9179L73.8041 43.5024L73.9761 43.5239L74.2697 43.1514L74.9789 42.607L80.5877 50.5582L80.5591 50.5511L77.6723 50.1356L79.3628 52.5496L73.2669 43.9179ZM73.2669 43.9179L73.8041 43.5024L73.9761 43.5239L74.2697 43.1514L74.9789 42.607L80.5877 50.5582L80.5591 50.5511L77.6723 50.1356L79.3628 52.5496L73.2669 43.9179ZM73.2669 43.9179L73.8041 43.5024L73.9761 43.5239L74.2697 43.1514L74.9789 42.607L80.5877 50.5582L80.5591 50.5511L77.6723 50.1356L79.3628 52.5496L73.2669 43.9179ZM73.2669 43.9179L73.8041 43.5024L73.9761 43.5239L74.2697 43.1514L74.9789 42.607L80.5877 50.5582L80.5591 50.5511L77.6723 50.1356L79.3628 52.5496L73.2669 43.9179ZM73.2669 43.9179L73.8041 43.5024L73.9761 43.5239L74.2697 43.1514L74.9789 42.607L80.5877 50.5582L80.5591 50.5511L77.6723 50.1356L79.3628 52.5496L73.2669 43.9179ZM73.2669 43.9179L73.8041 43.5024L73.9761 43.5239L74.2697 43.1514L74.9789 42.607L80.5877 50.5582L80.5591 50.5511L77.6723 50.1356L79.3628 52.5496L73.2669 43.9179ZM73.2669 43.9179L73.8041 43.5024L73.9761 43.5239L74.2697 43.1514L74.9789 42.607L80.5877 50.5582L80.5591 50.5511L77.6723 50.1356L79.3628 52.5496L73.2669 43.9179ZM73.2669 43.9179L73.8041 43.5024L73.9761 43.5239L74.2697 43.1514L74.9789 42.607L80.5877 50.5582L80.5591 50.5511L77.6723 50.1356L79.3628 52.5496L73.2669 43.9179ZM73.2669 43.9179L73.8041 43.5024L73.9761 43.5239L74.2697 43.1514L74.9789 42.607L80.5877 50.5582L80.5591 50.5511L77.6723 50.1356L79.3628 52.5496L73.2669 43.9179ZM73.2669 43.9179L73.8041 43.5024L73.9761 43.5239L74.2697 43.1514L74.9789 42.607L80.5877 50.5582L80.5591 50.5511L77.6723 50.1356L79.3628 52.5496L73.2669 43.9179ZM73.2669 43.9179L73.8041 43.5024L73.9761 43.5239L74.2697 43.1514L74.9789 42.607L80.5877 50.5582L80.5591 50.5511L77.6723 50.1356L79.3628 52.5496L73.2669 43.9179ZM73.2669 43.9179L73.8041 43.5024L73.9761 43.5239L74.2697 43.1514L74.9789 42.607L80.5877 50.5582L80.5591 50.5511L77.6723 50.1356L79.3628 52.5496L73.2669 43.9179ZM73.8041 43.5024L73.9761 43.5239L74.2697 43.1514L74.9789 42.607L80.5877 50.5582L115.981 55.6656H115.996V42.9724L117.077 43.66L118.13 42.9938V55.6871H118.145V57.3132L117.614 57.9292L117.507 58.051L117.135 58.0008L116.468 57.9005L115.981 57.8289L114.978 57.6856H114.971L82.2854 52.9722L82.2568 52.9651L79.3628 52.5496L73.2669 43.9179L73.8041 43.5024ZM72.7368 41.6185L73.0305 41.246L82.2138 29.5556L83.6321 27.7505H96.0818L98.5245 29.3049L115.981 40.4151L115.996 40.4222L117.077 41.1099L118.145 41.7904V58.1441L117.507 58.051L117.135 58.0008L116.468 57.9005L115.981 57.8289L114.978 57.6856H114.971L82.2854 52.9722L82.2568 52.9651L79.3628 52.5496L73.2669 43.9179L72.9016 43.395L72.1638 42.3492L72.7368 41.6185ZM80.5877 50.5582L115.981 55.6656H115.996V42.9724L115.981 42.9652L95.4514 29.8995H84.6779L84.5991 30.0069H84.592L75.5233 41.5469L74.8428 42.4136V42.4208L74.9789 42.607L80.5877 50.5582ZM73.8041 43.5024L73.9761 43.5239L74.2697 43.1514L74.9789 42.607L80.5877 50.5582L115.981 55.6656H115.996V42.9724L117.077 43.66L118.13 42.9938V55.6871H118.145V57.3132L117.614 57.9292L117.507 58.051L117.135 58.0008L116.468 57.9005L115.981 57.8289L114.978 57.6856H114.971L82.2854 52.9722L82.2568 52.9651L79.3628 52.5496L73.2669 43.9179L73.8041 43.5024ZM73.2669 43.9179L73.8041 43.5024L73.9761 43.5239L74.2697 43.1514L74.9789 42.607L80.5877 50.5582L80.5591 50.5511L77.6723 50.1356L79.3628 52.5496L73.2669 43.9179ZM73.2669 43.9179L73.8041 43.5024L73.9761 43.5239L74.2697 43.1514L74.9789 42.607L80.5877 50.5582L80.5591 50.5511L77.6723 50.1356L79.3628 52.5496L73.2669 43.9179ZM73.2669 43.9179L73.8041 43.5024L73.9761 43.5239L74.2697 43.1514L74.9789 42.607L80.5877 50.5582L80.5591 50.5511L77.6723 50.1356L79.3628 52.5496L73.2669 43.9179ZM73.2669 43.9179L73.8041 43.5024L73.9761 43.5239L74.2697 43.1514L74.9789 42.607L80.5877 50.5582L80.5591 50.5511L77.6723 50.1356L79.3628 52.5496L73.2669 43.9179ZM73.2669 43.9179L73.8041 43.5024L73.9761 43.5239L74.2697 43.1514L74.9789 42.607L80.5877 50.5582L80.5591 50.5511L77.6723 50.1356L79.3628 52.5496L73.2669 43.9179ZM73.2669 43.9179L73.8041 43.5024L73.9761 43.5239L74.2697 43.1514L74.9789 42.607L80.5877 50.5582L80.5591 50.5511L77.6723 50.1356L79.3628 52.5496L73.2669 43.9179ZM73.2669 43.9179L73.8041 43.5024L73.9761 43.5239L74.2697 43.1514L74.9789 42.607L80.5877 50.5582L80.5591 50.5511L77.6723 50.1356L79.3628 52.5496L73.2669 43.9179ZM73.2669 43.9179L73.8041 43.5024L73.9761 43.5239L74.2697 43.1514L74.9789 42.607L80.5877 50.5582L80.5591 50.5511L77.6723 50.1356L79.3628 52.5496L73.2669 43.9179ZM73.2669 43.9179L73.8041 43.5024L73.9761 43.5239L74.2697 43.1514L74.9789 42.607L80.5877 50.5582L80.5591 50.5511L77.6723 50.1356L79.3628 52.5496L73.2669 43.9179ZM73.2669 43.9179L73.8041 43.5024L73.9761 43.5239L74.2697 43.1514L74.9789 42.607L80.5877 50.5582L80.5591 50.5511L77.6723 50.1356L79.3628 52.5496L73.2669 43.9179ZM73.2669 43.9179L73.8041 43.5024L73.9761 43.5239L74.2697 43.1514L74.9789 42.607L80.5877 50.5582L80.5591 50.5511L77.6723 50.1356L79.3628 52.5496L73.2669 43.9179ZM73.2669 43.9179L73.8041 43.5024L73.9761 43.5239L74.2697 43.1514L74.9789 42.607L80.5877 50.5582L80.5591 50.5511L77.6723 50.1356L79.3628 52.5496L73.2669 43.9179ZM73.2669 43.9179L73.8041 43.5024L73.9761 43.5239L74.2697 43.1514L74.9789 42.607L80.5877 50.5582L80.5591 50.5511L77.6723 50.1356L79.3628 52.5496L73.2669 43.9179Z" fill="#141312"/>
<path d="M95.6735 27.7504L115.981 23.1373L117.013 22.9009L118.145 23.1588V44.3404L118.13 44.3333L117.077 43.6599L115.996 42.9723L115.981 42.9651L95.4514 29.8994L93.0231 28.3521L95.6735 27.7504ZM115.981 40.415L115.996 40.4222V25.3364H115.981L98.5245 29.3048L115.981 40.415Z" fill="#141312"/>
<path d="M67.5857 69.1397C67.6788 68.7815 67.7791 68.4234 67.8865 68.058L68.1873 67.0767L69.183 67.3274C70.2432 67.5924 71.2819 67.8503 72.299 68.1082C74.2832 68.6024 76.1887 69.0752 77.9866 69.5337L80.3864 70.1354L83.9823 71.0379L86.1743 71.5895L88.1942 72.0981L90.4579 72.6712L91.1598 72.8502L91.2745 72.8789L91.3103 72.886C91.4321 72.9147 91.5467 72.9434 91.6684 72.9792C91.9192 73.0436 92.1698 73.1009 92.4062 73.1654L93.4234 73.4233C93.5309 73.4519 93.6383 73.4734 93.7386 73.5021C93.8747 73.5379 94.0037 73.5666 94.1254 73.5952H94.1326C95.9234 74.0537 96.9048 74.3044 96.9406 74.3115L97.3202 74.4118H97.3274L98.76 76.4605L99.2113 77.098L99.9133 78.1009L99.6411 78.6668C99.6268 78.6883 99.6053 78.7384 99.5695 78.81V78.8172C99.4549 79.0321 99.2472 79.4404 98.932 79.9848C97.1412 83.1008 92.0624 90.6079 84.6915 90.6079C83.9751 90.6079 83.2445 90.5434 82.4923 90.393C76.0096 89.0964 71.2819 86.2312 68.8105 82.1195C66.6831 78.5808 66.2748 74.2184 67.5857 69.1397ZM70.6515 81.0163C73.3664 85.5363 78.8176 87.4632 82.9078 88.2798C90.4507 89.7841 95.9449 80.9518 97.3561 78.4089C97.3775 78.3659 97.399 78.3229 97.4205 78.2871L97.3131 78.1367V78.1295L96.0237 76.2957C95.8303 76.2456 95.5652 76.1811 95.2285 76.0952L94.4764 75.9089C93.9105 75.7585 93.23 75.5937 92.4421 75.3932C92.3131 75.3574 92.1842 75.3216 92.0481 75.2929C91.6398 75.1855 91.21 75.078 90.7515 74.9634C90.0997 74.7986 89.3977 74.6195 88.6527 74.4333L88.2014 74.3187L85.6871 73.6883L79.7846 72.1984C79.1041 72.0265 78.4021 71.8545 77.6858 71.6755C76.7188 71.4247 75.7231 71.174 74.6987 70.9233C74.3621 70.8374 74.0111 70.7514 73.6672 70.6654C73.2088 70.5508 72.736 70.4362 72.2632 70.3144C71.8406 70.207 71.4108 70.0995 70.981 69.9921C70.5441 69.8846 70.1143 69.77 69.6701 69.6626V69.6698C68.5025 74.1754 68.832 77.9791 70.6515 81.0163Z" fill="#141312"/>
<path d="M77.6863 71.6827V71.6755C77.7221 71.3603 77.7651 71.038 77.8152 70.7085L77.9872 69.5409V69.5337L80.3869 70.1354L83.9828 71.038L86.1748 71.5895L88.1948 72.0981L90.4584 72.6712L91.1603 72.8503L91.275 72.8789L91.3108 72.8861V72.8932L91.0601 73.9176C91.0386 73.9892 90.9454 74.3832 90.752 74.9634L90.7449 74.9706C90.0357 77.0622 88.0444 81.5178 83.9685 81.5178C83.7034 81.5178 83.4312 81.4963 83.1447 81.4533C81.053 81.1596 79.5846 80.4218 78.6534 79.1897C77.3425 77.4491 77.2708 75.0064 77.6863 71.6827ZM80.3725 77.8932C80.9384 78.6453 81.9485 79.1181 83.4456 79.3258C86.404 79.7485 88.0157 76.2385 88.6532 74.4405V74.4333L88.2019 74.3187L85.6876 73.6884L79.7851 72.1984C79.7851 72.2056 79.7851 72.2056 79.7851 72.2127C79.4843 74.7987 79.5129 76.7542 80.3725 77.8932Z" fill="#141312"/>
</svg>
