<svg width="33" height="32" viewBox="0 0 33 32" fill="none" xmlns="http://www.w3.org/2000/svg">
<path d="M27.3616 2.11264L29.3723 4.18424C29.551 4.36838 29.551 4.55253 29.3723 4.73667L5.78038 29.0435C5.60165 29.2276 5.42292 29.2276 5.2442 29.0435L3.23353 26.9719C3.0548 26.7877 3.0548 26.6036 3.23352 26.4194L26.8254 2.11264C27.0041 1.9285 27.1829 1.9285 27.3616 2.11264Z" fill="white"/>
<path d="M6.31655 2.66537L28.8361 25.8673C29.0148 26.0515 29.0148 26.2356 28.8361 26.4197L26.8254 28.4913C26.6467 28.6755 26.468 28.6755 26.2892 28.4913L3.7697 5.2894C3.59097 5.10526 3.59097 4.92112 3.7697 4.73698L5.78037 2.66537C5.9591 2.48123 6.13783 2.48123 6.31655 2.66537Z" fill="white"/>
</svg>
