<svg width="191" height="110" viewBox="0 0 191 110" fill="none" xmlns="http://www.w3.org/2000/svg">
<path d="M42.5511 109.301C68.8864 109.301 84.7898 89.2557 84.8409 54.7386C84.8921 20.4773 68.7841 0.840905 42.5511 0.840905C16.267 0.840905 0.3125 20.4261 0.261364 54.7386C0.159091 89.1534 16.1648 109.25 42.5511 109.301ZM42.5511 90.9432C30.5341 90.9432 22.7614 78.875 22.8125 54.7386C22.8636 30.9602 30.5852 18.9943 42.5511 18.9943C54.4659 18.9943 62.2386 30.9602 62.2386 54.7386C62.2898 78.875 54.517 90.9432 42.5511 90.9432ZM146.192 2.27272H125.379L99.4531 18.6875V38.3239L123.436 23.2898H124.05V107H146.192V2.27272ZM178.536 108.33C185.081 108.33 190.757 102.858 190.808 96.0568C190.757 89.358 185.081 83.8864 178.536 83.8864C171.786 83.8864 166.212 89.358 166.263 96.0568C166.212 102.858 171.786 108.33 178.536 108.33Z" fill="white" fill-opacity="0.1"/>
</svg>
