<svg width="218" height="110" viewBox="0 0 218 110" fill="none" xmlns="http://www.w3.org/2000/svg">
<path d="M42.5511 109.301C68.8864 109.301 84.7898 89.2557 84.8409 54.7386C84.8921 20.4773 68.7841 0.840905 42.5511 0.840905C16.267 0.840905 0.3125 20.4261 0.261364 54.7386C0.159091 89.1534 16.1648 109.25 42.5511 109.301ZM42.5511 90.9432C30.5341 90.9432 22.7614 78.875 22.8125 54.7386C22.8636 30.9602 30.5852 18.9943 42.5511 18.9943C54.4659 18.9943 62.2386 30.9602 62.2386 54.7386C62.2898 78.875 54.517 90.9432 42.5511 90.9432ZM139.339 108.432C162.862 108.432 179.686 95.4943 179.635 77.5966C179.686 64.5568 171.402 55.25 156.01 53.3068V52.4886C167.72 50.392 175.8 42.108 175.749 30.3466C175.8 13.8295 161.328 0.840905 139.646 0.840905C118.169 0.840905 102.01 13.4204 101.703 31.5227H122.925C123.18 23.5454 130.493 18.3807 139.544 18.3807C148.493 18.3807 154.476 23.8011 154.425 31.6761C154.476 39.9091 147.47 45.483 137.396 45.483H127.629V61.7443H137.396C149.26 61.7443 156.675 67.6761 156.624 76.1136C156.675 84.4489 149.516 90.1761 139.391 90.1761C129.624 90.1761 122.311 85.0625 121.902 77.392H99.6065C99.9645 95.6989 116.328 108.432 139.339 108.432ZM205.536 108.33C212.081 108.33 217.757 102.858 217.808 96.0568C217.757 89.358 212.081 83.8864 205.536 83.8864C198.786 83.8864 193.212 89.358 193.263 96.0568C193.212 102.858 198.786 108.33 205.536 108.33Z" fill="white" fill-opacity="0.03"/>
</svg>
