<svg width="216" height="110" viewBox="0 0 216 110" fill="none" xmlns="http://www.w3.org/2000/svg">
<path d="M42.5511 109.301C68.8864 109.301 84.7898 89.2557 84.8409 54.7386C84.8921 20.4773 68.7841 0.840905 42.5511 0.840905C16.267 0.840905 0.3125 20.4261 0.261364 54.7386C0.159091 89.1534 16.1648 109.25 42.5511 109.301ZM42.5511 90.9432C30.5341 90.9432 22.7614 78.875 22.8125 54.7386C22.8636 30.9602 30.5852 18.9943 42.5511 18.9943C54.4659 18.9943 62.2386 30.9602 62.2386 54.7386C62.2898 78.875 54.517 90.9432 42.5511 90.9432ZM138.879 108.432C162.197 108.432 178.05 93.2443 177.999 72.0739C178.05 52.0284 164.038 37.608 145.169 37.608C135.964 37.608 128.038 41.4432 124.357 46.608L123.743 46.608L126.453 20.375H172.22V2.27272H108.197L103.237 57.5L122.925 61.0284C126.146 56.6818 132.385 53.9716 138.572 53.9716C149.107 54.0227 156.675 61.642 156.675 72.6364C156.675 83.5284 149.26 91.0455 138.879 91.0455C130.084 91.0455 122.976 85.5227 122.464 77.392H100.987C101.396 95.4943 117.197 108.432 138.879 108.432ZM203.145 108.33C209.69 108.33 215.366 102.858 215.418 96.0568C215.366 89.358 209.69 83.8864 203.145 83.8864C196.395 83.8864 190.821 89.358 190.872 96.0568C190.821 102.858 196.395 108.33 203.145 108.33Z" fill="white" fill-opacity="0.1"/>
</svg>
