<svg width="219" height="110" viewBox="0 0 219 110" fill="none" xmlns="http://www.w3.org/2000/svg">
<path d="M42.5511 109.301C68.8864 109.301 84.7898 89.2557 84.8409 54.7386C84.8921 20.4773 68.7841 0.840905 42.5511 0.840905C16.267 0.840905 0.3125 20.4261 0.261364 54.7386C0.159091 89.1534 16.1648 109.25 42.5511 109.301ZM42.5511 90.9432C30.5341 90.9432 22.7614 78.875 22.8125 54.7386C22.8636 30.9602 30.5852 18.9943 42.5511 18.9943C54.4659 18.9943 62.2386 30.9602 62.2386 54.7386C62.2898 78.875 54.517 90.9432 42.5511 90.9432ZM139.697 108.432C163.322 108.432 180.3 95.8011 180.351 78.8239C180.3 65.733 170.226 55.0455 157.646 52.9489V52.233C168.589 49.983 176.413 40.5227 176.464 29.017C176.413 12.8068 160.868 0.840905 139.697 0.840905C118.476 0.840905 102.93 12.8068 102.982 29.017C102.93 40.4716 110.652 49.983 121.8 52.233V52.9489C109.016 55.0455 99.044 65.733 99.0952 78.8239C99.044 95.8011 116.072 108.432 139.697 108.432ZM139.697 92.1705C129.163 92.1705 122.107 85.9318 122.107 77.0852C122.107 68.0341 129.521 61.4886 139.697 61.4886C149.822 61.4886 157.288 68.0341 157.288 77.0852C157.288 85.983 150.18 92.1705 139.697 92.1705ZM139.697 45.3807C130.851 45.3807 124.561 39.6023 124.561 31.3182C124.561 23.1364 130.749 17.5114 139.697 17.5114C148.595 17.5114 154.834 23.1875 154.834 31.3182C154.834 39.6023 148.493 45.3807 139.697 45.3807ZM205.817 108.33C212.362 108.33 218.038 102.858 218.089 96.0568C218.038 89.358 212.362 83.8864 205.817 83.8864C199.067 83.8864 193.493 89.358 193.544 96.0568C193.493 102.858 199.067 108.33 205.817 108.33Z" fill="#141312" fill-opacity="0.1"/>
</svg>
