<svg width="217" height="110" viewBox="0 0 217 110" fill="none" xmlns="http://www.w3.org/2000/svg">
<path d="M42.5511 109.301C68.8864 109.301 84.7898 89.2557 84.8409 54.7386C84.8921 20.4773 68.7841 0.840905 42.5511 0.840905C16.267 0.840905 0.3125 20.4261 0.261364 54.7386C0.159091 89.1534 16.1648 109.25 42.5511 109.301ZM42.5511 90.9432C30.5341 90.9432 22.7614 78.875 22.8125 54.7386C22.8636 30.9602 30.5852 18.9943 42.5511 18.9943C54.4659 18.9943 62.2386 30.9602 62.2386 54.7386C62.2898 78.875 54.517 90.9432 42.5511 90.9432ZM138.521 0.840905C115.101 0.738629 99.2997 16.0795 99.402 37.1477C99.4531 56.6818 113.004 70.8466 131.567 70.8466C143.072 70.8466 153.3 65.2727 157.953 56.0682H158.669C158.618 76.8295 151.408 89.4602 137.754 89.4602C129.726 89.4602 123.947 85.0625 122.26 77.4432H100.425C102.47 95.0852 116.788 108.432 137.754 108.432C163.68 108.432 180.402 87.4659 180.351 51.9261C180.3 13.9829 160.05 0.943181 138.521 0.840905ZM138.675 18.2273C148.851 18.2273 156.368 26.5114 156.47 36.483C156.521 46.5057 148.595 54.7898 138.47 54.7898C128.243 54.7898 120.93 46.8125 120.879 36.5341C120.777 26.3068 128.396 18.2273 138.675 18.2273ZM204.27 108.33C210.815 108.33 216.491 102.858 216.543 96.0568C216.491 89.358 210.815 83.8864 204.27 83.8864C197.52 83.8864 191.946 89.358 191.997 96.0568C191.946 102.858 197.52 108.33 204.27 108.33Z" fill="white" fill-opacity="0.1"/>
</svg>
