<svg width="192" height="110" viewBox="0 0 192 110" fill="none" xmlns="http://www.w3.org/2000/svg">
<path d="M47.0511 2.27272H26.2386L0.3125 18.6875L0.3125 38.3239L24.2955 23.2898H24.9091L24.9091 107H47.0511L47.0511 2.27272ZM113.004 109.301C139.339 109.301 155.243 89.2557 155.294 54.7386C155.345 20.4773 139.237 0.840905 113.004 0.840905C86.7202 0.840905 70.7656 20.4261 70.7145 54.7386C70.6122 89.1534 86.6179 109.25 113.004 109.301ZM113.004 90.9432C100.987 90.9432 93.2145 78.875 93.2656 54.7386C93.3168 30.9602 101.038 18.9943 113.004 18.9943C124.919 18.9943 132.692 30.9602 132.692 54.7386C132.743 78.875 124.97 90.9432 113.004 90.9432ZM179.661 108.33C186.206 108.33 191.882 102.858 191.933 96.0568C191.882 89.358 186.206 83.8864 179.661 83.8864C172.911 83.8864 167.337 89.358 167.388 96.0568C167.337 102.858 172.911 108.33 179.661 108.33Z" fill="#141312" fill-opacity="0.1"/>
</svg>
