<svg width="188" height="109" viewBox="0 0 188 109" fill="none" xmlns="http://www.w3.org/2000/svg">
<path d="M47.0511 2.27272H26.2386L0.3125 18.6875L0.3125 38.3239L24.2955 23.2898H24.9091L24.9091 107H47.0511L47.0511 2.27272ZM71.9418 107H146.601V88.8977L102.624 88.8977V88.1818L117.913 73.1989C139.442 53.5625 145.22 43.7443 145.22 31.8295C145.22 13.6761 130.391 0.840905 107.942 0.840905C85.9531 0.840905 70.8679 13.9829 70.919 34.5398H91.9361C91.8849 24.517 98.2259 18.3807 107.788 18.3807C116.993 18.3807 123.845 24.1079 123.845 33.3125C123.845 41.6477 118.732 47.375 109.22 56.5284L71.9418 91.0455L71.9418 107ZM175.582 108.33C182.128 108.33 187.804 102.858 187.855 96.0568C187.804 89.358 182.128 83.8864 175.582 83.8864C168.832 83.8864 163.259 89.358 163.31 96.0568C163.259 102.858 168.832 108.33 175.582 108.33Z" fill="#141312" fill-opacity="0.1"/>
</svg>
