<svg width="348" height="348" viewBox="0 0 348 348" fill="none" xmlns="http://www.w3.org/2000/svg">
<g opacity="0.1">
<path d="M192.287 228.375C199.53 233.087 220.533 235.987 239.363 235.625" stroke="#141312" stroke-width="6" stroke-miterlimit="10" stroke-linecap="round" stroke-linejoin="round"/>
<path d="M156.075 228.375C148.833 233.087 127.83 235.987 108.999 235.625" stroke="#141312" stroke-width="6" stroke-miterlimit="10" stroke-linecap="round" stroke-linejoin="round"/>
<path d="M159.696 72.5V7.25H188.666V126.875H159.696V108.75" stroke="#141312" stroke-width="6" stroke-miterlimit="10" stroke-linecap="round" stroke-linejoin="round"/>
<path d="M156.075 227.65C156.075 217.5 164.042 210.25 174.181 210.25C184.321 210.25 192.287 217.5 192.287 227.65V246.5H156.075V227.65Z" stroke="#141312" stroke-width="6" stroke-miterlimit="10" stroke-linecap="round" stroke-linejoin="round"/>
<path d="M112.621 319C118.62 319 123.484 314.131 123.484 308.125C123.484 302.119 118.62 297.25 112.621 297.25C106.621 297.25 101.757 302.119 101.757 308.125C101.757 314.131 106.621 319 112.621 319Z" stroke="#141312" stroke-width="6" stroke-miterlimit="10" stroke-linecap="round" stroke-linejoin="round"/>
<path d="M235.742 319C241.742 319 246.606 314.131 246.606 308.125C246.606 302.119 241.742 297.25 235.742 297.25C229.742 297.25 224.878 302.119 224.878 308.125C224.878 314.131 229.742 319 235.742 319Z" stroke="#141312" stroke-width="6" stroke-miterlimit="10" stroke-linecap="round" stroke-linejoin="round"/>
<path d="M123.484 308.125H224.879" stroke="#141312" stroke-width="6" stroke-miterlimit="10" stroke-linecap="round" stroke-linejoin="round"/>
<path d="M119.138 297.975L156.075 242.875" stroke="#141312" stroke-width="6" stroke-miterlimit="10" stroke-linecap="round" stroke-linejoin="round"/>
<path d="M228.862 297.975L192.287 242.875" stroke="#141312" stroke-width="6" stroke-miterlimit="10" stroke-linecap="round" stroke-linejoin="round"/>
<path d="M174.181 246.5V308.125" stroke="#141312" stroke-width="6" stroke-miterlimit="10" stroke-linecap="round" stroke-linejoin="round"/>
<path d="M152.454 250.125V304.5" stroke="#141312" stroke-width="6" stroke-miterlimit="10" stroke-linecap="round" stroke-linejoin="round"/>
<path d="M195.909 250.125V308.125" stroke="#141312" stroke-width="6" stroke-miterlimit="10" stroke-linecap="round" stroke-linejoin="round"/>
<path d="M217.636 282.75V308.125" stroke="#141312" stroke-width="6" stroke-miterlimit="10" stroke-linecap="round" stroke-linejoin="round"/>
<path d="M130.727 282.75V308.125" stroke="#141312" stroke-width="6" stroke-miterlimit="10" stroke-linecap="round" stroke-linejoin="round"/>
<path d="M151.729 156.963C155.713 161.313 155.351 176.176 155.351 176.176C155.351 176.176 155.713 195.751 151.729 198.651C138.331 207.713 87.9958 210.251 76.77 198.651C65.5442 187.051 77.4943 167.113 91.2549 156.963C106.464 146.088 140.866 145.001 151.729 156.963Z" stroke="#141312" stroke-width="6" stroke-miterlimit="10" stroke-linecap="round" stroke-linejoin="round"/>
<path d="M195.546 156.963C191.563 161.313 191.925 176.176 191.925 176.176C191.925 176.176 191.563 195.751 195.546 198.651C208.945 207.713 259.28 210.251 270.505 198.651C281.731 187.051 269.781 167.113 256.021 156.963C241.174 146.088 206.41 145.001 195.546 156.963Z" stroke="#141312" stroke-width="6" stroke-miterlimit="10" stroke-linecap="round" stroke-linejoin="round"/>
<path d="M243.347 300.513L271.23 252.301" stroke="#141312" stroke-width="6" stroke-miterlimit="10" stroke-linecap="round"/>
<path d="M97.7732 70.3258C113.344 53.2883 135.434 42.0508 159.696 38.4258" stroke="#141312" stroke-width="6" stroke-miterlimit="10" stroke-linecap="round"/>
<path d="M79.3047 98.6C80.7532 95.3375 82.5638 91.7125 84.0123 88.8125" stroke="#141312" stroke-width="6" stroke-miterlimit="10" stroke-linecap="round"/>
<path d="M104.654 300.513L76.7705 252.301" stroke="#141312" stroke-width="6" stroke-miterlimit="10" stroke-linecap="round"/>
<path d="M275.938 300.875C300.924 297.25 333.153 286.012 337.861 283.475" stroke="#141312" stroke-width="6" stroke-miterlimit="10" stroke-linecap="round"/>
<path d="M73.5106 300.876C48.5241 297.251 15.2088 285.651 10.5012 283.113" stroke="#141312" stroke-width="6" stroke-miterlimit="10" stroke-linecap="round"/>
<path d="M300.924 163.125C300.924 163.125 270.868 97.15 188.666 126.875" stroke="#141312" stroke-width="6" stroke-miterlimit="10" stroke-linecap="round"/>
<path d="M47.4382 163.125C47.4382 163.125 77.4944 97.15 159.696 126.875" stroke="#141312" stroke-width="6" stroke-miterlimit="10" stroke-linecap="round"/>
<path d="M159.696 15.2246C96.687 22.4746 47.4383 76.1246 47.4383 141.375V163.125L12.3124 276.587C5.79422 293.987 3.9836 311.387 15.9337 317.55C51.4217 336.037 133.624 340.387 173.819 340.387C214.015 340.387 296.217 335.675 331.705 317.55C343.655 311.387 341.844 293.987 335.326 276.587L300.562 163.125V145V141.375C300.562 76.1246 251.676 22.4746 188.304 15.2246" stroke="#141312" stroke-width="6" stroke-miterlimit="10" stroke-linecap="round"/>
</g>
</svg>
