<svg width="183" height="199" viewBox="0 0 183 199" fill="none" xmlns="http://www.w3.org/2000/svg">
<path d="M108.136 172.673C108.136 181.794 100.65 189.257 91.4999 189.257C82.3499 189.257 74.8635 181.794 74.8635 172.673C74.8635 163.553 82.3499 146.555 91.4999 146.555C100.65 146.555 108.136 163.553 108.136 172.673Z" stroke="#141312" stroke-width="6" stroke-miterlimit="10" stroke-linecap="round" stroke-linejoin="round"/>
<path d="M135.17 172.051C140.913 172.051 145.568 167.411 145.568 161.687C145.568 155.963 140.913 151.322 135.17 151.322C129.428 151.322 124.773 155.963 124.773 161.687C124.773 167.411 129.428 172.051 135.17 172.051Z" stroke="#141312" stroke-width="6" stroke-miterlimit="10" stroke-linecap="round" stroke-linejoin="round"/>
<path d="M47.8296 172.051C53.5721 172.051 58.2273 167.411 58.2273 161.687C58.2273 155.963 53.5721 151.322 47.8296 151.322C42.0871 151.322 37.4319 155.963 37.4319 161.687C37.4319 167.411 42.0871 172.051 47.8296 172.051Z" stroke="#141312" stroke-width="6" stroke-miterlimit="10" stroke-linecap="round" stroke-linejoin="round"/>
<path d="M76.735 180.552C75.4873 182.832 73.4077 185.734 71.5361 187.6C61.7623 197.342 45.9577 197.342 36.1839 187.6L25.7862 177.235C20.1714 171.638 17.8839 164.176 18.7157 156.713C18.7157 156.713 3.95093 136.399 3.95093 128.521C3.95093 119.401 11.4373 111.938 20.5873 111.938H12.4771L16.6362 78.7715H20.7952V53.8965C20.7952 26.534 43.2543 4.14648 70.7043 4.14648H91.4998H112.295C139.745 4.14648 162.204 26.534 162.204 53.8965V78.7715H166.363L170.522 111.938H162.204C171.354 111.938 178.841 119.401 178.841 128.521C178.841 136.606 164.076 156.713 164.076 156.713C164.908 163.968 162.62 171.638 157.005 177.235L146.608 187.6C136.834 197.342 121.029 197.342 111.255 187.6C109.384 185.734 107.304 182.625 106.057 180.552" stroke="#141312" stroke-width="6" stroke-miterlimit="10" stroke-linecap="round" stroke-linejoin="round"/>
<path d="M145.568 93.2819C145.568 99.0861 140.993 103.646 135.17 103.646C123.525 103.646 103.977 93.0746 103.977 78.7715H145.568V93.2819Z" stroke="#141312" stroke-width="6" stroke-miterlimit="10" stroke-linecap="round" stroke-linejoin="round"/>
<path d="M37.4319 93.2819C37.4319 99.0861 42.0069 103.646 47.8296 103.646C59.4751 103.646 79.0228 93.0746 79.0228 78.7715H37.4319V93.2819Z" stroke="#141312" stroke-width="6" stroke-miterlimit="10" stroke-linecap="round" stroke-linejoin="round"/>
<path d="M133.091 134.74C126.852 134.74 119.782 129.557 108.552 123.339C103.561 120.644 98.1546 118.156 91.2921 118.156C84.4296 118.156 79.2308 120.644 74.0319 123.339C63.2183 129.557 56.1478 134.74 49.9092 134.74" stroke="#141312" stroke-width="6" stroke-miterlimit="10" stroke-linecap="round" stroke-linejoin="round"/>
<path d="M20.7954 62.1875H162.205" stroke="#141312" stroke-width="6" stroke-miterlimit="10" stroke-linecap="round"/>
<path d="M21.0037 49.75H161.997" stroke="#141312" stroke-width="6" stroke-miterlimit="10" stroke-linecap="round"/>
</svg>
