<svg width="302" height="40" viewBox="0 0 302 40" fill="none" xmlns="http://www.w3.org/2000/svg">
<path d="M0.96875 1.05469V0.0546875H-0.03125V1.05469H0.96875ZM17.4219 1.05469H18.4219V0.0546875H17.4219V1.05469ZM17.4219 8.64844V9.64844H18.4219V8.64844H17.4219ZM10.8359 8.64844V7.64844H9.83594V8.64844H10.8359ZM10.8359 15.8438H9.83594V16.8438H10.8359V15.8438ZM17 15.8438H18V14.8438H17V15.8438ZM17 23.0625V24.0625H18V23.0625H17ZM10.8359 23.0625V22.0625H9.83594V23.0625H10.8359ZM10.8359 31.4062H9.83594V32.4062H10.8359V31.4062ZM18.0781 31.4062H19.0781V30.4062H18.0781V31.4062ZM18.0781 39V40H19.0781V39H18.0781ZM0.96875 39H-0.03125V40H0.96875V39ZM0.96875 2.05469H17.4219V0.0546875H0.96875V2.05469ZM16.4219 1.05469V8.64844H18.4219V1.05469H16.4219ZM17.4219 7.64844H10.8359V9.64844H17.4219V7.64844ZM9.83594 8.64844V15.8438H11.8359V8.64844H9.83594ZM10.8359 16.8438H17V14.8438H10.8359V16.8438ZM16 15.8438V23.0625H18V15.8438H16ZM17 22.0625H10.8359V24.0625H17V22.0625ZM9.83594 23.0625V31.4062H11.8359V23.0625H9.83594ZM10.8359 32.4062H18.0781V30.4062H10.8359V32.4062ZM17.0781 31.4062V39H19.0781V31.4062H17.0781ZM18.0781 38H0.96875V40H18.0781V38ZM1.96875 39V1.05469H-0.03125V39H1.96875ZM45.1766 1.05469L46.1657 0.907452L46.0387 0.0546875H45.1766V1.05469ZM50.825 39V40H51.9849L51.8141 38.8528L50.825 39ZM40.7234 39L39.726 39.072L39.793 40H40.7234V39ZM40.2313 32.1797L41.2287 32.1077L41.1617 31.1797H40.2313V32.1797ZM36.6922 32.1797V31.1797H35.7744L35.6959 32.0941L36.6922 32.1797ZM36.1063 39V40H37.024L37.1026 39.0856L36.1063 39ZM25.8875 39L24.8961 38.869L24.7466 40H25.8875V39ZM30.9031 1.05469V0.0546875H30.0266L29.9117 0.923647L30.9031 1.05469ZM39.95 25.4531V26.4531H41.0731L40.9433 25.3375L39.95 25.4531ZM38.45 9.53906L39.4469 9.4601L37.4594 9.40243L38.45 9.53906ZM36.575 25.4531L35.5778 25.3789L35.4978 26.4531H36.575V25.4531ZM44.1875 1.20192L49.8359 39.1472L51.8141 38.8528L46.1657 0.907452L44.1875 1.20192ZM50.825 38H40.7234V40H50.825V38ZM41.7208 38.928L41.2287 32.1077L39.2338 32.2517L39.726 39.072L41.7208 38.928ZM40.2313 31.1797H36.6922V33.1797H40.2313V31.1797ZM35.6959 32.0941L35.1099 38.9144L37.1026 39.0856L37.6885 32.2653L35.6959 32.0941ZM36.1063 38H25.8875V40H36.1063V38ZM26.8789 39.131L31.8945 1.18573L29.9117 0.923647L24.8961 38.869L26.8789 39.131ZM30.9031 2.05469H45.1766V0.0546875H30.9031V2.05469ZM40.9433 25.3375C40.4452 21.057 39.9463 15.7654 39.4469 9.4601L37.4531 9.61802C37.9537 15.9377 38.4548 21.2555 38.9567 25.5687L40.9433 25.3375ZM37.4594 9.40243C36.459 16.655 35.8302 21.9861 35.5778 25.3789L37.5722 25.5273C37.8198 22.2014 38.441 16.9231 39.4406 9.6757L37.4594 9.40243ZM36.575 26.4531H39.95V24.4531H36.575V26.4531ZM80.6188 12.5391V13.5391H81.6188V12.5391H80.6188ZM71.4547 12.5391H70.4547V13.5391H71.4547V12.5391ZM68.5719 7.40625L67.7316 6.86412L67.7253 6.87383L67.7193 6.88369L68.5719 7.40625ZM68.6422 12.4688L69.5322 12.0129L69.5279 12.0044L69.5233 11.9959L68.6422 12.4688ZM71.4313 14.7891L71.9421 13.9294L71.9406 13.9285L71.4313 14.7891ZM80.4781 35.2734L79.5837 34.8262L79.5794 34.835L80.4781 35.2734ZM76.8219 38.5078L77.2503 39.4114L77.2566 39.4084L76.8219 38.5078ZM63.7203 38.2969L63.2467 39.1776L63.2497 39.1792L63.7203 38.2969ZM59.1969 25.4062V24.4062H58.1969V25.4062H59.1969ZM68.3609 25.4062H69.3609V24.4062H68.3609V25.4062ZM68.7359 32.7656L67.8843 33.2897L67.8915 33.3014L67.899 33.3129L68.7359 32.7656ZM71.5719 32.6016L70.7282 32.0647L70.7223 32.0739L70.7167 32.0833L71.5719 32.6016ZM71.15 25.9219L71.8984 25.2585L71.8899 25.2492L71.15 25.9219ZM66.5328 22.4766L65.9806 23.3103L65.9843 23.3127L66.5328 22.4766ZM59.6656 15.8906L58.7363 16.2601L58.7403 16.2697L59.6656 15.8906ZM59.9938 4.54688L59.1205 4.05949L59.1162 4.06731L59.9938 4.54688ZM63.6031 1.40625L64.0156 2.31723L64.0227 2.31396L63.6031 1.40625ZM76.1422 1.5L75.7236 2.4082L75.7266 2.40956L76.1422 1.5ZM79.7281 4.64062L78.8185 5.05612L78.8216 5.06292L78.8249 5.06968L79.7281 4.64062ZM80.6188 11.5391H71.4547V13.5391H80.6188V11.5391ZM72.4547 12.5391V9.72656H70.4547V12.5391H72.4547ZM72.4547 9.72656C72.4547 9.04631 72.4247 8.45824 72.3571 7.9764C72.2941 7.52707 72.1834 7.04456 71.9407 6.67248L70.2655 7.76502C70.2572 7.75232 70.3223 7.86746 70.3765 8.25406C70.4261 8.60816 70.4547 9.09431 70.4547 9.72656H72.4547ZM71.9407 6.67248C71.471 5.95216 70.7111 5.67969 69.9313 5.67969V7.67969C70.0983 7.67969 70.1828 7.70744 70.2165 7.72294C70.2409 7.7342 70.2515 7.74357 70.2655 7.76502L71.9407 6.67248ZM69.9313 5.67969C69.0101 5.67969 68.2348 6.0841 67.7316 6.86412L69.4122 7.94838C69.5339 7.75965 69.6649 7.67969 69.9313 7.67969V5.67969ZM67.7193 6.88369C67.2787 7.60247 67.1266 8.55902 67.1266 9.60938H69.1266C69.1266 8.69098 69.2713 8.17878 69.4245 7.92881L67.7193 6.88369ZM67.1266 9.60938C67.1266 10.9342 67.3012 12.0845 67.761 12.9416L69.5233 11.9959C69.2957 11.5717 69.1266 10.8158 69.1266 9.60938H67.1266ZM67.7521 12.9246C68.0058 13.4199 68.4385 13.8759 68.946 14.298C69.4659 14.7306 70.1297 15.1808 70.9219 15.6496L71.9406 13.9285C71.2015 13.4911 70.6349 13.1014 70.2251 12.7605C69.8029 12.4093 69.6067 12.1582 69.5322 12.0129L67.7521 12.9246ZM70.9204 15.6487C73.095 16.9411 74.8468 18.1055 76.1864 19.1424C77.5374 20.188 78.4185 21.0658 78.9021 21.7745L80.5542 20.6474C79.8971 19.6842 78.8251 18.6557 77.4105 17.5608C75.9844 16.457 74.1582 15.2464 71.9421 13.9294L70.9204 15.6487ZM78.9021 21.7745C79.8685 23.1911 80.4391 25.634 80.4391 29.2969H82.4391C82.4391 25.5223 81.869 22.5745 80.5542 20.6474L78.9021 21.7745ZM80.4391 29.2969C80.4391 31.9591 80.1174 33.7589 79.5837 34.8262L81.3726 35.7206C82.1201 34.2255 82.4391 32.0409 82.4391 29.2969H80.4391ZM79.5794 34.835C79.0862 35.846 78.0789 36.7905 76.3871 37.6073L77.2566 39.4084C79.1898 38.4751 80.62 37.2634 81.3769 35.7119L79.5794 34.835ZM76.3935 37.6042C74.7389 38.3887 72.781 38.7969 70.4938 38.7969V40.7969C73.019 40.7969 75.2798 40.3457 77.2503 39.4114L76.3935 37.6042ZM70.4938 38.7969C67.9781 38.7969 65.8901 38.3207 64.1909 37.4145L63.2497 39.1792C65.3006 40.273 67.7282 40.7969 70.4938 40.7969V38.7969ZM64.194 37.4162C62.487 36.4982 61.4725 35.3886 61.0008 34.1265L59.1273 34.8266C59.8119 36.6582 61.2348 38.0956 63.2467 39.1776L64.194 37.4162ZM61.0008 34.1265C60.4842 32.7443 60.1969 30.6883 60.1969 27.8906H58.1969C58.1969 30.7804 58.4877 33.1151 59.1273 34.8266L61.0008 34.1265ZM60.1969 27.8906V25.4062H58.1969V27.8906H60.1969ZM59.1969 26.4062H68.3609V24.4062H59.1969V26.4062ZM67.3609 25.4062V30.0234H69.3609V25.4062H67.3609ZM67.3609 30.0234C67.3609 30.7583 67.3929 31.3918 67.4639 31.9109C67.5309 32.4009 67.6461 32.9028 67.8843 33.2897L69.5876 32.2415C69.5892 32.2441 69.5656 32.2044 69.5338 32.0925C69.5033 31.985 69.4724 31.8366 69.4455 31.6399C69.3915 31.2449 69.3609 30.7105 69.3609 30.0234H67.3609ZM67.899 33.3129C68.4112 34.0964 69.2565 34.375 70.1188 34.375V32.375C69.6685 32.375 69.5919 32.2474 69.5729 32.2184L67.899 33.3129ZM70.1188 34.375C71.0874 34.375 71.9148 33.9651 72.4271 33.1199L70.7167 32.0833C70.6039 32.2693 70.4626 32.375 70.1188 32.375V34.375ZM72.4155 33.1384C72.8929 32.3883 73.0641 31.3978 73.0641 30.3047H71.0641C71.0641 31.2429 70.9071 31.7836 70.7282 32.0647L72.4155 33.1384ZM73.0641 30.3047C73.0641 29.1492 72.9859 28.1509 72.8145 27.329C72.6465 26.5234 72.3695 25.7901 71.8983 25.2586L70.4017 26.5852C70.5399 26.7412 70.7199 27.082 70.8566 27.7374C70.9899 28.3764 71.0641 29.2258 71.0641 30.3047H73.0641ZM71.8899 25.2492C71.1643 24.451 69.5119 23.235 67.0814 21.6404L65.9843 23.3127C68.4599 24.9368 69.8857 26.0178 70.4101 26.5945L71.8899 25.2492ZM67.0851 21.6429C64.6257 20.0137 63.0653 18.8747 62.3355 18.2021L60.9801 19.6729C61.844 20.469 63.5337 21.6894 65.9806 23.3102L67.0851 21.6429ZM62.3355 18.2021C61.673 17.5916 61.0824 16.7112 60.591 15.5116L58.7403 16.2697C59.3113 17.6638 60.0489 18.8147 60.9801 19.6729L62.3355 18.2021ZM60.5949 15.5212C60.1419 14.3818 59.8922 12.8625 59.8922 10.9219H57.8922C57.8922 13.0125 58.1581 14.8057 58.7364 16.2601L60.5949 15.5212ZM59.8922 10.9219C59.8922 8.05786 60.2613 6.14259 60.8713 5.02644L59.1162 4.06731C58.2575 5.63866 57.8922 7.97339 57.8922 10.9219H59.8922ZM60.867 5.03424C61.4947 3.90953 62.5178 2.99546 64.0156 2.3172L63.1906 0.495296C61.3759 1.31704 59.9928 2.49672 59.1206 4.05951L60.867 5.03424ZM64.0227 2.31396C65.5156 1.62384 67.3646 1.25781 69.6031 1.25781V-0.742188C67.1542 -0.742188 65.0031 -0.342592 63.1835 0.498541L64.0227 2.31396ZM69.6031 1.25781C72.0621 1.25781 74.0907 1.65563 75.7236 2.40819L76.5607 0.59181C74.5999 -0.311878 72.2692 -0.742188 69.6031 -0.742188V1.25781ZM75.7266 2.40956C77.4135 3.18031 78.3759 4.08719 78.8185 5.05612L80.6377 4.22513C79.9241 2.66281 78.4958 1.47594 76.5578 0.590441L75.7266 2.40956ZM78.8249 5.06968C79.3151 6.10179 79.6188 8.0369 79.6188 11.0391H81.6188C81.6188 8.00998 81.3287 5.67946 80.6314 4.21157L78.8249 5.06968ZM79.6188 11.0391V12.5391H81.6188V11.0391H79.6188ZM112.78 1.05469L113.738 1.33957L114.12 0.0546875H112.78V1.05469ZM105.584 25.2656L104.626 24.9807L104.584 25.1202V25.2656H105.584ZM105.584 39V40H106.584V39H105.584ZM96.4437 39H95.4437V40H96.4437V39ZM96.4437 25.2656H97.4437V25.1252L97.4051 24.9902L96.4437 25.2656ZM89.5062 1.05469V0.0546875H88.1795L88.5449 1.33015L89.5062 1.05469ZM98.5766 1.05469L99.5586 0.865763L99.4025 0.0546875H98.5766V1.05469ZM100.967 15.9844L99.9694 16.0513L101.958 16.1183L100.967 15.9844ZM103.709 1.05469V0.0546875H102.903L102.732 0.842688L103.709 1.05469ZM111.821 0.76981L104.626 24.9807L106.543 25.5505L113.738 1.33957L111.821 0.76981ZM104.584 25.2656V39H106.584V25.2656H104.584ZM105.584 38H96.4437V40H105.584V38ZM97.4437 39V25.2656H95.4437V39H97.4437ZM97.4051 24.9902L90.4676 0.779228L88.5449 1.33015L95.4824 25.5411L97.4051 24.9902ZM89.5062 2.05469H98.5766V0.0546875H89.5062V2.05469ZM97.5946 1.24361C99.0182 8.64336 99.8023 13.5602 99.9694 16.0513L101.965 15.9175C101.788 13.2836 100.979 8.24726 99.5586 0.865763L97.5946 1.24361ZM101.958 16.1183C102.5 12.1068 103.409 7.15808 104.687 1.26669L102.732 0.842688C101.448 6.76379 100.528 11.7682 99.9762 15.8505L101.958 16.1183ZM103.709 2.05469H112.78V0.0546875H103.709V2.05469ZM137.375 1.05469V0.0546875H136.375V1.05469H137.375ZM154.086 1.05469H155.086V0.0546875H154.086V1.05469ZM154.086 8.64844V9.64844H155.086V8.64844H154.086ZM147.242 8.64844V7.64844H146.242V8.64844H147.242ZM147.242 15.8438H146.242V16.8438H147.242V15.8438ZM153.336 15.8438H154.336V14.8438H153.336V15.8438ZM153.336 23.0625V24.0625H154.336V23.0625H153.336ZM147.242 23.0625V22.0625H146.242V23.0625H147.242ZM147.242 39V40H148.242V39H147.242ZM137.375 39H136.375V40H137.375V39ZM137.375 2.05469H154.086V0.0546875H137.375V2.05469ZM153.086 1.05469V8.64844H155.086V1.05469H153.086ZM154.086 7.64844H147.242V9.64844H154.086V7.64844ZM146.242 8.64844V15.8438H148.242V8.64844H146.242ZM147.242 16.8438H153.336V14.8438H147.242V16.8438ZM152.336 15.8438V23.0625H154.336V15.8438H152.336ZM153.336 22.0625H147.242V24.0625H153.336V22.0625ZM146.242 23.0625V39H148.242V23.0625H146.242ZM147.242 38H137.375V40H147.242V38ZM138.375 39V1.05469H136.375V39H138.375ZM185.966 31.3828L184.972 31.266L184.971 31.2745L185.966 31.3828ZM184.278 35.7188L183.469 35.1311L183.464 35.1375L184.278 35.7188ZM169.348 38.8125L168.963 39.7354L168.974 39.7397L169.348 38.8125ZM163.677 8.69531L162.683 8.57847L162.682 8.58704L163.677 8.69531ZM165.364 4.33594L164.555 3.74832L164.55 3.7547L165.364 4.33594ZM180.294 1.26562L179.908 2.1885L179.919 2.19287L180.294 1.26562ZM176.075 7.42969L175.139 7.78081L175.145 7.79875L175.153 7.81641L176.075 7.42969ZM173.684 7.28906L172.862 6.71983L172.857 6.72675L173.684 7.28906ZM173.544 32.6016L172.595 32.9178L172.599 32.9306L172.604 32.9433L173.544 32.6016ZM185.247 23.2734C185.247 27.0853 185.152 29.7362 184.972 31.266L186.959 31.4997C187.154 29.8419 187.247 27.0866 187.247 23.2734H185.247ZM184.971 31.2745C184.819 32.6756 184.322 33.9564 183.469 35.1312L185.087 36.3063C186.14 34.8561 186.769 33.2463 186.96 31.4911L184.971 31.2745ZM183.464 35.1375C182.641 36.2901 181.516 37.1884 180.057 37.8258L180.858 39.6586C182.618 38.8897 184.04 37.7724 185.092 36.3L183.464 35.1375ZM180.057 37.8258C178.599 38.4631 176.865 38.7969 174.833 38.7969V40.7969C177.082 40.7969 179.098 40.4275 180.858 39.6586L180.057 37.8258ZM174.833 38.7969C172.91 38.7969 171.212 38.4864 169.723 37.8853L168.974 39.7397C170.735 40.4511 172.693 40.7969 174.833 40.7969V38.7969ZM169.734 37.8897C168.281 37.2833 167.132 36.3923 166.261 35.217L164.654 36.408C165.752 37.889 167.197 38.998 168.963 39.7353L169.734 37.8897ZM166.261 35.217C165.375 34.0212 164.859 32.7385 164.693 31.3574L162.707 31.5957C162.916 33.3396 163.572 34.9475 164.654 36.408L166.261 35.217ZM164.693 31.3574C164.513 29.861 164.419 27.1811 164.419 23.2734H162.419C162.419 27.1783 162.512 29.9671 162.707 31.5957L164.693 31.3574ZM164.419 23.2734V16.7812H162.419V23.2734H164.419ZM164.419 16.7812C164.419 12.9689 164.505 10.3222 164.671 8.80358L162.682 8.58704C162.504 10.2247 162.419 12.9686 162.419 16.7812H164.419ZM164.67 8.81215C164.837 7.38675 165.338 6.09321 166.178 4.91718L164.55 3.7547C163.515 5.20366 162.891 6.81638 162.683 8.57847L164.67 8.81215ZM166.173 4.92354C167.013 3.76688 168.148 2.86682 169.608 2.22886L168.807 0.396139C167.049 1.16443 165.621 2.27999 164.555 3.74834L166.173 4.92354ZM169.608 2.22886C171.067 1.59158 172.801 1.25781 174.833 1.25781V-0.742188C172.584 -0.742188 170.568 -0.372829 168.807 0.396139L169.608 2.22886ZM174.833 1.25781C176.753 1.25781 178.44 1.5752 179.908 2.18844L180.679 0.342813C178.929 -0.387695 176.975 -0.742188 174.833 -0.742188V1.25781ZM179.919 2.19287C181.384 2.78446 182.536 3.66652 183.404 4.83764L185.011 3.64673C183.91 2.16161 182.453 1.05929 180.668 0.338383L179.919 2.19287ZM183.404 4.83764C184.291 6.03348 184.807 7.31614 184.973 8.69727L186.958 8.45898C186.749 6.71511 186.094 5.10714 185.011 3.64673L183.404 4.83764ZM184.973 8.69727C185.152 10.1937 185.247 12.8736 185.247 16.7812H187.247C187.247 12.8764 187.154 10.0876 186.958 8.45898L184.973 8.69727ZM185.247 16.7812V23.2734H187.247V16.7812H185.247ZM177.38 10.8047C177.38 9.90652 177.354 9.15091 177.299 8.54681C177.248 7.97182 177.162 7.43711 176.997 7.04296L175.153 7.81641C175.191 7.90664 175.258 8.17662 175.308 8.72663C175.355 9.24753 175.38 9.93723 175.38 10.8047H177.38ZM177.011 7.07856C176.852 6.65245 176.577 6.27711 176.167 6.02012C175.768 5.76965 175.318 5.67969 174.88 5.67969V7.67969C174.965 7.67969 175.021 7.68847 175.056 7.69715C175.09 7.70551 175.103 7.71359 175.104 7.71425C175.104 7.71435 175.104 7.71381 175.107 7.71721C175.11 7.72172 175.123 7.73954 175.139 7.78081L177.011 7.07856ZM174.88 5.67969C174.053 5.67969 173.34 6.03013 172.862 6.71985L174.507 7.85827C174.592 7.73549 174.675 7.67969 174.88 7.67969V5.67969ZM172.857 6.72675C172.695 6.965 172.602 7.24148 172.541 7.48142C172.476 7.73605 172.428 8.02872 172.392 8.34833C172.319 8.98788 172.286 9.81143 172.286 10.8047H174.286C174.286 9.84482 174.319 9.10587 174.379 8.57355C174.409 8.30721 174.444 8.1116 174.479 7.97561C174.517 7.82493 174.54 7.80844 174.511 7.85137L172.857 6.72675ZM172.286 10.8047V28.5234H174.286V10.8047H172.286ZM172.286 28.5234C172.286 29.6349 172.308 30.549 172.352 31.2584C172.395 31.9333 172.463 32.5222 172.595 32.9178L174.492 32.2853C174.452 32.1653 174.392 31.8167 174.348 31.1322C174.307 30.4823 174.286 29.6151 174.286 28.5234H172.286ZM172.604 32.9433C172.766 33.3893 173.054 33.7748 173.479 34.0349C173.891 34.2863 174.356 34.375 174.809 34.375V32.375C174.607 32.375 174.533 32.3348 174.522 32.3284C174.518 32.3255 174.516 32.3242 174.514 32.3211C174.511 32.3169 174.498 32.3001 174.484 32.2598L172.604 32.9433ZM174.809 34.375C175.29 34.375 175.78 34.268 176.204 33.9751C176.635 33.6774 176.905 33.2521 177.052 32.7855L175.145 32.1832C175.124 32.2501 175.103 32.2867 175.09 32.3044C175.079 32.3206 175.072 32.3264 175.067 32.3296C175.061 32.3336 175 32.375 174.809 32.375V34.375ZM177.052 32.7855C177.185 32.364 177.26 31.7565 177.307 31.0447C177.356 30.3069 177.38 29.3705 177.38 28.2422H175.38C175.38 29.3483 175.356 30.2361 175.312 30.9124C175.265 31.6146 175.199 32.011 175.145 32.1832L177.052 32.7855ZM177.38 28.2422V10.8047H175.38V28.2422H177.38ZM197.15 1.05469V0.0546875H196.15V1.05469H197.15ZM213.58 1.59375L213.366 2.57059L213.368 2.57101L213.58 1.59375ZM217.611 4.35938L216.79 4.92997L216.797 4.93979L217.611 4.35938ZM213.744 19.1953L213.65 18.1997L213.503 20.1659L213.744 19.1953ZM218.923 23.3906L217.948 23.6122L217.951 23.6254L217.955 23.6385L218.923 23.3906ZM219.181 39V40H220.181V39H219.181ZM210.017 39H209.017V40H210.017V39ZM209.525 22.6172L208.685 23.1593L208.691 23.1687L208.697 23.178L209.525 22.6172ZM207.017 21.8906V20.8906H206.017V21.8906H207.017ZM207.017 39V40H208.017V39H207.017ZM197.15 39H196.15V40H197.15V39ZM207.017 7.54688V6.54688H206.017V7.54688H207.017ZM207.017 15.9844H206.017V16.9844H207.017V15.9844ZM209.337 15.5391L209.899 16.3666L209.905 16.3623L209.337 15.5391ZM209.361 8.10938L208.697 8.85678L208.703 8.86277L208.71 8.86863L209.361 8.10938ZM197.15 2.05469H204.134V0.0546875H197.15V2.05469ZM204.134 2.05469C208.803 2.05469 211.846 2.23776 213.366 2.57059L213.794 0.616911C212.032 0.230988 208.778 0.0546875 204.134 0.0546875V2.05469ZM213.368 2.57101C214.759 2.87296 215.892 3.63816 216.79 4.92993L218.432 3.78882C217.267 2.11184 215.713 1.03329 213.792 0.616491L213.368 2.57101ZM216.797 4.93979C217.66 6.15058 218.181 8.24316 218.181 11.4141H220.181C220.181 8.11621 219.656 5.50567 218.425 3.77896L216.797 4.93979ZM218.181 11.4141C218.181 12.8549 218.091 14.0236 217.923 14.9352C217.751 15.8605 217.512 16.445 217.269 16.7812L218.89 17.9531C219.381 17.2737 219.693 16.3582 219.889 15.2991C220.088 14.2264 220.181 12.9264 220.181 11.4141H218.181ZM217.269 16.7812C216.793 17.4401 215.718 18.0049 213.65 18.1997L213.838 20.1909C216.082 19.9794 217.898 19.3256 218.89 17.9531L217.269 16.7812ZM213.503 20.1659C215.41 20.6388 216.452 21.2239 216.911 21.7779L218.452 20.5034C217.566 19.4323 215.984 18.7206 213.984 18.2247L213.503 20.1659ZM216.911 21.7779C217.528 22.5246 217.84 23.1342 217.948 23.6122L219.899 23.169C219.695 22.272 219.178 21.3817 218.452 20.5034L216.911 21.7779ZM217.955 23.6385C218.012 23.8613 218.074 24.3981 218.118 25.3409C218.16 26.2527 218.181 27.4679 218.181 28.9922H220.181C220.181 27.4539 220.16 26.2044 220.116 25.2489C220.073 24.3246 220.007 23.5919 219.892 23.1428L217.955 23.6385ZM218.181 28.9922V39H220.181V28.9922H218.181ZM219.181 38H210.017V40H219.181V38ZM211.017 39V26.3906H209.017V39H211.017ZM211.017 26.3906C211.017 25.3541 210.976 24.4839 210.886 23.7945C210.802 23.1511 210.659 22.5083 210.353 22.0563L208.697 23.178C208.696 23.176 208.731 23.2326 208.778 23.3974C208.822 23.554 208.866 23.7694 208.903 24.0532C208.977 24.6216 209.017 25.3959 209.017 26.3906H211.017ZM210.365 22.0751C210.026 21.5488 209.477 21.2669 208.942 21.1118C208.398 20.9541 207.745 20.8906 207.017 20.8906V22.8906C207.649 22.8906 208.094 22.9483 208.385 23.0328C208.686 23.1198 208.712 23.2012 208.685 23.1593L210.365 22.0751ZM206.017 21.8906V39H208.017V21.8906H206.017ZM207.017 38H197.15V40H207.017V38ZM198.15 39V1.05469H196.15V39H198.15ZM206.017 7.54688V15.9844H208.017V7.54688H206.017ZM207.017 16.9844C208.149 16.9844 209.193 16.8456 209.899 16.3665L208.776 14.7116C208.607 14.8262 208.104 14.9844 207.017 14.9844V16.9844ZM209.905 16.3623C210.454 15.9842 210.695 15.3387 210.822 14.7832C210.959 14.1825 211.017 13.4321 211.017 12.5625H209.017C209.017 13.3648 208.962 13.9464 208.872 14.3379C208.773 14.7745 208.675 14.7815 208.77 14.7159L209.905 16.3623ZM211.017 12.5625V10.4766H209.017V12.5625H211.017ZM211.017 10.4766C211.017 9.82281 210.959 9.22714 210.817 8.71527C210.676 8.20654 210.432 7.71077 210.012 7.35012L208.71 8.86863C208.727 8.88298 208.812 8.96924 208.889 9.24957C208.966 9.52677 209.017 9.92719 209.017 10.4766H211.017ZM210.025 7.36197C209.307 6.72381 208.19 6.54688 207.017 6.54688V8.54688C208.125 8.54688 208.571 8.74494 208.697 8.85678L210.025 7.36197ZM268.339 1.05469H269.339V0.0546875H268.339V1.05469ZM268.058 32.4844L269.045 32.6444L269.045 32.6424L268.058 32.4844ZM266.394 36.0703L267.191 36.6736L267.195 36.6687L266.394 36.0703ZM262.737 38.8594L263.122 39.7825L263.127 39.7805L262.737 38.8594ZM246.003 31.9453L245.01 32.0608L245.01 32.0622L246.003 31.9453ZM245.769 1.05469V0.0546875H244.769V1.05469H245.769ZM255.636 1.05469H256.636V0.0546875H255.636V1.05469ZM255.894 32.6953L254.955 33.0396L254.962 33.0588L254.97 33.0777L255.894 32.6953ZM258.191 32.625L257.251 32.2833L257.248 32.2916L257.245 32.2999L258.191 32.625ZM258.472 1.05469V0.0546875H257.472V1.05469H258.472ZM267.339 1.05469V26.4141H269.339V1.05469H267.339ZM267.339 26.4141C267.339 29.2895 267.244 31.2413 267.07 32.3264L269.045 32.6424C269.247 31.3837 269.339 29.2886 269.339 26.4141H267.339ZM267.071 32.3243C266.916 33.2795 266.447 34.3274 265.593 35.4719L267.195 36.6687C268.184 35.3445 268.825 34.0018 269.045 32.6444L267.071 32.3243ZM265.596 35.467C264.788 36.5352 263.715 37.3605 262.348 37.9383L263.127 39.7805C264.791 39.077 266.155 38.0429 267.191 36.6736L265.596 35.467ZM262.353 37.9363C261.002 38.4992 259.365 38.7969 257.417 38.7969V40.7969C259.563 40.7969 261.473 40.4696 263.122 39.7825L262.353 37.9363ZM257.417 38.7969C255.261 38.7969 253.401 38.4402 251.814 37.754L251.02 39.5897C252.902 40.4036 255.042 40.7969 257.417 40.7969V38.7969ZM251.814 37.754C250.201 37.0565 249.068 36.1802 248.34 35.1609L246.713 36.3234C247.704 37.7104 249.165 38.7873 251.02 39.5897L251.814 37.754ZM248.34 35.1609C247.568 34.0802 247.131 32.972 246.996 31.8285L245.01 32.0622C245.188 33.5749 245.766 34.9979 246.713 36.3234L248.34 35.1609ZM246.996 31.8298C246.848 30.554 246.769 27.8011 246.769 23.5078H244.769C244.769 27.777 244.846 30.6492 245.01 32.0608L246.996 31.8298ZM246.769 23.5078V1.05469H244.769V23.5078H246.769ZM245.769 2.05469H255.636V0.0546875H245.769V2.05469ZM254.636 1.05469V29.5078H256.636V1.05469H254.636ZM254.636 29.5078C254.636 30.3499 254.658 31.059 254.704 31.6275C254.748 32.1708 254.819 32.6694 254.955 33.0396L256.833 32.3511C256.797 32.2525 256.739 31.9854 256.697 31.4663C256.657 30.9722 256.636 30.322 256.636 29.5078H254.636ZM254.97 33.0777C255.132 33.4709 255.398 33.8177 255.785 34.0561C256.163 34.2897 256.586 34.375 256.995 34.375V32.375C256.858 32.375 256.824 32.347 256.835 32.354C256.84 32.3569 256.843 32.3605 256.843 32.3604C256.842 32.3593 256.832 32.3466 256.818 32.313L254.97 33.0777ZM256.995 34.375C257.436 34.375 257.892 34.2873 258.294 34.0346C258.711 33.773 258.986 33.3879 259.136 32.9501L257.245 32.2999C257.239 32.3184 257.233 32.3305 257.229 32.3378C257.227 32.3414 257.226 32.344 257.225 32.3455C257.224 32.347 257.223 32.3478 257.223 32.3478C257.223 32.3479 257.224 32.3475 257.224 32.3467C257.225 32.3459 257.226 32.345 257.227 32.344C257.229 32.3419 257.231 32.3406 257.231 32.3404C257.236 32.3377 257.18 32.375 256.995 32.375V34.375ZM259.13 32.9667C259.274 32.5714 259.351 32.0241 259.399 31.4136C259.448 30.7761 259.472 29.9741 259.472 29.0156H257.472C257.472 29.9477 257.449 30.6927 257.405 31.2583C257.358 31.8509 257.295 32.1629 257.251 32.2833L259.13 32.9667ZM259.472 29.0156V1.05469H257.472V29.0156H259.472ZM258.472 2.05469H268.339V0.0546875H258.472V2.05469ZM300.266 12.5391V13.5391H301.266V12.5391H300.266ZM291.102 12.5391H290.102V13.5391H291.102V12.5391ZM288.219 7.40625L287.378 6.86412L287.372 6.87383L287.366 6.88369L288.219 7.40625ZM288.289 12.4688L289.179 12.0129L289.175 12.0044L289.17 11.9959L288.289 12.4688ZM291.078 14.7891L291.589 13.9294L291.587 13.9285L291.078 14.7891ZM300.125 35.2734L299.231 34.8262L299.226 34.835L300.125 35.2734ZM296.469 38.5078L296.897 39.4114L296.904 39.4084L296.469 38.5078ZM283.367 38.2969L282.894 39.1776L282.897 39.1792L283.367 38.2969ZM278.844 25.4062V24.4062H277.844V25.4062H278.844ZM288.008 25.4062H289.008V24.4062H288.008V25.4062ZM288.383 32.7656L287.531 33.2897L287.538 33.3014L287.546 33.3129L288.383 32.7656ZM291.219 32.6016L290.375 32.0647L290.369 32.0739L290.364 32.0833L291.219 32.6016ZM290.797 25.9219L291.545 25.2585L291.537 25.2492L290.797 25.9219ZM286.18 22.4766L285.627 23.3103L285.631 23.3127L286.18 22.4766ZM279.312 15.8906L278.383 16.2601L278.387 16.2697L279.312 15.8906ZM279.641 4.54688L278.767 4.05949L278.763 4.06731L279.641 4.54688ZM283.25 1.40625L283.663 2.31723L283.67 2.31396L283.25 1.40625ZM295.789 1.5L295.371 2.4082L295.373 2.40956L295.789 1.5ZM299.375 4.64062L298.465 5.05612L298.469 5.06292L298.472 5.06968L299.375 4.64062ZM300.266 11.5391H291.102V13.5391H300.266V11.5391ZM292.102 12.5391V9.72656H290.102V12.5391H292.102ZM292.102 9.72656C292.102 9.04631 292.072 8.45824 292.004 7.9764C291.941 7.52707 291.83 7.04456 291.588 6.67248L289.912 7.76502C289.904 7.75232 289.969 7.86746 290.023 8.25406C290.073 8.60816 290.102 9.09431 290.102 9.72656H292.102ZM291.588 6.67248C291.118 5.95216 290.358 5.67969 289.578 5.67969V7.67969C289.745 7.67969 289.83 7.70744 289.863 7.72294C289.888 7.7342 289.898 7.74357 289.912 7.76502L291.588 6.67248ZM289.578 5.67969C288.657 5.67969 287.882 6.0841 287.378 6.86412L289.059 7.94838C289.181 7.75965 289.312 7.67969 289.578 7.67969V5.67969ZM287.366 6.88369C286.926 7.60247 286.773 8.55902 286.773 9.60938H288.773C288.773 8.69098 288.918 8.17878 289.071 7.92881L287.366 6.88369ZM286.773 9.60938C286.773 10.9342 286.948 12.0845 287.408 12.9416L289.17 11.9959C288.943 11.5717 288.773 10.8158 288.773 9.60938H286.773ZM287.399 12.9246C287.653 13.4199 288.085 13.8759 288.593 14.298C289.113 14.7306 289.777 15.1808 290.569 15.6496L291.587 13.9285C290.848 13.4911 290.282 13.1014 289.872 12.7605C289.45 12.4093 289.254 12.1582 289.179 12.0129L287.399 12.9246ZM290.567 15.6487C292.742 16.9411 294.494 18.1055 295.833 19.1424C297.184 20.188 298.065 21.0658 298.549 21.7745L300.201 20.6474C299.544 19.6842 298.472 18.6557 297.057 17.5608C295.631 16.457 293.805 15.2464 291.589 13.9294L290.567 15.6487ZM298.549 21.7745C299.515 23.1911 300.086 25.634 300.086 29.2969H302.086C302.086 25.5223 301.516 22.5745 300.201 20.6474L298.549 21.7745ZM300.086 29.2969C300.086 31.9591 299.764 33.7589 299.231 34.8262L301.019 35.7206C301.767 34.2255 302.086 32.0409 302.086 29.2969H300.086ZM299.226 34.835C298.733 35.846 297.726 36.7905 296.034 37.6073L296.904 39.4084C298.837 38.4751 300.267 37.2634 301.024 35.7119L299.226 34.835ZM296.04 37.6042C294.386 38.3887 292.428 38.7969 290.141 38.7969V40.7969C292.666 40.7969 294.927 40.3457 296.897 39.4114L296.04 37.6042ZM290.141 38.7969C287.625 38.7969 285.537 38.3207 283.838 37.4145L282.897 39.1792C284.947 40.273 287.375 40.7969 290.141 40.7969V38.7969ZM283.841 37.4162C282.134 36.4982 281.119 35.3886 280.648 34.1265L278.774 34.8266C279.459 36.6582 280.882 38.0956 282.894 39.1776L283.841 37.4162ZM280.648 34.1265C280.131 32.7443 279.844 30.6883 279.844 27.8906H277.844C277.844 30.7804 278.135 33.1151 278.774 34.8266L280.648 34.1265ZM279.844 27.8906V25.4062H277.844V27.8906H279.844ZM278.844 26.4062H288.008V24.4062H278.844V26.4062ZM287.008 25.4062V30.0234H289.008V25.4062H287.008ZM287.008 30.0234C287.008 30.7583 287.04 31.3918 287.111 31.9109C287.178 32.4009 287.293 32.9028 287.531 33.2897L289.234 32.2415C289.236 32.2441 289.212 32.2044 289.181 32.0925C289.15 31.985 289.119 31.8366 289.092 31.6399C289.038 31.2449 289.008 30.7105 289.008 30.0234H287.008ZM287.546 33.3129C288.058 34.0964 288.903 34.375 289.766 34.375V32.375C289.315 32.375 289.239 32.2474 289.22 32.2184L287.546 33.3129ZM289.766 34.375C290.734 34.375 291.562 33.9651 292.074 33.1199L290.364 32.0833C290.251 32.2693 290.109 32.375 289.766 32.375V34.375ZM292.062 33.1384C292.54 32.3883 292.711 31.3978 292.711 30.3047H290.711C290.711 31.2429 290.554 31.7836 290.375 32.0647L292.062 33.1384ZM292.711 30.3047C292.711 29.1492 292.633 28.1509 292.461 27.329C292.293 26.5234 292.016 25.7901 291.545 25.2586L290.049 26.5852C290.187 26.7412 290.367 27.082 290.503 27.7374C290.637 28.3764 290.711 29.2258 290.711 30.3047H292.711ZM291.537 25.2492C290.811 24.451 289.159 23.235 286.728 21.6404L285.631 23.3127C288.107 24.9368 289.533 26.0178 290.057 26.5945L291.537 25.2492ZM286.732 21.6429C284.273 20.0137 282.712 18.8747 281.982 18.2021L280.627 19.6729C281.491 20.469 283.181 21.6894 285.627 23.3102L286.732 21.6429ZM281.982 18.2021C281.32 17.5916 280.729 16.7112 280.238 15.5116L278.387 16.2697C278.958 17.6638 279.696 18.8147 280.627 19.6729L281.982 18.2021ZM280.242 15.5212C279.789 14.3818 279.539 12.8625 279.539 10.9219H277.539C277.539 13.0125 277.805 14.8057 278.383 16.2601L280.242 15.5212ZM279.539 10.9219C279.539 8.05786 279.908 6.14259 280.518 5.02644L278.763 4.06731C277.904 5.63866 277.539 7.97339 277.539 10.9219H279.539ZM280.514 5.03424C281.142 3.90953 282.165 2.99546 283.663 2.3172L282.837 0.495296C281.023 1.31704 279.64 2.49672 278.767 4.05951L280.514 5.03424ZM283.67 2.31396C285.163 1.62384 287.011 1.25781 289.25 1.25781V-0.742188C286.801 -0.742188 284.65 -0.342592 282.83 0.498541L283.67 2.31396ZM289.25 1.25781C291.709 1.25781 293.738 1.65563 295.371 2.40819L296.208 0.59181C294.247 -0.311878 291.916 -0.742188 289.25 -0.742188V1.25781ZM295.373 2.40956C297.06 3.18031 298.023 4.08719 298.465 5.05612L300.285 4.22513C299.571 2.66281 298.143 1.47594 296.205 0.590441L295.373 2.40956ZM298.472 5.06968C298.962 6.10179 299.266 8.0369 299.266 11.0391H301.266C301.266 8.00998 300.976 5.67946 300.278 4.21157L298.472 5.06968ZM299.266 11.0391V12.5391H301.266V11.0391H299.266Z" fill="white"/>
</svg>
