<svg width="304" height="120" viewBox="0 0 304 120" fill="none" xmlns="http://www.w3.org/2000/svg">
<path d="M1.96875 20.0547V19.0547H0.96875V20.0547H1.96875ZM18.4219 20.0547H19.4219V19.0547H18.4219V20.0547ZM18.4219 27.6484V28.6484H19.4219V27.6484H18.4219ZM11.8359 27.6484V26.6484H10.8359V27.6484H11.8359ZM11.8359 34.8438H10.8359V35.8438H11.8359V34.8438ZM18 34.8438H19V33.8438H18V34.8438ZM18 42.0625V43.0625H19V42.0625H18ZM11.8359 42.0625V41.0625H10.8359V42.0625H11.8359ZM11.8359 50.4062H10.8359V51.4062H11.8359V50.4062ZM19.0781 50.4062H20.0781V49.4062H19.0781V50.4062ZM19.0781 58V59H20.0781V58H19.0781ZM1.96875 58H0.96875V59H1.96875V58ZM1.96875 21.0547H18.4219V19.0547H1.96875V21.0547ZM17.4219 20.0547V27.6484H19.4219V20.0547H17.4219ZM18.4219 26.6484H11.8359V28.6484H18.4219V26.6484ZM10.8359 27.6484V34.8438H12.8359V27.6484H10.8359ZM11.8359 35.8438H18V33.8438H11.8359V35.8438ZM17 34.8438V42.0625H19V34.8438H17ZM18 41.0625H11.8359V43.0625H18V41.0625ZM10.8359 42.0625V50.4062H12.8359V42.0625H10.8359ZM11.8359 51.4062H19.0781V49.4062H11.8359V51.4062ZM18.0781 50.4062V58H20.0781V50.4062H18.0781ZM19.0781 57H1.96875V59H19.0781V57ZM2.96875 58V20.0547H0.96875V58H2.96875ZM46.1766 20.0547L47.1657 19.9075L47.0387 19.0547H46.1766V20.0547ZM51.825 58V59H52.9849L52.8141 57.8528L51.825 58ZM41.7234 58L40.726 58.072L40.793 59H41.7234V58ZM41.2313 51.1797L42.2287 51.1077L42.1617 50.1797H41.2313V51.1797ZM37.6922 51.1797V50.1797H36.7744L36.6959 51.0941L37.6922 51.1797ZM37.1063 58V59H38.024L38.1026 58.0856L37.1063 58ZM26.8875 58L25.8961 57.869L25.7466 59H26.8875V58ZM31.9031 20.0547V19.0547H31.0266L30.9117 19.9236L31.9031 20.0547ZM40.95 44.4531V45.4531H42.0731L41.9433 44.3375L40.95 44.4531ZM39.45 28.5391L40.4469 28.4601L38.4594 28.4024L39.45 28.5391ZM37.575 44.4531L36.5778 44.3789L36.4978 45.4531H37.575V44.4531ZM45.1875 20.2019L50.8359 58.1472L52.8141 57.8528L47.1657 19.9075L45.1875 20.2019ZM51.825 57H41.7234V59H51.825V57ZM42.7208 57.928L42.2287 51.1077L40.2338 51.2517L40.726 58.072L42.7208 57.928ZM41.2313 50.1797H37.6922V52.1797H41.2313V50.1797ZM36.6959 51.0941L36.1099 57.9144L38.1026 58.0856L38.6885 51.2653L36.6959 51.0941ZM37.1063 57H26.8875V59H37.1063V57ZM27.8789 58.131L32.8945 20.1857L30.9117 19.9236L25.8961 57.869L27.8789 58.131ZM31.9031 21.0547H46.1766V19.0547H31.9031V21.0547ZM41.9433 44.3375C41.4452 40.057 40.9463 34.7654 40.4469 28.4601L38.4531 28.618C38.9537 34.9377 39.4548 40.2555 39.9567 44.5687L41.9433 44.3375ZM38.4594 28.4024C37.459 35.655 36.8302 40.9861 36.5778 44.3789L38.5722 44.5273C38.8198 41.2014 39.441 35.9231 40.4406 28.6757L38.4594 28.4024ZM37.575 45.4531H40.95V43.4531H37.575V45.4531ZM81.6188 31.5391V32.5391H82.6188V31.5391H81.6188ZM72.4547 31.5391H71.4547V32.5391H72.4547V31.5391ZM69.5719 26.4062L68.7316 25.8641L68.7253 25.8738L68.7193 25.8837L69.5719 26.4062ZM69.6422 31.4688L70.5322 31.0129L70.5279 31.0044L70.5233 30.9959L69.6422 31.4688ZM72.4313 33.7891L72.9421 32.9294L72.9406 32.9285L72.4313 33.7891ZM81.4781 54.2734L80.5837 53.8262L80.5794 53.835L81.4781 54.2734ZM77.8219 57.5078L78.2503 58.4114L78.2566 58.4084L77.8219 57.5078ZM64.7203 57.2969L64.2467 58.1776L64.2497 58.1792L64.7203 57.2969ZM60.1969 44.4062V43.4062H59.1969V44.4062H60.1969ZM69.3609 44.4062H70.3609V43.4062H69.3609V44.4062ZM69.7359 51.7656L68.8843 52.2897L68.8915 52.3014L68.899 52.3129L69.7359 51.7656ZM72.5719 51.6016L71.7282 51.0647L71.7223 51.0739L71.7167 51.0833L72.5719 51.6016ZM72.15 44.9219L72.8984 44.2585L72.8899 44.2492L72.15 44.9219ZM67.5328 41.4766L66.9806 42.3103L66.9843 42.3127L67.5328 41.4766ZM60.6656 34.8906L59.7363 35.2601L59.7403 35.2697L60.6656 34.8906ZM60.9938 23.5469L60.1205 23.0595L60.1162 23.0673L60.9938 23.5469ZM64.6031 20.4062L65.0156 21.3172L65.0227 21.314L64.6031 20.4062ZM77.1422 20.5L76.7236 21.4082L76.7266 21.4096L77.1422 20.5ZM80.7281 23.6406L79.8185 24.0561L79.8216 24.0629L79.8249 24.0697L80.7281 23.6406ZM81.6188 30.5391H72.4547V32.5391H81.6188V30.5391ZM73.4547 31.5391V28.7266H71.4547V31.5391H73.4547ZM73.4547 28.7266C73.4547 28.0463 73.4247 27.4582 73.3571 26.9764C73.2941 26.5271 73.1834 26.0446 72.9407 25.6725L71.2655 26.765C71.2572 26.7523 71.3223 26.8675 71.3765 27.2541C71.4261 27.6082 71.4547 28.0943 71.4547 28.7266H73.4547ZM72.9407 25.6725C72.471 24.9522 71.7111 24.6797 70.9313 24.6797V26.6797C71.0983 26.6797 71.1828 26.7074 71.2165 26.7229C71.2409 26.7342 71.2515 26.7436 71.2655 26.765L72.9407 25.6725ZM70.9313 24.6797C70.0101 24.6797 69.2348 25.0841 68.7316 25.8641L70.4122 26.9484C70.5339 26.7597 70.6649 26.6797 70.9313 26.6797V24.6797ZM68.7193 25.8837C68.2787 26.6025 68.1266 27.559 68.1266 28.6094H70.1266C70.1266 27.691 70.2713 27.1788 70.4245 26.9288L68.7193 25.8837ZM68.1266 28.6094C68.1266 29.9342 68.3012 31.0845 68.761 31.9416L70.5233 30.9959C70.2957 30.5717 70.1266 29.8158 70.1266 28.6094H68.1266ZM68.7521 31.9246C69.0058 32.4199 69.4385 32.8759 69.946 33.298C70.4659 33.7306 71.1297 34.1808 71.9219 34.6496L72.9406 32.9285C72.2015 32.4911 71.6349 32.1014 71.2251 31.7605C70.8029 31.4093 70.6067 31.1582 70.5322 31.0129L68.7521 31.9246ZM71.9204 34.6487C74.095 35.9411 75.8468 37.1055 77.1864 38.1424C78.5374 39.188 79.4185 40.0658 79.9021 40.7745L81.5542 39.6474C80.8971 38.6842 79.8251 37.6557 78.4105 36.5608C76.9844 35.457 75.1582 34.2464 72.9421 32.9294L71.9204 34.6487ZM79.9021 40.7745C80.8685 42.1911 81.4391 44.634 81.4391 48.2969H83.4391C83.4391 44.5223 82.869 41.5745 81.5542 39.6474L79.9021 40.7745ZM81.4391 48.2969C81.4391 50.9591 81.1174 52.7589 80.5837 53.8262L82.3726 54.7206C83.1201 53.2255 83.4391 51.0409 83.4391 48.2969H81.4391ZM80.5794 53.835C80.0862 54.846 79.0789 55.7905 77.3871 56.6073L78.2566 58.4084C80.1898 57.4751 81.62 56.2634 82.3769 54.7119L80.5794 53.835ZM77.3935 56.6042C75.7389 57.3887 73.781 57.7969 71.4938 57.7969V59.7969C74.019 59.7969 76.2798 59.3457 78.2503 58.4114L77.3935 56.6042ZM71.4938 57.7969C68.9781 57.7969 66.8901 57.3207 65.1909 56.4145L64.2497 58.1792C66.3006 59.273 68.7282 59.7969 71.4938 59.7969V57.7969ZM65.194 56.4162C63.487 55.4982 62.4725 54.3886 62.0008 53.1265L60.1273 53.8266C60.8119 55.6582 62.2348 57.0956 64.2467 58.1776L65.194 56.4162ZM62.0008 53.1265C61.4842 51.7443 61.1969 49.6883 61.1969 46.8906H59.1969C59.1969 49.7804 59.4877 52.1151 60.1273 53.8266L62.0008 53.1265ZM61.1969 46.8906V44.4062H59.1969V46.8906H61.1969ZM60.1969 45.4062H69.3609V43.4062H60.1969V45.4062ZM68.3609 44.4062V49.0234H70.3609V44.4062H68.3609ZM68.3609 49.0234C68.3609 49.7583 68.3929 50.3918 68.4639 50.9109C68.5309 51.4009 68.6461 51.9028 68.8843 52.2897L70.5876 51.2415C70.5892 51.2441 70.5656 51.2044 70.5338 51.0925C70.5033 50.985 70.4724 50.8366 70.4455 50.6399C70.3915 50.2449 70.3609 49.7105 70.3609 49.0234H68.3609ZM68.899 52.3129C69.4112 53.0964 70.2565 53.375 71.1188 53.375V51.375C70.6685 51.375 70.5919 51.2474 70.5729 51.2184L68.899 52.3129ZM71.1188 53.375C72.0874 53.375 72.9148 52.9651 73.4271 52.1199L71.7167 51.0833C71.6039 51.2693 71.4626 51.375 71.1188 51.375V53.375ZM73.4155 52.1384C73.8929 51.3883 74.0641 50.3978 74.0641 49.3047H72.0641C72.0641 50.2429 71.9071 50.7836 71.7282 51.0647L73.4155 52.1384ZM74.0641 49.3047C74.0641 48.1492 73.9859 47.1509 73.8145 46.329C73.6465 45.5234 73.3695 44.7901 72.8983 44.2586L71.4017 45.5852C71.5399 45.7412 71.7199 46.082 71.8566 46.7374C71.9899 47.3764 72.0641 48.2258 72.0641 49.3047H74.0641ZM72.8899 44.2492C72.1643 43.451 70.5119 42.235 68.0814 40.6404L66.9843 42.3127C69.4599 43.9368 70.8857 45.0178 71.4101 45.5945L72.8899 44.2492ZM68.0851 40.6429C65.6257 39.0137 64.0653 37.8747 63.3355 37.2021L61.9801 38.6729C62.844 39.469 64.5337 40.6894 66.9806 42.3102L68.0851 40.6429ZM63.3355 37.2021C62.673 36.5916 62.0824 35.7112 61.591 34.5116L59.7403 35.2697C60.3113 36.6638 61.0489 37.8147 61.9801 38.6729L63.3355 37.2021ZM61.5949 34.5212C61.1419 33.3818 60.8922 31.8625 60.8922 29.9219H58.8922C58.8922 32.0125 59.1581 33.8057 59.7364 35.2601L61.5949 34.5212ZM60.8922 29.9219C60.8922 27.0579 61.2613 25.1426 61.8713 24.0264L60.1162 23.0673C59.2575 24.6387 58.8922 26.9734 58.8922 29.9219H60.8922ZM61.867 24.0342C62.4947 22.9095 63.5178 21.9955 65.0156 21.3172L64.1906 19.4953C62.3759 20.317 60.9928 21.4967 60.1206 23.0595L61.867 24.0342ZM65.0227 21.314C66.5156 20.6238 68.3646 20.2578 70.6031 20.2578V18.2578C68.1542 18.2578 66.0031 18.6574 64.1835 19.4985L65.0227 21.314ZM70.6031 20.2578C73.0621 20.2578 75.0907 20.6556 76.7236 21.4082L77.5607 19.5918C75.5999 18.6881 73.2692 18.2578 70.6031 18.2578V20.2578ZM76.7266 21.4096C78.4135 22.1803 79.3759 23.0872 79.8185 24.0561L81.6377 23.2251C80.9241 21.6628 79.4958 20.4759 77.5578 19.5904L76.7266 21.4096ZM79.8249 24.0697C80.3151 25.1018 80.6188 27.0369 80.6188 30.0391H82.6188C82.6188 27.01 82.3287 24.6795 81.6314 23.2116L79.8249 24.0697ZM80.6188 30.0391V31.5391H82.6188V30.0391H80.6188ZM113.78 20.0547L114.738 20.3396L115.12 19.0547H113.78V20.0547ZM106.584 44.2656L105.626 43.9807L105.584 44.1202V44.2656H106.584ZM106.584 58V59H107.584V58H106.584ZM97.4437 58H96.4437V59H97.4437V58ZM97.4437 44.2656H98.4437V44.1252L98.4051 43.9902L97.4437 44.2656ZM90.5062 20.0547V19.0547H89.1795L89.5449 20.3301L90.5062 20.0547ZM99.5766 20.0547L100.559 19.8658L100.403 19.0547H99.5766V20.0547ZM101.967 34.9844L100.969 35.0513L102.958 35.1183L101.967 34.9844ZM104.709 20.0547V19.0547H103.903L103.732 19.8427L104.709 20.0547ZM112.821 19.7698L105.626 43.9807L107.543 44.5505L114.738 20.3396L112.821 19.7698ZM105.584 44.2656V58H107.584V44.2656H105.584ZM106.584 57H97.4437V59H106.584V57ZM98.4437 58V44.2656H96.4437V58H98.4437ZM98.4051 43.9902L91.4676 19.7792L89.5449 20.3301L96.4824 44.5411L98.4051 43.9902ZM90.5062 21.0547H99.5766V19.0547H90.5062V21.0547ZM98.5946 20.2436C100.018 27.6434 100.802 32.5602 100.969 35.0513L102.965 34.9175C102.788 32.2836 101.979 27.2473 100.559 19.8658L98.5946 20.2436ZM102.958 35.1183C103.5 31.1068 104.409 26.1581 105.687 20.2667L103.732 19.8427C102.448 25.7638 101.528 30.7682 100.976 34.8505L102.958 35.1183ZM104.709 21.0547H113.78V19.0547H104.709V21.0547ZM138.375 20.0547V19.0547H137.375V20.0547H138.375ZM155.086 20.0547H156.086V19.0547H155.086V20.0547ZM155.086 27.6484V28.6484H156.086V27.6484H155.086ZM148.242 27.6484V26.6484H147.242V27.6484H148.242ZM148.242 34.8438H147.242V35.8438H148.242V34.8438ZM154.336 34.8438H155.336V33.8438H154.336V34.8438ZM154.336 42.0625V43.0625H155.336V42.0625H154.336ZM148.242 42.0625V41.0625H147.242V42.0625H148.242ZM148.242 58V59H149.242V58H148.242ZM138.375 58H137.375V59H138.375V58ZM138.375 21.0547H155.086V19.0547H138.375V21.0547ZM154.086 20.0547V27.6484H156.086V20.0547H154.086ZM155.086 26.6484H148.242V28.6484H155.086V26.6484ZM147.242 27.6484V34.8438H149.242V27.6484H147.242ZM148.242 35.8438H154.336V33.8438H148.242V35.8438ZM153.336 34.8438V42.0625H155.336V34.8438H153.336ZM154.336 41.0625H148.242V43.0625H154.336V41.0625ZM147.242 42.0625V58H149.242V42.0625H147.242ZM148.242 57H138.375V59H148.242V57ZM139.375 58V20.0547H137.375V58H139.375ZM186.966 50.3828L185.972 50.266L185.971 50.2745L186.966 50.3828ZM185.278 54.7188L184.469 54.1311L184.464 54.1375L185.278 54.7188ZM170.348 57.8125L169.963 58.7354L169.974 58.7397L170.348 57.8125ZM164.677 27.6953L163.683 27.5785L163.682 27.587L164.677 27.6953ZM166.364 23.3359L165.555 22.7483L165.55 22.7547L166.364 23.3359ZM181.294 20.2656L180.908 21.1885L180.919 21.1929L181.294 20.2656ZM177.075 26.4297L176.139 26.7808L176.145 26.7987L176.153 26.8164L177.075 26.4297ZM174.684 26.2891L173.862 25.7198L173.857 25.7268L174.684 26.2891ZM174.544 51.6016L173.595 51.9178L173.599 51.9306L173.604 51.9433L174.544 51.6016ZM186.247 42.2734C186.247 46.0853 186.152 48.7362 185.972 50.266L187.959 50.4997C188.154 48.8419 188.247 46.0866 188.247 42.2734H186.247ZM185.971 50.2745C185.819 51.6756 185.322 52.9564 184.469 54.1312L186.087 55.3063C187.14 53.8561 187.769 52.2463 187.96 50.4911L185.971 50.2745ZM184.464 54.1375C183.641 55.2901 182.516 56.1884 181.057 56.8258L181.858 58.6586C183.618 57.8897 185.04 56.7724 186.092 55.3L184.464 54.1375ZM181.057 56.8258C179.599 57.4631 177.865 57.7969 175.833 57.7969V59.7969C178.082 59.7969 180.098 59.4275 181.858 58.6586L181.057 56.8258ZM175.833 57.7969C173.91 57.7969 172.212 57.4864 170.723 56.8853L169.974 58.7397C171.735 59.4511 173.693 59.7969 175.833 59.7969V57.7969ZM170.734 56.8897C169.281 56.2833 168.132 55.3923 167.261 54.217L165.654 55.408C166.752 56.889 168.197 57.998 169.963 58.7353L170.734 56.8897ZM167.261 54.217C166.375 53.0212 165.859 51.7385 165.693 50.3574L163.707 50.5957C163.916 52.3396 164.572 53.9475 165.654 55.408L167.261 54.217ZM165.693 50.3574C165.513 48.861 165.419 46.1811 165.419 42.2734H163.419C163.419 46.1783 163.512 48.9671 163.707 50.5957L165.693 50.3574ZM165.419 42.2734V35.7812H163.419V42.2734H165.419ZM165.419 35.7812C165.419 31.9689 165.505 29.3222 165.671 27.8036L163.682 27.587C163.504 29.2247 163.419 31.9686 163.419 35.7812H165.419ZM165.67 27.8122C165.837 26.3867 166.338 25.0932 167.178 23.9172L165.55 22.7547C164.515 24.2037 163.891 25.8164 163.683 27.5785L165.67 27.8122ZM167.173 23.9235C168.013 22.7669 169.148 21.8668 170.608 21.2289L169.807 19.3961C168.049 20.1644 166.621 21.28 165.555 22.7483L167.173 23.9235ZM170.608 21.2289C172.067 20.5916 173.801 20.2578 175.833 20.2578V18.2578C173.584 18.2578 171.568 18.6272 169.807 19.3961L170.608 21.2289ZM175.833 20.2578C177.753 20.2578 179.44 20.5752 180.908 21.1884L181.679 19.3428C179.929 18.6123 177.975 18.2578 175.833 18.2578V20.2578ZM180.919 21.1929C182.384 21.7845 183.536 22.6665 184.404 23.8376L186.011 22.6467C184.91 21.1616 183.453 20.0593 181.668 19.3384L180.919 21.1929ZM184.404 23.8376C185.291 25.0335 185.807 26.3161 185.973 27.6973L187.958 27.459C187.749 25.7151 187.094 24.1071 186.011 22.6467L184.404 23.8376ZM185.973 27.6973C186.152 29.1937 186.247 31.8736 186.247 35.7812H188.247C188.247 31.8764 188.154 29.0876 187.958 27.459L185.973 27.6973ZM186.247 35.7812V42.2734H188.247V35.7812H186.247ZM178.38 29.8047C178.38 28.9065 178.354 28.1509 178.299 27.5468C178.248 26.9718 178.162 26.4371 177.997 26.043L176.153 26.8164C176.191 26.9066 176.258 27.1766 176.308 27.7266C176.355 28.2475 176.38 28.9372 176.38 29.8047H178.38ZM178.011 26.0786C177.852 25.6524 177.577 25.2771 177.167 25.0201C176.768 24.7697 176.318 24.6797 175.88 24.6797V26.6797C175.965 26.6797 176.021 26.6885 176.056 26.6971C176.09 26.7055 176.103 26.7136 176.104 26.7143C176.104 26.7143 176.104 26.7138 176.107 26.7172C176.11 26.7217 176.123 26.7395 176.139 26.7808L178.011 26.0786ZM175.88 24.6797C175.053 24.6797 174.34 25.0301 173.862 25.7199L175.507 26.8583C175.592 26.7355 175.675 26.6797 175.88 26.6797V24.6797ZM173.857 25.7268C173.695 25.965 173.602 26.2415 173.541 26.4814C173.476 26.7361 173.428 27.0287 173.392 27.3483C173.319 27.9879 173.286 28.8114 173.286 29.8047H175.286C175.286 28.8448 175.319 28.1059 175.379 27.5735C175.409 27.3072 175.444 27.1116 175.479 26.9756C175.517 26.8249 175.54 26.8084 175.511 26.8514L173.857 25.7268ZM173.286 29.8047V47.5234H175.286V29.8047H173.286ZM173.286 47.5234C173.286 48.6349 173.308 49.549 173.352 50.2584C173.395 50.9333 173.463 51.5222 173.595 51.9178L175.492 51.2853C175.452 51.1653 175.392 50.8167 175.348 50.1322C175.307 49.4823 175.286 48.6151 175.286 47.5234H173.286ZM173.604 51.9433C173.766 52.3893 174.054 52.7748 174.479 53.0349C174.891 53.2863 175.356 53.375 175.809 53.375V51.375C175.607 51.375 175.533 51.3348 175.522 51.3284C175.518 51.3255 175.516 51.3242 175.514 51.3211C175.511 51.3169 175.498 51.3001 175.484 51.2598L173.604 51.9433ZM175.809 53.375C176.29 53.375 176.78 53.268 177.204 52.9751C177.635 52.6774 177.905 52.2521 178.052 51.7855L176.145 51.1832C176.124 51.2501 176.103 51.2867 176.09 51.3044C176.079 51.3206 176.072 51.3264 176.067 51.3296C176.061 51.3336 176 51.375 175.809 51.375V53.375ZM178.052 51.7855C178.185 51.364 178.26 50.7565 178.307 50.0447C178.356 49.3069 178.38 48.3705 178.38 47.2422H176.38C176.38 48.3483 176.356 49.2361 176.312 49.9124C176.265 50.6146 176.199 51.011 176.145 51.1832L178.052 51.7855ZM178.38 47.2422V29.8047H176.38V47.2422H178.38ZM198.15 20.0547V19.0547H197.15V20.0547H198.15ZM214.58 20.5938L214.366 21.5706L214.368 21.571L214.58 20.5938ZM218.611 23.3594L217.79 23.93L217.797 23.9398L218.611 23.3594ZM214.744 38.1953L214.65 37.1997L214.503 39.1659L214.744 38.1953ZM219.923 42.3906L218.948 42.6122L218.951 42.6254L218.955 42.6385L219.923 42.3906ZM220.181 58V59H221.181V58H220.181ZM211.017 58H210.017V59H211.017V58ZM210.525 41.6172L209.685 42.1593L209.691 42.1687L209.697 42.178L210.525 41.6172ZM208.017 40.8906V39.8906H207.017V40.8906H208.017ZM208.017 58V59H209.017V58H208.017ZM198.15 58H197.15V59H198.15V58ZM208.017 26.5469V25.5469H207.017V26.5469H208.017ZM208.017 34.9844H207.017V35.9844H208.017V34.9844ZM210.337 34.5391L210.899 35.3666L210.905 35.3623L210.337 34.5391ZM210.361 27.1094L209.697 27.8568L209.703 27.8628L209.71 27.8686L210.361 27.1094ZM198.15 21.0547H205.134V19.0547H198.15V21.0547ZM205.134 21.0547C209.803 21.0547 212.846 21.2378 214.366 21.5706L214.794 19.6169C213.032 19.231 209.778 19.0547 205.134 19.0547V21.0547ZM214.368 21.571C215.759 21.873 216.892 22.6382 217.79 23.9299L219.432 22.7888C218.267 21.1118 216.713 20.0333 214.792 19.6165L214.368 21.571ZM217.797 23.9398C218.66 25.1506 219.181 27.2432 219.181 30.4141H221.181C221.181 27.1162 220.656 24.5057 219.425 22.779L217.797 23.9398ZM219.181 30.4141C219.181 31.8549 219.091 33.0236 218.923 33.9352C218.751 34.8605 218.512 35.445 218.269 35.7812L219.89 36.9531C220.381 36.2737 220.693 35.3582 220.889 34.2991C221.088 33.2264 221.181 31.9264 221.181 30.4141H219.181ZM218.269 35.7812C217.793 36.4401 216.718 37.0049 214.65 37.1997L214.838 39.1909C217.082 38.9794 218.898 38.3256 219.89 36.9531L218.269 35.7812ZM214.503 39.1659C216.41 39.6388 217.452 40.2239 217.911 40.7779L219.452 39.5034C218.566 38.4323 216.984 37.7206 214.984 37.2247L214.503 39.1659ZM217.911 40.7779C218.528 41.5246 218.84 42.1342 218.948 42.6122L220.899 42.169C220.695 41.272 220.178 40.3817 219.452 39.5034L217.911 40.7779ZM218.955 42.6385C219.012 42.8613 219.074 43.3981 219.118 44.3409C219.16 45.2527 219.181 46.4679 219.181 47.9922H221.181C221.181 46.4539 221.16 45.2044 221.116 44.2489C221.073 43.3246 221.007 42.5919 220.892 42.1428L218.955 42.6385ZM219.181 47.9922V58H221.181V47.9922H219.181ZM220.181 57H211.017V59H220.181V57ZM212.017 58V45.3906H210.017V58H212.017ZM212.017 45.3906C212.017 44.3541 211.976 43.4839 211.886 42.7945C211.802 42.1511 211.659 41.5083 211.353 41.0563L209.697 42.178C209.696 42.176 209.731 42.2326 209.778 42.3974C209.822 42.554 209.866 42.7694 209.903 43.0532C209.977 43.6216 210.017 44.3959 210.017 45.3906H212.017ZM211.365 41.0751C211.026 40.5488 210.477 40.2669 209.942 40.1118C209.398 39.9541 208.745 39.8906 208.017 39.8906V41.8906C208.649 41.8906 209.094 41.9483 209.385 42.0328C209.686 42.1198 209.712 42.2012 209.685 42.1593L211.365 41.0751ZM207.017 40.8906V58H209.017V40.8906H207.017ZM208.017 57H198.15V59H208.017V57ZM199.15 58V20.0547H197.15V58H199.15ZM207.017 26.5469V34.9844H209.017V26.5469H207.017ZM208.017 35.9844C209.149 35.9844 210.193 35.8456 210.899 35.3665L209.776 33.7116C209.607 33.8262 209.104 33.9844 208.017 33.9844V35.9844ZM210.905 35.3623C211.454 34.9842 211.695 34.3387 211.822 33.7832C211.959 33.1825 212.017 32.4321 212.017 31.5625H210.017C210.017 32.3648 209.962 32.9464 209.872 33.3379C209.773 33.7745 209.675 33.7815 209.77 33.7159L210.905 35.3623ZM212.017 31.5625V29.4766H210.017V31.5625H212.017ZM212.017 29.4766C212.017 28.8228 211.959 28.2271 211.817 27.7153C211.676 27.2065 211.432 26.7108 211.012 26.3501L209.71 27.8686C209.727 27.883 209.812 27.9692 209.889 28.2496C209.966 28.5268 210.017 28.9272 210.017 29.4766H212.017ZM211.025 26.362C210.307 25.7238 209.19 25.5469 208.017 25.5469V27.5469C209.125 27.5469 209.571 27.7449 209.697 27.8568L211.025 26.362ZM269.339 20.0547H270.339V19.0547H269.339V20.0547ZM269.058 51.4844L270.045 51.6444L270.045 51.6424L269.058 51.4844ZM267.394 55.0703L268.191 55.6736L268.195 55.6687L267.394 55.0703ZM263.737 57.8594L264.122 58.7825L264.127 58.7805L263.737 57.8594ZM247.003 50.9453L246.01 51.0608L246.01 51.0622L247.003 50.9453ZM246.769 20.0547V19.0547H245.769V20.0547H246.769ZM256.636 20.0547H257.636V19.0547H256.636V20.0547ZM256.894 51.6953L255.955 52.0396L255.962 52.0588L255.97 52.0777L256.894 51.6953ZM259.191 51.625L258.251 51.2833L258.248 51.2916L258.245 51.2999L259.191 51.625ZM259.472 20.0547V19.0547H258.472V20.0547H259.472ZM268.339 20.0547V45.4141H270.339V20.0547H268.339ZM268.339 45.4141C268.339 48.2895 268.244 50.2413 268.07 51.3264L270.045 51.6424C270.247 50.3837 270.339 48.2886 270.339 45.4141H268.339ZM268.071 51.3243C267.916 52.2795 267.447 53.3274 266.593 54.4719L268.195 55.6687C269.184 54.3445 269.825 53.0018 270.045 51.6444L268.071 51.3243ZM266.596 54.467C265.788 55.5352 264.715 56.3605 263.348 56.9383L264.127 58.7805C265.791 58.077 267.155 57.0429 268.191 55.6736L266.596 54.467ZM263.353 56.9363C262.002 57.4992 260.365 57.7969 258.417 57.7969V59.7969C260.563 59.7969 262.473 59.4696 264.122 58.7825L263.353 56.9363ZM258.417 57.7969C256.261 57.7969 254.401 57.4402 252.814 56.754L252.02 58.5897C253.902 59.4036 256.042 59.7969 258.417 59.7969V57.7969ZM252.814 56.754C251.201 56.0565 250.068 55.1802 249.34 54.1609L247.713 55.3234C248.704 56.7104 250.165 57.7873 252.02 58.5897L252.814 56.754ZM249.34 54.1609C248.568 53.0802 248.131 51.972 247.996 50.8285L246.01 51.0622C246.188 52.5749 246.766 53.9979 247.713 55.3234L249.34 54.1609ZM247.996 50.8298C247.848 49.554 247.769 46.8011 247.769 42.5078H245.769C245.769 46.777 245.846 49.6492 246.01 51.0608L247.996 50.8298ZM247.769 42.5078V20.0547H245.769V42.5078H247.769ZM246.769 21.0547H256.636V19.0547H246.769V21.0547ZM255.636 20.0547V48.5078H257.636V20.0547H255.636ZM255.636 48.5078C255.636 49.3499 255.658 50.059 255.704 50.6275C255.748 51.1708 255.819 51.6694 255.955 52.0396L257.833 51.3511C257.797 51.2525 257.739 50.9854 257.697 50.4663C257.657 49.9722 257.636 49.322 257.636 48.5078H255.636ZM255.97 52.0777C256.132 52.4709 256.398 52.8177 256.785 53.0561C257.163 53.2897 257.586 53.375 257.995 53.375V51.375C257.858 51.375 257.824 51.347 257.835 51.354C257.84 51.3569 257.843 51.3605 257.843 51.3604C257.842 51.3593 257.832 51.3466 257.818 51.313L255.97 52.0777ZM257.995 53.375C258.436 53.375 258.892 53.2873 259.294 53.0346C259.711 52.773 259.986 52.3879 260.136 51.9501L258.245 51.2999C258.239 51.3184 258.233 51.3305 258.229 51.3378C258.227 51.3414 258.226 51.344 258.225 51.3455C258.224 51.347 258.223 51.3478 258.223 51.3478C258.223 51.3479 258.224 51.3475 258.224 51.3467C258.225 51.3459 258.226 51.345 258.227 51.344C258.229 51.3419 258.231 51.3406 258.231 51.3404C258.236 51.3377 258.18 51.375 257.995 51.375V53.375ZM260.13 51.9667C260.274 51.5714 260.351 51.0241 260.399 50.4136C260.448 49.7761 260.472 48.9741 260.472 48.0156H258.472C258.472 48.9477 258.449 49.6927 258.405 50.2583C258.358 50.8509 258.295 51.1629 258.251 51.2833L260.13 51.9667ZM260.472 48.0156V20.0547H258.472V48.0156H260.472ZM259.472 21.0547H269.339V19.0547H259.472V21.0547ZM301.266 31.5391V32.5391H302.266V31.5391H301.266ZM292.102 31.5391H291.102V32.5391H292.102V31.5391ZM289.219 26.4062L288.378 25.8641L288.372 25.8738L288.366 25.8837L289.219 26.4062ZM289.289 31.4688L290.179 31.0129L290.175 31.0044L290.17 30.9959L289.289 31.4688ZM292.078 33.7891L292.589 32.9294L292.587 32.9285L292.078 33.7891ZM301.125 54.2734L300.231 53.8262L300.226 53.835L301.125 54.2734ZM297.469 57.5078L297.897 58.4114L297.904 58.4084L297.469 57.5078ZM284.367 57.2969L283.894 58.1776L283.897 58.1792L284.367 57.2969ZM279.844 44.4062V43.4062H278.844V44.4062H279.844ZM289.008 44.4062H290.008V43.4062H289.008V44.4062ZM289.383 51.7656L288.531 52.2897L288.538 52.3014L288.546 52.3129L289.383 51.7656ZM292.219 51.6016L291.375 51.0647L291.369 51.0739L291.364 51.0833L292.219 51.6016ZM291.797 44.9219L292.545 44.2585L292.537 44.2492L291.797 44.9219ZM287.18 41.4766L286.627 42.3103L286.631 42.3127L287.18 41.4766ZM280.312 34.8906L279.383 35.2601L279.387 35.2697L280.312 34.8906ZM280.641 23.5469L279.767 23.0595L279.763 23.0673L280.641 23.5469ZM284.25 20.4062L284.663 21.3172L284.67 21.314L284.25 20.4062ZM296.789 20.5L296.371 21.4082L296.373 21.4096L296.789 20.5ZM300.375 23.6406L299.465 24.0561L299.469 24.0629L299.472 24.0697L300.375 23.6406ZM301.266 30.5391H292.102V32.5391H301.266V30.5391ZM293.102 31.5391V28.7266H291.102V31.5391H293.102ZM293.102 28.7266C293.102 28.0463 293.072 27.4582 293.004 26.9764C292.941 26.5271 292.83 26.0446 292.588 25.6725L290.912 26.765C290.904 26.7523 290.969 26.8675 291.023 27.2541C291.073 27.6082 291.102 28.0943 291.102 28.7266H293.102ZM292.588 25.6725C292.118 24.9522 291.358 24.6797 290.578 24.6797V26.6797C290.745 26.6797 290.83 26.7074 290.863 26.7229C290.888 26.7342 290.898 26.7436 290.912 26.765L292.588 25.6725ZM290.578 24.6797C289.657 24.6797 288.882 25.0841 288.378 25.8641L290.059 26.9484C290.181 26.7597 290.312 26.6797 290.578 26.6797V24.6797ZM288.366 25.8837C287.926 26.6025 287.773 27.559 287.773 28.6094H289.773C289.773 27.691 289.918 27.1788 290.071 26.9288L288.366 25.8837ZM287.773 28.6094C287.773 29.9342 287.948 31.0845 288.408 31.9416L290.17 30.9959C289.943 30.5717 289.773 29.8158 289.773 28.6094H287.773ZM288.399 31.9246C288.653 32.4199 289.085 32.8759 289.593 33.298C290.113 33.7306 290.777 34.1808 291.569 34.6496L292.587 32.9285C291.848 32.4911 291.282 32.1014 290.872 31.7605C290.45 31.4093 290.254 31.1582 290.179 31.0129L288.399 31.9246ZM291.567 34.6487C293.742 35.9411 295.494 37.1055 296.833 38.1424C298.184 39.188 299.065 40.0658 299.549 40.7745L301.201 39.6474C300.544 38.6842 299.472 37.6557 298.057 36.5608C296.631 35.457 294.805 34.2464 292.589 32.9294L291.567 34.6487ZM299.549 40.7745C300.515 42.1911 301.086 44.634 301.086 48.2969H303.086C303.086 44.5223 302.516 41.5745 301.201 39.6474L299.549 40.7745ZM301.086 48.2969C301.086 50.9591 300.764 52.7589 300.231 53.8262L302.019 54.7206C302.767 53.2255 303.086 51.0409 303.086 48.2969H301.086ZM300.226 53.835C299.733 54.846 298.726 55.7905 297.034 56.6073L297.904 58.4084C299.837 57.4751 301.267 56.2634 302.024 54.7119L300.226 53.835ZM297.04 56.6042C295.386 57.3887 293.428 57.7969 291.141 57.7969V59.7969C293.666 59.7969 295.927 59.3457 297.897 58.4114L297.04 56.6042ZM291.141 57.7969C288.625 57.7969 286.537 57.3207 284.838 56.4145L283.897 58.1792C285.947 59.273 288.375 59.7969 291.141 59.7969V57.7969ZM284.841 56.4162C283.134 55.4982 282.119 54.3886 281.648 53.1265L279.774 53.8266C280.459 55.6582 281.882 57.0956 283.894 58.1776L284.841 56.4162ZM281.648 53.1265C281.131 51.7443 280.844 49.6883 280.844 46.8906H278.844C278.844 49.7804 279.135 52.1151 279.774 53.8266L281.648 53.1265ZM280.844 46.8906V44.4062H278.844V46.8906H280.844ZM279.844 45.4062H289.008V43.4062H279.844V45.4062ZM288.008 44.4062V49.0234H290.008V44.4062H288.008ZM288.008 49.0234C288.008 49.7583 288.04 50.3918 288.111 50.9109C288.178 51.4009 288.293 51.9028 288.531 52.2897L290.234 51.2415C290.236 51.2441 290.212 51.2044 290.181 51.0925C290.15 50.985 290.119 50.8366 290.092 50.6399C290.038 50.2449 290.008 49.7105 290.008 49.0234H288.008ZM288.546 52.3129C289.058 53.0964 289.903 53.375 290.766 53.375V51.375C290.315 51.375 290.239 51.2474 290.22 51.2184L288.546 52.3129ZM290.766 53.375C291.734 53.375 292.562 52.9651 293.074 52.1199L291.364 51.0833C291.251 51.2693 291.109 51.375 290.766 51.375V53.375ZM293.062 52.1384C293.54 51.3883 293.711 50.3978 293.711 49.3047H291.711C291.711 50.2429 291.554 50.7836 291.375 51.0647L293.062 52.1384ZM293.711 49.3047C293.711 48.1492 293.633 47.1509 293.461 46.329C293.293 45.5234 293.016 44.7901 292.545 44.2586L291.049 45.5852C291.187 45.7412 291.367 46.082 291.503 46.7374C291.637 47.3764 291.711 48.2258 291.711 49.3047H293.711ZM292.537 44.2492C291.811 43.451 290.159 42.235 287.728 40.6404L286.631 42.3127C289.107 43.9368 290.533 45.0178 291.057 45.5945L292.537 44.2492ZM287.732 40.6429C285.273 39.0137 283.712 37.8747 282.982 37.2021L281.627 38.6729C282.491 39.469 284.181 40.6894 286.627 42.3102L287.732 40.6429ZM282.982 37.2021C282.32 36.5916 281.729 35.7112 281.238 34.5116L279.387 35.2697C279.958 36.6638 280.696 37.8147 281.627 38.6729L282.982 37.2021ZM281.242 34.5212C280.789 33.3818 280.539 31.8625 280.539 29.9219H278.539C278.539 32.0125 278.805 33.8057 279.383 35.2601L281.242 34.5212ZM280.539 29.9219C280.539 27.0579 280.908 25.1426 281.518 24.0264L279.763 23.0673C278.904 24.6387 278.539 26.9734 278.539 29.9219H280.539ZM281.514 24.0342C282.142 22.9095 283.165 21.9955 284.663 21.3172L283.837 19.4953C282.023 20.317 280.64 21.4967 279.767 23.0595L281.514 24.0342ZM284.67 21.314C286.163 20.6238 288.011 20.2578 290.25 20.2578V18.2578C287.801 18.2578 285.65 18.6574 283.83 19.4985L284.67 21.314ZM290.25 20.2578C292.709 20.2578 294.738 20.6556 296.371 21.4082L297.208 19.5918C295.247 18.6881 292.916 18.2578 290.25 18.2578V20.2578ZM296.373 21.4096C298.06 22.1803 299.023 23.0872 299.465 24.0561L301.285 23.2251C300.571 21.6628 299.143 20.4759 297.205 19.5904L296.373 21.4096ZM299.472 24.0697C299.962 25.1018 300.266 27.0369 300.266 30.0391H302.266C302.266 27.01 301.976 24.6795 301.278 23.2116L299.472 24.0697ZM300.266 30.0391V31.5391H302.266V30.0391H300.266Z" fill="white"/>
<path d="M1.96875 99.9453V100.945H0.96875V99.9453H1.96875ZM18.4219 99.9453H19.4219V100.945H18.4219V99.9453ZM18.4219 92.3516V91.3516H19.4219V92.3516H18.4219ZM11.8359 92.3516V93.3516H10.8359V92.3516H11.8359ZM11.8359 85.1562H10.8359V84.1562H11.8359V85.1562ZM18 85.1562H19V86.1562H18V85.1562ZM18 77.9375V76.9375H19V77.9375H18ZM11.8359 77.9375V78.9375H10.8359V77.9375H11.8359ZM11.8359 69.5938H10.8359V68.5938H11.8359V69.5938ZM19.0781 69.5938H20.0781V70.5938H19.0781V69.5938ZM19.0781 62V61H20.0781V62H19.0781ZM1.96875 62H0.96875V61H1.96875V62ZM1.96875 98.9453H18.4219V100.945H1.96875V98.9453ZM17.4219 99.9453V92.3516H19.4219V99.9453H17.4219ZM18.4219 93.3516H11.8359V91.3516H18.4219V93.3516ZM10.8359 92.3516V85.1562H12.8359V92.3516H10.8359ZM11.8359 84.1562H18V86.1562H11.8359V84.1562ZM17 85.1562V77.9375H19V85.1562H17ZM18 78.9375H11.8359V76.9375H18V78.9375ZM10.8359 77.9375V69.5938H12.8359V77.9375H10.8359ZM11.8359 68.5938H19.0781V70.5938H11.8359V68.5938ZM18.0781 69.5938V62H20.0781V69.5938H18.0781ZM19.0781 63H1.96875V61H19.0781V63ZM2.96875 62V99.9453H0.96875V62H2.96875ZM46.1766 99.9453L47.1657 100.093L47.0387 100.945H46.1766V99.9453ZM51.825 62V61H52.9849L52.8141 62.1472L51.825 62ZM41.7234 62L40.726 61.928L40.793 61H41.7234V62ZM41.2313 68.8203L42.2287 68.8923L42.1617 69.8203H41.2313V68.8203ZM37.6922 68.8203V69.8203H36.7744L36.6959 68.9059L37.6922 68.8203ZM37.1063 62V61H38.024L38.1026 61.9144L37.1063 62ZM26.8875 62L25.8961 62.131L25.7466 61H26.8875V62ZM31.9031 99.9453V100.945H31.0266L30.9117 100.076L31.9031 99.9453ZM40.95 75.5469V74.5469H42.0731L41.9433 75.6625L40.95 75.5469ZM39.45 91.4609L40.4469 91.5399L38.4594 91.5976L39.45 91.4609ZM37.575 75.5469L36.5778 75.6211L36.4978 74.5469H37.575V75.5469ZM45.1875 99.7981L50.8359 61.8528L52.8141 62.1472L47.1657 100.093L45.1875 99.7981ZM51.825 63H41.7234V61H51.825V63ZM42.7208 62.072L42.2287 68.8923L40.2338 68.7483L40.726 61.928L42.7208 62.072ZM41.2313 69.8203H37.6922V67.8203H41.2313V69.8203ZM36.6959 68.9059L36.1099 62.0856L38.1026 61.9144L38.6885 68.7347L36.6959 68.9059ZM37.1063 63H26.8875V61H37.1063V63ZM27.8789 61.869L32.8945 99.8143L30.9117 100.076L25.8961 62.131L27.8789 61.869ZM31.9031 98.9453H46.1766V100.945H31.9031V98.9453ZM41.9433 75.6625C41.4452 79.943 40.9463 85.2346 40.4469 91.5399L38.4531 91.382C38.9537 85.0623 39.4548 79.7445 39.9567 75.4313L41.9433 75.6625ZM38.4594 91.5976C37.459 84.345 36.8302 79.0139 36.5778 75.6211L38.5722 75.4727C38.8198 78.7986 39.441 84.0769 40.4406 91.3243L38.4594 91.5976ZM37.575 74.5469H40.95V76.5469H37.575V74.5469ZM81.6188 88.4609V87.4609H82.6188V88.4609H81.6188ZM72.4547 88.4609H71.4547V87.4609H72.4547V88.4609ZM69.5719 93.5938L68.7316 94.1359L68.7253 94.1262L68.7193 94.1163L69.5719 93.5938ZM69.6422 88.5312L70.5322 88.9871L70.5279 88.9956L70.5233 89.0041L69.6422 88.5312ZM72.4313 86.2109L72.9421 87.0706L72.9406 87.0715L72.4313 86.2109ZM81.4781 65.7266L80.5837 66.1738L80.5794 66.165L81.4781 65.7266ZM77.8219 62.4922L78.2503 61.5886L78.2566 61.5916L77.8219 62.4922ZM64.7203 62.7031L64.2467 61.8224L64.2497 61.8208L64.7203 62.7031ZM60.1969 75.5938V76.5938H59.1969V75.5938H60.1969ZM69.3609 75.5938H70.3609V76.5938H69.3609V75.5938ZM69.7359 68.2344L68.8843 67.7103L68.8915 67.6986L68.899 67.6871L69.7359 68.2344ZM72.5719 68.3984L71.7282 68.9353L71.7223 68.9261L71.7167 68.9167L72.5719 68.3984ZM72.15 75.0781L72.8984 75.7415L72.8899 75.7508L72.15 75.0781ZM67.5328 78.5234L66.9806 77.6897L66.9843 77.6873L67.5328 78.5234ZM60.6656 85.1094L59.7363 84.7399L59.7403 84.7303L60.6656 85.1094ZM60.9938 96.4531L60.1205 96.9405L60.1162 96.9327L60.9938 96.4531ZM64.6031 99.5938L65.0156 98.6828L65.0227 98.686L64.6031 99.5938ZM77.1422 99.5L76.7236 98.5918L76.7266 98.5904L77.1422 99.5ZM80.7281 96.3594L79.8185 95.9439L79.8216 95.9371L79.8249 95.9303L80.7281 96.3594ZM81.6188 89.4609H72.4547V87.4609H81.6188V89.4609ZM73.4547 88.4609V91.2734H71.4547V88.4609H73.4547ZM73.4547 91.2734C73.4547 91.9537 73.4247 92.5418 73.3571 93.0236C73.2941 93.4729 73.1834 93.9554 72.9407 94.3275L71.2655 93.235C71.2572 93.2477 71.3223 93.1325 71.3765 92.7459C71.4261 92.3918 71.4547 91.9057 71.4547 91.2734H73.4547ZM72.9407 94.3275C72.471 95.0478 71.7111 95.3203 70.9313 95.3203V93.3203C71.0983 93.3203 71.1828 93.2926 71.2165 93.2771C71.2409 93.2658 71.2515 93.2564 71.2655 93.235L72.9407 94.3275ZM70.9313 95.3203C70.0101 95.3203 69.2348 94.9159 68.7316 94.1359L70.4122 93.0516C70.5339 93.2403 70.6649 93.3203 70.9313 93.3203V95.3203ZM68.7193 94.1163C68.2787 93.3975 68.1266 92.441 68.1266 91.3906H70.1266C70.1266 92.309 70.2713 92.8212 70.4245 93.0712L68.7193 94.1163ZM68.1266 91.3906C68.1266 90.0658 68.3012 88.9155 68.761 88.0584L70.5233 89.0041C70.2957 89.4283 70.1266 90.1842 70.1266 91.3906H68.1266ZM68.7521 88.0754C69.0058 87.5801 69.4385 87.1241 69.946 86.702C70.4659 86.2694 71.1297 85.8192 71.9219 85.3504L72.9406 87.0715C72.2015 87.5089 71.6349 87.8986 71.2251 88.2395C70.8029 88.5907 70.6067 88.8418 70.5322 88.9871L68.7521 88.0754ZM71.9204 85.3513C74.095 84.0589 75.8468 82.8945 77.1864 81.8576C78.5374 80.812 79.4185 79.9342 79.9021 79.2255L81.5542 80.3526C80.8971 81.3158 79.8251 82.3443 78.4105 83.4392C76.9844 84.543 75.1582 85.7536 72.9421 87.0706L71.9204 85.3513ZM79.9021 79.2255C80.8685 77.8089 81.4391 75.366 81.4391 71.7031H83.4391C83.4391 75.4777 82.869 78.4255 81.5542 80.3526L79.9021 79.2255ZM81.4391 71.7031C81.4391 69.0409 81.1174 67.2411 80.5837 66.1738L82.3726 65.2794C83.1201 66.7745 83.4391 68.9591 83.4391 71.7031H81.4391ZM80.5794 66.165C80.0862 65.154 79.0789 64.2095 77.3871 63.3927L78.2566 61.5916C80.1898 62.5249 81.62 63.7366 82.3769 65.2881L80.5794 66.165ZM77.3935 63.3958C75.7389 62.6113 73.781 62.2031 71.4938 62.2031V60.2031C74.019 60.2031 76.2798 60.6543 78.2503 61.5886L77.3935 63.3958ZM71.4938 62.2031C68.9781 62.2031 66.8901 62.6793 65.1909 63.5855L64.2497 61.8208C66.3006 60.727 68.7282 60.2031 71.4938 60.2031V62.2031ZM65.194 63.5838C63.487 64.5018 62.4725 65.6114 62.0008 66.8735L60.1273 66.1734C60.8119 64.3418 62.2348 62.9044 64.2467 61.8224L65.194 63.5838ZM62.0008 66.8735C61.4842 68.2557 61.1969 70.3117 61.1969 73.1094H59.1969C59.1969 70.2196 59.4877 67.8849 60.1273 66.1734L62.0008 66.8735ZM61.1969 73.1094V75.5938H59.1969V73.1094H61.1969ZM60.1969 74.5938H69.3609V76.5938H60.1969V74.5938ZM68.3609 75.5938V70.9766H70.3609V75.5938H68.3609ZM68.3609 70.9766C68.3609 70.2417 68.3929 69.6082 68.4639 69.0891C68.5309 68.5991 68.6461 68.0972 68.8843 67.7103L70.5876 68.7585C70.5892 68.7559 70.5656 68.7956 70.5338 68.9075C70.5033 69.015 70.4724 69.1634 70.4455 69.3601C70.3915 69.7551 70.3609 70.2895 70.3609 70.9766H68.3609ZM68.899 67.6871C69.4112 66.9036 70.2565 66.625 71.1188 66.625V68.625C70.6685 68.625 70.5919 68.7526 70.5729 68.7816L68.899 67.6871ZM71.1188 66.625C72.0874 66.625 72.9148 67.0349 73.4271 67.8801L71.7167 68.9167C71.6039 68.7307 71.4626 68.625 71.1188 68.625V66.625ZM73.4155 67.8616C73.8929 68.6117 74.0641 69.6022 74.0641 70.6953H72.0641C72.0641 69.7571 71.9071 69.2164 71.7282 68.9353L73.4155 67.8616ZM74.0641 70.6953C74.0641 71.8508 73.9859 72.8491 73.8145 73.671C73.6465 74.4766 73.3695 75.2099 72.8983 75.7414L71.4017 74.4148C71.5399 74.2588 71.7199 73.918 71.8566 73.2626C71.9899 72.6236 72.0641 71.7742 72.0641 70.6953H74.0641ZM72.8899 75.7508C72.1643 76.549 70.5119 77.765 68.0814 79.3596L66.9843 77.6873C69.4599 76.0632 70.8857 74.9822 71.4101 74.4055L72.8899 75.7508ZM68.0851 79.3571C65.6257 80.9863 64.0653 82.1253 63.3355 82.7979L61.9801 81.3271C62.844 80.531 64.5337 79.3106 66.9806 77.6898L68.0851 79.3571ZM63.3355 82.7979C62.673 83.4084 62.0824 84.2888 61.591 85.4884L59.7403 84.7303C60.3113 83.3362 61.0489 82.1853 61.9801 81.3271L63.3355 82.7979ZM61.5949 85.4788C61.1419 86.6182 60.8922 88.1375 60.8922 90.0781H58.8922C58.8922 87.9875 59.1581 86.1943 59.7364 84.7399L61.5949 85.4788ZM60.8922 90.0781C60.8922 92.9421 61.2613 94.8574 61.8713 95.9736L60.1162 96.9327C59.2575 95.3613 58.8922 93.0266 58.8922 90.0781H60.8922ZM61.867 95.9658C62.4947 97.0905 63.5178 98.0045 65.0156 98.6828L64.1906 100.505C62.3759 99.683 60.9928 98.5033 60.1206 96.9405L61.867 95.9658ZM65.0227 98.686C66.5156 99.3762 68.3646 99.7422 70.6031 99.7422V101.742C68.1542 101.742 66.0031 101.343 64.1835 100.501L65.0227 98.686ZM70.6031 99.7422C73.0621 99.7422 75.0907 99.3444 76.7236 98.5918L77.5607 100.408C75.5999 101.312 73.2692 101.742 70.6031 101.742V99.7422ZM76.7266 98.5904C78.4135 97.8197 79.3759 96.9128 79.8185 95.9439L81.6377 96.7749C80.9241 98.3372 79.4958 99.5241 77.5578 100.41L76.7266 98.5904ZM79.8249 95.9303C80.3151 94.8982 80.6188 92.9631 80.6188 89.9609H82.6188C82.6188 92.99 82.3287 95.3205 81.6314 96.7884L79.8249 95.9303ZM80.6188 89.9609V88.4609H82.6188V89.9609H80.6188ZM113.78 99.9453L114.738 99.6604L115.12 100.945H113.78V99.9453ZM106.584 75.7344L105.626 76.0193L105.584 75.8798V75.7344H106.584ZM106.584 62V61H107.584V62H106.584ZM97.4437 62H96.4437V61H97.4437V62ZM97.4437 75.7344H98.4437V75.8748L98.4051 76.0098L97.4437 75.7344ZM90.5062 99.9453V100.945H89.1795L89.5449 99.6699L90.5062 99.9453ZM99.5766 99.9453L100.559 100.134L100.403 100.945H99.5766V99.9453ZM101.967 85.0156L100.969 84.9487L102.958 84.8817L101.967 85.0156ZM104.709 99.9453V100.945H103.903L103.732 100.157L104.709 99.9453ZM112.821 100.23L105.626 76.0193L107.543 75.4495L114.738 99.6604L112.821 100.23ZM105.584 75.7344V62H107.584V75.7344H105.584ZM106.584 63H97.4437V61H106.584V63ZM98.4437 62V75.7344H96.4437V62H98.4437ZM98.4051 76.0098L91.4676 100.221L89.5449 99.6699L96.4824 75.4589L98.4051 76.0098ZM90.5062 98.9453H99.5766V100.945H90.5062V98.9453ZM98.5946 99.7564C100.018 92.3566 100.802 87.4398 100.969 84.9487L102.965 85.0825C102.788 87.7164 101.979 92.7527 100.559 100.134L98.5946 99.7564ZM102.958 84.8817C103.5 88.8932 104.409 93.8419 105.687 99.7333L103.732 100.157C102.448 94.2362 101.528 89.2318 100.976 85.1495L102.958 84.8817ZM104.709 98.9453H113.78V100.945H104.709V98.9453ZM138.375 99.9453V100.945H137.375V99.9453H138.375ZM155.086 99.9453H156.086V100.945H155.086V99.9453ZM155.086 92.3516V91.3516H156.086V92.3516H155.086ZM148.242 92.3516V93.3516H147.242V92.3516H148.242ZM148.242 85.1562H147.242V84.1562H148.242V85.1562ZM154.336 85.1562H155.336V86.1562H154.336V85.1562ZM154.336 77.9375V76.9375H155.336V77.9375H154.336ZM148.242 77.9375V78.9375H147.242V77.9375H148.242ZM148.242 62V61H149.242V62H148.242ZM138.375 62H137.375V61H138.375V62ZM138.375 98.9453H155.086V100.945H138.375V98.9453ZM154.086 99.9453V92.3516H156.086V99.9453H154.086ZM155.086 93.3516H148.242V91.3516H155.086V93.3516ZM147.242 92.3516V85.1562H149.242V92.3516H147.242ZM148.242 84.1562H154.336V86.1562H148.242V84.1562ZM153.336 85.1562V77.9375H155.336V85.1562H153.336ZM154.336 78.9375H148.242V76.9375H154.336V78.9375ZM147.242 77.9375V62H149.242V77.9375H147.242ZM148.242 63H138.375V61H148.242V63ZM139.375 62V99.9453H137.375V62H139.375ZM186.966 69.6172L185.972 69.734L185.971 69.7255L186.966 69.6172ZM185.278 65.2812L184.469 65.8689L184.464 65.8625L185.278 65.2812ZM170.348 62.1875L169.963 61.2646L169.974 61.2603L170.348 62.1875ZM164.677 92.3047L163.683 92.4215L163.682 92.413L164.677 92.3047ZM166.364 96.6641L165.555 97.2517L165.55 97.2453L166.364 96.6641ZM181.294 99.7344L180.908 98.8115L180.919 98.8071L181.294 99.7344ZM177.075 93.5703L176.139 93.2192L176.145 93.2013L176.153 93.1836L177.075 93.5703ZM174.684 93.7109L173.862 94.2802L173.857 94.2732L174.684 93.7109ZM174.544 68.3984L173.595 68.0822L173.599 68.0694L173.604 68.0567L174.544 68.3984ZM186.247 77.7266C186.247 73.9147 186.152 71.2638 185.972 69.734L187.959 69.5003C188.154 71.1581 188.247 73.9134 188.247 77.7266H186.247ZM185.971 69.7255C185.819 68.3244 185.322 67.0436 184.469 65.8688L186.087 64.6937C187.14 66.1439 187.769 67.7537 187.96 69.5089L185.971 69.7255ZM184.464 65.8625C183.641 64.7099 182.516 63.8116 181.057 63.1742L181.858 61.3414C183.618 62.1103 185.04 63.2276 186.092 64.7L184.464 65.8625ZM181.057 63.1742C179.599 62.5369 177.865 62.2031 175.833 62.2031V60.2031C178.082 60.2031 180.098 60.5725 181.858 61.3414L181.057 63.1742ZM175.833 62.2031C173.91 62.2031 172.212 62.5136 170.723 63.1147L169.974 61.2603C171.735 60.5489 173.693 60.2031 175.833 60.2031V62.2031ZM170.734 63.1103C169.281 63.7167 168.132 64.6077 167.261 65.783L165.654 64.592C166.752 63.111 168.197 62.002 169.963 61.2647L170.734 63.1103ZM167.261 65.783C166.375 66.9788 165.859 68.2615 165.693 69.6426L163.707 69.4043C163.916 67.6604 164.572 66.0525 165.654 64.592L167.261 65.783ZM165.693 69.6426C165.513 71.139 165.419 73.8189 165.419 77.7266H163.419C163.419 73.8217 163.512 71.0329 163.707 69.4043L165.693 69.6426ZM165.419 77.7266V84.2188H163.419V77.7266H165.419ZM165.419 84.2188C165.419 88.0311 165.505 90.6778 165.671 92.1964L163.682 92.413C163.504 90.7753 163.419 88.0314 163.419 84.2188H165.419ZM165.67 92.1878C165.837 93.6133 166.338 94.9068 167.178 96.0828L165.55 97.2453C164.515 95.7963 163.891 94.1836 163.683 92.4215L165.67 92.1878ZM167.173 96.0765C168.013 97.2331 169.148 98.1332 170.608 98.7711L169.807 100.604C168.049 99.8356 166.621 98.72 165.555 97.2517L167.173 96.0765ZM170.608 98.7711C172.067 99.4084 173.801 99.7422 175.833 99.7422V101.742C173.584 101.742 171.568 101.373 169.807 100.604L170.608 98.7711ZM175.833 99.7422C177.753 99.7422 179.44 99.4248 180.908 98.8116L181.679 100.657C179.929 101.388 177.975 101.742 175.833 101.742V99.7422ZM180.919 98.8071C182.384 98.2155 183.536 97.3335 184.404 96.1624L186.011 97.3533C184.91 98.8384 183.453 99.9407 181.668 100.662L180.919 98.8071ZM184.404 96.1624C185.291 94.9665 185.807 93.6839 185.973 92.3027L187.958 92.541C187.749 94.2849 187.094 95.8929 186.011 97.3533L184.404 96.1624ZM185.973 92.3027C186.152 90.8063 186.247 88.1264 186.247 84.2188H188.247C188.247 88.1236 188.154 90.9124 187.958 92.541L185.973 92.3027ZM186.247 84.2188V77.7266H188.247V84.2188H186.247ZM178.38 90.1953C178.38 91.0935 178.354 91.8491 178.299 92.4532C178.248 93.0282 178.162 93.5629 177.997 93.957L176.153 93.1836C176.191 93.0934 176.258 92.8234 176.308 92.2734C176.355 91.7525 176.38 91.0628 176.38 90.1953H178.38ZM178.011 93.9214C177.852 94.3476 177.577 94.7229 177.167 94.9799C176.768 95.2303 176.318 95.3203 175.88 95.3203V93.3203C175.965 93.3203 176.021 93.3115 176.056 93.3029C176.09 93.2945 176.103 93.2864 176.104 93.2857C176.104 93.2857 176.104 93.2862 176.107 93.2828C176.11 93.2783 176.123 93.2605 176.139 93.2192L178.011 93.9214ZM175.88 95.3203C175.053 95.3203 174.34 94.9699 173.862 94.2801L175.507 93.1417C175.592 93.2645 175.675 93.3203 175.88 93.3203V95.3203ZM173.857 94.2732C173.695 94.035 173.602 93.7585 173.541 93.5186C173.476 93.2639 173.428 92.9713 173.392 92.6517C173.319 92.0121 173.286 91.1886 173.286 90.1953H175.286C175.286 91.1552 175.319 91.8941 175.379 92.4265C175.409 92.6928 175.444 92.8884 175.479 93.0244C175.517 93.1751 175.54 93.1916 175.511 93.1486L173.857 94.2732ZM173.286 90.1953V72.4766H175.286V90.1953H173.286ZM173.286 72.4766C173.286 71.3651 173.308 70.451 173.352 69.7416C173.395 69.0667 173.463 68.4778 173.595 68.0822L175.492 68.7147C175.452 68.8347 175.392 69.1833 175.348 69.8678C175.307 70.5177 175.286 71.3849 175.286 72.4766H173.286ZM173.604 68.0567C173.766 67.6107 174.054 67.2252 174.479 66.9651C174.891 66.7137 175.356 66.625 175.809 66.625V68.625C175.607 68.625 175.533 68.6652 175.522 68.6716C175.518 68.6745 175.516 68.6758 175.514 68.6789C175.511 68.6831 175.498 68.6999 175.484 68.7402L173.604 68.0567ZM175.809 66.625C176.29 66.625 176.78 66.732 177.204 67.0249C177.635 67.3226 177.905 67.7479 178.052 68.2145L176.145 68.8168C176.124 68.7499 176.103 68.7133 176.09 68.6956C176.079 68.6794 176.072 68.6736 176.067 68.6704C176.061 68.6664 176 68.625 175.809 68.625V66.625ZM178.052 68.2145C178.185 68.636 178.26 69.2435 178.307 69.9553C178.356 70.6931 178.38 71.6295 178.38 72.7578H176.38C176.38 71.6517 176.356 70.7639 176.312 70.0876C176.265 69.3854 176.199 68.989 176.145 68.8168L178.052 68.2145ZM178.38 72.7578V90.1953H176.38V72.7578H178.38ZM198.15 99.9453V100.945H197.15V99.9453H198.15ZM214.58 99.4062L214.366 98.4294L214.368 98.429L214.58 99.4062ZM218.611 96.6406L217.79 96.07L217.797 96.0602L218.611 96.6406ZM214.744 81.8047L214.65 82.8003L214.503 80.8341L214.744 81.8047ZM219.923 77.6094L218.948 77.3878L218.951 77.3746L218.955 77.3615L219.923 77.6094ZM220.181 62V61H221.181V62H220.181ZM211.017 62H210.017V61H211.017V62ZM210.525 78.3828L209.685 77.8407L209.691 77.8313L209.697 77.822L210.525 78.3828ZM208.017 79.1094V80.1094H207.017V79.1094H208.017ZM208.017 62V61H209.017V62H208.017ZM198.15 62H197.15V61H198.15V62ZM208.017 93.4531V94.4531H207.017V93.4531H208.017ZM208.017 85.0156H207.017V84.0156H208.017V85.0156ZM210.337 85.4609L210.899 84.6334L210.905 84.6377L210.337 85.4609ZM210.361 92.8906L209.697 92.1432L209.703 92.1372L209.71 92.1314L210.361 92.8906ZM198.15 98.9453H205.134V100.945H198.15V98.9453ZM205.134 98.9453C209.803 98.9453 212.846 98.7622 214.366 98.4294L214.794 100.383C213.032 100.769 209.778 100.945 205.134 100.945V98.9453ZM214.368 98.429C215.759 98.127 216.892 97.3618 217.79 96.0701L219.432 97.2112C218.267 98.8882 216.713 99.9667 214.792 100.384L214.368 98.429ZM217.797 96.0602C218.66 94.8494 219.181 92.7568 219.181 89.5859H221.181C221.181 92.8838 220.656 95.4943 219.425 97.221L217.797 96.0602ZM219.181 89.5859C219.181 88.1451 219.091 86.9764 218.923 86.0648C218.751 85.1395 218.512 84.555 218.269 84.2188L219.89 83.0469C220.381 83.7263 220.693 84.6418 220.889 85.7009C221.088 86.7736 221.181 88.0736 221.181 89.5859H219.181ZM218.269 84.2188C217.793 83.5599 216.718 82.9951 214.65 82.8003L214.838 80.8091C217.082 81.0206 218.898 81.6744 219.89 83.0469L218.269 84.2188ZM214.503 80.8341C216.41 80.3612 217.452 79.7761 217.911 79.2221L219.452 80.4966C218.566 81.5677 216.984 82.2794 214.984 82.7753L214.503 80.8341ZM217.911 79.2221C218.528 78.4754 218.84 77.8658 218.948 77.3878L220.899 77.831C220.695 78.728 220.178 79.6183 219.452 80.4966L217.911 79.2221ZM218.955 77.3615C219.012 77.1387 219.074 76.6019 219.118 75.6591C219.16 74.7473 219.181 73.5321 219.181 72.0078H221.181C221.181 73.5461 221.16 74.7956 221.116 75.7511C221.073 76.6754 221.007 77.4081 220.892 77.8572L218.955 77.3615ZM219.181 72.0078V62H221.181V72.0078H219.181ZM220.181 63H211.017V61H220.181V63ZM212.017 62V74.6094H210.017V62H212.017ZM212.017 74.6094C212.017 75.6459 211.976 76.5161 211.886 77.2055C211.802 77.8489 211.659 78.4917 211.353 78.9437L209.697 77.822C209.696 77.824 209.731 77.7674 209.778 77.6026C209.822 77.446 209.866 77.2306 209.903 76.9468C209.977 76.3784 210.017 75.6041 210.017 74.6094H212.017ZM211.365 78.9249C211.026 79.4512 210.477 79.7331 209.942 79.8882C209.398 80.0459 208.745 80.1094 208.017 80.1094V78.1094C208.649 78.1094 209.094 78.0517 209.385 77.9672C209.686 77.8802 209.712 77.7988 209.685 77.8407L211.365 78.9249ZM207.017 79.1094V62H209.017V79.1094H207.017ZM208.017 63H198.15V61H208.017V63ZM199.15 62V99.9453H197.15V62H199.15ZM207.017 93.4531V85.0156H209.017V93.4531H207.017ZM208.017 84.0156C209.149 84.0156 210.193 84.1544 210.899 84.6335L209.776 86.2884C209.607 86.1738 209.104 86.0156 208.017 86.0156V84.0156ZM210.905 84.6377C211.454 85.0158 211.695 85.6613 211.822 86.2168C211.959 86.8175 212.017 87.5679 212.017 88.4375H210.017C210.017 87.6352 209.962 87.0536 209.872 86.6621C209.773 86.2255 209.675 86.2185 209.77 86.2841L210.905 84.6377ZM212.017 88.4375V90.5234H210.017V88.4375H212.017ZM212.017 90.5234C212.017 91.1772 211.959 91.7729 211.817 92.2847C211.676 92.7935 211.432 93.2892 211.012 93.6499L209.71 92.1314C209.727 92.117 209.812 92.0308 209.889 91.7504C209.966 91.4732 210.017 91.0728 210.017 90.5234H212.017ZM211.025 93.638C210.307 94.2762 209.19 94.4531 208.017 94.4531V92.4531C209.125 92.4531 209.571 92.2551 209.697 92.1432L211.025 93.638ZM269.339 99.9453H270.339V100.945H269.339V99.9453ZM269.058 68.5156L270.045 68.3556L270.045 68.3576L269.058 68.5156ZM267.394 64.9297L268.191 64.3264L268.195 64.3313L267.394 64.9297ZM263.737 62.1406L264.122 61.2175L264.127 61.2195L263.737 62.1406ZM247.003 69.0547L246.01 68.9392L246.01 68.9378L247.003 69.0547ZM246.769 99.9453V100.945H245.769V99.9453H246.769ZM256.636 99.9453H257.636V100.945H256.636V99.9453ZM256.894 68.3047L255.955 67.9604L255.962 67.9412L255.97 67.9223L256.894 68.3047ZM259.191 68.375L258.251 68.7167L258.248 68.7084L258.245 68.7001L259.191 68.375ZM259.472 99.9453V100.945H258.472V99.9453H259.472ZM268.339 99.9453V74.5859H270.339V99.9453H268.339ZM268.339 74.5859C268.339 71.7105 268.244 69.7587 268.07 68.6736L270.045 68.3576C270.247 69.6163 270.339 71.7114 270.339 74.5859H268.339ZM268.071 68.6757C267.916 67.7205 267.447 66.6726 266.593 65.5281L268.195 64.3313C269.184 65.6555 269.825 66.9982 270.045 68.3556L268.071 68.6757ZM266.596 65.533C265.788 64.4648 264.715 63.6395 263.348 63.0617L264.127 61.2195C265.791 61.923 267.155 62.9571 268.191 64.3264L266.596 65.533ZM263.353 63.0637C262.002 62.5008 260.365 62.2031 258.417 62.2031V60.2031C260.563 60.2031 262.473 60.5304 264.122 61.2175L263.353 63.0637ZM258.417 62.2031C256.261 62.2031 254.401 62.5598 252.814 63.246L252.02 61.4103C253.902 60.5964 256.042 60.2031 258.417 60.2031V62.2031ZM252.814 63.246C251.201 63.9435 250.068 64.8198 249.34 65.8391L247.713 64.6766C248.704 63.2896 250.165 62.2127 252.02 61.4103L252.814 63.246ZM249.34 65.8391C248.568 66.9198 248.131 68.028 247.996 69.1715L246.01 68.9378C246.188 67.4251 246.766 66.0021 247.713 64.6766L249.34 65.8391ZM247.996 69.1702C247.848 70.446 247.769 73.1989 247.769 77.4922H245.769C245.769 73.223 245.846 70.3508 246.01 68.9392L247.996 69.1702ZM247.769 77.4922V99.9453H245.769V77.4922H247.769ZM246.769 98.9453H256.636V100.945H246.769V98.9453ZM255.636 99.9453V71.4922H257.636V99.9453H255.636ZM255.636 71.4922C255.636 70.6501 255.658 69.941 255.704 69.3725C255.748 68.8292 255.819 68.3306 255.955 67.9604L257.833 68.6489C257.797 68.7475 257.739 69.0146 257.697 69.5337C257.657 70.0278 257.636 70.678 257.636 71.4922H255.636ZM255.97 67.9223C256.132 67.5291 256.398 67.1823 256.785 66.9439C257.163 66.7103 257.586 66.625 257.995 66.625V68.625C257.858 68.625 257.824 68.653 257.835 68.646C257.84 68.6431 257.843 68.6395 257.843 68.6396C257.842 68.6407 257.832 68.6534 257.818 68.687L255.97 67.9223ZM257.995 66.625C258.436 66.625 258.892 66.7127 259.294 66.9654C259.711 67.227 259.986 67.6121 260.136 68.0499L258.245 68.7001C258.239 68.6816 258.233 68.6695 258.229 68.6622C258.227 68.6586 258.226 68.656 258.225 68.6545C258.224 68.653 258.223 68.6522 258.223 68.6522C258.223 68.6521 258.224 68.6525 258.224 68.6533C258.225 68.6541 258.226 68.655 258.227 68.656C258.229 68.6581 258.231 68.6594 258.231 68.6596C258.236 68.6623 258.18 68.625 257.995 68.625V66.625ZM260.13 68.0333C260.274 68.4286 260.351 68.9759 260.399 69.5864C260.448 70.2239 260.472 71.0259 260.472 71.9844H258.472C258.472 71.0523 258.449 70.3073 258.405 69.7417C258.358 69.1491 258.295 68.8371 258.251 68.7167L260.13 68.0333ZM260.472 71.9844V99.9453H258.472V71.9844H260.472ZM259.472 98.9453H269.339V100.945H259.472V98.9453ZM301.266 88.4609V87.4609H302.266V88.4609H301.266ZM292.102 88.4609H291.102V87.4609H292.102V88.4609ZM289.219 93.5938L288.378 94.1359L288.372 94.1262L288.366 94.1163L289.219 93.5938ZM289.289 88.5312L290.179 88.9871L290.175 88.9956L290.17 89.0041L289.289 88.5312ZM292.078 86.2109L292.589 87.0706L292.587 87.0715L292.078 86.2109ZM301.125 65.7266L300.231 66.1738L300.226 66.165L301.125 65.7266ZM297.469 62.4922L297.897 61.5886L297.904 61.5916L297.469 62.4922ZM284.367 62.7031L283.894 61.8224L283.897 61.8208L284.367 62.7031ZM279.844 75.5938V76.5938H278.844V75.5938H279.844ZM289.008 75.5938H290.008V76.5938H289.008V75.5938ZM289.383 68.2344L288.531 67.7103L288.538 67.6986L288.546 67.6871L289.383 68.2344ZM292.219 68.3984L291.375 68.9353L291.369 68.9261L291.364 68.9167L292.219 68.3984ZM291.797 75.0781L292.545 75.7415L292.537 75.7508L291.797 75.0781ZM287.18 78.5234L286.627 77.6897L286.631 77.6873L287.18 78.5234ZM280.312 85.1094L279.383 84.7399L279.387 84.7303L280.312 85.1094ZM280.641 96.4531L279.767 96.9405L279.763 96.9327L280.641 96.4531ZM284.25 99.5938L284.663 98.6828L284.67 98.686L284.25 99.5938ZM296.789 99.5L296.371 98.5918L296.373 98.5904L296.789 99.5ZM300.375 96.3594L299.465 95.9439L299.469 95.9371L299.472 95.9303L300.375 96.3594ZM301.266 89.4609H292.102V87.4609H301.266V89.4609ZM293.102 88.4609V91.2734H291.102V88.4609H293.102ZM293.102 91.2734C293.102 91.9537 293.072 92.5418 293.004 93.0236C292.941 93.4729 292.83 93.9554 292.588 94.3275L290.912 93.235C290.904 93.2477 290.969 93.1325 291.023 92.7459C291.073 92.3918 291.102 91.9057 291.102 91.2734H293.102ZM292.588 94.3275C292.118 95.0478 291.358 95.3203 290.578 95.3203V93.3203C290.745 93.3203 290.83 93.2926 290.863 93.2771C290.888 93.2658 290.898 93.2564 290.912 93.235L292.588 94.3275ZM290.578 95.3203C289.657 95.3203 288.882 94.9159 288.378 94.1359L290.059 93.0516C290.181 93.2403 290.312 93.3203 290.578 93.3203V95.3203ZM288.366 94.1163C287.926 93.3975 287.773 92.441 287.773 91.3906H289.773C289.773 92.309 289.918 92.8212 290.071 93.0712L288.366 94.1163ZM287.773 91.3906C287.773 90.0658 287.948 88.9155 288.408 88.0584L290.17 89.0041C289.943 89.4283 289.773 90.1842 289.773 91.3906H287.773ZM288.399 88.0754C288.653 87.5801 289.085 87.1241 289.593 86.702C290.113 86.2694 290.777 85.8192 291.569 85.3504L292.587 87.0715C291.848 87.5089 291.282 87.8986 290.872 88.2395C290.45 88.5907 290.254 88.8418 290.179 88.9871L288.399 88.0754ZM291.567 85.3513C293.742 84.0589 295.494 82.8945 296.833 81.8576C298.184 80.812 299.065 79.9342 299.549 79.2255L301.201 80.3526C300.544 81.3158 299.472 82.3443 298.057 83.4392C296.631 84.543 294.805 85.7536 292.589 87.0706L291.567 85.3513ZM299.549 79.2255C300.515 77.8089 301.086 75.366 301.086 71.7031H303.086C303.086 75.4777 302.516 78.4255 301.201 80.3526L299.549 79.2255ZM301.086 71.7031C301.086 69.0409 300.764 67.2411 300.231 66.1738L302.019 65.2794C302.767 66.7745 303.086 68.9591 303.086 71.7031H301.086ZM300.226 66.165C299.733 65.154 298.726 64.2095 297.034 63.3927L297.904 61.5916C299.837 62.5249 301.267 63.7366 302.024 65.2881L300.226 66.165ZM297.04 63.3958C295.386 62.6113 293.428 62.2031 291.141 62.2031V60.2031C293.666 60.2031 295.927 60.6543 297.897 61.5886L297.04 63.3958ZM291.141 62.2031C288.625 62.2031 286.537 62.6793 284.838 63.5855L283.897 61.8208C285.947 60.727 288.375 60.2031 291.141 60.2031V62.2031ZM284.841 63.5838C283.134 64.5018 282.119 65.6114 281.648 66.8735L279.774 66.1734C280.459 64.3418 281.882 62.9044 283.894 61.8224L284.841 63.5838ZM281.648 66.8735C281.131 68.2557 280.844 70.3117 280.844 73.1094H278.844C278.844 70.2196 279.135 67.8849 279.774 66.1734L281.648 66.8735ZM280.844 73.1094V75.5938H278.844V73.1094H280.844ZM279.844 74.5938H289.008V76.5938H279.844V74.5938ZM288.008 75.5938V70.9766H290.008V75.5938H288.008ZM288.008 70.9766C288.008 70.2417 288.04 69.6082 288.111 69.0891C288.178 68.5991 288.293 68.0972 288.531 67.7103L290.234 68.7585C290.236 68.7559 290.212 68.7956 290.181 68.9075C290.15 69.015 290.119 69.1634 290.092 69.3601C290.038 69.7551 290.008 70.2895 290.008 70.9766H288.008ZM288.546 67.6871C289.058 66.9036 289.903 66.625 290.766 66.625V68.625C290.315 68.625 290.239 68.7526 290.22 68.7816L288.546 67.6871ZM290.766 66.625C291.734 66.625 292.562 67.0349 293.074 67.8801L291.364 68.9167C291.251 68.7307 291.109 68.625 290.766 68.625V66.625ZM293.062 67.8616C293.54 68.6117 293.711 69.6022 293.711 70.6953H291.711C291.711 69.7571 291.554 69.2164 291.375 68.9353L293.062 67.8616ZM293.711 70.6953C293.711 71.8508 293.633 72.8491 293.461 73.671C293.293 74.4766 293.016 75.2099 292.545 75.7414L291.049 74.4148C291.187 74.2588 291.367 73.918 291.503 73.2626C291.637 72.6236 291.711 71.7742 291.711 70.6953H293.711ZM292.537 75.7508C291.811 76.549 290.159 77.765 287.728 79.3596L286.631 77.6873C289.107 76.0632 290.533 74.9822 291.057 74.4055L292.537 75.7508ZM287.732 79.3571C285.273 80.9863 283.712 82.1253 282.982 82.7979L281.627 81.3271C282.491 80.531 284.181 79.3106 286.627 77.6898L287.732 79.3571ZM282.982 82.7979C282.32 83.4084 281.729 84.2888 281.238 85.4884L279.387 84.7303C279.958 83.3362 280.696 82.1853 281.627 81.3271L282.982 82.7979ZM281.242 85.4788C280.789 86.6182 280.539 88.1375 280.539 90.0781H278.539C278.539 87.9875 278.805 86.1943 279.383 84.7399L281.242 85.4788ZM280.539 90.0781C280.539 92.9421 280.908 94.8574 281.518 95.9736L279.763 96.9327C278.904 95.3613 278.539 93.0266 278.539 90.0781H280.539ZM281.514 95.9658C282.142 97.0905 283.165 98.0045 284.663 98.6828L283.837 100.505C282.023 99.683 280.64 98.5033 279.767 96.9405L281.514 95.9658ZM284.67 98.686C286.163 99.3762 288.011 99.7422 290.25 99.7422V101.742C287.801 101.742 285.65 101.343 283.83 100.501L284.67 98.686ZM290.25 99.7422C292.709 99.7422 294.738 99.3444 296.371 98.5918L297.208 100.408C295.247 101.312 292.916 101.742 290.25 101.742V99.7422ZM296.373 98.5904C298.06 97.8197 299.023 96.9128 299.465 95.9439L301.285 96.7749C300.571 98.3372 299.143 99.5241 297.205 100.41L296.373 98.5904ZM299.472 95.9303C299.962 94.8982 300.266 92.9631 300.266 89.9609H302.266C302.266 92.99 301.976 95.3205 301.278 96.7884L299.472 95.9303ZM300.266 89.9609V88.4609H302.266V89.9609H300.266Z" fill="url(#paint0_linear_845_1194)" fill-opacity="0.3"/>
<defs>
<linearGradient id="paint0_linear_845_1194" x1="152" y1="120" x2="152" y2="43" gradientUnits="userSpaceOnUse">
<stop stop-color="white"/>
<stop offset="1" stop-color="#141312" stop-opacity="0"/>
</linearGradient>
</defs>
</svg>
