<svg width="387" height="108" viewBox="0 0 387 108" fill="none" xmlns="http://www.w3.org/2000/svg">
<rect x="193.5" y="0.493652" width="193.5" height="106.622" fill="#141312"/>
<path d="M25.6939 54.6447V88.8509H18.5938V18.7241H64.785V25.5584H25.6939V47.8412H57.9816V54.6485H25.6939V54.6447Z" fill="#141312"/>
<path d="M86.9561 88.8509V18.7241H94.0986V88.8509H86.9561Z" fill="#141312"/>
<path d="M127.943 26.8991L127.947 88.8509H120.835V18.7241H130.204L172.72 80.6335V18.7241H179.832V88.8509H170.624L127.943 26.8991Z" fill="#141312"/>
<path d="M239.156 54.2604H267.599V88.8518H261.578L260.499 81.143C254.77 86.9911 246.769 90.2349 237.18 90.2349C217.135 90.2349 204.187 75.919 204.187 53.7634C204.187 42.4718 207.566 33.0525 213.953 26.534C219.797 20.5704 228.046 17.2881 237.18 17.2881C251.322 17.2881 262.703 24.2495 267.603 39.8675H260.137C256.092 28.7646 246.403 24.3998 237.188 24.3998C224.486 24.3998 211.303 32.5632 211.303 53.7596C211.303 75.6686 225.461 83.1193 237.188 83.1193C246.68 83.1193 260.503 79.1937 260.503 61.0831H239.16V54.2604H239.156Z" fill="white"/>
<path d="M300.183 82.0229H339.76V88.8572H293.087V18.7651H300.183V82.0229Z" fill="white"/>
<path d="M361.534 89.1268V19H368.677V89.1268H361.534Z" fill="white"/>
<path fill-rule="evenodd" clip-rule="evenodd" d="M387 0.987279L-8.60437e-08 0.987245L0 0L387 3.39364e-05L387 0.987279Z" fill="#141312"/>
<path fill-rule="evenodd" clip-rule="evenodd" d="M387 107.61H0L0 106.623H387V107.61Z" fill="#141312"/>
</svg>
