<svg width="30" height="30" viewBox="0 0 30 30" fill="none" xmlns="http://www.w3.org/2000/svg">
<path d="M12 11.4286L15.75 15L12 18.5714L12.75 20L18 15L12.75 10L12 11.4286Z" fill="white"/>
<path d="M16.5 2.02073C15.5718 1.48483 14.4282 1.48483 13.5 2.02073L4.50962 7.21133C3.58142 7.74722 3.00962 8.7376 3.00962 9.8094V20.1906C3.00962 21.2624 3.58142 22.2528 4.50962 22.7887L13.5 27.9793C14.4282 28.5152 15.5718 28.5152 16.5 27.9793L25.4904 22.7887C26.4186 22.2528 26.9904 21.2624 26.9904 20.1906V9.8094C26.9904 8.7376 26.4186 7.74722 25.4904 7.21133L16.5 2.02073Z" stroke="white" stroke-width="2"/>
</svg>
