<svg width="30" height="30" viewBox="0 0 30 30" fill="none" xmlns="http://www.w3.org/2000/svg">
<path d="M18 11.4286L14.25 15L18 18.5714L17.25 20L12 15L17.25 10L18 11.4286Z" fill="white"/>
<path d="M13.5 2.02073C14.4282 1.48483 15.5718 1.48483 16.5 2.02073L25.4904 7.21133C26.4186 7.74722 26.9904 8.7376 26.9904 9.8094V20.1906C26.9904 21.2624 26.4186 22.2528 25.4904 22.7887L16.5 27.9793C15.5718 28.5152 14.4282 28.5152 13.5 27.9793L4.50962 22.7887C3.58141 22.2528 3.00962 21.2624 3.00962 20.1906V9.8094C3.00962 8.7376 3.58142 7.74722 4.50962 7.21133L13.5 2.02073Z" stroke="white" stroke-width="2"/>
</svg>
