<svg width="195" height="195" viewBox="0 0 195 195" fill="none" xmlns="http://www.w3.org/2000/svg">
<path d="M20.2703 162.5C21.3898 162.5 22.2973 161.591 22.2973 160.469C22.2973 159.347 21.3898 158.438 20.2703 158.438C19.1508 158.438 18.2432 159.347 18.2432 160.469C18.2432 161.591 19.1508 162.5 20.2703 162.5Z" stroke="#141312" stroke-width="4" stroke-miterlimit="10" stroke-linecap="round" stroke-linejoin="round"/>
<path d="M42.5676 16.25C43.6871 16.25 44.5946 15.3406 44.5946 14.2188C44.5946 13.0969 43.6871 12.1875 42.5676 12.1875C41.4481 12.1875 40.5405 13.0969 40.5405 14.2188C40.5405 15.3406 41.4481 16.25 42.5676 16.25Z" stroke="#141312" stroke-width="4" stroke-miterlimit="10" stroke-linecap="round" stroke-linejoin="round"/>
<path d="M180.405 16.25C181.525 16.25 182.432 15.3406 182.432 14.2188C182.432 13.0969 181.525 12.1875 180.405 12.1875C179.286 12.1875 178.378 13.0969 178.378 14.2188C178.378 15.3406 179.286 16.25 180.405 16.25Z" stroke="#141312" stroke-width="4" stroke-miterlimit="10" stroke-linecap="round" stroke-linejoin="round"/>
<path d="M60.4054 80.2344L148.378 29.4531" stroke="#141312" stroke-width="6" stroke-miterlimit="10" stroke-linecap="round" stroke-linejoin="round"/>
<path d="M175.135 112.531L176.149 130.609L133.986 154.984L118.784 145.031" stroke="#141312" stroke-width="6" stroke-miterlimit="10" stroke-linecap="round" stroke-linejoin="round"/>
<path d="M170.068 134.266C171.486 141.578 168.041 149.5 161.149 153.359C154.257 157.422 145.946 156.406 140.068 151.328" stroke="#141312" stroke-width="6" stroke-miterlimit="10" stroke-linecap="round"/>
<path d="M94.2567 5.07812C94.4594 11.5781 91.2162 17.875 85.1351 21.3281C79.054 24.7812 71.9594 24.375 66.4865 21.125" stroke="#141312" stroke-width="6" stroke-miterlimit="10" stroke-linecap="round"/>
<path d="M108.079 24.5479L90.525 34.7041L96.606 45.2585L114.16 35.1022L108.079 24.5479Z" stroke="#141312" stroke-width="6" stroke-miterlimit="10" stroke-linecap="round" stroke-linejoin="round"/>
<path d="M53.7162 56.0625L76.4189 42.8594L82.5 53.4219L55.7432 68.8594" stroke="#141312" stroke-width="6" stroke-miterlimit="10" stroke-linecap="round" stroke-linejoin="round"/>
<path d="M81.8919 117.406L60.4054 80.2344C46.4189 55.8594 54.7297 24.9844 79.054 10.9687C103.378 -3.04688 134.189 5.28124 148.378 29.6562L190.946 103.594L103.176 154.375L93.4459 138.125" stroke="#141312" stroke-width="6" stroke-miterlimit="10" stroke-linecap="round" stroke-linejoin="round"/>
<path d="M186.486 190.938H129.73L137.838 166.562H178.378L186.486 190.938Z" stroke="#141312" stroke-width="6" stroke-miterlimit="10" stroke-linecap="round" stroke-linejoin="round"/>
<path d="M93.2433 190.938H36.4865L44.5946 166.562H85.1352L93.2433 190.938Z" stroke="#141312" stroke-width="6" stroke-miterlimit="10" stroke-linecap="round" stroke-linejoin="round"/>
<path d="M166.216 166.562V149.094" stroke="#141312" stroke-width="6" stroke-miterlimit="10" stroke-linecap="round" stroke-linejoin="round"/>
<path d="M150 166.562V155.797" stroke="#141312" stroke-width="6" stroke-miterlimit="10" stroke-linecap="round" stroke-linejoin="round"/>
<path d="M115.541 87.3437C121.138 87.3437 125.676 82.7966 125.676 77.1875C125.676 71.5784 121.138 67.0312 115.541 67.0312C109.943 67.0312 105.405 71.5784 105.405 77.1875C105.405 82.7966 109.943 87.3437 115.541 87.3437Z" stroke="#141312" stroke-width="6" stroke-miterlimit="10" stroke-linecap="round" stroke-linejoin="round"/>
<path d="M14.1892 81.25C19.7867 81.25 24.3243 76.7029 24.3243 71.0937C24.3243 65.4846 19.7867 60.9375 14.1892 60.9375C8.59173 60.9375 4.05408 65.4846 4.05408 71.0937C4.05408 76.7029 8.59173 81.25 14.1892 81.25Z" stroke="#141312" stroke-width="4" stroke-miterlimit="10" stroke-linecap="round" stroke-linejoin="round"/>
<path d="M46.6216 107.656C46.6216 113.344 42.1622 117.813 36.4865 117.813" stroke="#141312" stroke-width="4" stroke-miterlimit="10" stroke-linecap="round" stroke-linejoin="round"/>
<path d="M56.7568 117.813C51.0811 117.813 46.6216 113.344 46.6216 107.656" stroke="#141312" stroke-width="4" stroke-miterlimit="10" stroke-linecap="round" stroke-linejoin="round"/>
<path d="M36.4865 117.812C42.1622 117.812 46.6216 122.281 46.6216 127.969" stroke="#141312" stroke-width="4" stroke-miterlimit="10" stroke-linecap="round" stroke-linejoin="round"/>
<path d="M46.6216 127.969C46.6216 122.281 51.0811 117.812 56.7568 117.812" stroke="#141312" stroke-width="4" stroke-miterlimit="10" stroke-linecap="round" stroke-linejoin="round"/>
<path d="M54.7297 166.562L106.824 71.9062" stroke="#141312" stroke-width="6" stroke-miterlimit="10" stroke-linecap="round" stroke-linejoin="round"/>
<path d="M77.027 166.562L124.054 82.6719" stroke="#141312" stroke-width="6" stroke-miterlimit="10" stroke-linecap="round" stroke-linejoin="round"/>
<path d="M136.622 65.2031C143.311 76.9844 139.054 91.8125 127.5 98.5156C123.041 100.953 118.378 101.969 113.716 101.563" stroke="#141312" stroke-width="6" stroke-miterlimit="10" stroke-linecap="round" stroke-linejoin="round"/>
</svg>
