<svg xmlns="http://www.w3.org/2000/svg">
    <symbol id="logo" viewBox="0 0 98 29" xmlns="http://www.w3.org/2000/svg" shape-rendering="geometricPrecision" text-rendering="geometricPrecision" image-rendering="optimizeQuality" fill-rule="evenodd" clip-rule="evenodd">
        <rect x="49" y="1" width="98" height="29"/>
        <path d="M6.50648 14.7129V23.3749H4.70851V5.6167H16.4055V7.34735H6.50648V12.99H14.6827V14.7138H6.50648V14.7129Z" fill="#141312"/>
        <path d="M22.0199 23.3749V5.6167H23.8286V23.3749H22.0199Z" fill="#141312"/>
        <path d="M32.3989 7.68685L32.3999 23.3749H30.599V5.6167H32.9716L43.7379 21.294V5.6167H45.5388V23.3749H43.2072L32.3989 7.68685Z" fill="#141312"/>
        <path d="M60.5615 14.6153H67.7641V23.3749H66.2393L65.9661 21.4228C64.5155 22.9037 62.4892 23.7251 60.061 23.7251C54.9852 23.7251 51.7063 20.0999 51.7063 14.4895C51.7063 11.6301 52.5619 9.24482 54.1794 7.59416C55.6593 6.08399 57.748 5.25281 60.061 5.25281C63.6423 5.25281 66.5242 7.01565 67.7651 10.9706H65.8744C64.8501 8.15901 62.3966 7.0537 60.063 7.0537C56.8466 7.0537 53.5082 9.12092 53.5082 14.4885C53.5082 20.0365 57.0934 21.9233 60.063 21.9233C62.4668 21.9233 65.9671 20.9292 65.9671 16.343H60.5625V14.6153H60.5615Z" fill="white"/>
        <path d="M76.0154 21.6453H86.0374V23.376H74.2184V5.62659H76.0154V21.6453Z" fill="white"/>
        <path d="M91.5513 23.3749V5.6167H93.36V23.3749H91.5513Z" fill="white"/>
        <path fill-rule="evenodd" clip-rule="evenodd" d="M98 1.12501L-2.17888e-08 1.125L0 0.875L98 0.875009L98 1.12501Z" fill="#141312"/>
        <path fill-rule="evenodd" clip-rule="evenodd" d="M98 28.125H0L0 27.875H98V28.125Z" fill="#141312"/>
    </symbol>

    <symbol viewBox="0 0 212 212" fill="none" id="owl">
            <path d="M95.0467 23.9285V38.6115L78.0867 27.8545L95.0467 23.9285Z" fill="#141312"/>
            <path d="M64.8367 28.4826C66.0733 28.4826 73.9448 28.4826 75.1815 28.4826L95.0467 41.1044C95.0467 41.5167 95.0467 51.037 95.0467 51.8615V53.5104L60.7145 48.5441C60.4985 48.3281 55.3359 40.8885 55.1396 40.6922C55.3163 40.4763 64.6404 28.6789 64.8367 28.4826Z" fill="#141312"/>
            <path d="M83.8774 80.5993L95.2626 85.1533V85.9778V115.344L90.4926 100.877C90.2767 100.249 84.2896 81.8359 83.8774 80.5993Z" fill="#141312"/>
            <path d="M78.4989 73.3559C75.3974 69.0178 65.877 55.3556 62.5792 50.6052L94.2026 55.1593L78.4989 73.3559Z" fill="#141312"/>
            <path d="M95.0467 57.24V82.8763L82.6211 77.91L79.7355 75.0244L95.0467 57.24Z" fill="#141312"/>
            <path d="M70.6274 71.923C72.2763 72.3352 74.1411 72.7474 75.79 73.1596L77.0267 75.0244L76.8107 75.2404L77.0267 75.4563C75.5741 77.9296 70.4115 86.4096 62.9522 84.9767C54.6881 83.9363 46.8167 76.7126 50.1341 66.9763C52.6074 67.6044 55.5126 68.213 57.7896 68.8411C55.5322 80.187 68.5663 81.2274 70.6274 71.923Z" fill="#141312"/>
            <path d="M60.0863 69.2337L68.5663 71.2948C66.9174 78.3222 58.2215 77.7137 60.0863 69.2337Z" fill="#141312"/>
            <path d="M73.9448 70.6667C73.1204 70.4507 72.08 70.2544 71.2556 70.0385C67.1137 68.9981 62.5596 67.7615 58.4374 66.7211C52.6467 65.2685 41.6933 62.5793 35.6867 60.9304L31.7607 59.6937C36.0989 55.3556 48.7207 45.6193 53.8833 41.9093L73.9448 70.6667Z" fill="#141312"/>
            <path d="M41.8896 82.8763L36.7271 63.443L48.3085 66.3481C44.9911 78.1456 53.0589 86.2133 64.8563 87.0378C71.8837 87.0378 76.85 79.7944 78.7148 76.693L81.4041 79.3822L87.823 99.0315L55.5519 94.6933L41.8896 82.8763Z" fill="#141312"/>
            <path d="M6.30112 2.82668L47.8767 11.5226L61.323 25.7933L19.9633 17.9415L6.30112 2.82668Z" fill="#141312"/>
            <path d="M17.0581 25.1652L19.9633 20.0026L62.5596 28.0704L53.6674 39.4359L31.1326 36.7467L17.0581 25.1652Z" fill="#141312"/>
            <path d="M31.1326 38.8274L51.41 41.3007L34.0182 54.963C30.2885 56.0033 20.5719 58.8889 16.6459 60.1256L31.1326 38.8274Z" fill="#141312"/>
            <path d="M95.0466 125.689L71.0592 112.458L71.6874 112.046L72.3155 111.83H72.0996L88.4314 101.897C89.2559 104.587 96.2833 123.411 95.0466 125.689Z" fill="#141312"/>
            <path d="M180.455 139.135C169.914 134.384 135.778 119.27 126.67 113.283L148.204 110.809L149.244 110.593L150.069 109.553L165.792 91.1404L166.616 90.3159V84.7411L185.029 100.661L180.455 139.135Z" fill="#141312"/>
            <path d="M152.738 82.8763L157.92 62.8148L161.846 61.5782C162.259 64.8956 164.123 79.1663 164.536 82.68V88.4707L152.738 82.8763Z" fill="#141312"/>
            <path d="M163.711 90.5318L148.616 108.12L138.683 95.9104L151.501 84.7411L163.711 90.5318Z" fill="#141312"/>
            <path d="M133.913 66.7408C129.771 67.7811 125.217 69.0178 121.095 70.0582C120.271 70.2741 119.23 70.4704 118.406 70.6863L138.683 41.9289C143.846 45.8548 156.468 55.3752 160.806 59.7133C153.15 62.1867 141.569 64.6796 133.913 66.7408Z" fill="#141312"/>
            <path d="M115.304 75.0245L116.541 73.1596C118.19 72.7474 120.055 72.3352 121.704 71.923C123.765 81.2274 136.799 79.9908 134.326 68.8215C136.799 68.1933 139.704 67.5848 141.981 66.9567C145.298 76.6733 137.427 83.9167 129.163 84.9571C121.92 86.4096 116.541 77.9296 115.089 75.4367L115.304 75.0245Z" fill="#141312"/>
            <path d="M123.588 71.5107L132.068 69.4496C132.284 71.923 132.284 73.7878 131.44 75.0245C128.554 78.1259 124.413 74.8085 123.588 71.5107Z" fill="#141312"/>
            <path d="M113.852 73.3559L98.1482 55.1593L129.791 50.6052C126.474 55.3752 116.953 68.8215 113.852 73.3559Z" fill="#141312"/>
            <path d="M112.615 75.0244L109.73 77.91L97.3041 82.8763V57.24L112.615 75.0244Z" fill="#141312"/>
            <path d="M111.163 79.3626L113.852 76.6733C115.501 79.7748 120.467 87.0182 127.71 87.0182C139.508 85.9778 147.576 77.91 144.258 66.3285L155.84 63.4233L150.677 82.8567L137.034 94.6541L104.763 98.9922C104.763 99.2081 111.163 79.3626 111.163 79.3626Z" fill="#141312"/>
            <path d="M137.034 96.7348L146.751 108.944L123.784 111.418L106.412 100.877L137.034 96.7348Z" fill="#141312"/>
            <path d="M184.381 97.5592L166.381 82.0518L163.711 60.7537L163.495 59.517C163.083 59.3011 158.745 55.1789 158.333 54.7667C161.65 55.807 172.191 58.9085 175.705 59.9293L184.381 97.5592Z" fill="#141312"/>
            <path d="M174.252 57.4363C170.11 56.1996 158.529 52.8822 154.819 51.8615L141.176 41.3204L161.454 38.847L174.252 57.4363Z" fill="#141312"/>
            <path d="M144.474 11.5226L186.05 2.82668L172.387 17.9415L131.028 25.7933L144.474 11.5226Z" fill="#141312"/>
            <path d="M172.387 20.0026L175.293 25.1652L161.218 36.5504L138.664 39.2396L129.771 27.8544C134.954 27.03 166.597 21.2393 172.387 20.0026Z" fill="#141312"/>
            <path d="M117.169 28.2667C118.622 28.2667 126.277 28.2667 127.514 28.2667C127.514 28.4826 136.21 39.4359 136.406 39.4359L137.034 40.2604L136.819 40.4763L131.44 48.1318L97.1078 53.0981C97.1078 52.47 97.1078 41.713 97.1078 40.8885L117.169 28.2667Z" fill="#141312"/>
            <path d="M97.3041 23.9285L114.264 27.8545L97.3041 38.6115V23.9285Z" fill="#141312"/>
            <path d="M97.3041 85.9778V85.1533C97.52 85.1533 108.473 80.5993 108.689 80.5993L102.683 98.7959L102.467 99.4241C102.467 99.64 97.5004 114.735 97.3041 115.344V85.9778Z" fill="#141312"/>
            <path d="M103.723 101.897L120.055 111.83H119.839C119.839 111.83 121.292 112.654 121.076 112.458C114.873 115.776 103.075 122.391 97.0882 125.689C96.0675 123.411 103.095 104.39 103.723 101.897Z" fill="#141312"/>
            <path d="M146.339 144.513C143.65 152.993 137.859 171.406 135.17 179.67C126.474 169.737 105.804 146.162 97.3237 136.446V129.202V127.966L123.392 113.479L139.311 122.371L142.413 132.088C142.393 132.52 146.339 144.513 146.339 144.513Z" fill="#141312"/>
            <path d="M152.326 156.919L148.4 144.513C147.772 142.452 142.609 126.101 141.785 123.824L180.455 141.412L205.679 204.502C203.422 206.366 154.191 157.744 152.326 156.919Z" fill="#141312"/>
            <path d="M112.419 156.919L134.541 182.163L132.893 208.015L112.419 156.919Z" fill="#141312"/>
    </symbol>

    <symbol viewBox="0 0 195 195" fill="none" id="robot">
        <path d="M20.2703 162.5C21.3898 162.5 22.2973 161.591 22.2973 160.469C22.2973 159.347 21.3898 158.438 20.2703 158.438C19.1508 158.438 18.2432 159.347 18.2432 160.469C18.2432 161.591 19.1508 162.5 20.2703 162.5Z" stroke="#141312" stroke-width="4" stroke-miterlimit="10" stroke-linecap="round" stroke-linejoin="round"/>
        <path d="M42.5676 16.25C43.6871 16.25 44.5946 15.3406 44.5946 14.2188C44.5946 13.0969 43.6871 12.1875 42.5676 12.1875C41.4481 12.1875 40.5405 13.0969 40.5405 14.2188C40.5405 15.3406 41.4481 16.25 42.5676 16.25Z" stroke="#141312" stroke-width="4" stroke-miterlimit="10" stroke-linecap="round" stroke-linejoin="round"/>
        <path d="M180.405 16.25C181.525 16.25 182.432 15.3406 182.432 14.2188C182.432 13.0969 181.525 12.1875 180.405 12.1875C179.286 12.1875 178.378 13.0969 178.378 14.2188C178.378 15.3406 179.286 16.25 180.405 16.25Z" stroke="#141312" stroke-width="4" stroke-miterlimit="10" stroke-linecap="round" stroke-linejoin="round"/>
        <path d="M60.4054 80.2344L148.378 29.4531" stroke="#141312" stroke-width="6" stroke-miterlimit="10" stroke-linecap="round" stroke-linejoin="round"/>
        <path d="M175.135 112.531L176.149 130.609L133.986 154.984L118.784 145.031" stroke="#141312" stroke-width="6" stroke-miterlimit="10" stroke-linecap="round" stroke-linejoin="round"/>
        <path d="M170.068 134.266C171.486 141.578 168.041 149.5 161.149 153.359C154.257 157.422 145.946 156.406 140.068 151.328" stroke="#141312" stroke-width="6" stroke-miterlimit="10" stroke-linecap="round"/>
        <path d="M94.2567 5.07812C94.4594 11.5781 91.2162 17.875 85.1351 21.3281C79.054 24.7812 71.9594 24.375 66.4865 21.125" stroke="#141312" stroke-width="6" stroke-miterlimit="10" stroke-linecap="round"/>
        <path d="M108.079 24.5479L90.525 34.7041L96.606 45.2585L114.16 35.1022L108.079 24.5479Z" stroke="#141312" stroke-width="6" stroke-miterlimit="10" stroke-linecap="round" stroke-linejoin="round"/>
        <path d="M53.7162 56.0625L76.4189 42.8594L82.5 53.4219L55.7432 68.8594" stroke="#141312" stroke-width="6" stroke-miterlimit="10" stroke-linecap="round" stroke-linejoin="round"/>
        <path d="M81.8919 117.406L60.4054 80.2344C46.4189 55.8594 54.7297 24.9844 79.054 10.9687C103.378 -3.04688 134.189 5.28124 148.378 29.6562L190.946 103.594L103.176 154.375L93.4459 138.125" stroke="#141312" stroke-width="6" stroke-miterlimit="10" stroke-linecap="round" stroke-linejoin="round"/>
        <path d="M186.486 190.938H129.73L137.838 166.562H178.378L186.486 190.938Z" stroke="#141312" stroke-width="6" stroke-miterlimit="10" stroke-linecap="round" stroke-linejoin="round"/>
        <path d="M93.2433 190.938H36.4865L44.5946 166.562H85.1352L93.2433 190.938Z" stroke="#141312" stroke-width="6" stroke-miterlimit="10" stroke-linecap="round" stroke-linejoin="round"/>
        <path d="M166.216 166.562V149.094" stroke="#141312" stroke-width="6" stroke-miterlimit="10" stroke-linecap="round" stroke-linejoin="round"/>
        <path d="M150 166.562V155.797" stroke="#141312" stroke-width="6" stroke-miterlimit="10" stroke-linecap="round" stroke-linejoin="round"/>
        <path d="M115.541 87.3437C121.138 87.3437 125.676 82.7966 125.676 77.1875C125.676 71.5784 121.138 67.0312 115.541 67.0312C109.943 67.0312 105.405 71.5784 105.405 77.1875C105.405 82.7966 109.943 87.3437 115.541 87.3437Z" stroke="#141312" stroke-width="6" stroke-miterlimit="10" stroke-linecap="round" stroke-linejoin="round"/>
        <path d="M14.1892 81.25C19.7867 81.25 24.3243 76.7029 24.3243 71.0937C24.3243 65.4846 19.7867 60.9375 14.1892 60.9375C8.59173 60.9375 4.05408 65.4846 4.05408 71.0937C4.05408 76.7029 8.59173 81.25 14.1892 81.25Z" stroke="#141312" stroke-width="4" stroke-miterlimit="10" stroke-linecap="round" stroke-linejoin="round"/>
        <path d="M46.6216 107.656C46.6216 113.344 42.1622 117.813 36.4865 117.813" stroke="#141312" stroke-width="4" stroke-miterlimit="10" stroke-linecap="round" stroke-linejoin="round"/>
        <path d="M56.7568 117.813C51.0811 117.813 46.6216 113.344 46.6216 107.656" stroke="#141312" stroke-width="4" stroke-miterlimit="10" stroke-linecap="round" stroke-linejoin="round"/>
        <path d="M36.4865 117.812C42.1622 117.812 46.6216 122.281 46.6216 127.969" stroke="#141312" stroke-width="4" stroke-miterlimit="10" stroke-linecap="round" stroke-linejoin="round"/>
        <path d="M46.6216 127.969C46.6216 122.281 51.0811 117.812 56.7568 117.812" stroke="#141312" stroke-width="4" stroke-miterlimit="10" stroke-linecap="round" stroke-linejoin="round"/>
        <path d="M54.7297 166.562L106.824 71.9062" stroke="#141312" stroke-width="6" stroke-miterlimit="10" stroke-linecap="round" stroke-linejoin="round"/>
        <path d="M77.027 166.562L124.054 82.6719" stroke="#141312" stroke-width="6" stroke-miterlimit="10" stroke-linecap="round" stroke-linejoin="round"/>
        <path d="M136.622 65.2031C143.311 76.9844 139.054 91.8125 127.5 98.5156C123.041 100.953 118.378 101.969 113.716 101.563" stroke="#141312" stroke-width="6" stroke-miterlimit="10" stroke-linecap="round" stroke-linejoin="round"/>
    </symbol>

    <symbol id="arr_up" viewBox="0 0 10 10" fill="none" xmlns="http://www.w3.org/2000/svg">
        <path d="M9.5 1C9.5 0.723858 9.27614 0.5 9 0.5L4.5 0.5C4.22386 0.5 4 0.723858 4 1C4 1.27614 4.22386 1.5 4.5 1.5L8.5 1.5L8.5 5.5C8.5 5.77614 8.72386 6 9 6C9.27614 6 9.5 5.77614 9.5 5.5L9.5 1ZM1.35355 9.35355L9.35355 1.35355L8.64645 0.646447L0.646447 8.64645L1.35355 9.35355Z" fill="#141312"/>
    </symbol>

    <symbol id="arrow" viewBox="0 0 21 8" fill="none" xmlns="http://www.w3.org/2000/svg">
        <path d="M20.3536 4.35355C20.5488 4.15829 20.5488 3.84171 20.3536 3.64645L17.1716 0.464466C16.9763 0.269204 16.6597 0.269204 16.4645 0.464466C16.2692 0.659728 16.2692 0.976311 16.4645 1.17157L19.2929 4L16.4645 6.82843C16.2692 7.02369 16.2692 7.34027 16.4645 7.53553C16.6597 7.7308 16.9763 7.7308 17.1716 7.53553L20.3536 4.35355ZM0 4.5H20V3.5H0V4.5Z" fill="#141312"/>
    </symbol>

    <symbol id="arrow_white" viewBox="0 0 21 8" fill="none" xmlns="http://www.w3.org/2000/svg">
        <path d="M20.3536 4.35355C20.5488 4.15829 20.5488 3.84171 20.3536 3.64645L17.1716 0.464466C16.9763 0.269204 16.6597 0.269204 16.4645 0.464466C16.2692 0.659728 16.2692 0.976311 16.4645 1.17157L19.2929 4L16.4645 6.82843C16.2692 7.02369 16.2692 7.34027 16.4645 7.53553C16.6597 7.7308 16.9763 7.7308 17.1716 7.53553L20.3536 4.35355ZM0 4.5H20V3.5H0V4.5Z" fill="#ffffff"/>
    </symbol>

    <symbol id="owl_white" viewBox="0 0 71 49" fill="none" xmlns="http://www.w3.org/2000/svg">
        <path d="M31.8319 7.97058V12.8615L26.1519 9.27831L31.8319 7.97058Z" fill="white"/>
        <path d="M21.714 9.48755C22.1282 9.48755 24.7644 9.48755 25.1786 9.48755L31.8315 13.6919C31.8315 13.8292 31.8315 17.0005 31.8315 17.2751V17.8244L20.3335 16.1701C20.2612 16.0981 18.5322 13.62 18.4664 13.5546C18.5256 13.4827 21.6483 9.55294 21.714 9.48755Z" fill="white"/>
        <path d="M28.0912 26.8478L31.9042 28.3647V28.6394V38.4212L30.3067 33.6022C30.2344 33.393 28.2293 27.2597 28.0912 26.8478Z" fill="white"/>
        <path d="M26.2898 24.435C25.2511 22.99 22.0626 18.439 20.9582 16.8567L31.549 18.3737L26.2898 24.435Z" fill="white"/>
        <path d="M31.8314 19.0668V27.6063L27.67 25.952L26.7036 24.9908L31.8314 19.0668Z" fill="white"/>
        <path d="M23.6536 23.9577C24.2058 24.095 24.8303 24.2323 25.3825 24.3696L25.7967 24.9908L25.7244 25.0627L25.7967 25.1346C25.3102 25.9585 23.5812 28.7832 21.0831 28.3059C18.3154 27.9594 15.6792 25.5531 16.7902 22.3099C17.6186 22.5192 18.5915 22.7219 19.3541 22.9311C18.5981 26.7105 22.9633 27.057 23.6536 23.9577Z" fill="white"/>
        <path d="M20.1232 23.0619L22.9632 23.7485C22.411 26.0893 19.4987 25.8866 20.1232 23.0619Z" fill="white"/>
        <path d="M24.7647 23.5392C24.4886 23.4673 24.1402 23.4019 23.8641 23.33C22.4769 22.9835 20.9517 22.5715 19.5712 22.225C17.6318 21.7411 13.9635 20.8453 11.9518 20.2961L10.637 19.8841C12.0899 18.4391 16.317 15.1959 18.046 13.9601L24.7647 23.5392Z" fill="white"/>
        <path d="M2.11017 0.941528L16.0341 3.83816L20.5373 8.59177L6.68572 5.9763L2.11017 0.941528Z" fill="white"/>
        <path d="M5.71277 8.38263L6.68573 6.66296L20.9515 9.35036L17.9734 13.1362L10.4264 12.2404L5.71277 8.38263Z" fill="white"/>
        <path d="M10.4265 12.9335L17.2175 13.7573L11.3929 18.3083C10.1438 18.6548 6.88964 19.616 5.57483 20.0279L10.4265 12.9335Z" fill="white"/>
        <path d="M60.4353 46.3461C56.9051 44.7637 45.4727 39.7289 42.4224 37.7346L49.6341 36.9108L49.9826 36.8388L50.2587 36.4923L55.5245 30.359L55.8006 30.0844V28.2274L61.9671 33.5303L60.4353 46.3461Z" fill="white"/>
        <path d="M51.153 27.6063L52.8885 20.9238L54.2033 20.5118C54.3414 21.6169 54.9659 26.3705 55.104 27.5409V29.4698L51.153 27.6063Z" fill="white"/>
        <path d="M54.8279 30.1563L49.7724 36.015L46.4459 31.9479L50.7388 28.2274L54.8279 30.1563Z" fill="white"/>
        <path d="M44.8484 22.2314C43.4613 22.578 41.9361 22.9899 40.5556 23.3365C40.2794 23.4084 39.931 23.4738 39.6549 23.5457L46.4459 13.9666C48.1749 15.2743 52.402 18.4455 53.8549 19.8906C51.291 20.7145 47.4123 21.5449 44.8484 22.2314Z" fill="white"/>
        <path d="M38.616 24.9909L39.0302 24.3697C39.5824 24.2324 40.2069 24.0951 40.7592 23.9578C41.4494 27.0571 45.8146 26.6452 44.9863 22.9246C45.8146 22.7154 46.7876 22.5127 47.5502 22.3035C48.6612 25.5401 46.025 27.9529 43.2573 28.2994C40.8315 28.7833 39.0302 25.9586 38.5437 25.1282L38.616 24.9909Z" fill="white"/>
        <path d="M41.3901 23.8203L44.2301 23.1338C44.3024 23.9577 44.3024 24.5788 44.0198 24.9908C43.0534 26.0239 41.6662 24.9188 41.3901 23.8203Z" fill="white"/>
        <path d="M38.1297 24.435L32.8704 18.3737L43.4678 16.8567C42.3568 18.4456 39.1684 22.9246 38.1297 24.435Z" fill="white"/>
        <path d="M37.7153 24.9908L36.7489 25.952L32.5875 27.6063V19.0668L37.7153 24.9908Z" fill="white"/>
        <path d="M37.2288 26.4359L38.1294 25.5401C38.6817 26.5732 40.3449 28.9859 42.7707 28.9859C46.7217 28.6394 49.4237 25.952 48.3127 22.0942L52.1914 21.1265L50.4624 27.5998L45.8934 31.5295L35.0856 32.9745C35.0856 33.0465 37.2288 26.4359 37.2288 26.4359Z" fill="white"/>
        <path d="M45.8939 32.2225L49.148 36.2896L41.4564 37.1135L35.6383 33.6022L45.8939 32.2225Z" fill="white"/>
        <path d="M61.7502 32.4972L55.7217 27.3317L54.8277 20.2372L54.7554 19.8253C54.6173 19.7534 53.1644 18.3802 53.0264 18.2429C54.1374 18.5895 57.6677 19.6226 58.8444 19.9626L61.7502 32.4972Z" fill="white"/>
        <path d="M58.3581 19.1322C56.971 18.7203 53.0922 17.6152 51.8497 17.2752L47.2808 13.7639L54.0718 12.9401L58.3581 19.1322Z" fill="white"/>
        <path d="M48.3851 3.83816L62.309 0.941528L57.7334 5.9763L43.8818 8.59177L48.3851 3.83816Z" fill="white"/>
        <path d="M57.7333 6.66296L58.7062 8.38263L53.9926 12.1751L46.439 13.0709L43.4609 9.27843C45.1965 9.00381 55.7939 7.0749 57.7333 6.66296Z" fill="white"/>
        <path d="M39.2407 9.41565C39.7272 9.41565 42.2911 9.41565 42.7053 9.41565C42.7053 9.48757 45.6176 13.1362 45.6833 13.1362L45.8937 13.4108L45.8214 13.4827L44.0201 16.0328L32.522 17.6871C32.522 17.4778 32.522 13.8946 32.522 13.62L39.2407 9.41565Z" fill="white"/>
        <path d="M32.5875 7.97058L38.2675 9.27831L32.5875 12.8615V7.97058Z" fill="white"/>
        <path d="M32.5875 28.6394V28.3647C32.6598 28.3647 36.3282 26.8478 36.4005 26.8478L34.3888 32.9091L34.3165 33.1184C34.3165 33.1903 32.6533 38.2185 32.5875 38.4212V28.6394Z" fill="white"/>
        <path d="M34.7376 33.9423L40.2072 37.2508H40.1349C40.1349 37.2508 40.6214 37.5255 40.5491 37.4601C38.4717 38.5651 34.5207 40.7686 32.5156 41.8671C32.1737 41.1086 34.5272 34.7727 34.7376 33.9423Z" fill="white"/>
    </symbol>

    <symbol id="plus" viewBox="0 0 25 25" fill="none" xmlns="http://www.w3.org/2000/svg">
        <path d="M11.7676 3.71094H13.2324C13.3626 3.71094 13.4277 3.77604 13.4277 3.90625V21.0938C13.4277 21.224 13.3626 21.2891 13.2324 21.2891H11.7676C11.6374 21.2891 11.5723 21.224 11.5723 21.0938V3.90625C11.5723 3.77604 11.6374 3.71094 11.7676 3.71094Z" fill="#141312"/>
        <path d="M4.29688 11.5723H20.7031C20.8333 11.5723 20.8984 11.6374 20.8984 11.7676V13.2324C20.8984 13.3626 20.8333 13.4277 20.7031 13.4277H4.29688C4.16667 13.4277 4.10156 13.3626 4.10156 13.2324V11.7676C4.10156 11.6374 4.16667 11.5723 4.29688 11.5723Z" fill="#141312"/>
    </symbol>

    <symbol id="arr_long" viewBox="0 0 1341 16" fill="none" xmlns="http://www.w3.org/2000/svg">
        <path d="M1340.71 8.70722C1341.1 8.3167 1341.1 7.68353 1340.71 7.29301L1334.34 0.929049C1333.95 0.538524 1333.32 0.538524 1332.93 0.929049C1332.54 1.31957 1332.54 1.95274 1332.93 2.34326L1338.59 8.00012L1332.93 13.657C1332.54 14.0475 1332.54 14.6807 1332.93 15.0712C1333.32 15.4617 1333.95 15.4617 1334.34 15.0712L1340.71 8.70722ZM-8.74228e-08 9L1340 9.00012L1340 7.00012L8.74228e-08 7L-8.74228e-08 9Z" fill="black"/>
    </symbol>

    <symbol id="arrow_after" viewBox="0 0 20 20" fill="none" xmlns="http://www.w3.org/2000/svg">
        <rect width="1440" height="8406" transform="translate(-365 -5090)" fill="white"/>
        <path d="M4.29291 10.207C3.90234 9.81649 3.90234 9.18333 4.29291 8.7928L10.6569 2.42884C11.0474 2.03832 11.6805 2.03832 12.071 2.42884C12.4616 2.81937 12.4616 3.45253 12.071 3.84306L6.41418 9.49991L12.071 15.1568C12.4616 15.5473 12.4616 16.1805 12.071 16.571C11.6805 16.9615 11.0474 16.9615 10.6569 16.571L4.29291 10.207ZM1025 10.5L5 10.4999L5 8.49991L1025 8.5L1025 10.5Z" fill="black"/>
    </symbol>

    <symbol id="logo_contact" viewBox="0 0 387 108" fill="none" xmlns="http://www.w3.org/2000/svg">
        <rect x="193.5" y="0.493652" width="193.5" height="106.622" fill="#141312"/>
        <path d="M25.6939 54.6447V88.8509H18.5938V18.7241H64.785V25.5584H25.6939V47.8412H57.9816V54.6485H25.6939V54.6447Z" fill="#141312"/>
        <path d="M86.9561 88.8509V18.7241H94.0986V88.8509H86.9561Z" fill="#141312"/>
        <path d="M127.943 26.8991L127.947 88.8509H120.835V18.7241H130.204L172.72 80.6335V18.7241H179.832V88.8509H170.624L127.943 26.8991Z" fill="#141312"/>
        <path d="M239.156 54.2604H267.599V88.8518H261.578L260.499 81.143C254.77 86.9911 246.769 90.2349 237.18 90.2349C217.135 90.2349 204.187 75.919 204.187 53.7634C204.187 42.4718 207.566 33.0525 213.953 26.534C219.797 20.5704 228.046 17.2881 237.18 17.2881C251.322 17.2881 262.703 24.2495 267.603 39.8675H260.137C256.092 28.7646 246.403 24.3998 237.188 24.3998C224.486 24.3998 211.303 32.5632 211.303 53.7596C211.303 75.6686 225.461 83.1193 237.188 83.1193C246.68 83.1193 260.503 79.1937 260.503 61.0831H239.16V54.2604H239.156Z" fill="white"/>
        <path d="M300.183 82.0229H339.76V88.8572H293.087V18.7651H300.183V82.0229Z" fill="white"/>
        <path d="M361.534 89.1268V19H368.677V89.1268H361.534Z" fill="white"/>
        <path fill-rule="evenodd" clip-rule="evenodd" d="M387 0.987279L-8.60437e-08 0.987245L0 0L387 3.39364e-05L387 0.987279Z" fill="#141312"/>
        <path fill-rule="evenodd" clip-rule="evenodd" d="M387 107.61H0L0 106.623H387V107.61Z" fill="#141312"/>
    </symbol>

    <symbol id="contact_line" viewBox="0 0 388 1" fill="none" xmlns="http://www.w3.org/2000/svg">
        <line y1="0.75" x2="388" y2="0.75" stroke="#141312" stroke-opacity="0.4" stroke-width="0.5" stroke-dasharray="10 10"/>
    </symbol>

    <!--    numbers-->

    <symbol id="one" viewBox="0 0 191 110" fill="none" xmlns="http://www.w3.org/2000/svg">
        <path d="M42.5511 109.301C68.8864 109.301 84.7898 89.2557 84.8409 54.7386C84.8921 20.4773 68.7841 0.840905 42.5511 0.840905C16.267 0.840905 0.3125 20.4261 0.261364 54.7386C0.159091 89.1534 16.1648 109.25 42.5511 109.301ZM42.5511 90.9432C30.5341 90.9432 22.7614 78.875 22.8125 54.7386C22.8636 30.9602 30.5852 18.9943 42.5511 18.9943C54.4659 18.9943 62.2386 30.9602 62.2386 54.7386C62.2898 78.875 54.517 90.9432 42.5511 90.9432ZM146.192 2.27272H125.379L99.4531 18.6875V38.3239L123.436 23.2898H124.05V107H146.192V2.27272ZM178.536 108.33C185.081 108.33 190.757 102.858 190.808 96.0568C190.757 89.358 185.081 83.8864 178.536 83.8864C171.786 83.8864 166.212 89.358 166.263 96.0568C166.212 102.858 171.786 108.33 178.536 108.33Z" fill="white" fill-opacity="0.1"/>
    </symbol>

    <symbol id="two" viewBox="0 0 217 110" fill="none" xmlns="http://www.w3.org/2000/svg">
        <path d="M42.5511 109.301C68.8864 109.301 84.7898 89.2557 84.8409 54.7386C84.8921 20.4773 68.7841 0.840905 42.5511 0.840905C16.267 0.840905 0.3125 20.4261 0.261364 54.7386C0.159091 89.1534 16.1648 109.25 42.5511 109.301ZM42.5511 90.9432C30.5341 90.9432 22.7614 78.875 22.8125 54.7386C22.8636 30.9602 30.5852 18.9943 42.5511 18.9943C54.4659 18.9943 62.2386 30.9602 62.2386 54.7386C62.2898 78.875 54.517 90.9432 42.5511 90.9432ZM100.629 107H175.288V88.8977H131.311V88.1818L146.601 73.1989C168.129 53.5625 173.908 43.7443 173.908 31.8295C173.908 13.6761 159.078 0.840905 136.629 0.840905C114.641 0.840905 99.5554 13.9829 99.6065 34.5398H120.624C120.572 24.517 126.913 18.3807 136.476 18.3807C145.68 18.3807 152.533 24.1079 152.533 33.3125C152.533 41.6477 147.419 47.375 137.908 56.5284L100.629 91.0455L100.629 107ZM204.27 108.33C210.815 108.33 216.491 102.858 216.543 96.0568C216.491 89.358 210.815 83.8864 204.27 83.8864C197.52 83.8864 191.946 89.358 191.997 96.0568C191.946 102.858 197.52 108.33 204.27 108.33Z" fill="#141312" fill-opacity="0.1"/>
    </symbol>

    <symbol id="three" viewBox="0 0 218 110" fill="none" xmlns="http://www.w3.org/2000/svg">
        <path d="M42.5511 109.301C68.8864 109.301 84.7898 89.2557 84.8409 54.7386C84.8921 20.4773 68.7841 0.840905 42.5511 0.840905C16.267 0.840905 0.3125 20.4261 0.261364 54.7386C0.159091 89.1534 16.1648 109.25 42.5511 109.301ZM42.5511 90.9432C30.5341 90.9432 22.7614 78.875 22.8125 54.7386C22.8636 30.9602 30.5852 18.9943 42.5511 18.9943C54.4659 18.9943 62.2386 30.9602 62.2386 54.7386C62.2898 78.875 54.517 90.9432 42.5511 90.9432ZM139.339 108.432C162.862 108.432 179.686 95.4943 179.635 77.5966C179.686 64.5568 171.402 55.25 156.01 53.3068V52.4886C167.72 50.392 175.8 42.108 175.749 30.3466C175.8 13.8295 161.328 0.840905 139.646 0.840905C118.169 0.840905 102.01 13.4204 101.703 31.5227H122.925C123.18 23.5454 130.493 18.3807 139.544 18.3807C148.493 18.3807 154.476 23.8011 154.425 31.6761C154.476 39.9091 147.47 45.483 137.396 45.483H127.629V61.7443H137.396C149.26 61.7443 156.675 67.6761 156.624 76.1136C156.675 84.4489 149.516 90.1761 139.391 90.1761C129.624 90.1761 122.311 85.0625 121.902 77.392H99.6065C99.9645 95.6989 116.328 108.432 139.339 108.432ZM205.536 108.33C212.081 108.33 217.757 102.858 217.808 96.0568C217.757 89.358 212.081 83.8864 205.536 83.8864C198.786 83.8864 193.212 89.358 193.263 96.0568C193.212 102.858 198.786 108.33 205.536 108.33Z" fill="white" fill-opacity="0.03"/>
    </symbol>

    <symbol id="four" viewBox="0 0 222 110" fill="none" xmlns="http://www.w3.org/2000/svg">
        <path d="M42.5511 109.301C68.8864 109.301 84.7898 89.2557 84.8409 54.7386C84.8921 20.4773 68.7841 0.840905 42.5511 0.840905C16.267 0.840905 0.3125 20.4261 0.261364 54.7386C0.159091 89.1534 16.1648 109.25 42.5511 109.301ZM42.5511 90.9432C30.5341 90.9432 22.7614 78.875 22.8125 54.7386C22.8636 30.9602 30.5852 18.9943 42.5511 18.9943C54.4659 18.9943 62.2386 30.9602 62.2386 54.7386C62.2898 78.875 54.517 90.9432 42.5511 90.9432ZM99.044 88.5909L149.311 88.5909V107H170.482V88.5909H183.47V70.8466H170.482V2.27272H142.766L99.044 71.1534V88.5909ZM149.72 70.8466L121.339 70.8466V70.0284L148.902 26.4091H149.72V70.8466ZM209.192 108.33C215.737 108.33 221.413 102.858 221.464 96.0568C221.413 89.358 215.737 83.8864 209.192 83.8864C202.442 83.8864 196.868 89.358 196.919 96.0568C196.868 102.858 202.442 108.33 209.192 108.33Z" fill="#141312" fill-opacity="0.1"/>
    </symbol>

    <symbol id="five" viewBox="0 0 216 110" fill="none" xmlns="http://www.w3.org/2000/svg">
        <path d="M42.5511 109.301C68.8864 109.301 84.7898 89.2557 84.8409 54.7386C84.8921 20.4773 68.7841 0.840905 42.5511 0.840905C16.267 0.840905 0.3125 20.4261 0.261364 54.7386C0.159091 89.1534 16.1648 109.25 42.5511 109.301ZM42.5511 90.9432C30.5341 90.9432 22.7614 78.875 22.8125 54.7386C22.8636 30.9602 30.5852 18.9943 42.5511 18.9943C54.4659 18.9943 62.2386 30.9602 62.2386 54.7386C62.2898 78.875 54.517 90.9432 42.5511 90.9432ZM138.879 108.432C162.197 108.432 178.05 93.2443 177.999 72.0739C178.05 52.0284 164.038 37.608 145.169 37.608C135.964 37.608 128.038 41.4432 124.357 46.608L123.743 46.608L126.453 20.375H172.22V2.27272H108.197L103.237 57.5L122.925 61.0284C126.146 56.6818 132.385 53.9716 138.572 53.9716C149.107 54.0227 156.675 61.642 156.675 72.6364C156.675 83.5284 149.26 91.0455 138.879 91.0455C130.084 91.0455 122.976 85.5227 122.464 77.392H100.987C101.396 95.4943 117.197 108.432 138.879 108.432ZM203.145 108.33C209.69 108.33 215.366 102.858 215.418 96.0568C215.366 89.358 209.69 83.8864 203.145 83.8864C196.395 83.8864 190.821 89.358 190.872 96.0568C190.821 102.858 196.395 108.33 203.145 108.33Z" fill="white" fill-opacity="0.1"/>
    </symbol>

    <symbol id="six" viewBox="0 0 217 110" fill="none" xmlns="http://www.w3.org/2000/svg">
        <path d="M42.5511 109.301C68.8864 109.301 84.7898 89.2557 84.8409 54.7386C84.8921 20.4773 68.7841 0.840905 42.5511 0.840905C16.267 0.840905 0.3125 20.4261 0.261364 54.7386C0.159091 89.1534 16.1648 109.25 42.5511 109.301ZM42.5511 90.9432C30.5341 90.9432 22.7614 78.875 22.8125 54.7386C22.8636 30.9602 30.5852 18.9943 42.5511 18.9943C54.4659 18.9943 62.2386 30.9602 62.2386 54.7386C62.2898 78.875 54.517 90.9432 42.5511 90.9432ZM140.822 108.432C164.141 108.534 180.044 93.2443 179.993 71.9205C180.044 52.2841 166.339 38.1193 147.777 38.1193C136.271 38.1193 126.095 43.642 121.391 52.8977H120.675C120.777 32.4943 127.936 19.8125 141.589 19.8125C149.618 19.8125 155.396 24.2102 157.084 31.5227H178.919C176.822 14.2898 162.504 0.840905 141.589 0.840905C115.714 0.840905 99.0952 21.8068 98.9929 56.9886C98.9418 95.3409 119.294 108.33 140.822 108.432ZM140.72 91.0455C130.493 91.0455 122.925 82.8125 122.925 72.5852C122.976 62.4091 130.697 54.125 140.874 54.125C151.101 54.125 158.567 62.1534 158.516 72.5341C158.567 83.017 150.947 91.0455 140.72 91.0455ZM204.27 108.33C210.815 108.33 216.491 102.858 216.543 96.0568C216.491 89.358 210.815 83.8864 204.27 83.8864C197.52 83.8864 191.946 89.358 191.997 96.0568C191.946 102.858 197.52 108.33 204.27 108.33Z" fill="#141312" fill-opacity="0.1"/>
    </symbol>

    <symbol id="seven" viewBox="0 0 191 110" fill="none" xmlns="http://www.w3.org/2000/svg">
        <path d="M42.5511 109.301C68.8864 109.301 84.7898 89.2557 84.8409 54.7386C84.8921 20.4773 68.7841 0.840905 42.5511 0.840905C16.267 0.840905 0.3125 20.4261 0.261364 54.7386C0.159091 89.1534 16.1648 109.25 42.5511 109.301ZM42.5511 90.9432C30.5341 90.9432 22.7614 78.875 22.8125 54.7386C22.8636 30.9602 30.5852 18.9943 42.5511 18.9943C54.4659 18.9943 62.2386 30.9602 62.2386 54.7386C62.2898 78.875 54.517 90.9432 42.5511 90.9432ZM101.959 107H124.817L168.283 20.6307V2.27272H94.7997V20.375H145.374V21.0909L101.959 107ZM178.395 108.33C184.94 108.33 190.616 102.858 190.668 96.0568C190.616 89.358 184.94 83.8864 178.395 83.8864C171.645 83.8864 166.071 89.358 166.122 96.0568C166.071 102.858 171.645 108.33 178.395 108.33Z" fill="white" fill-opacity="0.1"/>
    </symbol>

    <symbol id="eight" viewBox="0 0 219 110" fill="none" xmlns="http://www.w3.org/2000/svg">
        <path d="M42.5511 109.301C68.8864 109.301 84.7898 89.2557 84.8409 54.7386C84.8921 20.4773 68.7841 0.840905 42.5511 0.840905C16.267 0.840905 0.3125 20.4261 0.261364 54.7386C0.159091 89.1534 16.1648 109.25 42.5511 109.301ZM42.5511 90.9432C30.5341 90.9432 22.7614 78.875 22.8125 54.7386C22.8636 30.9602 30.5852 18.9943 42.5511 18.9943C54.4659 18.9943 62.2386 30.9602 62.2386 54.7386C62.2898 78.875 54.517 90.9432 42.5511 90.9432ZM139.697 108.432C163.322 108.432 180.3 95.8011 180.351 78.8239C180.3 65.733 170.226 55.0455 157.646 52.9489V52.233C168.589 49.983 176.413 40.5227 176.464 29.017C176.413 12.8068 160.868 0.840905 139.697 0.840905C118.476 0.840905 102.93 12.8068 102.982 29.017C102.93 40.4716 110.652 49.983 121.8 52.233V52.9489C109.016 55.0455 99.044 65.733 99.0952 78.8239C99.044 95.8011 116.072 108.432 139.697 108.432ZM139.697 92.1705C129.163 92.1705 122.107 85.9318 122.107 77.0852C122.107 68.0341 129.521 61.4886 139.697 61.4886C149.822 61.4886 157.288 68.0341 157.288 77.0852C157.288 85.983 150.18 92.1705 139.697 92.1705ZM139.697 45.3807C130.851 45.3807 124.561 39.6023 124.561 31.3182C124.561 23.1364 130.749 17.5114 139.697 17.5114C148.595 17.5114 154.834 23.1875 154.834 31.3182C154.834 39.6023 148.493 45.3807 139.697 45.3807ZM205.817 108.33C212.362 108.33 218.038 102.858 218.089 96.0568C218.038 89.358 212.362 83.8864 205.817 83.8864C199.067 83.8864 193.493 89.358 193.544 96.0568C193.493 102.858 199.067 108.33 205.817 108.33Z" fill="#141312" fill-opacity="0.1"/>
    </symbol>

    <symbol id="nine" viewBox="0 0 217 110" fill="none" xmlns="http://www.w3.org/2000/svg">
        <path d="M42.5511 109.301C68.8864 109.301 84.7898 89.2557 84.8409 54.7386C84.8921 20.4773 68.7841 0.840905 42.5511 0.840905C16.267 0.840905 0.3125 20.4261 0.261364 54.7386C0.159091 89.1534 16.1648 109.25 42.5511 109.301ZM42.5511 90.9432C30.5341 90.9432 22.7614 78.875 22.8125 54.7386C22.8636 30.9602 30.5852 18.9943 42.5511 18.9943C54.4659 18.9943 62.2386 30.9602 62.2386 54.7386C62.2898 78.875 54.517 90.9432 42.5511 90.9432ZM138.521 0.840905C115.101 0.738629 99.2997 16.0795 99.402 37.1477C99.4531 56.6818 113.004 70.8466 131.567 70.8466C143.072 70.8466 153.3 65.2727 157.953 56.0682H158.669C158.618 76.8295 151.408 89.4602 137.754 89.4602C129.726 89.4602 123.947 85.0625 122.26 77.4432H100.425C102.47 95.0852 116.788 108.432 137.754 108.432C163.68 108.432 180.402 87.4659 180.351 51.9261C180.3 13.9829 160.05 0.943181 138.521 0.840905ZM138.675 18.2273C148.851 18.2273 156.368 26.5114 156.47 36.483C156.521 46.5057 148.595 54.7898 138.47 54.7898C128.243 54.7898 120.93 46.8125 120.879 36.5341C120.777 26.3068 128.396 18.2273 138.675 18.2273ZM204.27 108.33C210.815 108.33 216.491 102.858 216.543 96.0568C216.491 89.358 210.815 83.8864 204.27 83.8864C197.52 83.8864 191.946 89.358 191.997 96.0568C191.946 102.858 197.52 108.33 204.27 108.33Z" fill="white" fill-opacity="0.1"/>
    </symbol>

    <symbol id="ten" viewBox="0 0 192 110" fill="none" xmlns="http://www.w3.org/2000/svg">
        <path d="M47.0511 2.27272H26.2386L0.3125 18.6875L0.3125 38.3239L24.2955 23.2898H24.9091L24.9091 107H47.0511L47.0511 2.27272ZM113.004 109.301C139.339 109.301 155.243 89.2557 155.294 54.7386C155.345 20.4773 139.237 0.840905 113.004 0.840905C86.7202 0.840905 70.7656 20.4261 70.7145 54.7386C70.6122 89.1534 86.6179 109.25 113.004 109.301ZM113.004 90.9432C100.987 90.9432 93.2145 78.875 93.2656 54.7386C93.3168 30.9602 101.038 18.9943 113.004 18.9943C124.919 18.9943 132.692 30.9602 132.692 54.7386C132.743 78.875 124.97 90.9432 113.004 90.9432ZM179.661 108.33C186.206 108.33 191.882 102.858 191.933 96.0568C191.882 89.358 186.206 83.8864 179.661 83.8864C172.911 83.8864 167.337 89.358 167.388 96.0568C167.337 102.858 172.911 108.33 179.661 108.33Z" fill="#141312" fill-opacity="0.1"/>
    </symbol>

    <symbol id="eleven" viewBox="0 0 163 107" fill="none" xmlns="http://www.w3.org/2000/svg">
        <path d="M47.0511 0.272724H26.2386L0.3125 16.6875L0.3125 36.3239L24.2955 21.2898H24.9091L24.9091 105H47.0511L47.0511 0.272724ZM117.504 0.272724H96.6918L70.7656 16.6875V36.3239L94.7486 21.2898H95.3622L95.3622 105H117.504L117.504 0.272724ZM149.848 106.33C156.393 106.33 162.07 100.858 162.121 94.0568C162.07 87.358 156.393 81.8864 149.848 81.8864C143.098 81.8864 137.524 87.358 137.575 94.0568C137.524 100.858 143.098 106.33 149.848 106.33Z" fill="white" fill-opacity="0.1"/>
    </symbol>

    <symbol id="twelve" viewBox="0 0 188 109" fill="none" xmlns="http://www.w3.org/2000/svg">
        <path d="M47.0511 2.27272H26.2386L0.3125 18.6875L0.3125 38.3239L24.2955 23.2898H24.9091L24.9091 107H47.0511L47.0511 2.27272ZM71.9418 107H146.601V88.8977L102.624 88.8977V88.1818L117.913 73.1989C139.442 53.5625 145.22 43.7443 145.22 31.8295C145.22 13.6761 130.391 0.840905 107.942 0.840905C85.9531 0.840905 70.8679 13.9829 70.919 34.5398H91.9361C91.8849 24.517 98.2259 18.3807 107.788 18.3807C116.993 18.3807 123.845 24.1079 123.845 33.3125C123.845 41.6477 118.732 47.375 109.22 56.5284L71.9418 91.0455L71.9418 107ZM175.582 108.33C182.128 108.33 187.804 102.858 187.855 96.0568C187.804 89.358 182.128 83.8864 175.582 83.8864C168.832 83.8864 163.259 89.358 163.31 96.0568C163.259 102.858 168.832 108.33 175.582 108.33Z" fill="#141312" fill-opacity="0.1"/>
    </symbol>

    <symbol id="thirteen" viewBox="0 0 190 109" fill="none" xmlns="http://www.w3.org/2000/svg">
        <path d="M47.0511 2.27272H26.2386L0.3125 18.6875L0.3125 38.3239L24.2955 23.2898H24.9091L24.9091 107H47.0511L47.0511 2.27272ZM110.652 108.432C134.175 108.432 150.999 95.4943 150.947 77.5966C150.999 64.5568 142.714 55.25 127.322 53.3068V52.4886C139.033 50.392 147.112 42.108 147.061 30.3466C147.112 13.8295 132.641 0.840905 110.959 0.840905C89.4815 0.840905 73.3224 13.4204 73.0156 31.5227H94.2372C94.4929 23.5454 101.805 18.3807 110.857 18.3807C119.805 18.3807 125.788 23.8011 125.737 31.6761C125.788 39.9091 118.783 45.483 108.709 45.483H98.9418V61.7443H108.709C120.572 61.7443 127.987 67.6761 127.936 76.1136C127.987 84.4489 120.828 90.1761 110.703 90.1761C100.936 90.1761 93.6236 85.0625 93.2145 77.392H70.919C71.277 95.6989 87.6406 108.432 110.652 108.432ZM176.848 108.33C183.393 108.33 189.07 102.858 189.121 96.0568C189.07 89.358 183.393 83.8864 176.848 83.8864C170.098 83.8864 164.524 89.358 164.575 96.0568C164.524 102.858 170.098 108.33 176.848 108.33Z" fill="white" fill-opacity="0.1"/>
    </symbol>

    <symbol id="fourteen" viewBox="0 0 193 107" fill="none" xmlns="http://www.w3.org/2000/svg">
        <path d="M47.0511 0.272724H26.2386L0.3125 16.6875L0.3125 36.3239L24.2955 21.2898H24.9091L24.9091 105H47.0511L47.0511 0.272724ZM70.3565 86.5909H120.624L120.624 105H141.794V86.5909H154.783V68.8466H141.794V0.272724H114.078L70.3565 69.1534V86.5909ZM121.033 68.8466H92.652V68.0284L120.214 24.4091H121.033V68.8466ZM180.504 106.33C187.05 106.33 192.726 100.858 192.777 94.0568C192.726 87.358 187.05 81.8864 180.504 81.8864C173.754 81.8864 168.18 87.358 168.232 94.0568C168.18 100.858 173.754 106.33 180.504 106.33Z" fill="#141312" fill-opacity="0.1"/>
    </symbol>

    <symbol id="fifteen" viewBox="0 0 187 107" fill="none" xmlns="http://www.w3.org/2000/svg">
        <path d="M47.0511 0.272724H26.2386L0.3125 16.6875L0.3125 36.3239L24.2955 21.2898H24.9091L24.9091 105H47.0511L47.0511 0.272724ZM110.192 106.432C133.51 106.432 149.362 91.2443 149.311 70.0739C149.362 50.0284 135.351 35.608 116.482 35.608C107.277 35.608 99.3509 39.4432 95.669 44.608H95.0554L97.7656 18.375H143.533V0.272724H79.5099L74.5497 55.5L94.2372 59.0284C97.4588 54.6818 103.697 51.9716 109.885 51.9716C120.419 52.0227 127.987 59.642 127.987 70.6364C127.987 81.5284 120.572 89.0455 110.192 89.0455C101.396 89.0455 94.2884 83.5227 93.777 75.392H72.2997C72.7088 93.4943 88.5099 106.432 110.192 106.432ZM174.457 106.33C181.003 106.33 186.679 100.858 186.73 94.0568C186.679 87.358 181.003 81.8864 174.457 81.8864C167.707 81.8864 162.134 87.358 162.185 94.0568C162.134 100.858 167.707 106.33 174.457 106.33Z" fill="white" fill-opacity="0.1"/>
    </symbol>
</svg>