<svg xmlns="http://www.w3.org/2000/svg">
    <symbol id="logo" viewBox="0 0 98 29" xmlns="http://www.w3.org/2000/svg" shape-rendering="geometricPrecision"
            text-rendering="geometricPrecision" image-rendering="optimizeQuality" fill-rule="evenodd"
            clip-rule="evenodd">
        <rect x="49" y="1" width="98" height="29"/>
        <path d="M6.50648 14.7129V23.3749H4.70851V5.6167H16.4055V7.34735H6.50648V12.99H14.6827V14.7138H6.50648V14.7129Z"
              fill="#141312"/>
        <path d="M22.0199 23.3749V5.6167H23.8286V23.3749H22.0199Z" fill="#141312"/>
        <path d="M32.3989 7.68685L32.3999 23.3749H30.599V5.6167H32.9716L43.7379 21.294V5.6167H45.5388V23.3749H43.2072L32.3989 7.68685Z"
              fill="#141312"/>
        <path d="M60.5615 14.6153H67.7641V23.3749H66.2393L65.9661 21.4228C64.5155 22.9037 62.4892 23.7251 60.061 23.7251C54.9852 23.7251 51.7063 20.0999 51.7063 14.4895C51.7063 11.6301 52.5619 9.24482 54.1794 7.59416C55.6593 6.08399 57.748 5.25281 60.061 5.25281C63.6423 5.25281 66.5242 7.01565 67.7651 10.9706H65.8744C64.8501 8.15901 62.3966 7.0537 60.063 7.0537C56.8466 7.0537 53.5082 9.12092 53.5082 14.4885C53.5082 20.0365 57.0934 21.9233 60.063 21.9233C62.4668 21.9233 65.9671 20.9292 65.9671 16.343H60.5625V14.6153H60.5615Z"
              fill="white"/>
        <path d="M76.0154 21.6453H86.0374V23.376H74.2184V5.62659H76.0154V21.6453Z" fill="white"/>
        <path d="M91.5513 23.3749V5.6167H93.36V23.3749H91.5513Z" fill="white"/>
        <path fill-rule="evenodd" clip-rule="evenodd" d="M98 1.12501L-2.17888e-08 1.125L0 0.875L98 0.875009L98 1.12501Z"
              fill="#141312"/>
        <path fill-rule="evenodd" clip-rule="evenodd" d="M98 28.125H0L0 27.875H98V28.125Z" fill="#141312"/>
    </symbol>

    <symbol viewBox="0 0 212 212" fill="none" id="owl">
        <path d="M95.0467 23.9285V38.6115L78.0867 27.8545L95.0467 23.9285Z" fill="#141312"/>
        <path d="M64.8367 28.4826C66.0733 28.4826 73.9448 28.4826 75.1815 28.4826L95.0467 41.1044C95.0467 41.5167 95.0467 51.037 95.0467 51.8615V53.5104L60.7145 48.5441C60.4985 48.3281 55.3359 40.8885 55.1396 40.6922C55.3163 40.4763 64.6404 28.6789 64.8367 28.4826Z"
              fill="#141312"/>
        <path d="M83.8774 80.5993L95.2626 85.1533V85.9778V115.344L90.4926 100.877C90.2767 100.249 84.2896 81.8359 83.8774 80.5993Z"
              fill="#141312"/>
        <path d="M78.4989 73.3559C75.3974 69.0178 65.877 55.3556 62.5792 50.6052L94.2026 55.1593L78.4989 73.3559Z"
              fill="#141312"/>
        <path d="M95.0467 57.24V82.8763L82.6211 77.91L79.7355 75.0244L95.0467 57.24Z" fill="#141312"/>
        <path d="M70.6274 71.923C72.2763 72.3352 74.1411 72.7474 75.79 73.1596L77.0267 75.0244L76.8107 75.2404L77.0267 75.4563C75.5741 77.9296 70.4115 86.4096 62.9522 84.9767C54.6881 83.9363 46.8167 76.7126 50.1341 66.9763C52.6074 67.6044 55.5126 68.213 57.7896 68.8411C55.5322 80.187 68.5663 81.2274 70.6274 71.923Z"
              fill="#141312"/>
        <path d="M60.0863 69.2337L68.5663 71.2948C66.9174 78.3222 58.2215 77.7137 60.0863 69.2337Z" fill="#141312"/>
        <path d="M73.9448 70.6667C73.1204 70.4507 72.08 70.2544 71.2556 70.0385C67.1137 68.9981 62.5596 67.7615 58.4374 66.7211C52.6467 65.2685 41.6933 62.5793 35.6867 60.9304L31.7607 59.6937C36.0989 55.3556 48.7207 45.6193 53.8833 41.9093L73.9448 70.6667Z"
              fill="#141312"/>
        <path d="M41.8896 82.8763L36.7271 63.443L48.3085 66.3481C44.9911 78.1456 53.0589 86.2133 64.8563 87.0378C71.8837 87.0378 76.85 79.7944 78.7148 76.693L81.4041 79.3822L87.823 99.0315L55.5519 94.6933L41.8896 82.8763Z"
              fill="#141312"/>
        <path d="M6.30112 2.82668L47.8767 11.5226L61.323 25.7933L19.9633 17.9415L6.30112 2.82668Z" fill="#141312"/>
        <path d="M17.0581 25.1652L19.9633 20.0026L62.5596 28.0704L53.6674 39.4359L31.1326 36.7467L17.0581 25.1652Z"
              fill="#141312"/>
        <path d="M31.1326 38.8274L51.41 41.3007L34.0182 54.963C30.2885 56.0033 20.5719 58.8889 16.6459 60.1256L31.1326 38.8274Z"
              fill="#141312"/>
        <path d="M95.0466 125.689L71.0592 112.458L71.6874 112.046L72.3155 111.83H72.0996L88.4314 101.897C89.2559 104.587 96.2833 123.411 95.0466 125.689Z"
              fill="#141312"/>
        <path d="M180.455 139.135C169.914 134.384 135.778 119.27 126.67 113.283L148.204 110.809L149.244 110.593L150.069 109.553L165.792 91.1404L166.616 90.3159V84.7411L185.029 100.661L180.455 139.135Z"
              fill="#141312"/>
        <path d="M152.738 82.8763L157.92 62.8148L161.846 61.5782C162.259 64.8956 164.123 79.1663 164.536 82.68V88.4707L152.738 82.8763Z"
              fill="#141312"/>
        <path d="M163.711 90.5318L148.616 108.12L138.683 95.9104L151.501 84.7411L163.711 90.5318Z" fill="#141312"/>
        <path d="M133.913 66.7408C129.771 67.7811 125.217 69.0178 121.095 70.0582C120.271 70.2741 119.23 70.4704 118.406 70.6863L138.683 41.9289C143.846 45.8548 156.468 55.3752 160.806 59.7133C153.15 62.1867 141.569 64.6796 133.913 66.7408Z"
              fill="#141312"/>
        <path d="M115.304 75.0245L116.541 73.1596C118.19 72.7474 120.055 72.3352 121.704 71.923C123.765 81.2274 136.799 79.9908 134.326 68.8215C136.799 68.1933 139.704 67.5848 141.981 66.9567C145.298 76.6733 137.427 83.9167 129.163 84.9571C121.92 86.4096 116.541 77.9296 115.089 75.4367L115.304 75.0245Z"
              fill="#141312"/>
        <path d="M123.588 71.5107L132.068 69.4496C132.284 71.923 132.284 73.7878 131.44 75.0245C128.554 78.1259 124.413 74.8085 123.588 71.5107Z"
              fill="#141312"/>
        <path d="M113.852 73.3559L98.1482 55.1593L129.791 50.6052C126.474 55.3752 116.953 68.8215 113.852 73.3559Z"
              fill="#141312"/>
        <path d="M112.615 75.0244L109.73 77.91L97.3041 82.8763V57.24L112.615 75.0244Z" fill="#141312"/>
        <path d="M111.163 79.3626L113.852 76.6733C115.501 79.7748 120.467 87.0182 127.71 87.0182C139.508 85.9778 147.576 77.91 144.258 66.3285L155.84 63.4233L150.677 82.8567L137.034 94.6541L104.763 98.9922C104.763 99.2081 111.163 79.3626 111.163 79.3626Z"
              fill="#141312"/>
        <path d="M137.034 96.7348L146.751 108.944L123.784 111.418L106.412 100.877L137.034 96.7348Z" fill="#141312"/>
        <path d="M184.381 97.5592L166.381 82.0518L163.711 60.7537L163.495 59.517C163.083 59.3011 158.745 55.1789 158.333 54.7667C161.65 55.807 172.191 58.9085 175.705 59.9293L184.381 97.5592Z"
              fill="#141312"/>
        <path d="M174.252 57.4363C170.11 56.1996 158.529 52.8822 154.819 51.8615L141.176 41.3204L161.454 38.847L174.252 57.4363Z"
              fill="#141312"/>
        <path d="M144.474 11.5226L186.05 2.82668L172.387 17.9415L131.028 25.7933L144.474 11.5226Z" fill="#141312"/>
        <path d="M172.387 20.0026L175.293 25.1652L161.218 36.5504L138.664 39.2396L129.771 27.8544C134.954 27.03 166.597 21.2393 172.387 20.0026Z"
              fill="#141312"/>
        <path d="M117.169 28.2667C118.622 28.2667 126.277 28.2667 127.514 28.2667C127.514 28.4826 136.21 39.4359 136.406 39.4359L137.034 40.2604L136.819 40.4763L131.44 48.1318L97.1078 53.0981C97.1078 52.47 97.1078 41.713 97.1078 40.8885L117.169 28.2667Z"
              fill="#141312"/>
        <path d="M97.3041 23.9285L114.264 27.8545L97.3041 38.6115V23.9285Z" fill="#141312"/>
        <path d="M97.3041 85.9778V85.1533C97.52 85.1533 108.473 80.5993 108.689 80.5993L102.683 98.7959L102.467 99.4241C102.467 99.64 97.5004 114.735 97.3041 115.344V85.9778Z"
              fill="#141312"/>
        <path d="M103.723 101.897L120.055 111.83H119.839C119.839 111.83 121.292 112.654 121.076 112.458C114.873 115.776 103.075 122.391 97.0882 125.689C96.0675 123.411 103.095 104.39 103.723 101.897Z"
              fill="#141312"/>
        <path d="M146.339 144.513C143.65 152.993 137.859 171.406 135.17 179.67C126.474 169.737 105.804 146.162 97.3237 136.446V129.202V127.966L123.392 113.479L139.311 122.371L142.413 132.088C142.393 132.52 146.339 144.513 146.339 144.513Z"
              fill="#141312"/>
        <path d="M152.326 156.919L148.4 144.513C147.772 142.452 142.609 126.101 141.785 123.824L180.455 141.412L205.679 204.502C203.422 206.366 154.191 157.744 152.326 156.919Z"
              fill="#141312"/>
        <path d="M112.419 156.919L134.541 182.163L132.893 208.015L112.419 156.919Z" fill="#141312"/>
    </symbol>

    <symbol viewBox="0 0 195 195" fill="none" id="robot">
        <path d="M20.2703 162.5C21.3898 162.5 22.2973 161.591 22.2973 160.469C22.2973 159.347 21.3898 158.438 20.2703 158.438C19.1508 158.438 18.2432 159.347 18.2432 160.469C18.2432 161.591 19.1508 162.5 20.2703 162.5Z"
              stroke="#141312" stroke-width="4" stroke-miterlimit="10" stroke-linecap="round" stroke-linejoin="round"/>
        <path d="M42.5676 16.25C43.6871 16.25 44.5946 15.3406 44.5946 14.2188C44.5946 13.0969 43.6871 12.1875 42.5676 12.1875C41.4481 12.1875 40.5405 13.0969 40.5405 14.2188C40.5405 15.3406 41.4481 16.25 42.5676 16.25Z"
              stroke="#141312" stroke-width="4" stroke-miterlimit="10" stroke-linecap="round" stroke-linejoin="round"/>
        <path d="M180.405 16.25C181.525 16.25 182.432 15.3406 182.432 14.2188C182.432 13.0969 181.525 12.1875 180.405 12.1875C179.286 12.1875 178.378 13.0969 178.378 14.2188C178.378 15.3406 179.286 16.25 180.405 16.25Z"
              stroke="#141312" stroke-width="4" stroke-miterlimit="10" stroke-linecap="round" stroke-linejoin="round"/>
        <path d="M60.4054 80.2344L148.378 29.4531" stroke="#141312" stroke-width="6" stroke-miterlimit="10"
              stroke-linecap="round" stroke-linejoin="round"/>
        <path d="M175.135 112.531L176.149 130.609L133.986 154.984L118.784 145.031" stroke="#141312" stroke-width="6"
              stroke-miterlimit="10" stroke-linecap="round" stroke-linejoin="round"/>
        <path d="M170.068 134.266C171.486 141.578 168.041 149.5 161.149 153.359C154.257 157.422 145.946 156.406 140.068 151.328"
              stroke="#141312" stroke-width="6" stroke-miterlimit="10" stroke-linecap="round"/>
        <path d="M94.2567 5.07812C94.4594 11.5781 91.2162 17.875 85.1351 21.3281C79.054 24.7812 71.9594 24.375 66.4865 21.125"
              stroke="#141312" stroke-width="6" stroke-miterlimit="10" stroke-linecap="round"/>
        <path d="M108.079 24.5479L90.525 34.7041L96.606 45.2585L114.16 35.1022L108.079 24.5479Z" stroke="#141312"
              stroke-width="6" stroke-miterlimit="10" stroke-linecap="round" stroke-linejoin="round"/>
        <path d="M53.7162 56.0625L76.4189 42.8594L82.5 53.4219L55.7432 68.8594" stroke="#141312" stroke-width="6"
              stroke-miterlimit="10" stroke-linecap="round" stroke-linejoin="round"/>
        <path d="M81.8919 117.406L60.4054 80.2344C46.4189 55.8594 54.7297 24.9844 79.054 10.9687C103.378 -3.04688 134.189 5.28124 148.378 29.6562L190.946 103.594L103.176 154.375L93.4459 138.125"
              stroke="#141312" stroke-width="6" stroke-miterlimit="10" stroke-linecap="round" stroke-linejoin="round"/>
        <path d="M186.486 190.938H129.73L137.838 166.562H178.378L186.486 190.938Z" stroke="#141312" stroke-width="6"
              stroke-miterlimit="10" stroke-linecap="round" stroke-linejoin="round"/>
        <path d="M93.2433 190.938H36.4865L44.5946 166.562H85.1352L93.2433 190.938Z" stroke="#141312" stroke-width="6"
              stroke-miterlimit="10" stroke-linecap="round" stroke-linejoin="round"/>
        <path d="M166.216 166.562V149.094" stroke="#141312" stroke-width="6" stroke-miterlimit="10"
              stroke-linecap="round" stroke-linejoin="round"/>
        <path d="M150 166.562V155.797" stroke="#141312" stroke-width="6" stroke-miterlimit="10" stroke-linecap="round"
              stroke-linejoin="round"/>
        <path d="M115.541 87.3437C121.138 87.3437 125.676 82.7966 125.676 77.1875C125.676 71.5784 121.138 67.0312 115.541 67.0312C109.943 67.0312 105.405 71.5784 105.405 77.1875C105.405 82.7966 109.943 87.3437 115.541 87.3437Z"
              stroke="#141312" stroke-width="6" stroke-miterlimit="10" stroke-linecap="round" stroke-linejoin="round"/>
        <path d="M14.1892 81.25C19.7867 81.25 24.3243 76.7029 24.3243 71.0937C24.3243 65.4846 19.7867 60.9375 14.1892 60.9375C8.59173 60.9375 4.05408 65.4846 4.05408 71.0937C4.05408 76.7029 8.59173 81.25 14.1892 81.25Z"
              stroke="#141312" stroke-width="4" stroke-miterlimit="10" stroke-linecap="round" stroke-linejoin="round"/>
        <path d="M46.6216 107.656C46.6216 113.344 42.1622 117.813 36.4865 117.813" stroke="#141312" stroke-width="4"
              stroke-miterlimit="10" stroke-linecap="round" stroke-linejoin="round"/>
        <path d="M56.7568 117.813C51.0811 117.813 46.6216 113.344 46.6216 107.656" stroke="#141312" stroke-width="4"
              stroke-miterlimit="10" stroke-linecap="round" stroke-linejoin="round"/>
        <path d="M36.4865 117.812C42.1622 117.812 46.6216 122.281 46.6216 127.969" stroke="#141312" stroke-width="4"
              stroke-miterlimit="10" stroke-linecap="round" stroke-linejoin="round"/>
        <path d="M46.6216 127.969C46.6216 122.281 51.0811 117.812 56.7568 117.812" stroke="#141312" stroke-width="4"
              stroke-miterlimit="10" stroke-linecap="round" stroke-linejoin="round"/>
        <path d="M54.7297 166.562L106.824 71.9062" stroke="#141312" stroke-width="6" stroke-miterlimit="10"
              stroke-linecap="round" stroke-linejoin="round"/>
        <path d="M77.027 166.562L124.054 82.6719" stroke="#141312" stroke-width="6" stroke-miterlimit="10"
              stroke-linecap="round" stroke-linejoin="round"/>
        <path d="M136.622 65.2031C143.311 76.9844 139.054 91.8125 127.5 98.5156C123.041 100.953 118.378 101.969 113.716 101.563"
              stroke="#141312" stroke-width="6" stroke-miterlimit="10" stroke-linecap="round" stroke-linejoin="round"/>
    </symbol>

    <symbol id="arr_up" viewBox="0 0 10 10" fill="none" xmlns="http://www.w3.org/2000/svg">
        <path d="M9.5 1C9.5 0.723858 9.27614 0.5 9 0.5L4.5 0.5C4.22386 0.5 4 0.723858 4 1C4 1.27614 4.22386 1.5 4.5 1.5L8.5 1.5L8.5 5.5C8.5 5.77614 8.72386 6 9 6C9.27614 6 9.5 5.77614 9.5 5.5L9.5 1ZM1.35355 9.35355L9.35355 1.35355L8.64645 0.646447L0.646447 8.64645L1.35355 9.35355Z"
              fill="#141312"/>
    </symbol>

    <symbol id="arrow" viewBox="0 0 21 8" fill="none" xmlns="http://www.w3.org/2000/svg">
        <path d="M20.3536 4.35355C20.5488 4.15829 20.5488 3.84171 20.3536 3.64645L17.1716 0.464466C16.9763 0.269204 16.6597 0.269204 16.4645 0.464466C16.2692 0.659728 16.2692 0.976311 16.4645 1.17157L19.2929 4L16.4645 6.82843C16.2692 7.02369 16.2692 7.34027 16.4645 7.53553C16.6597 7.7308 16.9763 7.7308 17.1716 7.53553L20.3536 4.35355ZM0 4.5H20V3.5H0V4.5Z"
              fill="#141312"/>
    </symbol>

    <symbol id="arrow_white" viewBox="0 0 21 8" fill="none" xmlns="http://www.w3.org/2000/svg">
        <path d="M20.3536 4.35355C20.5488 4.15829 20.5488 3.84171 20.3536 3.64645L17.1716 0.464466C16.9763 0.269204 16.6597 0.269204 16.4645 0.464466C16.2692 0.659728 16.2692 0.976311 16.4645 1.17157L19.2929 4L16.4645 6.82843C16.2692 7.02369 16.2692 7.34027 16.4645 7.53553C16.6597 7.7308 16.9763 7.7308 17.1716 7.53553L20.3536 4.35355ZM0 4.5H20V3.5H0V4.5Z"
              fill="#ffffff"/>
    </symbol>

    <symbol id="owl_white" viewBox="0 0 71 49" fill="none" xmlns="http://www.w3.org/2000/svg">
        <path d="M31.8319 7.97058V12.8615L26.1519 9.27831L31.8319 7.97058Z" fill="white"/>
        <path d="M21.714 9.48755C22.1282 9.48755 24.7644 9.48755 25.1786 9.48755L31.8315 13.6919C31.8315 13.8292 31.8315 17.0005 31.8315 17.2751V17.8244L20.3335 16.1701C20.2612 16.0981 18.5322 13.62 18.4664 13.5546C18.5256 13.4827 21.6483 9.55294 21.714 9.48755Z"
              fill="white"/>
        <path d="M28.0912 26.8478L31.9042 28.3647V28.6394V38.4212L30.3067 33.6022C30.2344 33.393 28.2293 27.2597 28.0912 26.8478Z"
              fill="white"/>
        <path d="M26.2898 24.435C25.2511 22.99 22.0626 18.439 20.9582 16.8567L31.549 18.3737L26.2898 24.435Z"
              fill="white"/>
        <path d="M31.8314 19.0668V27.6063L27.67 25.952L26.7036 24.9908L31.8314 19.0668Z" fill="white"/>
        <path d="M23.6536 23.9577C24.2058 24.095 24.8303 24.2323 25.3825 24.3696L25.7967 24.9908L25.7244 25.0627L25.7967 25.1346C25.3102 25.9585 23.5812 28.7832 21.0831 28.3059C18.3154 27.9594 15.6792 25.5531 16.7902 22.3099C17.6186 22.5192 18.5915 22.7219 19.3541 22.9311C18.5981 26.7105 22.9633 27.057 23.6536 23.9577Z"
              fill="white"/>
        <path d="M20.1232 23.0619L22.9632 23.7485C22.411 26.0893 19.4987 25.8866 20.1232 23.0619Z" fill="white"/>
        <path d="M24.7647 23.5392C24.4886 23.4673 24.1402 23.4019 23.8641 23.33C22.4769 22.9835 20.9517 22.5715 19.5712 22.225C17.6318 21.7411 13.9635 20.8453 11.9518 20.2961L10.637 19.8841C12.0899 18.4391 16.317 15.1959 18.046 13.9601L24.7647 23.5392Z"
              fill="white"/>
        <path d="M2.11017 0.941528L16.0341 3.83816L20.5373 8.59177L6.68572 5.9763L2.11017 0.941528Z" fill="white"/>
        <path d="M5.71277 8.38263L6.68573 6.66296L20.9515 9.35036L17.9734 13.1362L10.4264 12.2404L5.71277 8.38263Z"
              fill="white"/>
        <path d="M10.4265 12.9335L17.2175 13.7573L11.3929 18.3083C10.1438 18.6548 6.88964 19.616 5.57483 20.0279L10.4265 12.9335Z"
              fill="white"/>
        <path d="M60.4353 46.3461C56.9051 44.7637 45.4727 39.7289 42.4224 37.7346L49.6341 36.9108L49.9826 36.8388L50.2587 36.4923L55.5245 30.359L55.8006 30.0844V28.2274L61.9671 33.5303L60.4353 46.3461Z"
              fill="white"/>
        <path d="M51.153 27.6063L52.8885 20.9238L54.2033 20.5118C54.3414 21.6169 54.9659 26.3705 55.104 27.5409V29.4698L51.153 27.6063Z"
              fill="white"/>
        <path d="M54.8279 30.1563L49.7724 36.015L46.4459 31.9479L50.7388 28.2274L54.8279 30.1563Z" fill="white"/>
        <path d="M44.8484 22.2314C43.4613 22.578 41.9361 22.9899 40.5556 23.3365C40.2794 23.4084 39.931 23.4738 39.6549 23.5457L46.4459 13.9666C48.1749 15.2743 52.402 18.4455 53.8549 19.8906C51.291 20.7145 47.4123 21.5449 44.8484 22.2314Z"
              fill="white"/>
        <path d="M38.616 24.9909L39.0302 24.3697C39.5824 24.2324 40.2069 24.0951 40.7592 23.9578C41.4494 27.0571 45.8146 26.6452 44.9863 22.9246C45.8146 22.7154 46.7876 22.5127 47.5502 22.3035C48.6612 25.5401 46.025 27.9529 43.2573 28.2994C40.8315 28.7833 39.0302 25.9586 38.5437 25.1282L38.616 24.9909Z"
              fill="white"/>
        <path d="M41.3901 23.8203L44.2301 23.1338C44.3024 23.9577 44.3024 24.5788 44.0198 24.9908C43.0534 26.0239 41.6662 24.9188 41.3901 23.8203Z"
              fill="white"/>
        <path d="M38.1297 24.435L32.8704 18.3737L43.4678 16.8567C42.3568 18.4456 39.1684 22.9246 38.1297 24.435Z"
              fill="white"/>
        <path d="M37.7153 24.9908L36.7489 25.952L32.5875 27.6063V19.0668L37.7153 24.9908Z" fill="white"/>
        <path d="M37.2288 26.4359L38.1294 25.5401C38.6817 26.5732 40.3449 28.9859 42.7707 28.9859C46.7217 28.6394 49.4237 25.952 48.3127 22.0942L52.1914 21.1265L50.4624 27.5998L45.8934 31.5295L35.0856 32.9745C35.0856 33.0465 37.2288 26.4359 37.2288 26.4359Z"
              fill="white"/>
        <path d="M45.8939 32.2225L49.148 36.2896L41.4564 37.1135L35.6383 33.6022L45.8939 32.2225Z" fill="white"/>
        <path d="M61.7502 32.4972L55.7217 27.3317L54.8277 20.2372L54.7554 19.8253C54.6173 19.7534 53.1644 18.3802 53.0264 18.2429C54.1374 18.5895 57.6677 19.6226 58.8444 19.9626L61.7502 32.4972Z"
              fill="white"/>
        <path d="M58.3581 19.1322C56.971 18.7203 53.0922 17.6152 51.8497 17.2752L47.2808 13.7639L54.0718 12.9401L58.3581 19.1322Z"
              fill="white"/>
        <path d="M48.3851 3.83816L62.309 0.941528L57.7334 5.9763L43.8818 8.59177L48.3851 3.83816Z" fill="white"/>
        <path d="M57.7333 6.66296L58.7062 8.38263L53.9926 12.1751L46.439 13.0709L43.4609 9.27843C45.1965 9.00381 55.7939 7.0749 57.7333 6.66296Z"
              fill="white"/>
        <path d="M39.2407 9.41565C39.7272 9.41565 42.2911 9.41565 42.7053 9.41565C42.7053 9.48757 45.6176 13.1362 45.6833 13.1362L45.8937 13.4108L45.8214 13.4827L44.0201 16.0328L32.522 17.6871C32.522 17.4778 32.522 13.8946 32.522 13.62L39.2407 9.41565Z"
              fill="white"/>
        <path d="M32.5875 7.97058L38.2675 9.27831L32.5875 12.8615V7.97058Z" fill="white"/>
        <path d="M32.5875 28.6394V28.3647C32.6598 28.3647 36.3282 26.8478 36.4005 26.8478L34.3888 32.9091L34.3165 33.1184C34.3165 33.1903 32.6533 38.2185 32.5875 38.4212V28.6394Z"
              fill="white"/>
        <path d="M34.7376 33.9423L40.2072 37.2508H40.1349C40.1349 37.2508 40.6214 37.5255 40.5491 37.4601C38.4717 38.5651 34.5207 40.7686 32.5156 41.8671C32.1737 41.1086 34.5272 34.7727 34.7376 33.9423Z"
              fill="white"/>
    </symbol>

    <symbol id="plus" viewBox="0 0 25 25" fill="none" xmlns="http://www.w3.org/2000/svg">
        <path d="M11.7676 3.71094H13.2324C13.3626 3.71094 13.4277 3.77604 13.4277 3.90625V21.0938C13.4277 21.224 13.3626 21.2891 13.2324 21.2891H11.7676C11.6374 21.2891 11.5723 21.224 11.5723 21.0938V3.90625C11.5723 3.77604 11.6374 3.71094 11.7676 3.71094Z"
              fill="#141312"/>
        <path d="M4.29688 11.5723H20.7031C20.8333 11.5723 20.8984 11.6374 20.8984 11.7676V13.2324C20.8984 13.3626 20.8333 13.4277 20.7031 13.4277H4.29688C4.16667 13.4277 4.10156 13.3626 4.10156 13.2324V11.7676C4.10156 11.6374 4.16667 11.5723 4.29688 11.5723Z"
              fill="#141312"/>
    </symbol>

    <symbol id="arr_long" viewBox="0 0 1341 16" fill="none" xmlns="http://www.w3.org/2000/svg">
        <path d="M1340.71 8.70722C1341.1 8.3167 1341.1 7.68353 1340.71 7.29301L1334.34 0.929049C1333.95 0.538524 1333.32 0.538524 1332.93 0.929049C1332.54 1.31957 1332.54 1.95274 1332.93 2.34326L1338.59 8.00012L1332.93 13.657C1332.54 14.0475 1332.54 14.6807 1332.93 15.0712C1333.32 15.4617 1333.95 15.4617 1334.34 15.0712L1340.71 8.70722ZM-8.74228e-08 9L1340 9.00012L1340 7.00012L8.74228e-08 7L-8.74228e-08 9Z"
              fill="black"/>
    </symbol>

    <symbol id="arrow_after" viewBox="0 0 20 20" fill="none" xmlns="http://www.w3.org/2000/svg">
        <rect width="1440" height="8406" transform="translate(-365 -5090)" fill="white"/>
        <path d="M4.29291 10.207C3.90234 9.81649 3.90234 9.18333 4.29291 8.7928L10.6569 2.42884C11.0474 2.03832 11.6805 2.03832 12.071 2.42884C12.4616 2.81937 12.4616 3.45253 12.071 3.84306L6.41418 9.49991L12.071 15.1568C12.4616 15.5473 12.4616 16.1805 12.071 16.571C11.6805 16.9615 11.0474 16.9615 10.6569 16.571L4.29291 10.207ZM1025 10.5L5 10.4999L5 8.49991L1025 8.5L1025 10.5Z"
              fill="black"/>
    </symbol>

    <symbol id="logo_contact" viewBox="0 0 387 108" fill="none" xmlns="http://www.w3.org/2000/svg">
        <rect x="193.5" y="0.493652" width="193.5" height="106.622" fill="#141312"/>
        <path d="M25.6939 54.6447V88.8509H18.5938V18.7241H64.785V25.5584H25.6939V47.8412H57.9816V54.6485H25.6939V54.6447Z"
              fill="#141312"/>
        <path d="M86.9561 88.8509V18.7241H94.0986V88.8509H86.9561Z" fill="#141312"/>
        <path d="M127.943 26.8991L127.947 88.8509H120.835V18.7241H130.204L172.72 80.6335V18.7241H179.832V88.8509H170.624L127.943 26.8991Z"
              fill="#141312"/>
        <path d="M239.156 54.2604H267.599V88.8518H261.578L260.499 81.143C254.77 86.9911 246.769 90.2349 237.18 90.2349C217.135 90.2349 204.187 75.919 204.187 53.7634C204.187 42.4718 207.566 33.0525 213.953 26.534C219.797 20.5704 228.046 17.2881 237.18 17.2881C251.322 17.2881 262.703 24.2495 267.603 39.8675H260.137C256.092 28.7646 246.403 24.3998 237.188 24.3998C224.486 24.3998 211.303 32.5632 211.303 53.7596C211.303 75.6686 225.461 83.1193 237.188 83.1193C246.68 83.1193 260.503 79.1937 260.503 61.0831H239.16V54.2604H239.156Z"
              fill="white"/>
        <path d="M300.183 82.0229H339.76V88.8572H293.087V18.7651H300.183V82.0229Z" fill="white"/>
        <path d="M361.534 89.1268V19H368.677V89.1268H361.534Z" fill="white"/>
        <path fill-rule="evenodd" clip-rule="evenodd"
              d="M387 0.987279L-8.60437e-08 0.987245L0 0L387 3.39364e-05L387 0.987279Z" fill="#141312"/>
        <path fill-rule="evenodd" clip-rule="evenodd" d="M387 107.61H0L0 106.623H387V107.61Z" fill="#141312"/>
    </symbol>

    <symbol id="contact_line" viewBox="0 0 388 1" fill="none" xmlns="http://www.w3.org/2000/svg">
        <line y1="0.75" x2="388" y2="0.75" stroke="#141312" stroke-opacity="0.4" stroke-width="0.5"
              stroke-dasharray="10 10"/>
    </symbol>

    <!--    numbers-->

    <symbol id="one" viewBox="0 0 191 110" fill="none" xmlns="http://www.w3.org/2000/svg">
        <path d="M42.5511 109.301C68.8864 109.301 84.7898 89.2557 84.8409 54.7386C84.8921 20.4773 68.7841 0.840905 42.5511 0.840905C16.267 0.840905 0.3125 20.4261 0.261364 54.7386C0.159091 89.1534 16.1648 109.25 42.5511 109.301ZM42.5511 90.9432C30.5341 90.9432 22.7614 78.875 22.8125 54.7386C22.8636 30.9602 30.5852 18.9943 42.5511 18.9943C54.4659 18.9943 62.2386 30.9602 62.2386 54.7386C62.2898 78.875 54.517 90.9432 42.5511 90.9432ZM146.192 2.27272H125.379L99.4531 18.6875V38.3239L123.436 23.2898H124.05V107H146.192V2.27272ZM178.536 108.33C185.081 108.33 190.757 102.858 190.808 96.0568C190.757 89.358 185.081 83.8864 178.536 83.8864C171.786 83.8864 166.212 89.358 166.263 96.0568C166.212 102.858 171.786 108.33 178.536 108.33Z"
              fill="white" fill-opacity="0.1"/>
    </symbol>

    <symbol id="two" viewBox="0 0 217 110" fill="none" xmlns="http://www.w3.org/2000/svg">
        <path d="M42.5511 109.301C68.8864 109.301 84.7898 89.2557 84.8409 54.7386C84.8921 20.4773 68.7841 0.840905 42.5511 0.840905C16.267 0.840905 0.3125 20.4261 0.261364 54.7386C0.159091 89.1534 16.1648 109.25 42.5511 109.301ZM42.5511 90.9432C30.5341 90.9432 22.7614 78.875 22.8125 54.7386C22.8636 30.9602 30.5852 18.9943 42.5511 18.9943C54.4659 18.9943 62.2386 30.9602 62.2386 54.7386C62.2898 78.875 54.517 90.9432 42.5511 90.9432ZM100.629 107H175.288V88.8977H131.311V88.1818L146.601 73.1989C168.129 53.5625 173.908 43.7443 173.908 31.8295C173.908 13.6761 159.078 0.840905 136.629 0.840905C114.641 0.840905 99.5554 13.9829 99.6065 34.5398H120.624C120.572 24.517 126.913 18.3807 136.476 18.3807C145.68 18.3807 152.533 24.1079 152.533 33.3125C152.533 41.6477 147.419 47.375 137.908 56.5284L100.629 91.0455L100.629 107ZM204.27 108.33C210.815 108.33 216.491 102.858 216.543 96.0568C216.491 89.358 210.815 83.8864 204.27 83.8864C197.52 83.8864 191.946 89.358 191.997 96.0568C191.946 102.858 197.52 108.33 204.27 108.33Z"
              fill="#141312" fill-opacity="0.1"/>
    </symbol>

    <symbol id="three" viewBox="0 0 218 110" fill="none" xmlns="http://www.w3.org/2000/svg">
        <path d="M42.5511 109.301C68.8864 109.301 84.7898 89.2557 84.8409 54.7386C84.8921 20.4773 68.7841 0.840905 42.5511 0.840905C16.267 0.840905 0.3125 20.4261 0.261364 54.7386C0.159091 89.1534 16.1648 109.25 42.5511 109.301ZM42.5511 90.9432C30.5341 90.9432 22.7614 78.875 22.8125 54.7386C22.8636 30.9602 30.5852 18.9943 42.5511 18.9943C54.4659 18.9943 62.2386 30.9602 62.2386 54.7386C62.2898 78.875 54.517 90.9432 42.5511 90.9432ZM139.339 108.432C162.862 108.432 179.686 95.4943 179.635 77.5966C179.686 64.5568 171.402 55.25 156.01 53.3068V52.4886C167.72 50.392 175.8 42.108 175.749 30.3466C175.8 13.8295 161.328 0.840905 139.646 0.840905C118.169 0.840905 102.01 13.4204 101.703 31.5227H122.925C123.18 23.5454 130.493 18.3807 139.544 18.3807C148.493 18.3807 154.476 23.8011 154.425 31.6761C154.476 39.9091 147.47 45.483 137.396 45.483H127.629V61.7443H137.396C149.26 61.7443 156.675 67.6761 156.624 76.1136C156.675 84.4489 149.516 90.1761 139.391 90.1761C129.624 90.1761 122.311 85.0625 121.902 77.392H99.6065C99.9645 95.6989 116.328 108.432 139.339 108.432ZM205.536 108.33C212.081 108.33 217.757 102.858 217.808 96.0568C217.757 89.358 212.081 83.8864 205.536 83.8864C198.786 83.8864 193.212 89.358 193.263 96.0568C193.212 102.858 198.786 108.33 205.536 108.33Z"
              fill="white" fill-opacity="0.03"/>
    </symbol>

    <symbol id="four" viewBox="0 0 222 110" fill="none" xmlns="http://www.w3.org/2000/svg">
        <path d="M42.5511 109.301C68.8864 109.301 84.7898 89.2557 84.8409 54.7386C84.8921 20.4773 68.7841 0.840905 42.5511 0.840905C16.267 0.840905 0.3125 20.4261 0.261364 54.7386C0.159091 89.1534 16.1648 109.25 42.5511 109.301ZM42.5511 90.9432C30.5341 90.9432 22.7614 78.875 22.8125 54.7386C22.8636 30.9602 30.5852 18.9943 42.5511 18.9943C54.4659 18.9943 62.2386 30.9602 62.2386 54.7386C62.2898 78.875 54.517 90.9432 42.5511 90.9432ZM99.044 88.5909L149.311 88.5909V107H170.482V88.5909H183.47V70.8466H170.482V2.27272H142.766L99.044 71.1534V88.5909ZM149.72 70.8466L121.339 70.8466V70.0284L148.902 26.4091H149.72V70.8466ZM209.192 108.33C215.737 108.33 221.413 102.858 221.464 96.0568C221.413 89.358 215.737 83.8864 209.192 83.8864C202.442 83.8864 196.868 89.358 196.919 96.0568C196.868 102.858 202.442 108.33 209.192 108.33Z"
              fill="#141312" fill-opacity="0.1"/>
    </symbol>

    <symbol id="five" viewBox="0 0 216 110" fill="none" xmlns="http://www.w3.org/2000/svg">
        <path d="M42.5511 109.301C68.8864 109.301 84.7898 89.2557 84.8409 54.7386C84.8921 20.4773 68.7841 0.840905 42.5511 0.840905C16.267 0.840905 0.3125 20.4261 0.261364 54.7386C0.159091 89.1534 16.1648 109.25 42.5511 109.301ZM42.5511 90.9432C30.5341 90.9432 22.7614 78.875 22.8125 54.7386C22.8636 30.9602 30.5852 18.9943 42.5511 18.9943C54.4659 18.9943 62.2386 30.9602 62.2386 54.7386C62.2898 78.875 54.517 90.9432 42.5511 90.9432ZM138.879 108.432C162.197 108.432 178.05 93.2443 177.999 72.0739C178.05 52.0284 164.038 37.608 145.169 37.608C135.964 37.608 128.038 41.4432 124.357 46.608L123.743 46.608L126.453 20.375H172.22V2.27272H108.197L103.237 57.5L122.925 61.0284C126.146 56.6818 132.385 53.9716 138.572 53.9716C149.107 54.0227 156.675 61.642 156.675 72.6364C156.675 83.5284 149.26 91.0455 138.879 91.0455C130.084 91.0455 122.976 85.5227 122.464 77.392H100.987C101.396 95.4943 117.197 108.432 138.879 108.432ZM203.145 108.33C209.69 108.33 215.366 102.858 215.418 96.0568C215.366 89.358 209.69 83.8864 203.145 83.8864C196.395 83.8864 190.821 89.358 190.872 96.0568C190.821 102.858 196.395 108.33 203.145 108.33Z"
              fill="white" fill-opacity="0.1"/>
    </symbol>

    <symbol id="six" viewBox="0 0 217 110" fill="none" xmlns="http://www.w3.org/2000/svg">
        <path d="M42.5511 109.301C68.8864 109.301 84.7898 89.2557 84.8409 54.7386C84.8921 20.4773 68.7841 0.840905 42.5511 0.840905C16.267 0.840905 0.3125 20.4261 0.261364 54.7386C0.159091 89.1534 16.1648 109.25 42.5511 109.301ZM42.5511 90.9432C30.5341 90.9432 22.7614 78.875 22.8125 54.7386C22.8636 30.9602 30.5852 18.9943 42.5511 18.9943C54.4659 18.9943 62.2386 30.9602 62.2386 54.7386C62.2898 78.875 54.517 90.9432 42.5511 90.9432ZM140.822 108.432C164.141 108.534 180.044 93.2443 179.993 71.9205C180.044 52.2841 166.339 38.1193 147.777 38.1193C136.271 38.1193 126.095 43.642 121.391 52.8977H120.675C120.777 32.4943 127.936 19.8125 141.589 19.8125C149.618 19.8125 155.396 24.2102 157.084 31.5227H178.919C176.822 14.2898 162.504 0.840905 141.589 0.840905C115.714 0.840905 99.0952 21.8068 98.9929 56.9886C98.9418 95.3409 119.294 108.33 140.822 108.432ZM140.72 91.0455C130.493 91.0455 122.925 82.8125 122.925 72.5852C122.976 62.4091 130.697 54.125 140.874 54.125C151.101 54.125 158.567 62.1534 158.516 72.5341C158.567 83.017 150.947 91.0455 140.72 91.0455ZM204.27 108.33C210.815 108.33 216.491 102.858 216.543 96.0568C216.491 89.358 210.815 83.8864 204.27 83.8864C197.52 83.8864 191.946 89.358 191.997 96.0568C191.946 102.858 197.52 108.33 204.27 108.33Z"
              fill="#141312" fill-opacity="0.1"/>
    </symbol>

    <symbol id="seven" viewBox="0 0 191 110" fill="none" xmlns="http://www.w3.org/2000/svg">
        <path d="M42.5511 109.301C68.8864 109.301 84.7898 89.2557 84.8409 54.7386C84.8921 20.4773 68.7841 0.840905 42.5511 0.840905C16.267 0.840905 0.3125 20.4261 0.261364 54.7386C0.159091 89.1534 16.1648 109.25 42.5511 109.301ZM42.5511 90.9432C30.5341 90.9432 22.7614 78.875 22.8125 54.7386C22.8636 30.9602 30.5852 18.9943 42.5511 18.9943C54.4659 18.9943 62.2386 30.9602 62.2386 54.7386C62.2898 78.875 54.517 90.9432 42.5511 90.9432ZM101.959 107H124.817L168.283 20.6307V2.27272H94.7997V20.375H145.374V21.0909L101.959 107ZM178.395 108.33C184.94 108.33 190.616 102.858 190.668 96.0568C190.616 89.358 184.94 83.8864 178.395 83.8864C171.645 83.8864 166.071 89.358 166.122 96.0568C166.071 102.858 171.645 108.33 178.395 108.33Z"
              fill="white" fill-opacity="0.1"/>
    </symbol>

    <symbol id="eight" viewBox="0 0 219 110" fill="none" xmlns="http://www.w3.org/2000/svg">
        <path d="M42.5511 109.301C68.8864 109.301 84.7898 89.2557 84.8409 54.7386C84.8921 20.4773 68.7841 0.840905 42.5511 0.840905C16.267 0.840905 0.3125 20.4261 0.261364 54.7386C0.159091 89.1534 16.1648 109.25 42.5511 109.301ZM42.5511 90.9432C30.5341 90.9432 22.7614 78.875 22.8125 54.7386C22.8636 30.9602 30.5852 18.9943 42.5511 18.9943C54.4659 18.9943 62.2386 30.9602 62.2386 54.7386C62.2898 78.875 54.517 90.9432 42.5511 90.9432ZM139.697 108.432C163.322 108.432 180.3 95.8011 180.351 78.8239C180.3 65.733 170.226 55.0455 157.646 52.9489V52.233C168.589 49.983 176.413 40.5227 176.464 29.017C176.413 12.8068 160.868 0.840905 139.697 0.840905C118.476 0.840905 102.93 12.8068 102.982 29.017C102.93 40.4716 110.652 49.983 121.8 52.233V52.9489C109.016 55.0455 99.044 65.733 99.0952 78.8239C99.044 95.8011 116.072 108.432 139.697 108.432ZM139.697 92.1705C129.163 92.1705 122.107 85.9318 122.107 77.0852C122.107 68.0341 129.521 61.4886 139.697 61.4886C149.822 61.4886 157.288 68.0341 157.288 77.0852C157.288 85.983 150.18 92.1705 139.697 92.1705ZM139.697 45.3807C130.851 45.3807 124.561 39.6023 124.561 31.3182C124.561 23.1364 130.749 17.5114 139.697 17.5114C148.595 17.5114 154.834 23.1875 154.834 31.3182C154.834 39.6023 148.493 45.3807 139.697 45.3807ZM205.817 108.33C212.362 108.33 218.038 102.858 218.089 96.0568C218.038 89.358 212.362 83.8864 205.817 83.8864C199.067 83.8864 193.493 89.358 193.544 96.0568C193.493 102.858 199.067 108.33 205.817 108.33Z"
              fill="#141312" fill-opacity="0.1"/>
    </symbol>

    <symbol id="nine" viewBox="0 0 217 110" fill="none" xmlns="http://www.w3.org/2000/svg">
        <path d="M42.5511 109.301C68.8864 109.301 84.7898 89.2557 84.8409 54.7386C84.8921 20.4773 68.7841 0.840905 42.5511 0.840905C16.267 0.840905 0.3125 20.4261 0.261364 54.7386C0.159091 89.1534 16.1648 109.25 42.5511 109.301ZM42.5511 90.9432C30.5341 90.9432 22.7614 78.875 22.8125 54.7386C22.8636 30.9602 30.5852 18.9943 42.5511 18.9943C54.4659 18.9943 62.2386 30.9602 62.2386 54.7386C62.2898 78.875 54.517 90.9432 42.5511 90.9432ZM138.521 0.840905C115.101 0.738629 99.2997 16.0795 99.402 37.1477C99.4531 56.6818 113.004 70.8466 131.567 70.8466C143.072 70.8466 153.3 65.2727 157.953 56.0682H158.669C158.618 76.8295 151.408 89.4602 137.754 89.4602C129.726 89.4602 123.947 85.0625 122.26 77.4432H100.425C102.47 95.0852 116.788 108.432 137.754 108.432C163.68 108.432 180.402 87.4659 180.351 51.9261C180.3 13.9829 160.05 0.943181 138.521 0.840905ZM138.675 18.2273C148.851 18.2273 156.368 26.5114 156.47 36.483C156.521 46.5057 148.595 54.7898 138.47 54.7898C128.243 54.7898 120.93 46.8125 120.879 36.5341C120.777 26.3068 128.396 18.2273 138.675 18.2273ZM204.27 108.33C210.815 108.33 216.491 102.858 216.543 96.0568C216.491 89.358 210.815 83.8864 204.27 83.8864C197.52 83.8864 191.946 89.358 191.997 96.0568C191.946 102.858 197.52 108.33 204.27 108.33Z"
              fill="white" fill-opacity="0.1"/>
    </symbol>

    <symbol id="ten" viewBox="0 0 192 110" fill="none" xmlns="http://www.w3.org/2000/svg">
        <path d="M47.0511 2.27272H26.2386L0.3125 18.6875L0.3125 38.3239L24.2955 23.2898H24.9091L24.9091 107H47.0511L47.0511 2.27272ZM113.004 109.301C139.339 109.301 155.243 89.2557 155.294 54.7386C155.345 20.4773 139.237 0.840905 113.004 0.840905C86.7202 0.840905 70.7656 20.4261 70.7145 54.7386C70.6122 89.1534 86.6179 109.25 113.004 109.301ZM113.004 90.9432C100.987 90.9432 93.2145 78.875 93.2656 54.7386C93.3168 30.9602 101.038 18.9943 113.004 18.9943C124.919 18.9943 132.692 30.9602 132.692 54.7386C132.743 78.875 124.97 90.9432 113.004 90.9432ZM179.661 108.33C186.206 108.33 191.882 102.858 191.933 96.0568C191.882 89.358 186.206 83.8864 179.661 83.8864C172.911 83.8864 167.337 89.358 167.388 96.0568C167.337 102.858 172.911 108.33 179.661 108.33Z"
              fill="#141312" fill-opacity="0.1"/>
    </symbol>

    <symbol id="eleven" viewBox="0 0 163 107" fill="none" xmlns="http://www.w3.org/2000/svg">
        <path d="M47.0511 0.272724H26.2386L0.3125 16.6875L0.3125 36.3239L24.2955 21.2898H24.9091L24.9091 105H47.0511L47.0511 0.272724ZM117.504 0.272724H96.6918L70.7656 16.6875V36.3239L94.7486 21.2898H95.3622L95.3622 105H117.504L117.504 0.272724ZM149.848 106.33C156.393 106.33 162.07 100.858 162.121 94.0568C162.07 87.358 156.393 81.8864 149.848 81.8864C143.098 81.8864 137.524 87.358 137.575 94.0568C137.524 100.858 143.098 106.33 149.848 106.33Z"
              fill="white" fill-opacity="0.1"/>
    </symbol>

    <symbol id="twelve" viewBox="0 0 188 109" fill="none" xmlns="http://www.w3.org/2000/svg">
        <path d="M47.0511 2.27272H26.2386L0.3125 18.6875L0.3125 38.3239L24.2955 23.2898H24.9091L24.9091 107H47.0511L47.0511 2.27272ZM71.9418 107H146.601V88.8977L102.624 88.8977V88.1818L117.913 73.1989C139.442 53.5625 145.22 43.7443 145.22 31.8295C145.22 13.6761 130.391 0.840905 107.942 0.840905C85.9531 0.840905 70.8679 13.9829 70.919 34.5398H91.9361C91.8849 24.517 98.2259 18.3807 107.788 18.3807C116.993 18.3807 123.845 24.1079 123.845 33.3125C123.845 41.6477 118.732 47.375 109.22 56.5284L71.9418 91.0455L71.9418 107ZM175.582 108.33C182.128 108.33 187.804 102.858 187.855 96.0568C187.804 89.358 182.128 83.8864 175.582 83.8864C168.832 83.8864 163.259 89.358 163.31 96.0568C163.259 102.858 168.832 108.33 175.582 108.33Z"
              fill="#141312" fill-opacity="0.1"/>
    </symbol>

    <symbol id="thirteen" viewBox="0 0 190 109" fill="none" xmlns="http://www.w3.org/2000/svg">
        <path d="M47.0511 2.27272H26.2386L0.3125 18.6875L0.3125 38.3239L24.2955 23.2898H24.9091L24.9091 107H47.0511L47.0511 2.27272ZM110.652 108.432C134.175 108.432 150.999 95.4943 150.947 77.5966C150.999 64.5568 142.714 55.25 127.322 53.3068V52.4886C139.033 50.392 147.112 42.108 147.061 30.3466C147.112 13.8295 132.641 0.840905 110.959 0.840905C89.4815 0.840905 73.3224 13.4204 73.0156 31.5227H94.2372C94.4929 23.5454 101.805 18.3807 110.857 18.3807C119.805 18.3807 125.788 23.8011 125.737 31.6761C125.788 39.9091 118.783 45.483 108.709 45.483H98.9418V61.7443H108.709C120.572 61.7443 127.987 67.6761 127.936 76.1136C127.987 84.4489 120.828 90.1761 110.703 90.1761C100.936 90.1761 93.6236 85.0625 93.2145 77.392H70.919C71.277 95.6989 87.6406 108.432 110.652 108.432ZM176.848 108.33C183.393 108.33 189.07 102.858 189.121 96.0568C189.07 89.358 183.393 83.8864 176.848 83.8864C170.098 83.8864 164.524 89.358 164.575 96.0568C164.524 102.858 170.098 108.33 176.848 108.33Z"
              fill="white" fill-opacity="0.1"/>
    </symbol>

    <symbol id="fourteen" viewBox="0 0 193 107" fill="none" xmlns="http://www.w3.org/2000/svg">
        <path d="M47.0511 0.272724H26.2386L0.3125 16.6875L0.3125 36.3239L24.2955 21.2898H24.9091L24.9091 105H47.0511L47.0511 0.272724ZM70.3565 86.5909H120.624L120.624 105H141.794V86.5909H154.783V68.8466H141.794V0.272724H114.078L70.3565 69.1534V86.5909ZM121.033 68.8466H92.652V68.0284L120.214 24.4091H121.033V68.8466ZM180.504 106.33C187.05 106.33 192.726 100.858 192.777 94.0568C192.726 87.358 187.05 81.8864 180.504 81.8864C173.754 81.8864 168.18 87.358 168.232 94.0568C168.18 100.858 173.754 106.33 180.504 106.33Z"
              fill="#141312" fill-opacity="0.1"/>
    </symbol>

    <symbol id="fifteen" viewBox="0 0 187 107" fill="none" xmlns="http://www.w3.org/2000/svg">
        <path d="M47.0511 0.272724H26.2386L0.3125 16.6875L0.3125 36.3239L24.2955 21.2898H24.9091L24.9091 105H47.0511L47.0511 0.272724ZM110.192 106.432C133.51 106.432 149.362 91.2443 149.311 70.0739C149.362 50.0284 135.351 35.608 116.482 35.608C107.277 35.608 99.3509 39.4432 95.669 44.608H95.0554L97.7656 18.375H143.533V0.272724H79.5099L74.5497 55.5L94.2372 59.0284C97.4588 54.6818 103.697 51.9716 109.885 51.9716C120.419 52.0227 127.987 59.642 127.987 70.6364C127.987 81.5284 120.572 89.0455 110.192 89.0455C101.396 89.0455 94.2884 83.5227 93.777 75.392H72.2997C72.7088 93.4943 88.5099 106.432 110.192 106.432ZM174.457 106.33C181.003 106.33 186.679 100.858 186.73 94.0568C186.679 87.358 181.003 81.8864 174.457 81.8864C167.707 81.8864 162.134 87.358 162.185 94.0568C162.134 100.858 167.707 106.33 174.457 106.33Z"
              fill="white" fill-opacity="0.1"/>
    </symbol>

    <symbol id="gratitude" viewBox="0 0 682 261" fill="none" xmlns="http://www.w3.org/2000/svg">
        <path d="M6.34091 70H4.34091V72H6.34091V70ZM12.6818 39.625H10.6818V41.625H12.6818V39.625ZM12.6818 23.2614V21.2614H10.6818V23.2614H12.6818ZM37.9432 23.2614V25.2614H39.9432V23.2614H37.9432ZM37.9432 17.6364H39.9432V15.6364H37.9432V17.6364ZM6.34091 17.6364V15.6364H4.34091V17.6364H6.34091ZM12.6818 64.4773H10.6818V66.4773H12.6818V64.4773ZM12.6818 45.25V43.25H10.6818V45.25H12.6818ZM6.34091 72H25.9773V68H6.34091V72ZM25.9773 72C31.9717 72 36.85 70.3061 40.2481 67.1592C43.6606 63.9989 45.3636 59.5723 45.3636 54.5568H41.3636C41.3636 58.6436 39.9985 61.9386 37.5303 64.2244C35.0477 66.5234 31.2329 68 25.9773 68V72ZM45.3636 54.5568C45.3636 49.5342 43.6543 45.2157 40.2127 42.1781C36.8025 39.1682 31.9296 37.625 25.9773 37.625V41.625C31.275 41.625 35.0953 42.9966 37.5657 45.177C40.0048 47.3297 41.3636 50.4771 41.3636 54.5568H45.3636ZM25.9773 37.625H12.6818V41.625H25.9773V37.625ZM14.6818 39.625V23.2614H10.6818V39.625H14.6818ZM12.6818 25.2614H37.9432V21.2614H12.6818V25.2614ZM39.9432 23.2614V17.6364H35.9432V23.2614H39.9432ZM37.9432 15.6364H6.34091V19.6364H37.9432V15.6364ZM4.34091 17.6364V70H8.34091V17.6364H4.34091ZM14.6818 64.4773V45.25H10.6818V64.4773H14.6818ZM12.6818 47.25H25.9773V43.25H12.6818V47.25ZM25.9773 47.25C29.1674 47.25 31.4517 48.1797 32.9102 49.4706C34.3592 50.7532 35.125 52.5024 35.125 54.4545H39.125C39.125 51.3953 37.8965 48.5423 35.5614 46.4754C33.2358 44.4169 29.9462 43.25 25.9773 43.25V47.25ZM35.125 54.4545C35.125 58.438 32.0575 62.4773 25.9773 62.4773V66.4773C34.2152 66.4773 39.125 60.6983 39.125 54.4545H35.125ZM25.9773 62.4773H12.6818V66.4773H25.9773V62.4773ZM49.3018 70H47.3018V72H49.3018V70ZM65.7678 44.125L63.7693 44.0466L63.7693 44.0474L65.7678 44.125ZM66.5859 23.2614V21.2614H64.6628L64.5875 23.183L66.5859 23.2614ZM86.12 23.2614H88.12V21.2614H86.12V23.2614ZM86.12 70H84.12V72H86.12V70ZM92.4609 70V72H94.4609V70H92.4609ZM92.4609 17.6364H94.4609V15.6364H92.4609V17.6364ZM60.5518 17.6364V15.6364H58.6234L58.5532 17.5635L60.5518 17.6364ZM59.6314 42.8977L57.6327 42.8249V42.8249L59.6314 42.8977ZM49.3018 64.1705V62.1705H47.3018V64.1705H49.3018ZM49.3018 72H51.245V68H49.3018V72ZM51.245 72C54.4064 72 57.105 71.3548 59.3473 69.9763C61.5963 68.5937 63.2239 66.5731 64.4053 64.0991C66.7115 59.2697 67.4477 52.4074 67.7663 44.2026L63.7693 44.0474C63.4486 52.3085 62.7019 58.3837 60.7957 62.3754C59.871 64.3119 58.71 65.6726 57.2524 66.5688C55.7881 67.469 53.862 68 51.245 68V72ZM67.7662 44.2034L68.5844 23.3397L64.5875 23.183L63.7693 44.0466L67.7662 44.2034ZM66.5859 25.2614H86.12V21.2614H66.5859V25.2614ZM84.12 23.2614V70H88.12V23.2614H84.12ZM86.12 72H92.4609V68H86.12V72ZM94.4609 70V17.6364H90.4609V70H94.4609ZM92.4609 15.6364H60.5518V19.6364H92.4609V15.6364ZM58.5532 17.5635L57.6327 42.8249L61.6301 42.9706L62.5505 17.7092L58.5532 17.5635ZM57.6327 42.8249C57.35 50.5857 56.7835 55.5748 55.6119 58.6038C55.0456 60.068 54.3976 60.9072 53.7191 61.3987C53.0565 61.8787 52.1673 62.1705 50.8359 62.1705V66.1705C52.7773 66.1705 54.5536 65.7335 56.0659 64.6379C57.5623 63.5538 58.5986 61.9703 59.3426 60.0468C60.7917 56.3002 61.3502 50.653 61.6301 42.9705L57.6327 42.8249ZM50.8359 62.1705H49.3018V66.1705H50.8359V62.1705ZM47.3018 64.1705V70H51.3018V64.1705H47.3018ZM107.278 70V72H108.69L109.162 70.6694L107.278 70ZM112.545 55.1705V53.1705H111.133L110.66 54.5011L112.545 55.1705ZM133.715 55.1705L135.6 54.5011L135.127 53.1705H133.715V55.1705ZM138.982 70L137.098 70.6694L137.57 72H138.982V70ZM145.63 70V72H148.495L147.507 69.3106L145.63 70ZM126.403 17.6364L128.28 16.947L127.799 15.6364H126.403V17.6364ZM119.857 17.6364V15.6364H118.461L117.98 16.947L119.857 17.6364ZM100.63 70L98.7525 69.3106L97.765 72H100.63V70ZM114.539 49.5455L112.654 48.8764L111.707 51.5455H114.539V49.5455ZM122.925 25.9205V23.9205H121.513L121.041 25.2514L122.925 25.9205ZM123.335 25.9205L125.219 25.2514L124.747 23.9205H123.335V25.9205ZM131.721 49.5455V51.5455H134.553L133.606 48.8764L131.721 49.5455ZM109.162 70.6694L114.429 55.8398L110.66 54.5011L105.393 69.3306L109.162 70.6694ZM112.545 57.1705H133.715V53.1705H112.545V57.1705ZM131.831 55.8398L137.098 70.6694L140.867 69.3306L135.6 54.5011L131.831 55.8398ZM138.982 72H145.63V68H138.982V72ZM147.507 69.3106L128.28 16.947L124.525 18.3257L143.753 70.6894L147.507 69.3106ZM126.403 15.6364H119.857V19.6364H126.403V15.6364ZM117.98 16.947L98.7525 69.3106L102.507 70.6894L121.735 18.3257L117.98 16.947ZM100.63 72H107.278V68H100.63V72ZM116.424 50.2145L124.81 26.5895L121.041 25.2514L112.654 48.8764L116.424 50.2145ZM122.925 27.9205H123.335V23.9205H122.925V27.9205ZM121.45 26.5895L129.836 50.2145L133.606 48.8764L125.219 25.2514L121.45 26.5895ZM131.721 47.5455H114.539V51.5455H131.721V47.5455ZM185.388 17.6364H187.388V15.6364H185.388V17.6364ZM153.786 17.6364V15.6364H151.786V17.6364H153.786ZM153.786 70H151.786V72H153.786V70ZM160.127 70V72H162.127V70H160.127ZM160.127 23.2614V21.2614H158.127V23.2614H160.127ZM185.388 23.2614V25.2614H187.388V23.2614H185.388ZM185.388 15.6364H153.786V19.6364H185.388V15.6364ZM151.786 17.6364V70H155.786V17.6364H151.786ZM153.786 72H160.127V68H153.786V72ZM162.127 70V23.2614H158.127V70H162.127ZM160.127 25.2614H185.388V21.2614H160.127V25.2614ZM187.388 23.2614V17.6364H183.388V23.2614H187.388ZM239.202 43.8182C239.202 35.1481 236.657 27.9215 232.17 22.8334C227.667 17.7272 221.331 14.9205 214.089 14.9205V18.9205C220.244 18.9205 225.465 21.2785 229.17 25.4791C232.89 29.6978 235.202 35.9201 235.202 43.8182H239.202ZM214.089 14.9205C206.846 14.9205 200.511 17.7272 196.008 22.8334C191.521 27.9215 188.975 35.1481 188.975 43.8182H192.975C192.975 35.9201 195.287 29.6978 199.008 25.4791C202.712 21.2785 207.934 18.9205 214.089 18.9205V14.9205ZM188.975 43.8182C188.975 52.4883 191.521 59.7149 196.008 64.8029C200.511 69.9092 206.846 72.7159 214.089 72.7159V68.7159C207.934 68.7159 202.712 66.3578 199.008 62.1573C195.287 57.9385 192.975 51.7163 192.975 43.8182H188.975ZM214.089 72.7159C221.331 72.7159 227.667 69.9092 232.17 64.8029C236.657 59.7149 239.202 52.4883 239.202 43.8182H235.202C235.202 51.7163 232.89 57.9385 229.17 62.1573C225.465 66.3578 220.244 68.7159 214.089 68.7159V72.7159ZM229.066 43.8182C229.066 50.2622 227.3 55.0005 224.63 58.0955C221.978 61.1693 218.3 62.7841 214.089 62.7841V66.7841C219.389 66.7841 224.2 64.717 227.658 60.7085C231.099 56.721 233.066 50.9765 233.066 43.8182H229.066ZM214.089 62.7841C209.878 62.7841 206.2 61.1693 203.548 58.0955C200.877 55.0005 199.112 50.2622 199.112 43.8182H195.112C195.112 50.9765 197.079 56.721 200.519 60.7085C203.978 64.717 208.788 66.7841 214.089 66.7841V62.7841ZM199.112 43.8182C199.112 37.3742 200.877 32.6358 203.548 29.5409C206.2 26.467 209.878 24.8523 214.089 24.8523V20.8523C208.788 20.8523 203.978 22.9193 200.519 26.9278C197.079 30.9153 195.112 36.6599 195.112 43.8182H199.112ZM214.089 24.8523C218.3 24.8523 221.978 26.467 224.63 29.5409C227.3 32.6358 229.066 37.3742 229.066 43.8182H233.066C233.066 36.6599 231.099 30.9153 227.658 26.9278C224.2 22.9193 219.389 20.8523 214.089 20.8523V24.8523ZM243.364 82.6818H241.364V84.6818H243.364V82.6818ZM249.398 82.6818V84.6818H251.398V82.6818H249.398ZM249.398 70V68H247.398V70H249.398ZM286.319 70H288.319V68H286.319V70ZM286.319 82.5795H284.319V84.5795H286.319V82.5795ZM292.353 82.5795V84.5795H294.353V82.5795H292.353ZM292.353 64.375H294.353V62.375H292.353V64.375ZM286.319 64.375H284.319V66.375H286.319V64.375ZM286.319 17.6364H288.319V15.6364H286.319V17.6364ZM255.228 17.6364V15.6364H253.327L253.231 17.5346L255.228 17.6364ZM254.103 39.7273L252.106 39.6255L252.105 39.6321L254.103 39.7273ZM246.739 64.375V66.375H247.514L248.087 65.8529L246.739 64.375ZM243.364 64.375V62.375H241.364V64.375H243.364ZM254.308 64.375L252.617 63.3057L250.676 66.375H254.308V64.375ZM260.137 39.7273L262.134 39.8343L262.135 39.8265L260.137 39.7273ZM260.955 23.2614V21.2614H259.052L258.958 23.1621L260.955 23.2614ZM280.285 23.2614H282.285V21.2614H280.285V23.2614ZM280.285 64.375V66.375H282.285V64.375H280.285ZM243.364 84.6818H249.398V80.6818H243.364V84.6818ZM251.398 82.6818V70H247.398V82.6818H251.398ZM249.398 72H286.319V68H249.398V72ZM284.319 70V82.5795H288.319V70H284.319ZM286.319 84.5795H292.353V80.5795H286.319V84.5795ZM294.353 82.5795V64.375H290.353V82.5795H294.353ZM292.353 62.375H286.319V66.375H292.353V62.375ZM288.319 64.375V17.6364H284.319V64.375H288.319ZM286.319 15.6364H255.228V19.6364H286.319V15.6364ZM253.231 17.5346L252.106 39.6256L256.1 39.829L257.225 17.7381L253.231 17.5346ZM252.105 39.6321C251.397 54.5064 248.271 60.2724 245.392 62.8971L248.087 65.8529C252.163 62.1367 255.377 55.0163 256.101 39.8224L252.105 39.6321ZM246.739 62.375H243.364V66.375H246.739V62.375ZM241.364 64.375V82.6818H245.364V64.375H241.364ZM255.998 65.4443C259.444 59.997 261.515 51.4004 262.134 39.8343L258.14 39.6203C257.532 50.9632 255.512 58.7303 252.617 63.3057L255.998 65.4443ZM262.135 39.8265L262.953 23.3606L258.958 23.1621L258.14 39.628L262.135 39.8265ZM260.955 25.2614H280.285V21.2614H260.955V25.2614ZM278.285 23.2614V64.375H282.285V23.2614H278.285ZM280.285 62.375H254.308V66.375H280.285V62.375ZM304.082 70V72H305.494L305.967 70.6694L304.082 70ZM309.349 55.1705V53.1705H307.937L307.465 54.5011L309.349 55.1705ZM330.52 55.1705L332.405 54.5011L331.932 53.1705H330.52V55.1705ZM335.787 70L333.902 70.6694L334.375 72H335.787V70ZM342.435 70V72H345.3L344.312 69.3106L342.435 70ZM323.207 17.6364L325.085 16.947L324.604 15.6364H323.207V17.6364ZM316.662 17.6364V15.6364H315.266L314.784 16.947L316.662 17.6364ZM297.435 70L295.557 69.3106L294.57 72H297.435V70ZM311.344 49.5455L309.459 48.8764L308.512 51.5455H311.344V49.5455ZM319.73 25.9205V23.9205H318.318L317.845 25.2514L319.73 25.9205ZM320.139 25.9205L322.024 25.2514L321.552 23.9205H320.139V25.9205ZM328.526 49.5455V51.5455H331.358L330.41 48.8764L328.526 49.5455ZM305.967 70.6694L311.234 55.8398L307.465 54.5011L302.198 69.3306L305.967 70.6694ZM309.349 57.1705H330.52V53.1705H309.349V57.1705ZM328.635 55.8398L333.902 70.6694L337.672 69.3306L332.405 54.5011L328.635 55.8398ZM335.787 72H342.435V68H335.787V72ZM344.312 69.3106L325.085 16.947L321.33 18.3257L340.557 70.6894L344.312 69.3106ZM323.207 15.6364H316.662V19.6364H323.207V15.6364ZM314.784 16.947L295.557 69.3106L299.312 70.6894L318.539 18.3257L314.784 16.947ZM297.435 72H304.082V68H297.435V72ZM313.229 50.2145L321.615 26.5895L317.845 25.2514L309.459 48.8764L313.229 50.2145ZM319.73 27.9205H320.139V23.9205H319.73V27.9205ZM318.254 26.5895L326.641 50.2145L330.41 48.8764L322.024 25.2514L318.254 26.5895ZM328.526 47.5455H311.344V51.5455H328.526V47.5455ZM350.591 70H348.591V72H350.591V70ZM356.932 70V72H358.932V70H356.932ZM356.932 50.875V48.875H354.932V50.875H356.932ZM350.591 17.6364V15.6364H348.591V17.6364H350.591ZM356.932 45.25H354.932V47.25H356.932V45.25ZM356.932 23.2614V21.2614H354.932V23.2614H356.932ZM350.591 72H356.932V68H350.591V72ZM358.932 70V50.875H354.932V70H358.932ZM356.932 52.875H368.386V48.875H356.932V52.875ZM368.386 52.875C374.9 52.875 379.891 50.8835 383.247 47.3979C386.587 43.9295 388.08 39.2182 388.08 34.2045H384.08C384.08 38.4465 382.824 42.0705 380.366 44.6235C377.924 47.1591 374.069 48.875 368.386 48.875V52.875ZM388.08 34.2045C388.08 29.1897 386.586 24.4982 383.225 21.0531C379.852 17.5944 374.836 15.6364 368.284 15.6364V19.6364C374.03 19.6364 377.912 21.3346 380.362 23.846C382.825 26.3711 384.08 29.9637 384.08 34.2045H388.08ZM368.284 15.6364H350.591V19.6364H368.284V15.6364ZM348.591 17.6364V70H352.591V17.6364H348.591ZM358.932 45.25V23.2614H354.932V45.25H358.932ZM356.932 25.2614H368.08V21.2614H356.932V25.2614ZM368.08 25.2614C371.98 25.2614 374.326 26.3203 375.712 27.7611C377.113 29.2174 377.841 31.3808 377.841 34.2045H381.841C381.841 30.7385 380.945 27.4304 378.594 24.9875C376.228 22.5291 372.693 21.2614 368.08 21.2614V25.2614ZM377.841 34.2045C377.841 37.0293 377.112 39.2279 375.711 40.7135C374.331 42.1765 372.012 43.25 368.182 43.25V47.25C372.764 47.25 376.274 45.9456 378.621 43.4584C380.946 40.9936 381.841 37.6696 381.841 34.2045H377.841ZM368.182 43.25H356.932V47.25H368.182V43.25ZM396.294 17.6364V15.6364H394.294V17.6364H396.294ZM396.294 70H394.294V72H396.294V70ZM402.43 70V72H403.477L404.073 71.1403L402.43 70ZM430.964 28.8864V26.8864H429.918L429.321 27.746L430.964 28.8864ZM431.476 28.8864H433.476V26.8864H431.476V28.8864ZM431.476 70H429.476V72H431.476V70ZM437.817 70V72H439.817V70H437.817ZM437.817 17.6364H439.817V15.6364H437.817V17.6364ZM431.68 17.6364V15.6364H430.635L430.038 16.4952L431.68 17.6364ZM403.044 58.8523V60.8523H404.09L404.687 59.9934L403.044 58.8523ZM402.533 58.8523H400.533V60.8523H402.533V58.8523ZM402.533 17.6364H404.533V15.6364H402.533V17.6364ZM394.294 17.6364V70H398.294V17.6364H394.294ZM396.294 72H402.43V68H396.294V72ZM404.073 71.1403L432.608 30.0267L429.321 27.746L400.787 68.8597L404.073 71.1403ZM430.964 30.8864H431.476V26.8864H430.964V30.8864ZM429.476 28.8864V70H433.476V28.8864H429.476ZM431.476 72H437.817V68H431.476V72ZM439.817 70V17.6364H435.817V70H439.817ZM437.817 15.6364H431.68V19.6364H437.817V15.6364ZM430.038 16.4952L401.402 57.7111L404.687 59.9934L433.323 18.7775L430.038 16.4952ZM403.044 56.8523H402.533V60.8523H403.044V56.8523ZM404.533 58.8523V17.6364H400.533V58.8523H404.533ZM402.533 15.6364H396.294V19.6364H402.533V15.6364ZM450.505 17.6364V15.6364H448.505V17.6364H450.505ZM450.505 70H448.505V72H450.505V70ZM456.437 70V72H458.437V70H456.437ZM456.437 30.2159V28.2159H454.437V30.2159H456.437ZM456.948 30.2159L458.798 29.4551L458.288 28.2159H456.948V30.2159ZM473.312 70L471.462 70.7608L471.972 72H473.312V70ZM479.039 70V72H480.379L480.889 70.7608L479.039 70ZM495.403 30.2159V28.2159H494.063L493.553 29.4551L495.403 30.2159ZM495.914 30.2159H497.914V28.2159H495.914V30.2159ZM495.914 70H493.914V72H495.914V70ZM501.846 70V72H503.846V70H501.846ZM501.846 17.6364H503.846V15.6364H501.846V17.6364ZM494.278 17.6364V15.6364H492.935L492.427 16.8786L494.278 17.6364ZM476.482 61.1023V63.1023H477.825L478.333 61.86L476.482 61.1023ZM475.869 61.1023L474.018 61.86L474.526 63.1023H475.869V61.1023ZM458.073 17.6364L459.924 16.8786L459.415 15.6364H458.073V17.6364ZM448.505 17.6364V70H452.505V17.6364H448.505ZM450.505 72H456.437V68H450.505V72ZM458.437 70V30.2159H454.437V70H458.437ZM456.437 32.2159H456.948V28.2159H456.437V32.2159ZM455.099 30.9767L471.462 70.7608L475.161 69.2392L458.798 29.4551L455.099 30.9767ZM473.312 72H479.039V68H473.312V72ZM480.889 70.7608L497.252 30.9767L493.553 29.4551L477.189 69.2392L480.889 70.7608ZM495.403 32.2159H495.914V28.2159H495.403V32.2159ZM493.914 30.2159V70H497.914V30.2159H493.914ZM495.914 72H501.846V68H495.914V72ZM503.846 70V17.6364H499.846V70H503.846ZM501.846 15.6364H494.278V19.6364H501.846V15.6364ZM492.427 16.8786L474.631 60.3445L478.333 61.86L496.129 18.3941L492.427 16.8786ZM476.482 59.1023H475.869V63.1023H476.482V59.1023ZM477.719 60.3445L459.924 16.8786L456.222 18.3941L474.018 61.86L477.719 60.3445ZM458.073 15.6364H450.505V19.6364H458.073V15.6364Z"
              fill="black"/>
        <path d="M30.2727 130.205H28.2727V131.899L29.9439 132.177L30.2727 130.205ZM30.2727 129.795L29.6904 127.882L28.2727 128.314V129.795H30.2727ZM6.44318 117.727L4.44457 117.653L4.36726 119.727H6.44318V117.727ZM12.5795 117.727V119.727H14.4933L14.5776 117.815L12.5795 117.727ZM18 127.341V125.341H16V127.341H18ZM18 132.966H16V134.966H18V132.966ZM11.7614 143.909L13.7556 143.758L13.6156 141.909H11.7614V143.909ZM5.31818 143.909V141.909H3.22285L3.32035 144.002L5.31818 143.909ZM23.1136 159.716C34.0374 159.716 42.8068 152.759 42.8068 142.784H38.8068C38.8068 149.94 32.491 155.716 23.1136 155.716V159.716ZM42.8068 142.784C42.8068 139.059 41.6985 135.718 39.5516 133.135C37.4015 130.548 34.3172 128.851 30.6015 128.232L29.9439 132.177C32.8248 132.657 35.0076 133.926 36.4754 135.692C37.9464 137.462 38.8068 139.861 38.8068 142.784H42.8068ZM32.2727 130.205V129.795H28.2727V130.205H32.2727ZM30.8551 131.709C37.0052 129.837 40.8636 124.702 40.8636 117.932H36.8636C36.8636 122.974 34.1255 126.532 29.6904 127.882L30.8551 131.709ZM40.8636 117.932C40.8636 109.342 34.0413 101.92 23.3182 101.92V105.92C31.9758 105.92 36.8636 111.692 36.8636 117.932H40.8636ZM23.3182 101.92C13.5615 101.92 4.80392 108.01 4.44457 117.653L8.44179 117.802C8.69608 110.979 14.9726 105.92 23.3182 105.92V101.92ZM6.44318 119.727H12.5795V115.727H6.44318V119.727ZM14.5776 117.815C14.7403 114.127 18.3118 111.443 23.2159 111.443V107.443C17.228 107.443 10.879 110.895 10.5815 117.639L14.5776 117.815ZM23.2159 111.443C25.7028 111.443 27.5608 112.192 28.7776 113.322C29.9804 114.439 30.7273 116.084 30.7273 118.239H34.7273C34.7273 115.101 33.6077 112.348 31.4994 110.391C29.4051 108.446 26.5074 107.443 23.2159 107.443V111.443ZM30.7273 118.239C30.7273 120.438 29.8857 122.15 28.4916 123.34C27.0681 124.555 24.9268 125.341 22.1932 125.341V129.341C25.6726 129.341 28.7983 128.337 31.0887 126.382C33.4083 124.402 34.7273 121.562 34.7273 118.239H30.7273ZM22.1932 125.341H18V129.341H22.1932V125.341ZM16 127.341V132.966H20V127.341H16ZM18 134.966H22.1932V130.966H18V134.966ZM22.1932 134.966C25.8495 134.966 28.4461 135.895 30.0898 137.251C31.694 138.574 32.5682 140.445 32.5682 142.784H36.5682C36.5682 139.345 35.2307 136.306 32.6353 134.165C30.0794 132.057 26.4886 130.966 22.1932 130.966V134.966ZM32.5682 142.784C32.5682 144.923 31.6583 146.684 30.0647 147.954C28.4384 149.251 26.0162 150.091 23.0114 150.091V154.091C26.731 154.091 30.0872 153.052 32.5581 151.082C35.0619 149.086 36.5682 146.193 36.5682 142.784H32.5682ZM23.0114 150.091C17.4754 150.091 14.026 147.327 13.7556 143.758L9.76708 144.06C10.2637 150.616 16.428 154.091 23.0114 154.091V150.091ZM11.7614 141.909H5.31818V145.909H11.7614V141.909ZM3.32035 144.002C3.77039 153.663 12.2973 159.716 23.1136 159.716V155.716C13.6288 155.716 7.63302 150.621 7.31602 143.816L3.32035 144.002ZM54.3324 157V159H55.7444L56.217 157.669L54.3324 157ZM59.5994 142.17V140.17H58.1874L57.7148 141.501L59.5994 142.17ZM80.7699 142.17L82.6545 141.501L82.1819 140.17H80.7699V142.17ZM86.0369 157L84.1523 157.669L84.6249 159H86.0369V157ZM92.6847 157V159H95.5496L94.5621 156.311L92.6847 157ZM73.4574 104.636L75.3348 103.947L74.8536 102.636H73.4574V104.636ZM66.9119 104.636V102.636H65.5157L65.0345 103.947L66.9119 104.636ZM47.6847 157L45.8072 156.311L44.8197 159H47.6847V157ZM61.5938 136.545L59.709 135.876L58.7615 138.545H61.5938V136.545ZM69.9801 112.92V110.92H68.5678L68.0953 112.251L69.9801 112.92ZM70.3892 112.92L72.274 112.251L71.8015 110.92H70.3892V112.92ZM78.7756 136.545V138.545H81.6078L80.6603 135.876L78.7756 136.545ZM56.217 157.669L61.4841 142.84L57.7148 141.501L52.4477 156.331L56.217 157.669ZM59.5994 144.17H80.7699V140.17H59.5994V144.17ZM78.8852 142.84L84.1523 157.669L87.9216 156.331L82.6545 141.501L78.8852 142.84ZM86.0369 159H92.6847V155H86.0369V159ZM94.5621 156.311L75.3348 103.947L71.5799 105.326L90.8072 157.689L94.5621 156.311ZM73.4574 102.636H66.9119V106.636H73.4574V102.636ZM65.0345 103.947L45.8072 156.311L49.5621 157.689L68.7894 105.326L65.0345 103.947ZM47.6847 159H54.3324V155H47.6847V159ZM63.4785 137.215L71.8649 113.59L68.0953 112.251L59.709 135.876L63.4785 137.215ZM69.9801 114.92H70.3892V110.92H69.9801V114.92ZM68.5044 113.59L76.8908 137.215L80.6603 135.876L72.274 112.251L68.5044 113.59ZM78.7756 134.545H61.5938V138.545H78.7756V134.545ZM160.261 104.636H162.261V102.636H160.261V104.636ZM121.193 104.636V102.636H119.193V104.636H121.193ZM121.193 157H119.193V159H121.193V157ZM127.534 157V159H129.534V157H127.534ZM127.534 110.261V108.261H125.534V110.261H127.534ZM153.92 110.261H155.92V108.261H153.92V110.261ZM153.92 157H151.92V159H153.92V157ZM160.261 157V159H162.261V157H160.261ZM160.261 102.636H121.193V106.636H160.261V102.636ZM119.193 104.636V157H123.193V104.636H119.193ZM121.193 159H127.534V155H121.193V159ZM129.534 157V110.261H125.534V157H129.534ZM127.534 112.261H153.92V108.261H127.534V112.261ZM151.92 110.261V157H155.92V110.261H151.92ZM153.92 159H160.261V155H153.92V159ZM162.261 157V104.636H158.261V157H162.261ZM173.052 157H171.052V159H173.052V157ZM179.393 157V159H181.393V157H179.393ZM179.393 137.875V135.875H177.393V137.875H179.393ZM173.052 104.636V102.636H171.052V104.636H173.052ZM179.393 132.25H177.393V134.25H179.393V132.25ZM179.393 110.261V108.261H177.393V110.261H179.393ZM173.052 159H179.393V155H173.052V159ZM181.393 157V137.875H177.393V157H181.393ZM179.393 139.875H190.847V135.875H179.393V139.875ZM190.847 139.875C197.361 139.875 202.352 137.884 205.708 134.398C209.048 130.929 210.54 126.218 210.54 121.205H206.54C206.54 125.447 205.285 129.071 202.827 131.623C200.385 134.159 196.53 135.875 190.847 135.875V139.875ZM210.54 121.205C210.54 116.19 209.047 111.498 205.686 108.053C202.313 104.594 197.297 102.636 190.745 102.636V106.636C196.491 106.636 200.373 108.335 202.823 110.846C205.286 113.371 206.54 116.964 206.54 121.205H210.54ZM190.745 102.636H173.052V106.636H190.745V102.636ZM171.052 104.636V157H175.052V104.636H171.052ZM181.393 132.25V110.261H177.393V132.25H181.393ZM179.393 112.261H190.54V108.261H179.393V112.261ZM190.54 112.261C194.441 112.261 196.786 113.32 198.173 114.761C199.574 116.217 200.302 118.381 200.302 121.205H204.302C204.302 117.739 203.406 114.43 201.055 111.988C198.689 109.529 195.154 108.261 190.54 108.261V112.261ZM200.302 121.205C200.302 124.029 199.573 126.228 198.172 127.714C196.792 129.177 194.473 130.25 190.643 130.25V134.25C195.224 134.25 198.735 132.946 201.082 130.458C203.407 127.994 204.302 124.67 204.302 121.205H200.302ZM190.643 130.25H179.393V134.25H190.643V130.25ZM264.937 130.818C264.937 122.148 262.391 114.921 257.904 109.833C253.401 104.727 247.066 101.92 239.823 101.92V105.92C245.978 105.92 251.2 108.279 254.904 112.479C258.624 116.698 260.937 122.92 260.937 130.818H264.937ZM239.823 101.92C232.581 101.92 226.245 104.727 221.742 109.833C217.255 114.921 214.71 122.148 214.71 130.818H218.71C218.71 122.92 221.022 116.698 224.742 112.479C228.447 108.279 233.668 105.92 239.823 105.92V101.92ZM214.71 130.818C214.71 139.488 217.255 146.715 221.742 151.803C226.245 156.909 232.581 159.716 239.823 159.716V155.716C233.668 155.716 228.447 153.358 224.742 149.157C221.022 144.939 218.71 138.716 218.71 130.818H214.71ZM239.823 159.716C247.066 159.716 253.401 156.909 257.904 151.803C262.391 146.715 264.937 139.488 264.937 130.818H260.937C260.937 138.716 258.624 144.939 254.904 149.157C251.2 153.358 245.978 155.716 239.823 155.716V159.716ZM254.8 130.818C254.8 137.262 253.035 142.001 250.364 145.095C247.712 148.169 244.034 149.784 239.823 149.784V153.784C245.124 153.784 249.934 151.717 253.393 147.709C256.833 143.721 258.8 137.976 258.8 130.818H254.8ZM239.823 149.784C235.612 149.784 231.934 148.169 229.282 145.095C226.612 142.001 224.846 137.262 224.846 130.818H220.846C220.846 137.976 222.813 143.721 226.253 147.709C229.712 151.717 234.523 153.784 239.823 153.784V149.784ZM224.846 130.818C224.846 124.374 226.612 119.636 229.282 116.541C231.934 113.467 235.612 111.852 239.823 111.852V107.852C234.523 107.852 229.712 109.919 226.253 113.928C222.813 117.915 220.846 123.66 220.846 130.818H224.846ZM239.823 111.852C244.034 111.852 247.712 113.467 250.364 116.541C253.035 119.636 254.8 124.374 254.8 130.818H258.8C258.8 123.66 256.833 117.915 253.393 113.928C249.934 109.919 245.124 107.852 239.823 107.852V111.852ZM275.823 104.636L277.523 103.583L276.937 102.636H275.823V104.636ZM268.357 104.636V102.636H264.689L266.676 105.72L268.357 104.636ZM285.232 130.818L286.913 131.902L287.612 130.818L286.913 129.735L285.232 130.818ZM268.357 157L266.676 155.916L264.689 159H268.357V157ZM275.823 157V159H276.926L277.514 158.068L275.823 157ZM289.323 135.625V133.625H288.221L287.632 134.557L289.323 135.625ZM289.732 135.625L291.423 134.557L290.835 133.625H289.732V135.625ZM303.232 157L301.541 158.068L302.13 159H303.232V157ZM310.698 157V159H314.319L312.391 155.935L310.698 157ZM294.232 130.818L292.539 129.753L291.87 130.818L292.539 131.883L294.232 130.818ZM310.698 104.636L312.391 105.701L314.319 102.636H310.698V104.636ZM303.232 104.636V102.636H302.119L301.532 103.583L303.232 104.636ZM289.732 126.42V128.42H290.846L291.432 127.474L289.732 126.42ZM289.323 126.42L287.623 127.474L288.21 128.42H289.323V126.42ZM275.823 102.636H268.357V106.636H275.823V102.636ZM266.676 105.72L283.551 131.902L286.913 129.735L270.038 103.553L266.676 105.72ZM283.551 129.735L266.676 155.916L270.038 158.084L286.913 131.902L283.551 129.735ZM268.357 159H275.823V155H268.357V159ZM277.514 158.068L291.014 136.693L287.632 134.557L274.132 155.932L277.514 158.068ZM289.323 137.625H289.732V133.625H289.323V137.625ZM288.041 136.693L301.541 158.068L304.923 155.932L291.423 134.557L288.041 136.693ZM303.232 159H310.698V155H303.232V159ZM312.391 155.935L295.925 129.753L292.539 131.883L309.005 158.065L312.391 155.935ZM295.925 131.883L312.391 105.701L309.005 103.572L292.539 129.753L295.925 131.883ZM310.698 102.636H303.232V106.636H310.698V102.636ZM301.532 103.583L288.032 125.367L291.432 127.474L304.932 105.69L301.532 103.583ZM289.732 124.42H289.323V128.42H289.732V124.42ZM291.023 125.367L277.523 103.583L274.123 105.69L287.623 127.474L291.023 125.367ZM364.288 130.818C364.288 122.148 361.743 114.921 357.256 109.833C352.753 104.727 346.417 101.92 339.175 101.92V105.92C345.33 105.92 350.551 108.279 354.256 112.479C357.976 116.698 360.288 122.92 360.288 130.818H364.288ZM339.175 101.92C331.932 101.92 325.597 104.727 321.094 109.833C316.607 114.921 314.061 122.148 314.061 130.818H318.061C318.061 122.92 320.373 116.698 324.094 112.479C327.798 108.279 333.019 105.92 339.175 105.92V101.92ZM314.061 130.818C314.061 139.488 316.607 146.715 321.094 151.803C325.597 156.909 331.932 159.716 339.175 159.716V155.716C333.019 155.716 327.798 153.358 324.094 149.157C320.373 144.939 318.061 138.716 318.061 130.818H314.061ZM339.175 159.716C346.417 159.716 352.753 156.909 357.256 151.803C361.743 146.715 364.288 139.488 364.288 130.818H360.288C360.288 138.716 357.976 144.939 354.256 149.157C350.551 153.358 345.33 155.716 339.175 155.716V159.716ZM354.152 130.818C354.152 137.262 352.386 142.001 349.716 145.095C347.064 148.169 343.385 149.784 339.175 149.784V153.784C344.475 153.784 349.286 151.717 352.744 147.709C356.185 143.721 358.152 137.976 358.152 130.818H354.152ZM339.175 149.784C334.964 149.784 331.286 148.169 328.634 145.095C325.963 142.001 324.197 137.262 324.197 130.818H320.197C320.197 137.976 322.165 143.721 325.605 147.709C329.064 151.717 333.874 153.784 339.175 153.784V149.784ZM324.197 130.818C324.197 124.374 325.963 119.636 328.634 116.541C331.286 113.467 334.964 111.852 339.175 111.852V107.852C333.874 107.852 329.064 109.919 325.605 113.928C322.165 117.915 320.197 123.66 320.197 130.818H324.197ZM339.175 111.852C343.385 111.852 347.064 113.467 349.716 116.541C352.386 119.636 354.152 124.374 354.152 130.818H358.152C358.152 123.66 356.185 117.915 352.744 113.928C349.286 109.919 344.475 107.852 339.175 107.852V111.852ZM403.095 104.636H405.095V102.636H403.095V104.636ZM396.754 104.636V102.636H394.754V104.636H396.754ZM396.754 127.852V129.852H398.754V127.852H396.754ZM390.413 127.852L388.688 128.863L389.267 129.852H390.413V127.852ZM376.811 104.636L378.537 103.625L377.957 102.636H376.811V104.636ZM369.141 104.636V102.636H365.546L367.441 105.691L369.141 104.636ZM384.686 129.693L386.385 130.749L387.04 129.694L386.386 128.639L384.686 129.693ZM367.709 157L366.01 155.944L364.11 159H367.709V157ZM374.868 157V159H375.984L376.57 158.05L374.868 157ZM389.186 133.784V131.784H388.07L387.484 132.734L389.186 133.784ZM396.754 133.784H398.754V131.784H396.754V133.784ZM396.754 157H394.754V159H396.754V157ZM403.095 157V159H405.095V157H403.095ZM403.095 133.784V131.784H401.095V133.784H403.095ZM410.663 133.784L412.369 132.74L411.784 131.784H410.663V133.784ZM424.879 157L423.174 158.044L423.759 159H424.879V157ZM432.141 157V159H435.746L433.837 155.941L432.141 157ZM415.163 129.795L413.465 128.739L412.807 129.797L413.467 130.854L415.163 129.795ZM430.811 104.636L432.509 105.693L434.41 102.636H430.811V104.636ZM423.141 104.636V102.636H421.994L421.415 103.625L423.141 104.636ZM409.538 127.852V129.852H410.685L411.264 128.863L409.538 127.852ZM403.095 127.852H401.095V129.852H403.095V127.852ZM403.095 102.636H396.754V106.636H403.095V102.636ZM394.754 104.636V127.852H398.754V104.636H394.754ZM396.754 125.852H390.413V129.852H396.754V125.852ZM392.139 126.841L378.537 103.625L375.085 105.647L388.688 128.863L392.139 126.841ZM376.811 102.636H369.141V106.636H376.811V102.636ZM367.441 105.691L382.987 130.748L386.386 128.639L370.84 103.582L367.441 105.691ZM382.988 128.637L366.01 155.944L369.407 158.056L386.385 130.749L382.988 128.637ZM367.709 159H374.868V155H367.709V159ZM376.57 158.05L390.888 134.834L387.484 132.734L373.166 155.95L376.57 158.05ZM389.186 135.784H396.754V131.784H389.186V135.784ZM394.754 133.784V157H398.754V133.784H394.754ZM396.754 159H403.095V155H396.754V159ZM405.095 157V133.784H401.095V157H405.095ZM403.095 135.784H410.663V131.784H403.095V135.784ZM408.958 134.829L423.174 158.044L426.585 155.956L412.369 132.74L408.958 134.829ZM424.879 159H432.141V155H424.879V159ZM433.837 155.941L416.86 128.737L413.467 130.854L430.444 158.059L433.837 155.941ZM416.862 130.852L432.509 105.693L429.113 103.58L413.465 128.739L416.862 130.852ZM430.811 102.636H423.141V106.636H430.811V102.636ZM421.415 103.625L407.813 126.841L411.264 128.863L424.866 105.647L421.415 103.625ZM409.538 125.852H403.095V129.852H409.538V125.852ZM405.095 127.852V104.636H401.095V127.852H405.095ZM435.95 169.682H433.95V171.682H435.95V169.682ZM441.984 169.682V171.682H443.984V169.682H441.984ZM441.984 157V155H439.984V157H441.984ZM478.905 157H480.905V155H478.905V157ZM478.905 169.58H476.905V171.58H478.905V169.58ZM484.939 169.58V171.58H486.939V169.58H484.939ZM484.939 151.375H486.939V149.375H484.939V151.375ZM478.905 151.375H476.905V153.375H478.905V151.375ZM478.905 104.636H480.905V102.636H478.905V104.636ZM447.814 104.636V102.636H445.913L445.816 104.535L447.814 104.636ZM446.689 126.727L444.691 126.626L444.691 126.632L446.689 126.727ZM439.325 151.375V153.375H440.1L440.673 152.853L439.325 151.375ZM435.95 151.375V149.375H433.95V151.375H435.95ZM446.893 151.375L445.203 150.306L443.262 153.375H446.893V151.375ZM452.723 126.727L454.72 126.834L454.721 126.827L452.723 126.727ZM453.541 110.261V108.261H451.638L451.544 110.162L453.541 110.261ZM472.871 110.261H474.871V108.261H472.871V110.261ZM472.871 151.375V153.375H474.871V151.375H472.871ZM435.95 171.682H441.984V167.682H435.95V171.682ZM443.984 169.682V157H439.984V169.682H443.984ZM441.984 159H478.905V155H441.984V159ZM476.905 157V169.58H480.905V157H476.905ZM478.905 171.58H484.939V167.58H478.905V171.58ZM486.939 169.58V151.375H482.939V169.58H486.939ZM484.939 149.375H478.905V153.375H484.939V149.375ZM480.905 151.375V104.636H476.905V151.375H480.905ZM478.905 102.636H447.814V106.636H478.905V102.636ZM445.816 104.535L444.691 126.626L448.686 126.829L449.811 104.738L445.816 104.535ZM444.691 126.632C443.983 141.506 440.856 147.272 437.978 149.897L440.673 152.853C444.749 149.137 447.963 142.016 448.687 126.822L444.691 126.632ZM439.325 149.375H435.95V153.375H439.325V149.375ZM433.95 151.375V169.682H437.95V151.375H433.95ZM448.584 152.444C452.03 146.997 454.101 138.4 454.72 126.834L450.726 126.62C450.118 137.963 448.098 145.73 445.203 150.306L448.584 152.444ZM454.721 126.827L455.539 110.361L451.544 110.162L450.725 126.628L454.721 126.827ZM453.541 112.261H472.871V108.261H453.541V112.261ZM470.871 110.261V151.375H474.871V110.261H470.871ZM472.871 149.375H446.893V153.375H472.871V149.375ZM494.521 157H492.521V159H494.521V157ZM526.532 157V159H528.532V157H526.532ZM526.532 151.375H528.532V149.375H526.532V151.375ZM500.862 151.375H498.862V153.375H500.862V151.375ZM500.862 133.58V131.58H498.862V133.58H500.862ZM524.487 133.58V135.58H526.487V133.58H524.487ZM524.487 127.955H526.487V125.955H524.487V127.955ZM500.862 127.955H498.862V129.955H500.862V127.955ZM500.862 110.261V108.261H498.862V110.261H500.862ZM526.123 110.261V112.261H528.123V110.261H526.123ZM526.123 104.636H528.123V102.636H526.123V104.636ZM494.521 104.636V102.636H492.521V104.636H494.521ZM494.521 159H526.532V155H494.521V159ZM528.532 157V151.375H524.532V157H528.532ZM526.532 149.375H500.862V153.375H526.532V149.375ZM502.862 151.375V133.58H498.862V151.375H502.862ZM500.862 135.58H524.487V131.58H500.862V135.58ZM526.487 133.58V127.955H522.487V133.58H526.487ZM524.487 125.955H500.862V129.955H524.487V125.955ZM502.862 127.955V110.261H498.862V127.955H502.862ZM500.862 112.261H526.123V108.261H500.862V112.261ZM528.123 110.261V104.636H524.123V110.261H528.123ZM526.123 102.636H494.521V106.636H526.123V102.636ZM492.521 104.636V157H496.521V104.636H492.521ZM537.552 157H535.552V159H537.552V157ZM543.893 157V159H545.893V157H543.893ZM543.893 133.58V131.58H541.893V133.58H543.893ZM571.813 133.58H573.813V131.58H571.813V133.58ZM571.813 157H569.813V159H571.813V157ZM578.154 157V159H580.154V157H578.154ZM578.154 104.636H580.154V102.636H578.154V104.636ZM571.813 104.636V102.636H569.813V104.636H571.813ZM571.813 127.955V129.955H573.813V127.955H571.813ZM543.893 127.955H541.893V129.955H543.893V127.955ZM543.893 104.636H545.893V102.636H543.893V104.636ZM537.552 104.636V102.636H535.552V104.636H537.552ZM537.552 159H543.893V155H537.552V159ZM545.893 157V133.58H541.893V157H545.893ZM543.893 135.58H571.813V131.58H543.893V135.58ZM569.813 133.58V157H573.813V133.58H569.813ZM571.813 159H578.154V155H571.813V159ZM580.154 157V104.636H576.154V157H580.154ZM578.154 102.636H571.813V106.636H578.154V102.636ZM569.813 104.636V127.955H573.813V104.636H569.813ZM571.813 125.955H543.893V129.955H571.813V125.955ZM545.893 127.955V104.636H541.893V127.955H545.893ZM543.893 102.636H537.552V106.636H543.893V102.636ZM535.552 104.636V157H539.552V104.636H535.552ZM590.849 104.636V102.636H588.849V104.636H590.849ZM590.849 157H588.849V159H590.849V157ZM596.985 157V159H598.031L598.628 158.14L596.985 157ZM625.519 115.886V113.886H624.473L623.876 114.746L625.519 115.886ZM626.031 115.886H628.031V113.886H626.031V115.886ZM626.031 157H624.031V159H626.031V157ZM632.371 157V159H634.371V157H632.371ZM632.371 104.636H634.371V102.636H632.371V104.636ZM626.235 104.636V102.636H625.189L624.593 103.495L626.235 104.636ZM597.599 145.852V147.852H598.644L599.241 146.993L597.599 145.852ZM597.087 145.852H595.087V147.852H597.087V145.852ZM597.087 104.636H599.087V102.636H597.087V104.636ZM588.849 104.636V157H592.849V104.636H588.849ZM590.849 159H596.985V155H590.849V159ZM598.628 158.14L627.162 117.027L623.876 114.746L595.342 155.86L598.628 158.14ZM625.519 117.886H626.031V113.886H625.519V117.886ZM624.031 115.886V157H628.031V115.886H624.031ZM626.031 159H632.371V155H626.031V159ZM634.371 157V104.636H630.371V157H634.371ZM632.371 102.636H626.235V106.636H632.371V102.636ZM624.593 103.495L595.956 144.711L599.241 146.993L627.878 105.778L624.593 103.495ZM597.599 143.852H597.087V147.852H597.599V143.852ZM599.087 145.852V104.636H595.087V145.852H599.087ZM597.087 102.636H590.849V106.636H597.087V102.636ZM645.06 157H643.06V159H645.06V157ZM677.071 157V159H679.071V157H677.071ZM677.071 151.375H679.071V149.375H677.071V151.375ZM651.401 151.375H649.401V153.375H651.401V151.375ZM651.401 133.58V131.58H649.401V133.58H651.401ZM675.026 133.58V135.58H677.026V133.58H675.026ZM675.026 127.955H677.026V125.955H675.026V127.955ZM651.401 127.955H649.401V129.955H651.401V127.955ZM651.401 110.261V108.261H649.401V110.261H651.401ZM676.662 110.261V112.261H678.662V110.261H676.662ZM676.662 104.636H678.662V102.636H676.662V104.636ZM645.06 104.636V102.636H643.06V104.636H645.06ZM645.06 159H677.071V155H645.06V159ZM679.071 157V151.375H675.071V157H679.071ZM677.071 149.375H651.401V153.375H677.071V149.375ZM653.401 151.375V133.58H649.401V151.375H653.401ZM651.401 135.58H675.026V131.58H651.401V135.58ZM677.026 133.58V127.955H673.026V133.58H677.026ZM675.026 125.955H651.401V129.955H675.026V125.955ZM653.401 127.955V110.261H649.401V127.955H653.401ZM651.401 112.261H676.662V108.261H651.401V112.261ZM678.662 110.261V104.636H674.662V110.261H678.662ZM676.662 102.636H645.06V106.636H676.662V102.636ZM643.06 104.636V157H647.06V104.636H643.06Z"
              fill="black"/>
        <path d="M8.48864 244V246H9.90069L10.3733 244.669L8.48864 244ZM13.7557 229.17V227.17H12.3436L11.871 228.501L13.7557 229.17ZM34.9261 229.17L36.8108 228.501L36.3382 227.17H34.9261V229.17ZM40.1932 244L38.3085 244.669L38.7811 246H40.1932V244ZM46.8409 244V246H49.7058L48.7183 243.311L46.8409 244ZM27.6136 191.636L29.4911 190.947L29.0098 189.636H27.6136V191.636ZM21.0682 191.636V189.636H19.672L19.1907 190.947L21.0682 191.636ZM1.84091 244L-0.0365272 243.311L-1.02403 246H1.84091V244ZM15.75 223.545L13.8652 222.876L12.9178 225.545H15.75V223.545ZM24.1364 199.92V197.92H22.724L22.2516 199.251L24.1364 199.92ZM24.5455 199.92L26.4302 199.251L25.9578 197.92H24.5455V199.92ZM32.9318 223.545V225.545H35.764L34.8166 222.876L32.9318 223.545ZM10.3733 244.669L15.6403 229.84L11.871 228.501L6.60398 243.331L10.3733 244.669ZM13.7557 231.17H34.9261V227.17H13.7557V231.17ZM33.0415 229.84L38.3085 244.669L42.0778 243.331L36.8108 228.501L33.0415 229.84ZM40.1932 246H46.8409V242H40.1932V246ZM48.7183 243.311L29.4911 190.947L25.7362 192.326L44.9635 244.689L48.7183 243.311ZM27.6136 189.636H21.0682V193.636H27.6136V189.636ZM19.1907 190.947L-0.0365272 243.311L3.71835 244.689L22.9456 192.326L19.1907 190.947ZM1.84091 246H8.48864V242H1.84091V246ZM17.6348 224.215L26.0211 200.59L22.2516 199.251L13.8652 222.876L17.6348 224.215ZM24.1364 201.92H24.5455V197.92H24.1364V201.92ZM22.6607 200.59L31.047 224.215L34.8166 222.876L26.4302 199.251L22.6607 200.59ZM32.9318 221.545H15.75V225.545H32.9318V221.545ZM54.9972 244H52.9972V246H54.9972V244ZM61.3381 244V246H63.3381V244H61.3381ZM61.3381 220.58V218.58H59.3381V220.58H61.3381ZM89.2585 220.58H91.2585V218.58H89.2585V220.58ZM89.2585 244H87.2585V246H89.2585V244ZM95.5994 244V246H97.5994V244H95.5994ZM95.5994 191.636H97.5994V189.636H95.5994V191.636ZM89.2585 191.636V189.636H87.2585V191.636H89.2585ZM89.2585 214.955V216.955H91.2585V214.955H89.2585ZM61.3381 214.955H59.3381V216.955H61.3381V214.955ZM61.3381 191.636H63.3381V189.636H61.3381V191.636ZM54.9972 191.636V189.636H52.9972V191.636H54.9972ZM54.9972 246H61.3381V242H54.9972V246ZM63.3381 244V220.58H59.3381V244H63.3381ZM61.3381 222.58H89.2585V218.58H61.3381V222.58ZM87.2585 220.58V244H91.2585V220.58H87.2585ZM89.2585 246H95.5994V242H89.2585V246ZM97.5994 244V191.636H93.5994V244H97.5994ZM95.5994 189.636H89.2585V193.636H95.5994V189.636ZM87.2585 191.636V214.955H91.2585V191.636H87.2585ZM89.2585 212.955H61.3381V216.955H89.2585V212.955ZM63.3381 214.955V191.636H59.3381V214.955H63.3381ZM61.3381 189.636H54.9972V193.636H61.3381V189.636ZM52.9972 191.636V244H56.9972V191.636H52.9972ZM139.078 244L137.477 245.199L138.077 246H139.078V244ZM146.646 244V246H150.632L148.25 242.804L146.646 244ZM124.76 214.648L123.288 213.294L122.165 214.514L123.157 215.843L124.76 214.648ZM145.93 191.636L147.402 192.99L150.488 189.636H145.93V191.636ZM138.362 191.636V189.636H137.487L136.893 190.28L138.362 191.636ZM117.396 214.341V216.341H118.272L118.866 215.698L117.396 214.341ZM114.635 214.341H112.635V216.341H114.635V214.341ZM114.635 191.636H116.635V189.636H114.635V191.636ZM108.294 191.636V189.636H106.294V191.636H108.294ZM108.294 244H106.294V246H108.294V244ZM114.635 244V246H116.635V244H114.635ZM114.635 219.966V217.966H112.635V219.966H114.635ZM121.078 219.966L122.679 218.767L122.079 217.966H121.078V219.966ZM139.078 246H146.646V242H139.078V246ZM148.25 242.804L126.363 213.452L123.157 215.843L145.043 245.196L148.25 242.804ZM126.232 216.002L147.402 192.99L144.459 190.282L123.288 213.294L126.232 216.002ZM145.93 189.636H138.362V193.636H145.93V189.636ZM136.893 190.28L115.927 212.984L118.866 215.698L139.832 192.993L136.893 190.28ZM117.396 212.341H114.635V216.341H117.396V212.341ZM116.635 214.341V191.636H112.635V214.341H116.635ZM114.635 189.636H108.294V193.636H114.635V189.636ZM106.294 191.636V244H110.294V191.636H106.294ZM108.294 246H114.635V242H108.294V246ZM116.635 244V219.966H112.635V244H116.635ZM114.635 221.966H121.078V217.966H114.635V221.966ZM119.477 221.165L137.477 245.199L140.679 242.801L122.679 218.767L119.477 221.165ZM154.841 244H152.841V246H154.841V244ZM186.852 244V246H188.852V244H186.852ZM186.852 238.375H188.852V236.375H186.852V238.375ZM161.182 238.375H159.182V240.375H161.182V238.375ZM161.182 220.58V218.58H159.182V220.58H161.182ZM184.807 220.58V222.58H186.807V220.58H184.807ZM184.807 214.955H186.807V212.955H184.807V214.955ZM161.182 214.955H159.182V216.955H161.182V214.955ZM161.182 197.261V195.261H159.182V197.261H161.182ZM186.443 197.261V199.261H188.443V197.261H186.443ZM186.443 191.636H188.443V189.636H186.443V191.636ZM154.841 191.636V189.636H152.841V191.636H154.841ZM154.841 246H186.852V242H154.841V246ZM188.852 244V238.375H184.852V244H188.852ZM186.852 236.375H161.182V240.375H186.852V236.375ZM163.182 238.375V220.58H159.182V238.375H163.182ZM161.182 222.58H184.807V218.58H161.182V222.58ZM186.807 220.58V214.955H182.807V220.58H186.807ZM184.807 212.955H161.182V216.955H184.807V212.955ZM163.182 214.955V197.261H159.182V214.955H163.182ZM161.182 199.261H186.443V195.261H161.182V199.261ZM188.443 197.261V191.636H184.443V197.261H188.443ZM186.443 189.636H154.841V193.636H186.443V189.636ZM152.841 191.636V244H156.841V191.636H152.841ZM195.009 197.261H193.009V199.261H195.009V197.261ZM211.474 197.261H213.474V195.261H211.474V197.261ZM211.474 244H209.474V246H211.474V244ZM217.815 244V246H219.815V244H217.815ZM217.815 197.261V195.261H215.815V197.261H217.815ZM234.281 197.261V199.261H236.281V197.261H234.281ZM234.281 191.636H236.281V189.636H234.281V191.636ZM195.009 191.636V189.636H193.009V191.636H195.009ZM195.009 199.261H211.474V195.261H195.009V199.261ZM209.474 197.261V244H213.474V197.261H209.474ZM211.474 246H217.815V242H211.474V246ZM219.815 244V197.261H215.815V244H219.815ZM217.815 199.261H234.281V195.261H217.815V199.261ZM236.281 197.261V191.636H232.281V197.261H236.281ZM234.281 189.636H195.009V193.636H234.281V189.636ZM193.009 191.636V197.261H197.009V191.636H193.009ZM250.408 213.625H248.408V215.625H250.408V213.625ZM250.408 191.636H252.408V189.636H250.408V191.636ZM244.067 191.636V189.636H242.067V191.636H244.067ZM244.067 244H242.067V246H244.067V244ZM250.408 219.25V217.25H248.408V219.25H250.408ZM250.408 238.477H248.408V240.477H250.408V238.477ZM292.545 191.636H294.545V189.636H292.545V191.636ZM286.204 191.636V189.636H284.204V191.636H286.204ZM286.204 244H284.204V246H286.204V244ZM292.545 244V246H294.545V244H292.545ZM252.408 213.625V191.636H248.408V213.625H252.408ZM250.408 189.636H244.067V193.636H250.408V189.636ZM242.067 191.636V244H246.067V191.636H242.067ZM244.067 246H263.704V242H244.067V246ZM263.704 246C269.698 246 274.577 244.306 277.975 241.159C281.387 237.999 283.09 233.572 283.09 228.557H279.09C279.09 232.644 277.725 235.939 275.257 238.224C272.774 240.523 268.959 242 263.704 242V246ZM283.09 228.557C283.09 223.534 281.381 219.216 277.939 216.178C274.529 213.168 269.656 211.625 263.704 211.625V215.625C269.002 215.625 272.822 216.997 275.292 219.177C277.731 221.33 279.09 224.477 279.09 228.557H283.09ZM263.704 211.625H250.408V215.625H263.704V211.625ZM250.408 221.25H263.704V217.25H250.408V221.25ZM263.704 221.25C266.894 221.25 269.178 222.18 270.637 223.471C272.086 224.753 272.852 226.502 272.852 228.455H276.852C276.852 225.395 275.623 222.542 273.288 220.475C270.962 218.417 267.673 217.25 263.704 217.25V221.25ZM272.852 228.455C272.852 232.438 269.784 236.477 263.704 236.477V240.477C271.942 240.477 276.852 234.698 276.852 228.455H272.852ZM263.704 236.477H250.408V240.477H263.704V236.477ZM252.408 238.477V219.25H248.408V238.477H252.408ZM292.545 189.636H286.204V193.636H292.545V189.636ZM284.204 191.636V244H288.204V191.636H284.204ZM286.204 246H292.545V242H286.204V246ZM294.545 244V191.636H290.545V244H294.545ZM312.398 191.636L314.398 191.664L314.426 189.636H312.398V191.636ZM305.444 191.636V189.636H303.417L303.444 191.664L305.444 191.636ZM305.955 229.273L303.955 229.3L303.982 231.273H305.955V229.273ZM311.887 229.273V231.273H313.86L313.887 229.3L311.887 229.273ZM312.398 189.636H305.444V193.636H312.398V189.636ZM303.444 191.664L303.955 229.3L307.955 229.246L307.444 191.609L303.444 191.664ZM305.955 231.273H311.887V227.273H305.955V231.273ZM313.887 229.3L314.398 191.664L310.399 191.609L309.887 229.246L313.887 229.3ZM308.921 246.409C312.557 246.409 315.523 243.443 315.523 239.807H311.523C311.523 241.233 310.348 242.409 308.921 242.409V246.409ZM315.523 239.807C315.523 236.171 312.557 233.205 308.921 233.205V237.205C310.348 237.205 311.523 238.38 311.523 239.807H315.523ZM308.921 233.205C305.285 233.205 302.319 236.171 302.319 239.807H306.319C306.319 238.38 307.494 237.205 308.921 237.205V233.205ZM302.319 239.807C302.319 243.443 305.285 246.409 308.921 246.409V242.409C307.494 242.409 306.319 241.233 306.319 239.807H302.319Z"
              fill="black"/>
    </symbol>

    <symbol id="logo_mobile" viewBox="0 0 252 70" fill="none" xmlns="http://www.w3.org/2000/svg">
        <rect x="125.872" y="0.321289" width="125.872" height="69.3578" fill="white"/>
        <path d="M16.7138 35.5465L16.7138 57.7976H12.0952L12.0952 12.1802L42.1426 12.1802V16.6259H16.7138V31.1208H37.7169V35.549H16.7138V35.5465Z" fill="white"/>
        <path d="M56.5651 57.7976V12.1802H61.2113V57.7976H56.5651Z" fill="white"/>
        <path d="M83.2267 17.498L83.2292 57.7976H78.603V12.1802H84.6977L112.354 52.4522V12.1802H116.98V57.7976H110.991L83.2267 17.498Z" fill="white"/>
        <path d="M155.571 35.2965H174.073V57.7982H170.156L169.454 52.7837C165.728 56.5878 160.523 58.6979 154.285 58.6979C141.247 58.6979 132.824 49.3855 132.824 34.9733C132.824 27.6281 135.022 21.5008 139.177 17.2606C142.978 13.3812 148.344 11.2461 154.285 11.2461C163.485 11.2461 170.888 15.7745 174.076 25.934H169.219C166.588 18.7116 160.285 15.8722 154.29 15.8722C146.028 15.8722 137.452 21.1825 137.452 34.9707C137.452 49.2226 146.662 54.0693 154.29 54.0693C160.465 54.0693 169.457 51.5156 169.457 39.7347H155.574V35.2965H155.571Z" fill="#141312"/>
        <path d="M195.269 53.3561H221.013V57.8018H190.653V12.207H195.269V53.3561Z" fill="#141312"/>
        <path d="M235.178 57.9773V12.3599H239.824V57.9773H235.178Z" fill="#141312"/>
        <path fill-rule="evenodd" clip-rule="evenodd" d="M251.743 0.642224L-5.59713e-08 0.642202L0 0L251.743 2.20756e-05L251.743 0.642224Z" fill="white"/>
        <path fill-rule="evenodd" clip-rule="evenodd" d="M251.743 70.0001L0 70.0001L0 69.3579L251.743 69.3579V70.0001Z" fill="white"/>
    </symbol>

    <symbol id="mail" viewBox="0 0 16 12" fill="none" xmlns="http://www.w3.org/2000/svg">
        <path d="M15.5 1.5C15.5 0.675 14.825 0 14 0H2C1.175 0 0.5 0.675 0.5 1.5V10.5C0.5 11.325 1.175 12 2 12H14C14.825 12 15.5 11.325 15.5 10.5V1.5ZM14 1.5L8 5.25L2 1.5H14ZM14 10.5H2V3L8 6.75L14 3V10.5Z" fill="white"/>
    </symbol>

    <symbol id="phone" viewBox="0 0 15 15" fill="none" xmlns="http://www.w3.org/2000/svg">
        <path d="M11.5541 14.7673C11.414 14.7669 11.2743 14.7516 11.1374 14.7215C8.53184 14.1825 6.13141 12.9187 4.21241 11.0757C2.33436 9.22853 1.03182 6.87673 0.46241 4.30482C0.395269 3.98428 0.411748 3.65186 0.510262 3.33954C0.608776 3.02721 0.786009 2.74549 1.02491 2.52149L2.69158 0.917321C2.7767 0.836816 2.87785 0.775167 2.98842 0.736397C3.09898 0.697628 3.21648 0.682609 3.33324 0.692321C3.45431 0.704952 3.57114 0.743952 3.67552 0.806579C3.7799 0.869206 3.86929 0.95394 3.93741 1.05482L6.02074 4.13399C6.09887 4.25346 6.13658 4.39486 6.12833 4.53738C6.12008 4.67989 6.0663 4.81599 5.97491 4.92565L4.92908 6.17565C5.3456 7.09751 5.93547 7.93069 6.66658 8.62982C7.39295 9.35432 8.25151 9.93282 9.19574 10.334L10.4916 9.30482C10.6004 9.21881 10.7328 9.16795 10.8713 9.15902C11.0097 9.15009 11.1476 9.18351 11.2666 9.25482L14.4124 11.2882C14.5204 11.3526 14.6123 11.4407 14.6814 11.5457C14.7505 11.6508 14.795 11.7701 14.8114 11.8947C14.8278 12.0194 14.8158 12.1461 14.7763 12.2655C14.7368 12.3849 14.6708 12.4938 14.5832 12.584L12.9582 14.1923C12.7737 14.376 12.5546 14.5214 12.3136 14.62C12.0726 14.7187 11.8145 14.7688 11.5541 14.7673ZM3.26658 1.51732L1.59991 3.12149C1.46552 3.24672 1.36603 3.40477 1.31124 3.58011C1.25645 3.75544 1.24823 3.94202 1.28741 4.12149C1.81688 6.53488 3.03396 8.74328 4.79158 10.4798C6.59749 12.2138 8.85641 13.4025 11.3082 13.909C11.4938 13.9478 11.6861 13.9399 11.8679 13.8861C12.0497 13.8323 12.2153 13.7342 12.3499 13.6007L13.9749 11.9923L10.9374 10.0298L9.54574 11.1382C9.49247 11.1803 9.42968 11.2088 9.36287 11.2212C9.29606 11.2335 9.22724 11.2293 9.16241 11.209C8.00687 10.7832 6.95968 10.1074 6.09574 9.22982C5.20214 8.39533 4.5085 7.36983 4.06658 6.22982C4.04788 6.16081 4.04726 6.08814 4.06477 6.01882C4.08229 5.94949 4.11735 5.88584 4.16658 5.83399L5.29158 4.48816L3.26658 1.51732Z" fill="white"/>
    </symbol>

    <symbol id="dart__career_1" viewBox="0 0 183 199" fill="none" xmlns="http://www.w3.org/2000/svg">
        <path d="M108.136 172.673C108.136 181.794 100.65 189.257 91.4999 189.257C82.3499 189.257 74.8635 181.794 74.8635 172.673C74.8635 163.553 82.3499 146.555 91.4999 146.555C100.65 146.555 108.136 163.553 108.136 172.673Z" stroke="#141312" stroke-width="6" stroke-miterlimit="10" stroke-linecap="round" stroke-linejoin="round"/>
        <path d="M135.17 172.051C140.913 172.051 145.568 167.411 145.568 161.687C145.568 155.963 140.913 151.322 135.17 151.322C129.428 151.322 124.773 155.963 124.773 161.687C124.773 167.411 129.428 172.051 135.17 172.051Z" stroke="#141312" stroke-width="6" stroke-miterlimit="10" stroke-linecap="round" stroke-linejoin="round"/>
        <path d="M47.8296 172.051C53.5721 172.051 58.2273 167.411 58.2273 161.687C58.2273 155.963 53.5721 151.322 47.8296 151.322C42.0871 151.322 37.4319 155.963 37.4319 161.687C37.4319 167.411 42.0871 172.051 47.8296 172.051Z" stroke="#141312" stroke-width="6" stroke-miterlimit="10" stroke-linecap="round" stroke-linejoin="round"/>
        <path d="M76.735 180.552C75.4873 182.832 73.4077 185.734 71.5361 187.6C61.7623 197.342 45.9577 197.342 36.1839 187.6L25.7862 177.235C20.1714 171.638 17.8839 164.176 18.7157 156.713C18.7157 156.713 3.95093 136.399 3.95093 128.521C3.95093 119.401 11.4373 111.938 20.5873 111.938H12.4771L16.6362 78.7715H20.7952V53.8965C20.7952 26.534 43.2543 4.14648 70.7043 4.14648H91.4998H112.295C139.745 4.14648 162.204 26.534 162.204 53.8965V78.7715H166.363L170.522 111.938H162.204C171.354 111.938 178.841 119.401 178.841 128.521C178.841 136.606 164.076 156.713 164.076 156.713C164.908 163.968 162.62 171.638 157.005 177.235L146.608 187.6C136.834 197.342 121.029 197.342 111.255 187.6C109.384 185.734 107.304 182.625 106.057 180.552" stroke="#141312" stroke-width="6" stroke-miterlimit="10" stroke-linecap="round" stroke-linejoin="round"/>
        <path d="M145.568 93.2819C145.568 99.0861 140.993 103.646 135.17 103.646C123.525 103.646 103.977 93.0746 103.977 78.7715H145.568V93.2819Z" stroke="#141312" stroke-width="6" stroke-miterlimit="10" stroke-linecap="round" stroke-linejoin="round"/>
        <path d="M37.4319 93.2819C37.4319 99.0861 42.0069 103.646 47.8296 103.646C59.4751 103.646 79.0228 93.0746 79.0228 78.7715H37.4319V93.2819Z" stroke="#141312" stroke-width="6" stroke-miterlimit="10" stroke-linecap="round" stroke-linejoin="round"/>
        <path d="M133.091 134.74C126.852 134.74 119.782 129.557 108.552 123.339C103.561 120.644 98.1546 118.156 91.2921 118.156C84.4296 118.156 79.2308 120.644 74.0319 123.339C63.2183 129.557 56.1478 134.74 49.9092 134.74" stroke="#141312" stroke-width="6" stroke-miterlimit="10" stroke-linecap="round" stroke-linejoin="round"/>
        <path d="M20.7954 62.1875H162.205" stroke="#141312" stroke-width="6" stroke-miterlimit="10" stroke-linecap="round"/>
        <path d="M21.0037 49.75H161.997" stroke="#141312" stroke-width="6" stroke-miterlimit="10" stroke-linecap="round"/>
    </symbol>

    <symbol id="dart__career_2" viewBox="0 0 348 348" fill="none" xmlns="http://www.w3.org/2000/svg">
        <g>
            <path d="M192.287 228.375C199.53 233.087 220.533 235.987 239.363 235.625" stroke="#141312" stroke-width="6" stroke-miterlimit="10" stroke-linecap="round" stroke-linejoin="round"/>
            <path d="M156.075 228.375C148.833 233.087 127.83 235.987 108.999 235.625" stroke="#141312" stroke-width="6" stroke-miterlimit="10" stroke-linecap="round" stroke-linejoin="round"/>
            <path d="M159.696 72.5V7.25H188.666V126.875H159.696V108.75" stroke="#141312" stroke-width="6" stroke-miterlimit="10" stroke-linecap="round" stroke-linejoin="round"/>
            <path d="M156.075 227.65C156.075 217.5 164.042 210.25 174.181 210.25C184.321 210.25 192.287 217.5 192.287 227.65V246.5H156.075V227.65Z" stroke="#141312" stroke-width="6" stroke-miterlimit="10" stroke-linecap="round" stroke-linejoin="round"/>
            <path d="M112.621 319C118.62 319 123.484 314.131 123.484 308.125C123.484 302.119 118.62 297.25 112.621 297.25C106.621 297.25 101.757 302.119 101.757 308.125C101.757 314.131 106.621 319 112.621 319Z" stroke="#141312" stroke-width="6" stroke-miterlimit="10" stroke-linecap="round" stroke-linejoin="round"/>
            <path d="M235.742 319C241.742 319 246.606 314.131 246.606 308.125C246.606 302.119 241.742 297.25 235.742 297.25C229.742 297.25 224.878 302.119 224.878 308.125C224.878 314.131 229.742 319 235.742 319Z" stroke="#141312" stroke-width="6" stroke-miterlimit="10" stroke-linecap="round" stroke-linejoin="round"/>
            <path d="M123.484 308.125H224.879" stroke="#141312" stroke-width="6" stroke-miterlimit="10" stroke-linecap="round" stroke-linejoin="round"/>
            <path d="M119.138 297.975L156.075 242.875" stroke="#141312" stroke-width="6" stroke-miterlimit="10" stroke-linecap="round" stroke-linejoin="round"/>
            <path d="M228.862 297.975L192.287 242.875" stroke="#141312" stroke-width="6" stroke-miterlimit="10" stroke-linecap="round" stroke-linejoin="round"/>
            <path d="M174.181 246.5V308.125" stroke="#141312" stroke-width="6" stroke-miterlimit="10" stroke-linecap="round" stroke-linejoin="round"/>
            <path d="M152.454 250.125V304.5" stroke="#141312" stroke-width="6" stroke-miterlimit="10" stroke-linecap="round" stroke-linejoin="round"/>
            <path d="M195.909 250.125V308.125" stroke="#141312" stroke-width="6" stroke-miterlimit="10" stroke-linecap="round" stroke-linejoin="round"/>
            <path d="M217.636 282.75V308.125" stroke="#141312" stroke-width="6" stroke-miterlimit="10" stroke-linecap="round" stroke-linejoin="round"/>
            <path d="M130.727 282.75V308.125" stroke="#141312" stroke-width="6" stroke-miterlimit="10" stroke-linecap="round" stroke-linejoin="round"/>
            <path d="M151.729 156.963C155.713 161.313 155.351 176.176 155.351 176.176C155.351 176.176 155.713 195.751 151.729 198.651C138.331 207.713 87.9958 210.251 76.77 198.651C65.5442 187.051 77.4943 167.113 91.2549 156.963C106.464 146.088 140.866 145.001 151.729 156.963Z" stroke="#141312" stroke-width="6" stroke-miterlimit="10" stroke-linecap="round" stroke-linejoin="round"/>
            <path d="M195.546 156.963C191.563 161.313 191.925 176.176 191.925 176.176C191.925 176.176 191.563 195.751 195.546 198.651C208.945 207.713 259.28 210.251 270.505 198.651C281.731 187.051 269.781 167.113 256.021 156.963C241.174 146.088 206.41 145.001 195.546 156.963Z" stroke="#141312" stroke-width="6" stroke-miterlimit="10" stroke-linecap="round" stroke-linejoin="round"/>
            <path d="M243.347 300.513L271.23 252.301" stroke="#141312" stroke-width="6" stroke-miterlimit="10" stroke-linecap="round"/>
            <path d="M97.7732 70.3258C113.344 53.2883 135.434 42.0508 159.696 38.4258" stroke="#141312" stroke-width="6" stroke-miterlimit="10" stroke-linecap="round"/>
            <path d="M79.3047 98.6C80.7532 95.3375 82.5638 91.7125 84.0123 88.8125" stroke="#141312" stroke-width="6" stroke-miterlimit="10" stroke-linecap="round"/>
            <path d="M104.654 300.513L76.7705 252.301" stroke="#141312" stroke-width="6" stroke-miterlimit="10" stroke-linecap="round"/>
            <path d="M275.938 300.875C300.924 297.25 333.153 286.012 337.861 283.475" stroke="#141312" stroke-width="6" stroke-miterlimit="10" stroke-linecap="round"/>
            <path d="M73.5106 300.876C48.5241 297.251 15.2088 285.651 10.5012 283.113" stroke="#141312" stroke-width="6" stroke-miterlimit="10" stroke-linecap="round"/>
            <path d="M300.924 163.125C300.924 163.125 270.868 97.15 188.666 126.875" stroke="#141312" stroke-width="6" stroke-miterlimit="10" stroke-linecap="round"/>
            <path d="M47.4382 163.125C47.4382 163.125 77.4944 97.15 159.696 126.875" stroke="#141312" stroke-width="6" stroke-miterlimit="10" stroke-linecap="round"/>
            <path d="M159.696 15.2246C96.687 22.4746 47.4383 76.1246 47.4383 141.375V163.125L12.3124 276.587C5.79422 293.987 3.9836 311.387 15.9337 317.55C51.4217 336.037 133.624 340.387 173.819 340.387C214.015 340.387 296.217 335.675 331.705 317.55C343.655 311.387 341.844 293.987 335.326 276.587L300.562 163.125V145V141.375C300.562 76.1246 251.676 22.4746 188.304 15.2246" stroke="#141312" stroke-width="6" stroke-miterlimit="10" stroke-linecap="round"/>
        </g>
    </symbol>


</svg>