<svg xmlns="http://www.w3.org/2000/svg">
    <symbol id="logo" viewBox="0 0 98 29" xmlns="http://www.w3.org/2000/svg" shape-rendering="geometricPrecision" text-rendering="geometricPrecision" image-rendering="optimizeQuality" fill-rule="evenodd" clip-rule="evenodd">
        <rect x="49" y="1" width="98" height="29"/>
        <path d="M6.50648 14.7129V23.3749H4.70851V5.6167H16.4055V7.34735H6.50648V12.99H14.6827V14.7138H6.50648V14.7129Z" fill="#141312"/>
        <path d="M22.0199 23.3749V5.6167H23.8286V23.3749H22.0199Z" fill="#141312"/>
        <path d="M32.3989 7.68685L32.3999 23.3749H30.599V5.6167H32.9716L43.7379 21.294V5.6167H45.5388V23.3749H43.2072L32.3989 7.68685Z" fill="#141312"/>
        <path d="M60.5615 14.6153H67.7641V23.3749H66.2393L65.9661 21.4228C64.5155 22.9037 62.4892 23.7251 60.061 23.7251C54.9852 23.7251 51.7063 20.0999 51.7063 14.4895C51.7063 11.6301 52.5619 9.24482 54.1794 7.59416C55.6593 6.08399 57.748 5.25281 60.061 5.25281C63.6423 5.25281 66.5242 7.01565 67.7651 10.9706H65.8744C64.8501 8.15901 62.3966 7.0537 60.063 7.0537C56.8466 7.0537 53.5082 9.12092 53.5082 14.4885C53.5082 20.0365 57.0934 21.9233 60.063 21.9233C62.4668 21.9233 65.9671 20.9292 65.9671 16.343H60.5625V14.6153H60.5615Z" fill="white"/>
        <path d="M76.0154 21.6453H86.0374V23.376H74.2184V5.62659H76.0154V21.6453Z" fill="white"/>
        <path d="M91.5513 23.3749V5.6167H93.36V23.3749H91.5513Z" fill="white"/>
        <path fill-rule="evenodd" clip-rule="evenodd" d="M98 1.12501L-2.17888e-08 1.125L0 0.875L98 0.875009L98 1.12501Z" fill="#141312"/>
        <path fill-rule="evenodd" clip-rule="evenodd" d="M98 28.125H0L0 27.875H98V28.125Z" fill="#141312"/>
    </symbol>

    <symbol viewBox="0 0 212 212" fill="none" id="owl">
            <path d="M95.0467 23.9285V38.6115L78.0867 27.8545L95.0467 23.9285Z" fill="#141312"/>
            <path d="M64.8367 28.4826C66.0733 28.4826 73.9448 28.4826 75.1815 28.4826L95.0467 41.1044C95.0467 41.5167 95.0467 51.037 95.0467 51.8615V53.5104L60.7145 48.5441C60.4985 48.3281 55.3359 40.8885 55.1396 40.6922C55.3163 40.4763 64.6404 28.6789 64.8367 28.4826Z" fill="#141312"/>
            <path d="M83.8774 80.5993L95.2626 85.1533V85.9778V115.344L90.4926 100.877C90.2767 100.249 84.2896 81.8359 83.8774 80.5993Z" fill="#141312"/>
            <path d="M78.4989 73.3559C75.3974 69.0178 65.877 55.3556 62.5792 50.6052L94.2026 55.1593L78.4989 73.3559Z" fill="#141312"/>
            <path d="M95.0467 57.24V82.8763L82.6211 77.91L79.7355 75.0244L95.0467 57.24Z" fill="#141312"/>
            <path d="M70.6274 71.923C72.2763 72.3352 74.1411 72.7474 75.79 73.1596L77.0267 75.0244L76.8107 75.2404L77.0267 75.4563C75.5741 77.9296 70.4115 86.4096 62.9522 84.9767C54.6881 83.9363 46.8167 76.7126 50.1341 66.9763C52.6074 67.6044 55.5126 68.213 57.7896 68.8411C55.5322 80.187 68.5663 81.2274 70.6274 71.923Z" fill="#141312"/>
            <path d="M60.0863 69.2337L68.5663 71.2948C66.9174 78.3222 58.2215 77.7137 60.0863 69.2337Z" fill="#141312"/>
            <path d="M73.9448 70.6667C73.1204 70.4507 72.08 70.2544 71.2556 70.0385C67.1137 68.9981 62.5596 67.7615 58.4374 66.7211C52.6467 65.2685 41.6933 62.5793 35.6867 60.9304L31.7607 59.6937C36.0989 55.3556 48.7207 45.6193 53.8833 41.9093L73.9448 70.6667Z" fill="#141312"/>
            <path d="M41.8896 82.8763L36.7271 63.443L48.3085 66.3481C44.9911 78.1456 53.0589 86.2133 64.8563 87.0378C71.8837 87.0378 76.85 79.7944 78.7148 76.693L81.4041 79.3822L87.823 99.0315L55.5519 94.6933L41.8896 82.8763Z" fill="#141312"/>
            <path d="M6.30112 2.82668L47.8767 11.5226L61.323 25.7933L19.9633 17.9415L6.30112 2.82668Z" fill="#141312"/>
            <path d="M17.0581 25.1652L19.9633 20.0026L62.5596 28.0704L53.6674 39.4359L31.1326 36.7467L17.0581 25.1652Z" fill="#141312"/>
            <path d="M31.1326 38.8274L51.41 41.3007L34.0182 54.963C30.2885 56.0033 20.5719 58.8889 16.6459 60.1256L31.1326 38.8274Z" fill="#141312"/>
            <path d="M95.0466 125.689L71.0592 112.458L71.6874 112.046L72.3155 111.83H72.0996L88.4314 101.897C89.2559 104.587 96.2833 123.411 95.0466 125.689Z" fill="#141312"/>
            <path d="M180.455 139.135C169.914 134.384 135.778 119.27 126.67 113.283L148.204 110.809L149.244 110.593L150.069 109.553L165.792 91.1404L166.616 90.3159V84.7411L185.029 100.661L180.455 139.135Z" fill="#141312"/>
            <path d="M152.738 82.8763L157.92 62.8148L161.846 61.5782C162.259 64.8956 164.123 79.1663 164.536 82.68V88.4707L152.738 82.8763Z" fill="#141312"/>
            <path d="M163.711 90.5318L148.616 108.12L138.683 95.9104L151.501 84.7411L163.711 90.5318Z" fill="#141312"/>
            <path d="M133.913 66.7408C129.771 67.7811 125.217 69.0178 121.095 70.0582C120.271 70.2741 119.23 70.4704 118.406 70.6863L138.683 41.9289C143.846 45.8548 156.468 55.3752 160.806 59.7133C153.15 62.1867 141.569 64.6796 133.913 66.7408Z" fill="#141312"/>
            <path d="M115.304 75.0245L116.541 73.1596C118.19 72.7474 120.055 72.3352 121.704 71.923C123.765 81.2274 136.799 79.9908 134.326 68.8215C136.799 68.1933 139.704 67.5848 141.981 66.9567C145.298 76.6733 137.427 83.9167 129.163 84.9571C121.92 86.4096 116.541 77.9296 115.089 75.4367L115.304 75.0245Z" fill="#141312"/>
            <path d="M123.588 71.5107L132.068 69.4496C132.284 71.923 132.284 73.7878 131.44 75.0245C128.554 78.1259 124.413 74.8085 123.588 71.5107Z" fill="#141312"/>
            <path d="M113.852 73.3559L98.1482 55.1593L129.791 50.6052C126.474 55.3752 116.953 68.8215 113.852 73.3559Z" fill="#141312"/>
            <path d="M112.615 75.0244L109.73 77.91L97.3041 82.8763V57.24L112.615 75.0244Z" fill="#141312"/>
            <path d="M111.163 79.3626L113.852 76.6733C115.501 79.7748 120.467 87.0182 127.71 87.0182C139.508 85.9778 147.576 77.91 144.258 66.3285L155.84 63.4233L150.677 82.8567L137.034 94.6541L104.763 98.9922C104.763 99.2081 111.163 79.3626 111.163 79.3626Z" fill="#141312"/>
            <path d="M137.034 96.7348L146.751 108.944L123.784 111.418L106.412 100.877L137.034 96.7348Z" fill="#141312"/>
            <path d="M184.381 97.5592L166.381 82.0518L163.711 60.7537L163.495 59.517C163.083 59.3011 158.745 55.1789 158.333 54.7667C161.65 55.807 172.191 58.9085 175.705 59.9293L184.381 97.5592Z" fill="#141312"/>
            <path d="M174.252 57.4363C170.11 56.1996 158.529 52.8822 154.819 51.8615L141.176 41.3204L161.454 38.847L174.252 57.4363Z" fill="#141312"/>
            <path d="M144.474 11.5226L186.05 2.82668L172.387 17.9415L131.028 25.7933L144.474 11.5226Z" fill="#141312"/>
            <path d="M172.387 20.0026L175.293 25.1652L161.218 36.5504L138.664 39.2396L129.771 27.8544C134.954 27.03 166.597 21.2393 172.387 20.0026Z" fill="#141312"/>
            <path d="M117.169 28.2667C118.622 28.2667 126.277 28.2667 127.514 28.2667C127.514 28.4826 136.21 39.4359 136.406 39.4359L137.034 40.2604L136.819 40.4763L131.44 48.1318L97.1078 53.0981C97.1078 52.47 97.1078 41.713 97.1078 40.8885L117.169 28.2667Z" fill="#141312"/>
            <path d="M97.3041 23.9285L114.264 27.8545L97.3041 38.6115V23.9285Z" fill="#141312"/>
            <path d="M97.3041 85.9778V85.1533C97.52 85.1533 108.473 80.5993 108.689 80.5993L102.683 98.7959L102.467 99.4241C102.467 99.64 97.5004 114.735 97.3041 115.344V85.9778Z" fill="#141312"/>
            <path d="M103.723 101.897L120.055 111.83H119.839C119.839 111.83 121.292 112.654 121.076 112.458C114.873 115.776 103.075 122.391 97.0882 125.689C96.0675 123.411 103.095 104.39 103.723 101.897Z" fill="#141312"/>
            <path d="M146.339 144.513C143.65 152.993 137.859 171.406 135.17 179.67C126.474 169.737 105.804 146.162 97.3237 136.446V129.202V127.966L123.392 113.479L139.311 122.371L142.413 132.088C142.393 132.52 146.339 144.513 146.339 144.513Z" fill="#141312"/>
            <path d="M152.326 156.919L148.4 144.513C147.772 142.452 142.609 126.101 141.785 123.824L180.455 141.412L205.679 204.502C203.422 206.366 154.191 157.744 152.326 156.919Z" fill="#141312"/>
            <path d="M112.419 156.919L134.541 182.163L132.893 208.015L112.419 156.919Z" fill="#141312"/>
    </symbol>

    <symbol viewBox="0 0 195 195" fill="none" id="robot">
        <path d="M20.2703 162.5C21.3898 162.5 22.2973 161.591 22.2973 160.469C22.2973 159.347 21.3898 158.438 20.2703 158.438C19.1508 158.438 18.2432 159.347 18.2432 160.469C18.2432 161.591 19.1508 162.5 20.2703 162.5Z" stroke="#141312" stroke-width="4" stroke-miterlimit="10" stroke-linecap="round" stroke-linejoin="round"/>
        <path d="M42.5676 16.25C43.6871 16.25 44.5946 15.3406 44.5946 14.2188C44.5946 13.0969 43.6871 12.1875 42.5676 12.1875C41.4481 12.1875 40.5405 13.0969 40.5405 14.2188C40.5405 15.3406 41.4481 16.25 42.5676 16.25Z" stroke="#141312" stroke-width="4" stroke-miterlimit="10" stroke-linecap="round" stroke-linejoin="round"/>
        <path d="M180.405 16.25C181.525 16.25 182.432 15.3406 182.432 14.2188C182.432 13.0969 181.525 12.1875 180.405 12.1875C179.286 12.1875 178.378 13.0969 178.378 14.2188C178.378 15.3406 179.286 16.25 180.405 16.25Z" stroke="#141312" stroke-width="4" stroke-miterlimit="10" stroke-linecap="round" stroke-linejoin="round"/>
        <path d="M60.4054 80.2344L148.378 29.4531" stroke="#141312" stroke-width="6" stroke-miterlimit="10" stroke-linecap="round" stroke-linejoin="round"/>
        <path d="M175.135 112.531L176.149 130.609L133.986 154.984L118.784 145.031" stroke="#141312" stroke-width="6" stroke-miterlimit="10" stroke-linecap="round" stroke-linejoin="round"/>
        <path d="M170.068 134.266C171.486 141.578 168.041 149.5 161.149 153.359C154.257 157.422 145.946 156.406 140.068 151.328" stroke="#141312" stroke-width="6" stroke-miterlimit="10" stroke-linecap="round"/>
        <path d="M94.2567 5.07812C94.4594 11.5781 91.2162 17.875 85.1351 21.3281C79.054 24.7812 71.9594 24.375 66.4865 21.125" stroke="#141312" stroke-width="6" stroke-miterlimit="10" stroke-linecap="round"/>
        <path d="M108.079 24.5479L90.525 34.7041L96.606 45.2585L114.16 35.1022L108.079 24.5479Z" stroke="#141312" stroke-width="6" stroke-miterlimit="10" stroke-linecap="round" stroke-linejoin="round"/>
        <path d="M53.7162 56.0625L76.4189 42.8594L82.5 53.4219L55.7432 68.8594" stroke="#141312" stroke-width="6" stroke-miterlimit="10" stroke-linecap="round" stroke-linejoin="round"/>
        <path d="M81.8919 117.406L60.4054 80.2344C46.4189 55.8594 54.7297 24.9844 79.054 10.9687C103.378 -3.04688 134.189 5.28124 148.378 29.6562L190.946 103.594L103.176 154.375L93.4459 138.125" stroke="#141312" stroke-width="6" stroke-miterlimit="10" stroke-linecap="round" stroke-linejoin="round"/>
        <path d="M186.486 190.938H129.73L137.838 166.562H178.378L186.486 190.938Z" stroke="#141312" stroke-width="6" stroke-miterlimit="10" stroke-linecap="round" stroke-linejoin="round"/>
        <path d="M93.2433 190.938H36.4865L44.5946 166.562H85.1352L93.2433 190.938Z" stroke="#141312" stroke-width="6" stroke-miterlimit="10" stroke-linecap="round" stroke-linejoin="round"/>
        <path d="M166.216 166.562V149.094" stroke="#141312" stroke-width="6" stroke-miterlimit="10" stroke-linecap="round" stroke-linejoin="round"/>
        <path d="M150 166.562V155.797" stroke="#141312" stroke-width="6" stroke-miterlimit="10" stroke-linecap="round" stroke-linejoin="round"/>
        <path d="M115.541 87.3437C121.138 87.3437 125.676 82.7966 125.676 77.1875C125.676 71.5784 121.138 67.0312 115.541 67.0312C109.943 67.0312 105.405 71.5784 105.405 77.1875C105.405 82.7966 109.943 87.3437 115.541 87.3437Z" stroke="#141312" stroke-width="6" stroke-miterlimit="10" stroke-linecap="round" stroke-linejoin="round"/>
        <path d="M14.1892 81.25C19.7867 81.25 24.3243 76.7029 24.3243 71.0937C24.3243 65.4846 19.7867 60.9375 14.1892 60.9375C8.59173 60.9375 4.05408 65.4846 4.05408 71.0937C4.05408 76.7029 8.59173 81.25 14.1892 81.25Z" stroke="#141312" stroke-width="4" stroke-miterlimit="10" stroke-linecap="round" stroke-linejoin="round"/>
        <path d="M46.6216 107.656C46.6216 113.344 42.1622 117.813 36.4865 117.813" stroke="#141312" stroke-width="4" stroke-miterlimit="10" stroke-linecap="round" stroke-linejoin="round"/>
        <path d="M56.7568 117.813C51.0811 117.813 46.6216 113.344 46.6216 107.656" stroke="#141312" stroke-width="4" stroke-miterlimit="10" stroke-linecap="round" stroke-linejoin="round"/>
        <path d="M36.4865 117.812C42.1622 117.812 46.6216 122.281 46.6216 127.969" stroke="#141312" stroke-width="4" stroke-miterlimit="10" stroke-linecap="round" stroke-linejoin="round"/>
        <path d="M46.6216 127.969C46.6216 122.281 51.0811 117.812 56.7568 117.812" stroke="#141312" stroke-width="4" stroke-miterlimit="10" stroke-linecap="round" stroke-linejoin="round"/>
        <path d="M54.7297 166.562L106.824 71.9062" stroke="#141312" stroke-width="6" stroke-miterlimit="10" stroke-linecap="round" stroke-linejoin="round"/>
        <path d="M77.027 166.562L124.054 82.6719" stroke="#141312" stroke-width="6" stroke-miterlimit="10" stroke-linecap="round" stroke-linejoin="round"/>
        <path d="M136.622 65.2031C143.311 76.9844 139.054 91.8125 127.5 98.5156C123.041 100.953 118.378 101.969 113.716 101.563" stroke="#141312" stroke-width="6" stroke-miterlimit="10" stroke-linecap="round" stroke-linejoin="round"/>
    </symbol>

    <symbol id="arr_up" viewBox="0 0 10 10" fill="none" xmlns="http://www.w3.org/2000/svg">
        <path d="M9.5 1C9.5 0.723858 9.27614 0.5 9 0.5L4.5 0.5C4.22386 0.5 4 0.723858 4 1C4 1.27614 4.22386 1.5 4.5 1.5L8.5 1.5L8.5 5.5C8.5 5.77614 8.72386 6 9 6C9.27614 6 9.5 5.77614 9.5 5.5L9.5 1ZM1.35355 9.35355L9.35355 1.35355L8.64645 0.646447L0.646447 8.64645L1.35355 9.35355Z" fill="#141312"/>
    </symbol>

    <symbol id="arrow" viewBox="0 0 21 8" fill="none" xmlns="http://www.w3.org/2000/svg">
        <path d="M20.3536 4.35355C20.5488 4.15829 20.5488 3.84171 20.3536 3.64645L17.1716 0.464466C16.9763 0.269204 16.6597 0.269204 16.4645 0.464466C16.2692 0.659728 16.2692 0.976311 16.4645 1.17157L19.2929 4L16.4645 6.82843C16.2692 7.02369 16.2692 7.34027 16.4645 7.53553C16.6597 7.7308 16.9763 7.7308 17.1716 7.53553L20.3536 4.35355ZM0 4.5H20V3.5H0V4.5Z" fill="#141312"/>
    </symbol>

</svg>